<?xml version="1.0" encoding="UTF-8"?>
<svg version="1.1" xmlns="http://www.w3.org/2000/svg" width="900" height="500">
<path d="M0 0 C297 0 594 0 900 0 C900 165 900 330 900 500 C603 500 306 500 0 500 C0 335 0 170 0 0 Z " fill="#FEFEFE" transform="translate(0,0)"/>
<path d="M0 0 C6.41993958 0.62940584 6.41993958 0.62940584 9.25 2.4375 C12.87794195 4.49883065 16.37742618 4.88305445 20.4765625 5.47265625 C23 6 23 6 26 8 C27.92249447 8.54005913 27.92249447 8.54005913 30.01171875 8.8515625 C30.76904297 8.98046875 31.52636719 9.109375 32.30664062 9.2421875 C33.48516602 9.43167969 33.48516602 9.43167969 34.6875 9.625 C35.48478516 9.7590625 36.28207031 9.893125 37.10351562 10.03125 C39.0679402 10.3606146 41.03383927 10.68116313 43 11 C43.11472656 10.22140625 43.22945312 9.4428125 43.34765625 8.640625 C44.2346795 5.05003985 46.00904369 4.04260431 49 2 C53.87071931 -0.43535965 61.36384329 0.19241548 66.4609375 1.75390625 C69.53851976 3.25732287 71.84795488 4.85995844 74.375 7.1875 C77.21965067 9.15166356 78.1344887 9.22493234 81.46484375 9.390625 C87.3888902 9.89713204 92.61221662 11.56302311 98.1875 13.5625 C99.19272705 13.91892578 100.1979541 14.27535156 101.23364258 14.64257812 C133.80928067 26.5214778 162.01985751 50.61316988 177.00488281 82.11230469 C192.0073192 115.47953255 193.93069814 152.73414155 180.91308594 187.1262207 C167.43317329 220.73112286 140.5613383 246.02099821 107.69921875 260.44921875 C105.47851067 261.34441225 103.2586808 262.20640945 101 263 C101.99 263.7734375 101.99 263.7734375 103 264.5625 C105.66959758 267.81607205 105.38666941 269.90130426 105 274 C104 275 104 275 101.40795898 275.11352539 C100.28204346 275.10828857 99.15612793 275.10305176 97.99609375 275.09765625 C96.78115234 275.09443359 95.56621094 275.09121094 94.31445312 275.08789062 C92.39536133 275.07532227 92.39536133 275.07532227 90.4375 275.0625 C89.15423828 275.05798828 87.87097656 275.05347656 86.54882812 275.04882812 C83.36583978 275.03699545 80.18294238 275.02051068 77 275 C76.95101562 274.00097656 76.90203125 273.00195312 76.8515625 271.97265625 C76.73941406 270.03712891 76.73941406 270.03712891 76.625 268.0625 C76.52058594 266.13083984 76.52058594 266.13083984 76.4140625 264.16015625 C76.20910156 262.59587891 76.20910156 262.59587891 76 261 C75.34 260.67 74.68 260.34 74 260 C73.0393542 254.43651712 72.81961684 248.92056722 72.71875 243.28515625 C72.70034058 242.47114853 72.68193115 241.65714081 72.66296387 240.81846619 C72.60478323 238.23321063 72.55184832 235.64788973 72.5 233.0625 C72.24710448 220.68598226 71.82464798 208.35270637 71 196 C70.22253418 196.85432617 69.44506836 197.70865234 68.64404297 198.58886719 C58.63148236 209.57626152 48.39752669 220.43095353 37 230 C35.26554257 231.48445521 33.53425337 232.97256793 31.80273438 234.46044922 C29.4543535 236.47747478 27.1052661 238.49345585 24.74169922 240.49267578 C23.53328797 241.53847492 22.34864313 242.61212484 21.18408203 243.70654297 C16.56251621 247.96808419 16.56251621 247.96808419 13.24609375 248.15625 C12.50488281 248.1046875 11.76367188 248.053125 11 248 C9.31117171 249.44384173 9.31117171 249.44384173 8.0625 251.5 C6.07274075 254.43065316 4.02578504 257.16177696 1.75 259.875 C-1.55152013 264.21364688 -2.36630443 268.66821659 -3 274 C-5.97 274 -8.94 274 -12 274 C-12.64995297 272.58521865 -13.29478722 271.16808513 -13.9375 269.75 C-14.29714844 268.96109375 -14.65679687 268.1721875 -15.02734375 267.359375 C-18.82463304 258.14827968 -16.65070421 250.86599593 -13 242 C-13.66 242 -14.32 242 -15 242 C-14.00956295 237.16371695 -13.04301154 232.52381127 -11 228 C-9.80375 228.061875 -8.6075 228.12375 -7.375 228.1875 C0.46279936 227.30298346 6.3007179 221.00481865 12 216 C12.55236328 215.52062988 13.10472656 215.04125977 13.67382812 214.54736328 C20.9175681 208.21671809 27.58484494 201.43669207 33.98046875 194.25097656 C36.88142565 191.04292075 39.75520216 188.35471379 43.28125 185.8359375 C48.50316639 182.04467455 49.41066722 178.13586671 51 172 C51.22880859 171.15083008 51.45761719 170.30166016 51.69335938 169.42675781 C52.47189752 166.49973457 53.21082554 163.56530682 53.9375 160.625 C54.31007935 159.17963867 54.31007935 159.17963867 54.69018555 157.70507812 C56.06352748 152.32248653 56.06352748 152.32248653 54.7109375 147.12109375 C54.14632812 146.42113281 53.58171875 145.72117187 53 145 C50.36643437 137.58747626 50.78151328 130.47080144 53 123 C53.99132768 120.93342272 55.03433664 118.89091807 56.125 116.875 C59.0585742 111.32499475 60.25967862 107.21315169 59 101 C54.60562433 87.05666454 46.17938208 73.91374693 34.89453125 64.60546875 C33 63 33 63 31.15234375 60.8671875 C28.35907174 58.44398601 26.39900301 58.31364131 22.75 57.9375 C9.08864721 56.18761886 9.08864721 56.18761886 5 51 C3.91617971 46.93452483 3.87554296 43.02828978 3.859375 38.8359375 C3.8410654 37.45310828 3.82149683 36.07029526 3.80078125 34.6875 C3.77171084 32.52347933 3.74999675 30.36051848 3.74951172 28.19628906 C3.74618407 26.09606559 3.71171547 23.99824423 3.671875 21.8984375 C3.6625293 20.64724121 3.65318359 19.39604492 3.64355469 18.10693359 C3.31735439 14.81156272 3.31735439 14.81156272 0.52050781 13.13134766 C-0.72714355 12.57133057 -0.72714355 12.57133057 -2 12 C-3 11 -3 11 -3.25 7.6875 C-2.99337817 3.90232794 -2.56295176 2.66974142 0 0 Z " fill="#B2B4B6" transform="translate(90,113)"/>
<path d="M0 0 C6.41993958 0.62940584 6.41993958 0.62940584 9.25 2.4375 C12.87794195 4.49883065 16.37742618 4.88305445 20.4765625 5.47265625 C23 6 23 6 26 8 C27.92249447 8.54005913 27.92249447 8.54005913 30.01171875 8.8515625 C30.76904297 8.98046875 31.52636719 9.109375 32.30664062 9.2421875 C33.48516602 9.43167969 33.48516602 9.43167969 34.6875 9.625 C35.48478516 9.7590625 36.28207031 9.893125 37.10351562 10.03125 C39.0679402 10.3606146 41.03383927 10.68116313 43 11 C43.11472656 10.22140625 43.22945312 9.4428125 43.34765625 8.640625 C44.2346795 5.05003985 46.00904369 4.04260431 49 2 C53.87071931 -0.43535965 61.36384329 0.19241548 66.4609375 1.75390625 C69.53851976 3.25732287 71.84795488 4.85995844 74.375 7.1875 C78.29580879 9.89472511 82.33026995 9.81865126 87 10 C87 14 87 14 85.46875 15.703125 C84.8190625 16.21359375 84.169375 16.7240625 83.5 17.25 C82.52546875 18.03117187 82.52546875 18.03117187 81.53125 18.828125 C80.77328125 19.40820312 80.77328125 19.40820312 80 20 C80.495 20.928125 80.495 20.928125 81 21.875 C82 24 82 24 82 26 C83.68805632 27.66877721 83.68805632 27.66877721 85.8125 29.375 C89.64245412 32.5422116 92.40651106 35.21953319 94 40 C94.39714181 47.14855262 93.20109984 53.96498663 92 61 C92.50402344 61.23332031 93.00804687 61.46664062 93.52734375 61.70703125 C96.9896695 63.5175049 100.25780614 65.60620636 103.5625 67.6875 C104.27124268 68.12868164 104.97998535 68.56986328 105.71020508 69.02441406 C108.95786081 71.0520393 112.17816002 73.09690614 115.3203125 75.28515625 C116.26648438 75.93355469 117.21265625 76.58195312 118.1875 77.25 C119.00605469 77.83265625 119.82460937 78.4153125 120.66796875 79.015625 C123.01737946 80.29460221 123.01737946 80.29460221 125.6484375 79.2421875 C126.42445313 78.83226562 127.20046875 78.42234375 128 78 C131.85441437 76.22103952 134.73935093 75.46741887 139 76 C141.875 77.5625 141.875 77.5625 144 80 C144.67701242 84.13729813 144.4413451 86.21915866 142.375 89.875 C140 92 140 92 137.25 93.1875 C131.73178531 92.86914146 128.33129169 89.18639493 124.41699219 85.51538086 C118.45877466 80.05472292 111.83313898 75.83880403 105 71.5625 C103.831632 70.82419914 102.66366028 70.08527079 101.49609375 69.34570312 C98.66788107 67.55761825 95.83585831 65.77592433 93 64 C93.20496094 65.19496094 93.40992188 66.38992187 93.62109375 67.62109375 C93.8933624 69.22653991 94.16549026 70.83200995 94.4375 72.4375 C94.57220703 73.22060547 94.70691406 74.00371094 94.84570312 74.81054688 C94.97783203 75.59365234 95.10996094 76.37675781 95.24609375 77.18359375 C95.36654053 77.89056396 95.4869873 78.59753418 95.61108398 79.32592773 C96.89965198 88.18574269 97.14325653 96.82345924 97.12939453 105.76855469 C97.13075182 107.24630781 97.13253359 108.72406059 97.13470459 110.20181274 C97.13924155 114.1937694 97.13750437 118.18570005 97.1343255 122.17765713 C97.13178063 126.37293502 97.13414552 130.56821079 97.13571167 134.76348877 C97.13752797 141.81107988 97.13514204 148.85866049 97.13037109 155.90625 C97.12493797 164.02514387 97.1266864 172.14401258 97.1321975 180.26290584 C97.13675412 187.25856386 97.1373665 194.25421437 97.13475883 201.2498734 C97.13320895 205.41685856 97.13296647 209.58383196 97.13629532 213.75081635 C97.13921091 217.67429641 97.13713146 221.5977445 97.13140106 225.52122116 C97.1300927 226.95094373 97.1304343 228.38066904 97.13266373 229.81039047 C97.14385103 237.72201953 96.90078475 245.48910276 96.05627251 253.35948563 C95.79847417 256.2326739 95.79847417 256.2326739 97.6171875 259.421875 C98.36226563 260.19015625 99.10734375 260.9584375 99.875 261.75 C100.61492187 262.54921875 101.35484375 263.3484375 102.1171875 264.171875 C103.04917969 265.07679688 103.04917969 265.07679688 104 266 C105 267 105 267 105.125 270.5 C105 274 105 274 104 275 C102.00035018 275.08758003 99.9976389 275.10696576 97.99609375 275.09765625 C96.78115234 275.09443359 95.56621094 275.09121094 94.31445312 275.08789062 C92.39536133 275.07532227 92.39536133 275.07532227 90.4375 275.0625 C89.15423828 275.05798828 87.87097656 275.05347656 86.54882812 275.04882812 C83.36583978 275.03699545 80.18294238 275.02051068 77 275 C76.95101562 274.00097656 76.90203125 273.00195312 76.8515625 271.97265625 C76.73941406 270.03712891 76.73941406 270.03712891 76.625 268.0625 C76.52058594 266.13083984 76.52058594 266.13083984 76.4140625 264.16015625 C76.20910156 262.59587891 76.20910156 262.59587891 76 261 C75.34 260.67 74.68 260.34 74 260 C73.0393542 254.43651712 72.81961684 248.92056722 72.71875 243.28515625 C72.70034058 242.47114853 72.68193115 241.65714081 72.66296387 240.81846619 C72.60478323 238.23321063 72.55184832 235.64788973 72.5 233.0625 C72.24710448 220.68598226 71.82464798 208.35270637 71 196 C70.22253418 196.85432617 69.44506836 197.70865234 68.64404297 198.58886719 C58.63148236 209.57626152 48.39752669 220.43095353 37 230 C35.26554257 231.48445521 33.53425337 232.97256793 31.80273438 234.46044922 C29.4543535 236.47747478 27.1052661 238.49345585 24.74169922 240.49267578 C23.53328797 241.53847492 22.34864313 242.61212484 21.18408203 243.70654297 C16.56251621 247.96808419 16.56251621 247.96808419 13.24609375 248.15625 C12.50488281 248.1046875 11.76367188 248.053125 11 248 C9.31117171 249.44384173 9.31117171 249.44384173 8.0625 251.5 C6.07274075 254.43065316 4.02578504 257.16177696 1.75 259.875 C-1.55152013 264.21364688 -2.36630443 268.66821659 -3 274 C-5.97 274 -8.94 274 -12 274 C-12.64995297 272.58521865 -13.29478722 271.16808513 -13.9375 269.75 C-14.29714844 268.96109375 -14.65679687 268.1721875 -15.02734375 267.359375 C-18.82463304 258.14827968 -16.65070421 250.86599593 -13 242 C-13.66 242 -14.32 242 -15 242 C-14.00956295 237.16371695 -13.04301154 232.52381127 -11 228 C-9.80375 228.061875 -8.6075 228.12375 -7.375 228.1875 C0.46279936 227.30298346 6.3007179 221.00481865 12 216 C12.55236328 215.52062988 13.10472656 215.04125977 13.67382812 214.54736328 C20.9175681 208.21671809 27.58484494 201.43669207 33.98046875 194.25097656 C36.88142565 191.04292075 39.75520216 188.35471379 43.28125 185.8359375 C48.50316639 182.04467455 49.41066722 178.13586671 51 172 C51.22880859 171.15083008 51.45761719 170.30166016 51.69335938 169.42675781 C52.47189752 166.49973457 53.21082554 163.56530682 53.9375 160.625 C54.31007935 159.17963867 54.31007935 159.17963867 54.69018555 157.70507812 C56.06352748 152.32248653 56.06352748 152.32248653 54.7109375 147.12109375 C54.14632812 146.42113281 53.58171875 145.72117187 53 145 C50.36643437 137.58747626 50.78151328 130.47080144 53 123 C53.99132768 120.93342272 55.03433664 118.89091807 56.125 116.875 C59.0585742 111.32499475 60.25967862 107.21315169 59 101 C54.60562433 87.05666454 46.17938208 73.91374693 34.89453125 64.60546875 C33 63 33 63 31.15234375 60.8671875 C28.35907174 58.44398601 26.39900301 58.31364131 22.75 57.9375 C9.08864721 56.18761886 9.08864721 56.18761886 5 51 C3.91617971 46.93452483 3.87554296 43.02828978 3.859375 38.8359375 C3.8410654 37.45310828 3.82149683 36.07029526 3.80078125 34.6875 C3.77171084 32.52347933 3.74999675 30.36051848 3.74951172 28.19628906 C3.74618407 26.09606559 3.71171547 23.99824423 3.671875 21.8984375 C3.6625293 20.64724121 3.65318359 19.39604492 3.64355469 18.10693359 C3.31735439 14.81156272 3.31735439 14.81156272 0.52050781 13.13134766 C-0.72714355 12.57133057 -0.72714355 12.57133057 -2 12 C-3 11 -3 11 -3.25 7.6875 C-2.99337817 3.90232794 -2.56295176 2.66974142 0 0 Z " fill="#0C407E" transform="translate(90,113)"/>
<path d="M0 0 C9.88692522 8.08311442 16.52717592 19.23627482 20.58203125 31.23046875 C20.82695313 31.95234375 21.071875 32.67421875 21.32421875 33.41796875 C24.43633992 44.67276312 23.20423825 57.30139591 19.58203125 68.23046875 C19.30359375 69.0915625 19.02515625 69.95265625 18.73828125 70.83984375 C13.58944684 85.13229787 2.25977178 97.59562684 -11.07421875 104.7265625 C-26.85407448 111.8238107 -43.34127281 114.12642748 -60.04296875 108.6171875 C-74.54584932 102.6582493 -86.15845379 93.71584305 -94.41796875 80.23046875 C-94.80597656 79.62074219 -95.19398438 79.01101563 -95.59375 78.3828125 C-102.75595708 65.80055682 -104.85549955 48.27875983 -101.10546875 34.3984375 C-100.87859375 33.68300781 -100.65171875 32.96757812 -100.41796875 32.23046875 C-100.14984375 31.36035156 -99.88171875 30.49023438 -99.60546875 29.59375 C-94.19101755 13.41807704 -83.79145972 0.90851461 -68.76171875 -7.203125 C-45.21285791 -18.60537515 -20.8238873 -15.23945226 0 0 Z " fill="#0D417F" transform="translate(573.41796875,272.76953125)"/>
<path d="M0 0 C3.20798914 2.65881354 4.47076071 4.74138323 5.30859375 8.80078125 C5.40186078 10.24891759 5.44747511 11.7005899 5.45576477 13.15170288 C5.46292007 14.01518845 5.47007538 14.87867401 5.47744751 15.76832581 C5.48013641 16.7076445 5.48282532 17.6469632 5.4855957 18.61474609 C5.4921669 19.61031021 5.4987381 20.60587433 5.50550842 21.63160706 C5.52521394 24.9249784 5.53689637 28.21830426 5.546875 31.51171875 C5.55095053 32.63691547 5.55502605 33.7621122 5.55922508 34.92140579 C5.58007153 40.87403428 5.59438089 46.82663979 5.60375977 52.77929688 C5.61483662 58.92857551 5.64925563 65.07749354 5.68893147 71.22664452 C5.71506193 75.9552783 5.72344832 80.68382554 5.72704124 85.41252518 C5.7319144 87.6795356 5.743549 89.94654198 5.76207924 92.2134819 C5.78639978 95.3852894 5.78551859 98.55615535 5.77856445 101.72802734 C5.79137451 102.66329758 5.80418457 103.59856781 5.81738281 104.56217957 C5.77164145 110.2874123 5.03838977 113.39605673 1.30859375 117.80078125 C-1.69659105 120.16199788 -4.95629063 120.21938762 -8.7265625 120.12109375 C-11.89446058 119.60465708 -13.5309556 118.08831723 -15.69140625 115.80078125 C-17.38994883 112.95067731 -17.93885202 110.88699544 -17.91845703 107.58300781 C-17.91821533 106.7510791 -17.91797363 105.91915039 -17.91772461 105.06201172 C-17.90749268 104.19721191 -17.89726074 103.33241211 -17.88671875 102.44140625 C-17.88470459 101.63944824 -17.88269043 100.83749023 -17.88061523 100.01123047 C-17.87017556 97.02435562 -17.84225296 94.03756251 -17.81640625 91.05078125 C-17.77515625 84.36828125 -17.73390625 77.68578125 -17.69140625 70.80078125 C-40.13140625 71.13078125 -62.57140625 71.46078125 -85.69140625 71.80078125 C-89.79005835 82.03541779 -89.79005835 82.03541779 -92.44140625 92.30078125 C-92.67601562 93.54730469 -92.910625 94.79382813 -93.15234375 96.078125 C-93.67555413 99.6913097 -93.90881999 103.21806225 -94.06640625 106.86328125 C-94.29718386 110.8552429 -94.5741991 113.41512028 -97.12890625 116.55078125 C-100.66559221 119.65616404 -102.83389844 120.19477949 -107.5859375 120.16015625 C-111.30734078 119.52496311 -113.09453474 117.46099109 -115.69140625 114.80078125 C-120.88088635 104.42182105 -115.77439479 85.27531103 -112.47265625 74.73828125 C-107.57634989 60.29707626 -100.01705089 47.03275207 -89.69140625 35.80078125 C-89.22250977 35.28418945 -88.75361328 34.76759766 -88.27050781 34.23535156 C-70.1646116 14.48879161 -28.1827376 -12.55747525 0 0 Z " fill="#0D407F" transform="translate(736.69140625,123.19921875)"/>
<path d="M0 0 C1.30055328 -0.00287018 2.60110657 -0.00574036 3.94107056 -0.00869751 C6.66899534 -0.01307851 9.39662203 -0.00682221 12.12451172 0.00732422 C15.60789034 0.02451699 19.09058038 0.01448555 22.57393456 -0.00339317 C25.92434438 -0.0168647 29.27457067 -0.00742681 32.625 0 C33.86881439 -0.00607269 35.11262878 -0.01214539 36.39413452 -0.0184021 C43.33459319 0.03807721 48.34722433 0.30717776 53.7890625 5.0234375 C55.56304737 8.76851666 55.57396679 12.33748805 54.9140625 16.3984375 C52.76838611 20.00010858 50.76991481 21.85883805 46.9140625 23.3984375 C44.24269104 23.64326477 44.24269104 23.64326477 41.15844727 23.63793945 C39.41997276 23.6435363 39.41997276 23.6435363 37.64637756 23.64924622 C36.39537766 23.64511215 35.14437775 23.64097809 33.85546875 23.63671875 C31.87549211 23.64819529 29.89551515 23.6597023 27.91554928 23.67290783 C23.04695952 23.70297725 18.17848301 23.71387025 13.30981445 23.70385742 C10.57934515 23.69909486 7.84950581 23.70777203 5.11912537 23.73027039 C2.55692014 23.7506637 -0.0055352 23.75200278 -2.56773376 23.73078918 C-14.94664328 23.86827954 -25.03277154 27.2761219 -33.9921875 35.98828125 C-37.04296913 39.50009518 -39.15405522 43.18854403 -41.0859375 47.3984375 C-41.74996879 48.73308527 -42.41628547 50.06660103 -43.0859375 51.3984375 C-41.95920624 51.38733444 -40.83247498 51.37623138 -39.67160034 51.36479187 C-29.04850241 51.26339339 -18.42550279 51.18846116 -7.80203056 51.13937664 C-2.34047131 51.11329321 3.12069699 51.07791744 8.58203125 51.02124023 C13.85347201 50.96687665 19.12453695 50.93700753 24.39623642 50.92405128 C26.40650219 50.91481928 28.41674759 50.89679108 30.42685318 50.86978722 C33.24481756 50.83343928 36.0612331 50.82849457 38.87939453 50.83081055 C39.70874008 50.81283417 40.53808563 50.79485779 41.39256287 50.77633667 C45.54365026 50.81320245 48.12995547 51.15482643 51.41622925 53.80891418 C55.46926415 58.01072724 55.31830843 61.23511493 55.36938477 66.95776367 C55.0773249 79.34487979 49.69644538 90.94840114 41.9140625 100.3984375 C41.26050781 101.30916016 41.26050781 101.30916016 40.59375 102.23828125 C31.76336552 113.89756136 16.0725424 121.02953268 1.9140625 123.3984375 C-0.1026974 123.51131369 -2.12240386 123.57668078 -4.14208984 123.60717773 C-5.9395314 123.63611366 -5.9395314 123.63611366 -7.77328491 123.66563416 C-13.22903865 123.72356596 -18.68464837 123.77290164 -24.140625 123.8034668 C-27.01770553 123.82128834 -29.89380744 123.85613315 -32.77050781 123.90600586 C-36.25827085 123.96637946 -39.74512638 123.99696325 -43.23338699 124.00663948 C-45.19605053 124.01928434 -47.15845472 124.06128484 -49.12069702 124.10386658 C-59.07839751 124.08093139 -59.07839751 124.08093139 -63.38208008 120.50390625 C-66.43724863 117.3728973 -67.30910754 114.99147612 -67.5 110.65234375 C-66.75334914 106.58802729 -64.15775364 104.01142541 -61.0859375 101.3984375 C-58.45015604 100.08054677 -56.46161081 100.2593151 -53.50976562 100.24072266 C-52.34094849 100.23046051 -51.17213135 100.22019836 -49.96789551 100.20962524 C-48.69716187 100.20232391 -47.42642822 100.19502258 -46.1171875 100.1875 C-44.12236928 100.16661354 -42.12755108 100.14570943 -40.13274384 100.12380028 C-35.21031035 100.07072507 -30.28786606 100.02662323 -25.36523438 99.99707031 C-22.60854354 99.98007663 -19.85212583 99.95528322 -17.09558105 99.92221069 C-14.50235077 99.89143742 -11.90895591 99.8718672 -9.31555176 99.86514282 C2.65992043 99.69899077 11.76029692 97.35422705 20.9140625 89.3984375 C25.55374686 84.46223196 28.29187461 79.63676207 30.9140625 73.3984375 C29.25821892 73.40843025 29.25821892 73.40843025 27.56892395 73.41862488 C17.1661985 73.47943764 6.76350912 73.52441098 -3.63935375 73.55387402 C-8.98759049 73.56953046 -14.33568374 73.59076854 -19.68383789 73.62475586 C-24.84502384 73.65734977 -30.00607175 73.67529067 -35.16735268 73.68306923 C-37.13654058 73.68861266 -39.10572093 73.69943758 -41.07485008 73.71562767 C-43.83286241 73.73740225 -46.59030423 73.7404044 -49.34838867 73.73901367 C-50.16262802 73.7497995 -50.97686737 73.76058533 -51.81578064 73.771698 C-56.43743023 73.74647791 -59.41367223 73.26646431 -63.0859375 70.3984375 C-66.86610733 66.20960066 -67.71970955 62.88874849 -67.46484375 57.4296875 C-65.16131824 39.0014834 -57.20916119 24.57814044 -42.7734375 12.6484375 C-29.65754792 2.99368545 -16.05248303 -0.0791461 0 0 Z " fill="#0E417F" transform="translate(513.0859375,120.6015625)"/>
<path d="M0 0 C0.87205078 -0.03738281 1.74410156 -0.07476562 2.64257812 -0.11328125 C7.03894938 -0.17318638 10.00185932 -0.06321806 13.49609375 2.7734375 C16.52479119 6.00081749 17.06150571 7.33301032 17.07794189 11.60603333 C17.08365204 12.49345718 17.08936218 13.38088104 17.09524536 14.29519653 C17.09692215 15.75939529 17.09692215 15.75939529 17.09863281 17.25317383 C17.10608017 18.79238243 17.10608017 18.79238243 17.11367798 20.36268616 C17.12832455 23.76914126 17.13510592 27.17554979 17.140625 30.58203125 C17.14637459 32.94374086 17.15213235 35.30545046 17.15789795 37.66716003 C17.16841518 42.62454446 17.17425305 47.58191263 17.17773438 52.53930664 C17.18321923 58.89493691 17.20724424 65.25035295 17.23570633 71.60591602 C17.25432073 76.48634978 17.25953769 81.36673184 17.26107025 86.2471981 C17.26410023 88.59038145 17.27214034 90.93356382 17.28525543 93.27671242 C17.30228981 96.55418865 17.30044179 99.83114017 17.29394531 103.10864258 C17.3031601 104.07870239 17.31237488 105.04876221 17.3218689 106.04821777 C17.29126405 110.97147518 17.19030202 114.40251969 13.9375 118.375 C10.43170487 121.27980168 7.31585379 121.95592697 2.87109375 121.8046875 C-0.44443058 121.06790432 -2.03374207 118.95705555 -4.0625 116.375 C-5.19269427 114.11461146 -5.21518957 112.80381174 -5.26782227 110.29248047 C-5.28800415 109.44000732 -5.30818604 108.58753418 -5.32897949 107.70922852 C-5.35369324 106.36429321 -5.35369324 106.36429321 -5.37890625 104.9921875 C-5.39755737 104.16855713 -5.4162085 103.34492676 -5.4354248 102.49633789 C-5.50381619 99.41433626 -5.56390504 96.33215491 -5.625 93.25 C-5.769375 86.36125 -5.91375 79.4725 -6.0625 72.375 C-39.2275 71.88 -39.2275 71.88 -73.0625 71.375 C-74.0525 74.345 -75.0425 77.315 -76.0625 80.375 C-76.578125 81.839375 -77.09375 83.30375 -77.625 84.8125 C-80.39287936 93.21757869 -81.3144407 101.34219508 -81.62109375 110.17578125 C-82.23868424 114.65194594 -83.7881889 117.31914223 -87.25 120.1875 C-90.95429697 121.7515365 -94.16831273 122.41964183 -98.0625 121.375 C-101.35363658 118.96887494 -103.66466807 116.03191014 -104.62231445 112.04345703 C-104.83798671 109.37663171 -104.84233536 106.79896617 -104.75 104.125 C-104.72929443 103.15844482 -104.70858887 102.19188965 -104.68725586 101.19604492 C-103.63356836 74.33471275 -89.97116553 49.03729855 -71.0625 30.375 C-51.46352686 12.32186136 -26.81606375 0.4379758 0 0 Z " fill="#0C3F7E" transform="translate(412.0625,121.625)"/>
<path d="M0 0 C4.4275578 2.34400119 6.79518473 4.53233683 9 9 C9.37181091 11.8430481 9.37181091 11.8430481 9.36889648 14.99267578 C9.37577988 16.17805939 9.38266327 17.36344299 9.38975525 18.58474731 C9.38359695 19.85873383 9.37743866 21.13272034 9.37109375 22.4453125 C9.37779585 23.77946003 9.38637768 25.1135993 9.39674377 26.44772339 C9.43665425 32.0927392 9.43806211 37.73767895 9.43579102 43.3828125 C9.43573944 46.84473391 9.45514417 50.30615643 9.48512459 53.76794052 C9.495807 55.70579421 9.48386434 57.64373109 9.47129822 59.58157349 C9.5707837 71.52013091 12.4316653 81.38126333 21 90 C31.85704141 98.64402077 42.29502636 101.19884461 56 100 C66.24164225 97.24354872 76.20091069 91.06860553 82 82 C85.20793967 74.87693907 87.10711986 68.0090927 87.15771484 60.1875 C87.17310806 58.47046875 87.17310806 58.47046875 87.18881226 56.71875 C87.19611359 55.4915625 87.20341492 54.264375 87.2109375 53 C87.23899472 50.39582693 87.2676591 47.79166033 87.296875 45.1875 C87.33933281 41.08597149 87.37615798 36.98448493 87.40136719 32.8828125 C87.42636017 28.92165871 87.47478748 24.9609355 87.5234375 21 C87.52669037 19.7728125 87.52994324 18.545625 87.53329468 17.28125 C87.55814438 15.56421875 87.55814438 15.56421875 87.58349609 13.8125 C87.59158295 12.80832031 87.5996698 11.80414063 87.60800171 10.76953125 C88.06885692 7.51351471 89.06959048 5.6436062 91 3 C94.39058444 0.68823788 96.38385088 0 100.5 0 C104.90458485 1.25845281 106.77448102 2.77448102 110 6 C111.03706715 9.11120144 111.13896447 11.30236385 111.16113281 14.56616211 C111.17074036 15.70842758 111.1803479 16.85069305 111.19024658 18.02757263 C111.19449646 19.2649971 111.19874634 20.50242157 111.203125 21.77734375 C111.20882507 23.05420547 111.21452515 24.3310672 111.22039795 25.6466217 C111.23090531 28.35597124 111.2367478 31.06529117 111.24023438 33.7746582 C111.2456788 37.21392386 111.26961938 40.6527855 111.29820633 44.09192562 C111.32155744 47.40372208 111.32329899 50.71546943 111.328125 54.02734375 C111.3404718 55.24655014 111.3528186 56.46575653 111.36553955 57.72190857 C111.3173033 76.53736298 104.60889075 93.09935968 91.6875 106.75 C79.08926525 118.8374955 62.27015858 124.61498785 45.03125 124.3046875 C27.88611102 123.29565938 12.67246044 115.55103273 1 103 C-10.6020829 88.98650379 -14.48339986 73.32950529 -14.3984375 55.44140625 C-14.40046475 54.08047836 -14.40338157 52.71955154 -14.40713501 51.35862732 C-14.41151733 48.53235337 -14.40525444 45.70636705 -14.39111328 42.88012695 C-14.37390758 39.26662225 -14.38395918 35.65378066 -14.40183067 32.04029942 C-14.41268226 29.24095168 -14.40921794 26.44176088 -14.4014473 23.64240837 C-14.39849213 21.6654555 -14.40755276 19.68849638 -14.4168396 17.71156311 C-14.40738312 16.50938644 -14.39792664 15.30720978 -14.38818359 14.06860352 C-14.38579681 13.01447769 -14.38341003 11.96035187 -14.38095093 10.87428284 C-13.80213534 6.50710696 -12.12804314 3.88414192 -8.6875 1.1875 C-5.42414686 -0.25444674 -3.53748596 -0.50535514 0 0 Z " fill="#0E417F" transform="translate(620,260)"/>
<path d="M0 0 C23.58950649 8.08339819 45.45875977 23.52428885 58.59057617 45.05029297 C59.25702148 46.11892578 59.9234668 47.18755859 60.61010742 48.28857422 C65.41595572 56.2002201 68.83806484 64.18327431 71.59057617 73.05029297 C71.97213867 74.27490234 72.35370117 75.49951172 72.74682617 76.76123047 C75.72682128 86.74421407 79.51359275 99.91734011 75.83666992 110.14794922 C73.98568282 113.10226982 71.93840431 115.12034071 68.59057617 116.05029297 C61.58517077 116.82867135 61.58517077 116.82867135 57.71557617 113.80029297 C54.61883281 109.79274274 53.37797007 106.87390516 52.87963867 101.83154297 C52.71782104 100.31838501 52.71782104 100.31838501 52.55273438 98.7746582 C52.44147217 97.71061768 52.33020996 96.64657715 52.21557617 95.55029297 C49.90631044 75.80395305 43.04273816 59.82321268 29.59057617 45.05029297 C29.0053418 44.39544922 28.42010742 43.74060547 27.81713867 43.06591797 C14.77752786 29.23046236 -4.02488375 21.60326027 -22.40942383 18.05029297 C-22.40054138 19.16449615 -22.39165894 20.27869934 -22.38250732 21.42666626 C-22.30138563 31.93206746 -22.24144111 42.43740502 -22.20217514 52.94304848 C-22.18130934 58.34400115 -22.15300976 63.74470077 -22.10766602 69.14550781 C-22.06417284 74.35858011 -22.04027914 79.57140915 -22.02991486 84.7846489 C-22.02252976 86.77256474 -22.00810834 88.76046742 -21.9865036 90.74827957 C-21.95742365 93.53495194 -21.95346976 96.32062193 -21.95532227 99.10742188 C-21.93375061 100.33741409 -21.93375061 100.33741409 -21.91174316 101.59225464 C-21.94971491 106.87867295 -22.93773345 109.83452347 -26.40942383 114.05029297 C-29.41460863 116.4115096 -32.67430821 116.46889934 -36.44458008 116.37060547 C-39.61247816 115.8541688 -41.24897318 114.33782895 -43.40942383 112.05029297 C-45.16027015 109.12890277 -45.66311343 106.97482997 -45.68357849 103.58547974 C-45.69355362 102.69675171 -45.70352875 101.80802368 -45.71380615 100.8923645 C-45.71447083 99.92499359 -45.7151355 98.95762268 -45.71582031 97.9609375 C-45.72414383 96.93611267 -45.73246735 95.91128784 -45.74104309 94.85540771 C-45.76515608 91.46460176 -45.77391662 88.07398809 -45.78051758 84.68310547 C-45.78948246 82.32664939 -45.79860428 79.9701939 -45.80787659 77.61373901 C-45.82437236 72.67249162 -45.83206787 67.73131203 -45.83496094 62.79003906 C-45.8403472 56.45904826 -45.87803567 50.12869474 -45.9237051 43.79788399 C-45.95344876 38.930264 -45.96068391 34.06279803 -45.96168709 29.19509506 C-45.96589421 26.86109369 -45.97834807 24.52709206 -45.99920464 22.19318008 C-46.02606359 18.92778907 -46.02130911 15.66388262 -46.00878906 12.3984375 C-46.02362335 11.43511505 -46.03845764 10.4717926 -46.05374146 9.47927856 C-46.00524729 5.03712281 -45.84836672 2.00085484 -42.9969635 -1.53396606 C-33.37627513 -10.51589252 -11.2719908 -3.64520297 0 0 Z " fill="#0D417F" transform="translate(804.409423828125,126.94970703125)"/>
<path d="M0 0 C6.22243482 2.26315181 11.39700979 6.0322105 16.875 9.6875 C17.93847656 10.38294922 19.00195312 11.07839844 20.09765625 11.79492188 C25.40792455 15.3274047 30.2260252 18.78861335 34.49829102 23.54736328 C36.21113111 25.20423185 37.93392346 26.13442032 40.0625 27.1875 C49.38531643 32.7847894 51.98732019 47.01904125 54.54638672 56.97070312 C59.55069807 79.3581283 54.72600585 103.39803677 42.7578125 122.77734375 C40.66117712 125.97550861 38.37270851 129.00045893 36 132 C35.37609375 132.80566406 34.7521875 133.61132812 34.109375 134.44140625 C26.2835507 143.89487048 16.16942077 151.05315706 5 156 C4.16153349 142.12764723 3.84459739 128.29839719 3.80076981 114.4020443 C3.78871733 110.91176102 3.76920895 107.42158763 3.74765015 103.93135071 C3.68688205 94.02303828 3.63214558 84.11474449 3.59863281 74.20629883 C3.57745148 68.10116771 3.54198335 61.99625148 3.49787521 55.89124489 C3.48391958 53.59646981 3.47504025 51.30165691 3.47182083 49.00684166 C3.44931492 34.50924781 2.51822848 20.49328384 0.26782799 6.16256428 C0 4 0 4 0 0 Z " fill="#FDFDFD" transform="translate(183,177)"/>
<path d="M0 0 C8.63238688 6.85604734 14.47293243 14.54704228 16.1640625 25.71875 C17.10036496 39.45718807 14.28755711 49.00630546 5.60546875 59.625 C-1.36776523 67.25040694 -9.93143777 71.29784263 -20.16796875 71.921875 C-32.39092024 72.08649388 -41.21265896 69.54209279 -50.8359375 61.71875 C-60.14768425 51.28713914 -63.38567192 41.36328874 -63.11328125 27.51171875 C-62.72885987 22.25435034 -61.36845493 18.30252765 -58.8359375 13.71875 C-58.41183594 12.93886719 -57.98773438 12.15898437 -57.55078125 11.35546875 C-52.30273906 2.6574601 -43.47511265 -4.34891227 -33.51953125 -6.8671875 C-21.24794016 -8.76062077 -10.13141175 -7.30320847 0 0 Z " fill="#FDFDFE" transform="translate(556.8359375,289.28125)"/>
<path d="M0 0 C1.01521729 -0.00525696 2.03043457 -0.01051392 3.07641602 -0.01593018 C6.42943752 -0.02912438 9.7819835 -0.02039321 13.13500977 -0.01025391 C15.46761669 -0.01227496 17.800223 -0.01518666 20.13282776 -0.01895142 C25.02106747 -0.02337413 29.90914269 -0.01694582 34.79736328 -0.00292969 C41.05980512 0.01415247 47.32186096 0.00432653 53.5842886 -0.01364708 C58.40130006 -0.0244943 63.21822022 -0.02103405 68.03523445 -0.0132637 C70.34408679 -0.01126381 72.65294745 -0.01371355 74.96179008 -0.02070236 C78.19089544 -0.02833098 81.41937842 -0.01669178 84.6484375 0 C85.60083817 -0.00607269 86.55323883 -0.01214539 87.53450012 -0.0184021 C93.63503229 0.03994363 97.9981379 0.88284256 102.76391602 5.01318359 C104.53790088 8.75826275 104.5488203 12.32723414 103.88891602 16.38818359 C101.73360397 20.00602881 99.72824627 21.78718409 95.88891602 23.38818359 C93.85137939 23.62869263 93.85137939 23.62869263 91.67114258 23.61523438 C90.44031952 23.61500778 90.44031952 23.61500778 89.18463135 23.61477661 C87.87036163 23.59929276 87.87036163 23.59929276 86.52954102 23.58349609 C85.62516296 23.5806662 84.72078491 23.5778363 83.78900146 23.57492065 C80.90550406 23.56374141 78.02231926 23.53864093 75.13891602 23.51318359 C73.18188926 23.50315088 71.22485762 23.49402554 69.26782227 23.48583984 C64.47473339 23.46380945 59.68187768 23.42929504 54.88891602 23.38818359 C54.89890877 25.07828049 54.89890877 25.07828049 54.90910339 26.80252075 C54.96994282 37.42567756 55.01490232 48.04879897 55.04435253 58.67209053 C55.06000221 64.13351839 55.08122797 69.59480549 55.11523438 75.05615234 C55.14785237 80.32756813 55.16577428 85.59884859 55.17354774 90.87035751 C55.17908684 92.88058477 55.18990335 94.89080469 55.20610619 96.90097427 C55.22791271 99.71865032 55.23088157 102.53576864 55.22949219 105.35351562 C55.24027802 106.18286118 55.25106384 107.01220673 55.26217651 107.86668396 C55.2360532 112.76915974 54.64140301 116.15866444 51.88891602 120.38818359 C47.64150803 123.21978892 43.87545559 123.03340676 38.88891602 122.38818359 C34.74078196 120.05485819 33.25752359 117.86299067 31.88891602 113.38818359 C31.61360732 110.44294291 31.63605582 107.51499213 31.66186523 104.55883789 C31.66157318 103.68028641 31.66128113 102.80173492 31.66098022 101.89656067 C31.66237007 99.00173967 31.67791506 96.10717821 31.69360352 93.21240234 C31.69733487 91.20172771 31.70018127 89.19105125 31.70217896 87.18037415 C31.70980574 81.89495806 31.72944609 76.60965234 31.75158691 71.32427979 C31.77206587 65.92827853 31.78118506 60.5322594 31.79125977 55.13623047 C31.81269283 44.55349976 31.84681732 33.97085086 31.88891602 23.38818359 C30.6783252 23.40913086 29.46773438 23.43007813 28.22045898 23.45166016 C23.71423241 23.52424899 19.20805717 23.57005195 14.70141602 23.60791016 C12.75373636 23.62798265 10.80611665 23.65524691 8.85864258 23.68994141 C6.05347881 23.73865212 3.24911415 23.761196 0.44360352 23.77880859 C-0.42225372 23.79945374 -1.28811096 23.82009888 -2.1802063 23.84136963 C-7.66172414 23.84338828 -10.76631868 23.05021209 -15.11108398 19.38818359 C-17.30959125 16.60340773 -18.04579373 14.91050562 -18.48608398 11.38818359 C-17.9412053 7.02915413 -16.52847207 4.54727432 -13.12974548 1.76791382 C-8.75269496 -0.23269105 -4.75949417 -0.0302831 0 0 Z " fill="#0E417F" transform="translate(374.111083984375,259.61181640625)"/>
<path d="M0 0 C2.94275151 0.00858875 5.88360729 -0.020464 8.82617188 -0.05200195 C10.71158797 -0.05361246 12.59700747 -0.05303932 14.48242188 -0.05004883 C15.35438202 -0.06128281 16.22634216 -0.07251678 17.12472534 -0.08409119 C22.59109189 -0.02168485 25.71136065 0.81591038 30.05273438 4.44604492 C32.82462595 7.66501579 33.05273438 9.13960222 33.05273438 13.44604492 C32.33091026 17.68876665 30.44675994 19.77931055 27.05273438 22.44604492 C23.11831144 23.75751923 19.35005256 23.60150413 15.24804688 23.62182617 C13.4485564 23.64505482 11.64907724 23.66917332 9.84960938 23.6940918 C7.02824673 23.7289445 4.20729211 23.75840277 1.38574219 23.77197266 C-19.20841494 23.87716701 -19.20841494 23.87716701 -37.01757812 33.47338867 C-47.01035867 43.68868053 -49.54279834 55.58454873 -49.45117188 69.46948242 C-49.46556558 71.46224512 -49.47997507 73.45500786 -49.49532223 75.44776344 C-49.51213786 78.20641316 -49.51174927 80.96494044 -49.51062012 83.72363281 C-49.50864272 88.57730311 -49.51562166 93.43077768 -49.55052185 98.28433228 C-49.56731545 100.86075565 -49.57018217 103.43731649 -49.55751038 106.01376343 C-49.56439377 107.17912628 -49.57127716 108.34448914 -49.57836914 109.54516602 C-49.57740738 110.56677826 -49.57644562 111.5883905 -49.57545471 112.64096069 C-50.01233554 115.93695732 -50.98232193 117.78251502 -52.94726562 120.44604492 C-57.18279418 123.26973063 -60.97203877 123.11258249 -65.94726562 122.44604492 C-68.88149758 120.64957638 -70.41931918 119.50193782 -71.94726562 116.44604492 C-72.05412701 114.4417438 -72.09613045 112.43386813 -72.10839844 110.42675781 C-72.11800598 109.16106461 -72.12761353 107.8953714 -72.13751221 106.59132385 C-72.14236361 105.20045146 -72.1466416 103.80957697 -72.15039062 102.41870117 C-72.15614613 100.99059549 -72.16190382 99.56248982 -72.16766357 98.13438416 C-72.17818187 95.13239177 -72.18401732 92.13042619 -72.1875 89.12841797 C-72.19294936 85.30902292 -72.21689634 81.48999079 -72.24547195 77.67070866 C-72.26424828 74.71501189 -72.26931209 71.75939932 -72.27083588 68.80364799 C-72.27383549 67.39763875 -72.28177136 65.99163002 -72.29502106 64.58568001 C-72.45643133 46.12132492 -67.02302938 30.82263146 -53.94726562 17.44604492 C-37.73295029 3.20314224 -20.93996632 -0.09341904 0 0 Z " fill="#0D407F" transform="translate(815.947265625,259.553955078125)"/>
<path d="M0 0 C12.32215892 4.86004872 22.93158771 10.33130379 33 19 C33.84691406 19.71285156 34.69382813 20.42570312 35.56640625 21.16015625 C41.46536528 26.26658338 46.38159753 31.71857191 51 38 C51.52207031 38.69480469 52.04414063 39.38960937 52.58203125 40.10546875 C62.83997697 54.53155073 69.63927455 73.25681679 70 91 C70.04447266 92.04679932 70.04447266 92.04679932 70.08984375 93.11474609 C71.2779246 121.89600458 62.11129875 148.48936347 42.80859375 170.00390625 C31.84947213 181.8406655 19.11596247 191.1590747 4 197 C3.67 197 3.34 197 3 197 C3 185.12 3 173.24 3 161 C3.33 161 3.66 161 4 161 C4.33 167.27 4.66 173.54 5 180 C28.12632548 167.46163076 43.56176458 149.20955923 51.2578125 123.83984375 C57.56006053 99.7254526 52.97618474 76.04578382 42 54 C42.78375 53.566875 43.5675 53.13375 44.375 52.6875 C47.21698375 51.10779753 47.21698375 51.10779753 49 48 C49.5 44.5 49.5 44.5 49 41 C46.85557324 38.83598944 45.62129726 38.04580076 42.5625 37.8203125 C41.2940625 37.97113281 41.2940625 37.97113281 40 38.125 C39.154375 38.21007812 38.30875 38.29515625 37.4375 38.3828125 C34.89893084 38.83733355 34.89893084 38.83733355 33 40.6796875 C32.34 41.11539063 31.68 41.55109375 31 42 C27.27657695 41.05276117 24.26133674 39.02241208 21.0625 36.9375 C20.11503906 36.32390625 19.16757813 35.7103125 18.19140625 35.078125 C17.13824219 34.39234375 16.08507812 33.7065625 15 33 C13.12682427 31.79499212 11.25175238 30.59296825 9.37670898 29.39086914 C5.56936538 26.94955307 1.76335319 24.50890213 -2 22 C-1.46589137 14.64748331 -0.86859084 7.32097997 0 0 Z " fill="#FAFBFB" transform="translate(184,152)"/>
<path d="M0 0 C20.683048 3.69340143 38.72899697 13.86400395 54 28 C55.21429688 29.09248047 55.21429688 29.09248047 56.453125 30.20703125 C77.2202334 49.77603724 89.06355863 78.49755482 90.2109375 106.69921875 C91.07413858 138.36230062 81.09398051 167.13523908 59.39453125 190.53515625 C46.5666516 203.739711 32.35503838 213.73059618 15 220 C14.01 220 13.02 220 12 220 C11.08750142 215.82631084 11.18364675 212.90069305 13 209 C16.41662388 206.31536849 20.3697191 204.62050427 24.28149414 202.77856445 C32.54092687 198.88466701 39.1485829 193.98685565 46 188 C46.69222656 187.39671875 47.38445312 186.7934375 48.09765625 186.171875 C65.03869115 170.27277164 78.23117503 144.25988554 79.08007812 120.78564453 C79.22375042 114.85221057 79.15344596 108.93237677 79 103 C78.98195313 101.97648437 78.96390625 100.95296875 78.9453125 99.8984375 C77.64696276 75.2297925 63.64715105 50.63955565 46 34 C36.04731337 25.21548363 24.92995906 17.83934974 12.1796875 13.921875 C10 13 10 13 8 10 C6.21573137 7.91904005 4.38746421 5.88163884 2.55859375 3.83984375 C1 2 1 2 0 0 Z " fill="#B2B4B6" transform="translate(174,140)"/>
<path d="M0 0 C0.33 0 0.66 0 1 0 C1.92003874 14.20359188 2.29540211 28.39576873 2.5625 42.625 C2.60582789 44.80729748 2.64944593 46.98958922 2.69335938 49.171875 C2.79890763 54.44785537 2.90091389 59.72389451 3 65 C4.485 65.495 4.485 65.495 6 66 C6 68.31 6 70.62 6 73 C-18.3036311 78.12302511 -44.92356652 72.20482287 -67 62 C-66.07265428 60.51444617 -65.13275187 59.03672494 -64.1875 57.5625 C-63.66542969 56.73878906 -63.14335938 55.91507812 -62.60546875 55.06640625 C-60.65128151 52.55116282 -59.05295127 52.21949351 -56.00195312 51.58349609 C-52.55905026 50.58001587 -50.13536748 47.96284931 -47.5 45.625 C-46.88560059 45.08915283 -46.27120117 44.55330566 -45.63818359 44.0012207 C-40.56907699 39.5593883 -35.59586824 35.014268 -30.65234375 30.43359375 C-28.53177714 28.48791923 -26.38466194 26.60695622 -24.1875 24.75 C-20.05038909 21.16275826 -16.19031619 17.29992988 -12.3125 13.4375 C-11.67014404 12.79973633 -11.02778809 12.16197266 -10.3659668 11.50488281 C-7.47916499 8.6086973 -4.69476086 5.7023241 -2.10546875 2.53515625 C-1.41066406 1.69855469 -0.71585937 0.86195313 0 0 Z " fill="#B3B5B8" transform="translate(161,308)"/>
<path d="M0 0 C3.8590119 2.1186732 6.88972309 4.11677456 9 8 C9.45667693 11.32452294 9.41982622 14.6303532 9.40405273 17.98168945 C9.41091599 18.99515442 9.41777924 20.00861938 9.42485046 21.05279541 C9.44316622 24.40643284 9.43927328 27.75960447 9.43359375 31.11328125 C9.43815399 33.44492241 9.44345909 35.77656222 9.44947815 38.10820007 C9.45841922 42.99821426 9.45597558 47.88806523 9.44604492 52.77807617 C9.43456761 59.03940686 9.45474325 65.30017257 9.48396206 71.56142902 C9.50232684 76.3784899 9.50203076 81.19541556 9.49632454 86.01250267 C9.49617129 88.32053608 9.50221877 90.62857863 9.51461601 92.93657875 C9.52952484 96.16811931 9.5188479 99.39861855 9.50170898 102.63012695 C9.51137695 103.58050339 9.52104492 104.53087982 9.53100586 105.51005554 C9.46435494 111.5239277 8.48783781 115.06247558 5 120 C2.05048604 122.42281504 -1.27453679 122.42145149 -5.03515625 122.31640625 C-8.24330151 121.79978644 -9.84118317 120.34930067 -12 118 C-14.66584693 113.19327181 -14.28850318 108.2156034 -14.2746582 102.87304688 C-14.27976913 101.8562233 -14.28488007 100.83939972 -14.29014587 99.79176331 C-14.30403459 96.43403217 -14.30308582 93.07650642 -14.30078125 89.71875 C-14.30466814 87.3837476 -14.3090028 85.0487459 -14.31376648 82.71374512 C-14.32122683 77.82134712 -14.3209384 72.92902128 -14.31567383 68.03662109 C-14.3098749 61.76513151 -14.32682156 55.49393684 -14.3500185 49.22249603 C-14.36474359 44.40124787 -14.36562928 39.58007098 -14.36250877 34.75880432 C-14.36302245 32.44632889 -14.36826882 30.13384952 -14.37832069 27.82139587 C-14.39064581 24.58971928 -14.38391699 21.35862035 -14.37231445 18.12695312 C-14.37995819 17.17095718 -14.38760193 16.21496124 -14.39547729 15.22999573 C-14.35664649 10.34102162 -14.22865745 6.94375656 -11 3 C-7.33060635 0.12398876 -4.62619262 -0.66088466 0 0 Z " fill="#0E417F" transform="translate(597,121)"/>
<path d="M0 0 C2 3 2 3 1.90625 4.94921875 C0.66025318 7.76882362 -1.05071402 8.95663671 -3.5 10.8125 C-4.40878906 11.51375 -5.31757812 12.215 -6.25390625 12.9375 C-7.92472112 14.19239368 -9.59844389 15.44344384 -11.27734375 16.6875 C-32.19861627 32.42574479 -45.53646246 54.139701 -53 79 C-53.34160156 80.10730469 -53.68320312 81.21460938 -54.03515625 82.35546875 C-61.2745908 111.07750442 -55.63942661 144.696733 -41.1875 170.375 C-32.70743144 184.36223953 -21.99154951 196.98618088 -9 207 C-9.66 209.31 -10.32 211.62 -11 214 C-10.34 214 -9.68 214 -9 214 C-9.495 216.97 -9.495 216.97 -10 220 C-15.76787426 215.10984574 -21.44003091 210.12585739 -27 205 C-27.81726562 204.24976563 -28.63453125 203.49953125 -29.4765625 202.7265625 C-41.19486153 191.52907676 -49.35443404 178.67595174 -56 164 C-56.48210938 162.97261719 -56.96421875 161.94523438 -57.4609375 160.88671875 C-64.30592216 145.55810159 -67.40377789 128.40367843 -67.25 111.6875 C-67.24178223 110.59155518 -67.23356445 109.49561035 -67.22509766 108.36645508 C-66.83273325 79.81878012 -57.57091783 53.49760954 -40 31 C-39.29746094 30.06414062 -38.59492187 29.12828125 -37.87109375 28.1640625 C-33.71549405 22.74795799 -29.2514253 18.3350001 -24 14 C-22.70678027 12.8350551 -21.4151275 11.66836848 -20.125 10.5 C-17.12816364 7.89841568 -14.05933166 5.43168089 -10.875 3.0625 C-10.08867188 2.47597656 -9.30234375 1.88945312 -8.4921875 1.28515625 C-5.41257558 -0.30291949 -3.41929441 -0.45937889 0 0 Z " fill="#B2B4B6" transform="translate(86,141)"/>
<path d="M0 0 C22.37577245 0.72179911 44.66537451 13.37736422 61 28 C61.55381348 28.49338867 62.10762695 28.98677734 62.67822266 29.49511719 C71.65270206 37.63482178 78.66324236 46.69770753 85 57 C85.38027344 57.61601074 85.76054687 58.23202148 86.15234375 58.86669922 C90.53946791 66.12848258 93.77147178 73.55156299 96.375 81.625 C96.73331909 82.73355347 96.73331909 82.73355347 97.09887695 83.86450195 C100.50925184 95.17440608 101.36725457 106.55043526 101.3125 118.3125 C101.30686035 119.58778564 101.3012207 120.86307129 101.29541016 122.17700195 C101.17575284 131.47176934 100.52449302 140.01127486 98 149 C97.80664062 149.70060547 97.61328125 150.40121094 97.4140625 151.12304688 C92.53738672 168.35697826 84.55133565 183.3484215 73 197 C72.16984375 198.00546875 71.3396875 199.0109375 70.484375 200.046875 C60.77512205 211.26774817 49.1854694 219.60053561 36.125 226.5625 C34.98514648 227.17085693 34.98514648 227.17085693 33.82226562 227.79150391 C28.38704564 230.56686017 22.88885567 232.42188527 17 234 C17 231.69 17 229.38 17 227 C18.16402344 226.5978125 18.16402344 226.5978125 19.3515625 226.1875 C47.23272104 216.07309404 70.13546529 196.00356438 83.22949219 169.31616211 C96.10550726 141.63537637 98.28311868 109.07397219 87.8125 80.25 C76.63903637 51.19247941 56.40212242 28.30026408 28.07275391 14.89941406 C20.47530797 11.60271314 12.44723292 9.32917299 4.5234375 6.9609375 C3.69070312 6.64382812 2.85796875 6.32671875 2 6 C1.1875 4 1.1875 4 1 2 C0.67 1.34 0.34 0.68 0 0 Z " fill="#FBFCFC" transform="translate(169,133)"/>
<path d="M0 0 C3.6868485 3.20982205 5.60368612 6.76473733 7.5 11.1875 C7.80115723 11.88367432 8.10231445 12.57984863 8.41259766 13.29711914 C12.65871074 23.52867565 15.53323625 34.9096933 16 46 C16.06316406 47.03382813 16.12632812 48.06765625 16.19140625 49.1328125 C17.09861248 76.23194058 7.19940619 100.79837965 -10.75 120.8125 C-20.04694694 130.75030445 -31.68628789 138.29640942 -44 144 C-44.66 144 -45.32 144 -46 144 C-46 133.77 -46 123.54 -46 113 C-45.67 113 -45.34 113 -45 113 C-44.67 119.27 -44.34 125.54 -44 132 C-20.87367452 119.46163076 -5.43823542 101.20955923 2.2578125 75.83984375 C8.56006053 51.7254526 3.97618474 28.04578382 -7 6 C-6.21625 5.566875 -5.4325 5.13375 -4.625 4.6875 C-1.78301625 3.10779753 -1.78301625 3.10779753 0 0 Z " fill="#B1B4B6" transform="translate(233,200)"/>
<path d="M0 0 C4.55555556 0.55555556 4.55555556 0.55555556 6 2 C5.79016498 7.98029817 4.39702922 13.26587398 2.5625 18.9375 C-2.84008523 35.82130317 -3.71286928 52.52630895 0 70 C0.20625 71.00160156 0.4125 72.00320313 0.625 73.03515625 C5.90006351 96.26341886 19.32576914 117.27032593 38 132 C40.29505015 133.42592566 42.62022321 134.71539412 45 136 C42.63472592 138.79040505 40.71218249 139.75093243 37.125 140.4375 C32.33786849 140.74064289 29.78694997 139.59231031 26.14038086 136.48217773 C12.12154467 123.2812287 2.05367547 107.86398264 -5 90 C-5.38285156 89.03320312 -5.76570313 88.06640625 -6.16015625 87.0703125 C-12.98022768 68.34753087 -14.5584683 46.41190432 -10 27 C-9.86045898 26.37254883 -9.72091797 25.74509766 -9.57714844 25.09863281 C-5.11401099 5.11401099 -5.11401099 5.11401099 0 0 Z " fill="#B2B4B6" transform="translate(46,202)"/>
<path d="M0 0 C0.02886537 4.31248609 0.04675255 8.62494762 0.0625 12.9375 C0.07087891 14.16919922 0.07925781 15.40089844 0.08789062 16.66992188 C0.09111328 17.83974609 0.09433594 19.00957031 0.09765625 20.21484375 C0.10289307 21.29886475 0.10812988 22.38288574 0.11352539 23.49975586 C0 26 0 26 -1 27 C-2.62674778 27.09340434 -4.25754051 27.11745171 -5.88696289 27.11352539 C-6.92796646 27.11344986 -7.96897003 27.11337433 -9.04151917 27.11329651 C-10.1737944 27.10813522 -11.30606964 27.10297394 -12.47265625 27.09765625 C-13.62543564 27.0962413 -14.77821503 27.09482635 -15.96592712 27.09336853 C-19.66481064 27.08775005 -23.36363464 27.07519442 -27.0625 27.0625 C-29.56315017 27.05748738 -32.06380129 27.05292406 -34.56445312 27.04882812 C-40.70965588 27.03777462 -46.85482369 27.02101852 -53 27 C-52.06067725 25.88203008 -51.11815538 24.76674764 -50.17431641 23.65258789 C-49.64979889 23.03122452 -49.12528137 22.40986115 -48.58486938 21.76966858 C-37.1757236 9.03019175 -17.12033244 -0.18236169 0 0 Z " fill="#F3F5F8" transform="translate(407,145)"/>
<path d="M0 0 C0 8.91 0 17.82 0 27 C-17.16 27 -34.32 27 -52 27 C-46.2751348 15.5502696 -30.7507671 7.85465983 -18.96777344 3.71777344 C-12.62356689 1.60513691 -6.71403427 0 0 0 Z " fill="#F4F6F9" transform="translate(719,145)"/>
<path d="M0 0 C0.33 0.66 0.66 1.32 1 2 C2.65810193 2.37361328 4.32770671 2.69615129 6 3 C7.80725117 3.57953194 9.61409073 4.16070155 11.41333008 4.76464844 C28.35529403 10.39630356 45.2792291 10.52831534 63 11 C63 8.69 63 6.38 63 4 C63.33 4 63.66 4 64 4 C64 6.64 64 9.28 64 12 C64.99 12.33 65.98 12.66 67 13 C67 15.31 67 17.62 67 20 C42.6963689 25.12302511 16.07643348 19.20482287 -6 9 C-4.02 6.03 -2.04 3.06 0 0 Z " fill="#B1B4B6" transform="translate(100,361)"/>
<path d="M0 0 C0.86625 0.12375 1.7325 0.2475 2.625 0.375 C5.30351156 4.10253697 6.7396722 8.15165692 8.3125 12.4375 C15.01670071 29.80042362 28.66434855 45.7146057 44.625 55.375 C42.04715154 58.02252004 39.70851902 60.31932065 36.625 62.375 C34.17020107 60.4289421 31.72171511 58.47574475 29.28125 56.51171875 C27.76899731 55.29524489 26.25157254 54.08498154 24.71875 52.89453125 C19.190441 48.44841482 14.9283515 42.98120104 10.625 37.375 C10.07714844 36.66601562 9.52929688 35.95703125 8.96484375 35.2265625 C3.56405112 27.70865916 -5.1134545 13.02109051 -4.0625 3.5625 C-3.13881633 0.6235065 -3.07444606 0.48543885 0 0 Z " fill="#B2B4B7" transform="translate(57.375,273.625)"/>
<path d="M0 0 C13.44045221 3.36011305 25.3276254 12.36447254 35 22 C35.60457031 22.60199219 36.20914063 23.20398438 36.83203125 23.82421875 C37.36183594 24.35660156 37.89164063 24.88898438 38.4375 25.4375 C40.9223707 28.08988656 40.9223707 28.08988656 44 30 C43.09507812 30.16435547 43.09507812 30.16435547 42.171875 30.33203125 C37.12525188 31.24749193 37.12525188 31.24749193 32.75 33.75 C32.1725 34.1625 31.595 34.575 31 35 C27.32759062 33.83405678 24.27671176 32.03243309 21.0625 29.9375 C20.11503906 29.32390625 19.16757813 28.7103125 18.19140625 28.078125 C17.13824219 27.39234375 16.08507812 26.7065625 15 26 C13.12682427 24.79499212 11.25175238 23.59296825 9.37670898 22.39086914 C5.56936538 19.94955307 1.76335319 17.50890213 -2 15 C-1.85930804 12.87465341 -1.71229079 10.74972471 -1.5625 8.625 C-1.48128906 7.44164062 -1.40007812 6.25828125 -1.31640625 5.0390625 C-1 2 -1 2 0 0 Z " fill="#B1B3B6" transform="translate(184,159)"/>
<path d="M0 0 C0.33 0 0.66 0 1 0 C2.48008689 23.07349747 2.48008689 23.07349747 2 33 C0.21531289 34.78468711 -2.41780231 34.13032763 -4.828125 34.1328125 C-6.02050781 34.13410156 -7.21289062 34.13539063 -8.44140625 34.13671875 C-10.32666016 34.13091797 -10.32666016 34.13091797 -12.25 34.125 C-13.49136719 34.12886719 -14.73273438 34.13273437 -16.01171875 34.13671875 C-17.80802734 34.13478516 -17.80802734 34.13478516 -19.640625 34.1328125 C-20.73922852 34.13168457 -21.83783203 34.13055664 -22.96972656 34.12939453 C-25.76181844 34.0101705 -28.28407158 33.63514629 -31 33 C-29.52986576 29.48106167 -27.63784972 27.58254099 -24.75 25.125 C-20.2395817 21.1660739 -15.93279118 17.0544308 -11.6875 12.8125 C-11.10129883 12.23064941 -10.51509766 11.64879883 -9.91113281 11.04931641 C-7.18807299 8.31771304 -4.58689532 5.56127642 -2.14453125 2.57421875 C-1.08298828 1.29998047 -1.08298828 1.29998047 0 0 Z " fill="#FAFBFC" transform="translate(161,308)"/>
<path d="M0 0 C7.80082457 1.21912784 13.23451872 4.16578043 19.8125 8.4375 C20.73998047 9.02337891 21.66746094 9.60925781 22.62304688 10.21289062 C25.09908306 11.78562882 27.56414431 13.36573764 30 15 C31.12668091 15.75422241 31.12668091 15.75422241 32.27612305 16.52368164 C34 18 34 18 34.25 20.6875 C34.1675 21.450625 34.085 22.21375 34 23 C33.01 22.835 32.02 22.67 31 22.5 C26.13967001 21.821128 21.1444886 21.14220456 16.5 23 C12.91483924 24.4340643 9.84586583 24.13036833 6 24 C3.10469709 16.14132068 1.52494999 8.20877337 0 0 Z " fill="#F6F8FA" transform="translate(103,129)"/>
<path d="M0 0 C1.64427979 0.28532593 1.64427979 0.28532593 3.32177734 0.57641602 C5.55763093 0.65448118 7.79552238 0.68433462 10.03271484 0.67407227 C11.27666016 0.67084961 12.52060547 0.66762695 13.80224609 0.66430664 C15.08744141 0.65592773 16.37263672 0.64754883 17.69677734 0.63891602 C19.00517578 0.6344043 20.31357422 0.62989258 21.66162109 0.62524414 C24.88172015 0.61349195 28.10172505 0.59706145 31.32177734 0.57641602 C31.32177734 3.87641602 31.32177734 7.17641602 31.32177734 10.57641602 C17.57415091 13.23244894 2.59553606 11.8981049 -10.67822266 7.57641602 C-9.01155599 5.90974935 -7.34488932 4.24308268 -5.67822266 2.57641602 C-5.20384766 1.95766602 -4.72947266 1.33891602 -4.24072266 0.70141602 C-2.67822266 -0.42358398 -2.67822266 -0.42358398 0 0 Z " fill="#B1B3B6" transform="translate(131.67822265625,340.423583984375)"/>
<path d="M0 0 C3.49031369 0.34903137 6.60051131 1.1831363 9.875 2.375 C25.1344252 7.48665564 40.07154068 7.37153703 56 7 C56 8.98 56 10.96 56 13 C33.59968458 13.48631279 14.89306513 12.17209763 -6 4 C-6 3.01 -6 2.02 -6 1 C-4.7934375 1.0309375 -4.7934375 1.0309375 -3.5625 1.0625 C-1.06645115 1.29633621 -1.06645115 1.29633621 0 0 Z " fill="#FBFBFC" transform="translate(107,359)"/>
<path d="M0 0 C4.06467173 1.88159996 7.78001865 4.30529618 11.5625 6.6875 C12.27124268 7.12868164 12.97998535 7.56986328 13.71020508 8.02441406 C16.95786081 10.0520393 20.17816002 12.09690614 23.3203125 14.28515625 C24.26648438 14.93355469 25.21265625 15.58195313 26.1875 16.25 C27.00605469 16.83265625 27.82460937 17.4153125 28.66796875 18.015625 C31.01737946 19.29460221 31.01737946 19.29460221 33.6484375 18.2421875 C34.42445313 17.83226562 35.20046875 17.42234375 36 17 C39.85441437 15.22103952 42.73935093 14.46741887 47 15 C49.875 16.5625 49.875 16.5625 52 19 C52.67701242 23.13729813 52.4413451 25.21915866 50.375 28.875 C48 31 48 31 45.25 32.1875 C39.73178531 31.86914146 36.33129169 28.18639493 32.41699219 24.51538086 C26.45877466 19.05472292 19.83313898 14.83880403 13 10.5625 C11.831632 9.82419914 10.66366028 9.08527079 9.49609375 8.34570312 C6.66788107 6.55761825 3.83585831 4.77592433 1 3 C0.67 3.99 0.34 4.98 0 6 C0 4.02 0 2.04 0 0 Z " fill="#0F4280" transform="translate(182,174)"/>
<path d="M0 0 C12.92250389 3.98348571 25.222764 12.81858663 33 24 C30 25 30 25 27.8984375 23.953125 C27.06570312 23.39109375 26.23296875 22.8290625 25.375 22.25 C24.41464844 21.61191406 23.45429688 20.97382813 22.46484375 20.31640625 C21.92456543 19.95305176 21.38428711 19.58969727 20.82763672 19.21533203 C18.75528273 17.83726923 16.66297441 16.493271 14.56640625 15.15234375 C13.80215332 14.66282227 13.03790039 14.17330078 12.25048828 13.66894531 C10.72186876 12.68988016 9.19290341 11.7113547 7.66357422 10.73339844 C6.95861816 10.27868164 6.25366211 9.82396484 5.52734375 9.35546875 C4.57976196 8.74674927 4.57976196 8.74674927 3.61303711 8.12573242 C2 7 2 7 0 5 C-0.125 2.375 -0.125 2.375 0 0 Z " fill="#F8F9FB" transform="translate(183,169)"/>
<path d="M0 0 C1.89105469 0.32484375 1.89105469 0.32484375 3.8203125 0.65625 C16.97096312 2.78991866 29.69146336 3.37572964 43 3 C43 4.65 43 6.3 43 8 C10.48571149 8.82555811 10.48571149 8.82555811 -3 4 C-2.01 2.68 -1.02 1.36 0 0 Z " fill="#FBFBFB" transform="translate(120,348)"/>
<path d="M0 0 C7.23935625 0.58697483 15.60610176 4.06192415 21 9 C21 9.99 21 10.98 21 12 C20.01 12.33 19.02 12.66 18 13 C15.56418487 11.68886257 13.34861164 10.34837067 11.0625 8.8125 C10.44181641 8.41224609 9.82113281 8.01199219 9.18164062 7.59960938 C5.75264643 5.34647901 2.79116805 3.04300276 0 0 Z " fill="#F0F3F6" transform="translate(120,132)"/>
<path d="M0 0 C4.02364614 1.86336793 7.69657 4.26113763 11.4375 6.625 C12.86304184 7.52121426 14.28882701 8.41704157 15.71484375 9.3125 C16.42882324 9.76109375 17.14280273 10.2096875 17.87841797 10.671875 C22.89839423 13.8144148 27.95077779 16.90475762 33 20 C32.01 20.66 31.02 21.32 30 22 C29.51233154 21.67314209 29.02466309 21.34628418 28.5222168 21.00952148 C19.41005228 14.90648537 10.2986579 8.81678159 1 3 C0.67 3.99 0.34 4.98 0 6 C0 4.02 0 2.04 0 0 Z " fill="#325E92" transform="translate(182,174)"/>
<path d="M0 0 C2.86867231 1.38264837 5.56024032 2.92148553 8.25 4.625 C8.95640625 5.07101563 9.6628125 5.51703125 10.390625 5.9765625 C10.92171875 6.31429687 11.4528125 6.65203125 12 7 C11.34 7.66 10.68 8.32 10 9 C7.03 7.02 4.06 5.04 1 3 C0.67 3.99 0.34 4.98 0 6 C0 4.02 0 2.04 0 0 Z " fill="#3F6899" transform="translate(182,174)"/>
</svg>
