<?xml version="1.0" standalone="no"?>
<!DOCTYPE svg PUBLIC "-//W3C//DTD SVG 20010904//EN"
 "http://www.w3.org/TR/2001/REC-SVG-20010904/DTD/svg10.dtd">
<svg version="1.0" xmlns="http://www.w3.org/2000/svg"
 width="300.000000pt" height="200.000000pt" viewBox="0 0 300.000000 200.000000"
 preserveAspectRatio="xMidYMid meet">

<g transform="translate(0.000000,200.000000) scale(0.100000,-0.100000)"
fill="#000000" stroke="none">
<path d="M2239 1588 c-9 -43 -26 -165 -23 -169 2 -3 28 -1 58 4 l55 10 -40 79
c-33 67 -47 87 -50 76z"/>
<path d="M2423 1579 c-14 -19 -75 -140 -71 -144 2 -1 27 -7 57 -12 l53 -11 -7
64 c-10 92 -18 119 -32 103z"/>
<path d="M2547 1479 c-31 -28 -57 -56 -57 -62 0 -11 75 -57 91 -57 8 0 34 159
27 165 -2 3 -30 -18 -61 -46z"/>
<path d="M40 1240 c0 -223 -5 -214 125 -215 91 0 122 14 155 68 24 39 27 125
5 168 -23 43 -71 69 -127 69 l-48 0 0 50 0 50 -55 0 -55 0 0 -190z m184 -12
c36 -51 9 -128 -45 -128 l-29 0 0 75 0 75 29 0 c20 0 35 -8 45 -22z"/>
<path d="M2678 1384 c-38 -19 -68 -38 -68 -42 0 -4 17 -24 38 -45 l37 -36 43
79 c27 50 38 80 30 80 -7 -1 -43 -17 -80 -36z"/>
<path d="M697 1393 c-4 -3 -7 -21 -7 -40 0 -26 -4 -33 -20 -33 -16 0 -20 -7
-20 -35 0 -28 4 -35 19 -35 16 0 19 -10 23 -91 4 -85 6 -94 32 -115 30 -26 74
-31 125 -13 32 11 35 19 22 54 -6 14 -17 20 -37 20 l-29 0 -3 73 -3 72 36 0
c19 0 35 2 35 4 0 25 -26 65 -43 68 -17 2 -23 11 -25 41 l-3 37 -48 0 c-26 0
-51 -3 -54 -7z"/>
<path d="M891 1258 c28 -79 58 -162 66 -185 14 -41 17 -43 57 -43 l41 0 19 65
c10 36 22 67 25 70 4 2 16 -28 26 -66 l19 -70 44 3 44 3 44 125 c24 69 47 133
50 142 5 16 -2 18 -49 18 l-55 0 -18 -69 c-9 -39 -21 -68 -24 -66 -4 2 -15 34
-25 70 l-17 65 -38 0 -38 0 -18 -70 c-10 -38 -21 -70 -24 -70 -3 0 -21 48 -41
108 l-34 107 -52 3 -53 3 51 -143z"/>
<path d="M2210 1363 c-68 -25 -144 -106 -159 -170 -16 -65 3 -139 49 -195 37
-45 121 -88 172 -88 57 0 57 -20 4 -100 -26 -38 -54 -86 -62 -107 -21 -49 -17
-47 -51 -29 -80 41 -165 168 -178 265 -9 66 -13 77 -27 63 -16 -16 7 -125 39
-184 37 -67 108 -134 183 -171 59 -29 73 -32 160 -32 86 0 101 3 162 32 85 40
151 106 191 191 29 61 32 76 32 162 0 87 -3 101 -32 160 -39 80 -109 152 -183
188 -47 23 -69 27 -155 29 -72 2 -113 -2 -145 -14z m261 -10 c75 -24 167 -116
197 -195 63 -169 20 -345 -112 -452 -44 -36 -138 -80 -149 -70 -3 3 -1 20 5
37 5 18 12 88 15 157 5 110 8 129 29 161 31 46 31 68 -1 32 l-24 -28 -1 48 c0
48 13 60 37 36 15 -15 43 -4 43 16 0 11 -10 15 -35 15 -29 0 -37 5 -46 28 -6
15 -17 40 -25 55 -8 16 -14 37 -14 46 0 24 -34 54 -57 49 -10 -2 -24 -16 -31
-31 -11 -23 -19 -27 -52 -27 -45 0 -54 -16 -48 -86 3 -37 5 -39 43 -44 22 -3
46 -10 54 -14 9 -6 12 -5 9 5 -2 7 -23 17 -46 22 -42 8 -42 8 -42 53 0 48 1
49 32 33 21 -11 21 -12 3 -25 -16 -12 -14 -13 16 -8 26 4 47 -3 87 -26 l52
-30 0 -70 c0 -67 -1 -70 -30 -85 -45 -23 -50 -20 -50 41 0 34 -4 53 -10 49 -5
-3 -10 -31 -10 -62 l0 -55 -58 4 c-103 7 -175 87 -176 197 -2 170 202 286 395
224z m-111 -103 c14 -26 5 -40 -26 -40 -26 0 -30 11 -14 41 14 24 27 24 40 -1z
m40 -92 c0 -23 -5 -23 -49 5 l-36 22 35 5 c36 6 50 -3 50 -32z m-30 -285 c-34
-60 -130 -186 -137 -179 -7 7 23 59 63 111 21 28 37 61 38 78 1 22 9 32 31 42
17 7 32 11 34 9 2 -2 -11 -29 -29 -61z m32 -125 l-9 -33 -11 55 -11 55 4 -75
c2 -41 7 -86 11 -99 l7 -24 -81 5 c-45 3 -85 8 -88 11 -4 4 23 38 58 76 36 38
79 92 94 120 l29 51 3 -54 c2 -30 -1 -69 -6 -88z"/>
<path d="M432 1310 c-101 -62 -96 -220 8 -272 60 -30 153 -18 189 25 12 15 10
20 -10 37 -15 12 -32 18 -44 14 -58 -18 -82 -16 -98 7 -9 12 -14 26 -11 31 3
4 45 8 95 8 l89 0 0 33 c0 106 -125 173 -218 117z m106 -62 c25 -25 13 -38
-33 -38 -48 0 -55 9 -29 34 18 19 45 21 62 4z"/>
<path d="M1384 1316 c-42 -19 -47 -30 -26 -56 17 -21 22 -22 54 -11 38 13 63
7 72 -15 6 -17 -1 -20 -66 -29 -64 -8 -98 -41 -98 -95 0 -66 56 -104 124 -83
18 6 58 8 89 5 l57 -4 0 116 c0 113 -1 116 -29 148 -24 28 -35 32 -87 35 -36
2 -71 -2 -90 -11z m106 -179 c0 -45 -50 -65 -70 -28 -13 25 11 51 46 51 18 0
24 -5 24 -23z"/>
<path d="M1590 1311 c0 -4 27 -68 60 -140 58 -129 59 -134 44 -163 -13 -24
-20 -29 -46 -26 -27 3 -33 -1 -44 -29 l-14 -32 39 -11 c48 -13 95 -4 122 24
17 18 142 296 164 365 6 20 3 21 -47 21 l-54 0 -18 -57 c-38 -119 -34 -118
-68 -25 l-30 82 -54 0 c-30 0 -54 -4 -54 -9z"/>
<path d="M2761 1259 c-30 -5 -56 -11 -58 -13 -7 -7 41 -96 52 -96 6 0 37 27
70 60 l59 60 -34 -1 c-19 -1 -59 -5 -89 -10z"/>
<path d="M2765 1068 c4 -29 8 -54 10 -56 4 -5 155 72 155 79 0 6 -123 29 -155
29 -15 0 -16 -8 -10 -52z"/>
<path d="M2776 982 c-2 -4 -8 -32 -12 -61 -6 -49 -5 -53 12 -48 10 3 37 8 59
11 77 12 97 18 88 26 -23 21 -142 80 -147 72z"/>
<path d="M175 886 c-55 -17 -85 -34 -118 -65 -41 -37 -50 -57 -37 -81 14 -25
71 -27 91 -3 13 15 12 15 -9 4 -53 -28 -71 25 -27 78 68 80 265 90 240 12 -9
-29 -48 -53 -80 -49 l-26 3 31 38 c17 20 27 37 22 37 -5 0 -59 -54 -121 -120
-85 -90 -108 -120 -92 -120 22 0 76 51 123 116 26 37 33 41 60 35 45 -9 61
-38 42 -77 -15 -32 -60 -64 -90 -64 -9 0 -26 7 -36 17 -17 15 -18 15 -18 0 0
-38 100 -33 149 8 39 34 44 60 17 92 l-23 27 31 21 c23 15 31 28 31 50 0 51
-71 69 -160 41z"/>
<path d="M716 875 c-22 -8 -52 -23 -67 -34 -16 -12 -36 -18 -50 -15 -20 4 -21
3 -5 -4 29 -13 30 -50 1 -84 -62 -74 -1 -127 93 -79 26 13 55 18 95 16 50 -2
63 1 88 23 17 13 33 21 37 18 4 -4 -4 -15 -17 -25 -28 -21 -13 -38 19 -21 13
7 20 21 20 40 0 36 -7 37 -50 5 -42 -31 -50 -31 -43 -2 6 20 4 20 -21 -6 -14
-15 -30 -25 -36 -22 -16 10 2 37 34 51 17 7 24 13 16 13 -8 0 -46 -20 -84 -44
-51 -33 -79 -45 -108 -45 -33 0 -38 3 -38 23 0 33 49 77 86 77 33 0 74 24 61
36 -4 4 -29 1 -57 -8 -38 -12 -50 -13 -54 -3 -7 20 15 35 53 35 39 0 121 33
121 48 0 11 -24 22 -43 22 -7 -1 -30 -7 -51 -15z m78 -4 c7 -11 -66 -41 -101
-41 -35 0 -19 17 33 35 46 17 61 18 68 6z m-64 -91 c-8 -5 -22 -10 -30 -10
-13 0 -13 1 0 10 8 5 22 10 30 10 13 0 13 -1 0 -10z"/>
<path d="M2726 804 c-15 -26 -23 -51 -19 -55 11 -10 154 -31 161 -24 4 3 -21
33 -55 66 l-60 61 -27 -48z"/>
<path d="M427 803 c-4 -3 -7 -11 -7 -17 0 -6 5 -5 12 2 6 6 9 14 7 17 -3 3 -9
2 -12 -2z"/>
<path d="M1120 786 c0 -16 3 -17 12 -8 7 7 23 12 36 12 24 0 24 0 20 -95 -3
-90 -2 -95 17 -95 19 0 20 5 17 95 -4 95 -4 95 20 95 13 0 29 -5 36 -12 9 -9
12 -8 12 8 0 17 -7 19 -85 19 -78 0 -85 -2 -85 -19z"/>
<path d="M1362 795 c-44 -19 -67 -73 -52 -120 17 -51 44 -70 102 -70 42 0 53
4 74 28 17 20 24 40 24 68 0 53 -14 78 -55 95 -42 17 -51 17 -93 -1z m84 -13
c40 -27 46 -111 9 -147 -31 -32 -59 -32 -90 0 -33 32 -35 101 -5 133 20 22 64
29 86 14z"/>
<path d="M1540 721 c4 -59 10 -84 24 -100 21 -23 56 -27 86 -11 13 7 21 7 25
0 3 -5 14 -10 23 -10 15 0 17 13 17 100 0 100 0 100 -25 100 -25 0 -25 -1 -22
-75 2 -49 -1 -81 -8 -91 -18 -21 -67 -18 -80 5 -14 27 -13 134 2 149 9 9 5 12
-17 12 l-30 0 5 -79z"/>
<path d="M1749 791 c10 -6 12 -31 10 -100 -4 -87 -3 -91 17 -91 20 0 21 4 16
45 -4 40 -2 45 15 45 11 0 32 -18 51 -45 17 -25 38 -45 47 -45 20 0 20 3 -16
53 -30 43 -31 45 -14 71 16 24 16 28 1 51 -15 22 -23 25 -79 25 -38 0 -57 -4
-48 -9z m87 -9 c32 -21 17 -72 -21 -72 -22 0 -25 4 -25 40 0 31 4 40 18 40 9
0 22 -4 28 -8z"/>
<path d="M1020 715 c-28 -30 -44 -32 -35 -5 3 11 3 20 -2 20 -13 -1 -48 -30
-35 -30 7 0 11 -6 10 -12 -2 -8 6 -12 20 -11 33 4 18 -14 -26 -33 -42 -17 -92
-61 -92 -80 0 -40 45 -21 107 47 38 41 38 41 93 35 38 -4 50 -3 40 4 -8 5 -32
10 -53 10 l-37 0 20 40 c24 47 22 49 -10 15z m-70 -105 c-19 -26 -80 -69 -80
-56 0 18 18 41 49 61 48 33 57 31 31 -5z"/>
<path d="M346 708 c-30 -42 -11 -62 34 -38 13 7 26 6 46 -5 l28 -14 -46 -20
c-52 -22 -88 -53 -88 -76 0 -31 43 -14 98 39 31 29 72 61 90 70 19 10 32 20
29 23 -3 2 -18 -3 -33 -13 -27 -18 -27 -18 -15 3 17 33 13 36 -16 13 -17 -13
-29 -17 -31 -10 -5 15 17 40 37 41 10 0 11 3 4 6 -7 2 -35 -8 -62 -23 -53 -30
-76 -27 -46 6 16 17 16 20 2 20 -9 0 -23 -10 -31 -22z m68 -100 c-44 -51 -84
-74 -84 -48 0 9 86 70 99 70 2 0 -4 -10 -15 -22z"/>
<path d="M2643 693 c-18 -19 -33 -38 -33 -42 0 -6 143 -81 155 -81 3 0 -13 36
-35 80 -22 44 -44 79 -48 79 -4 -1 -22 -17 -39 -36z"/>
<path d="M2538 616 c-26 -12 -48 -26 -48 -31 0 -6 27 -37 61 -70 l61 -60 -7
67 c-3 37 -10 78 -13 91 l-7 23 -47 -20z"/>
<path d="M2215 558 c2 -13 9 -52 15 -87 5 -35 11 -65 13 -67 2 -2 22 32 46 76
46 88 48 84 -32 95 -46 6 -48 6 -42 -17z"/>
<path d="M2388 573 c-21 -2 -38 -6 -38 -8 0 -12 75 -155 81 -155 7 0 14 33 25
118 7 58 14 53 -68 45z"/>
</g>
</svg>
