<?xml version="1.0" standalone="no"?>
<!DOCTYPE svg PUBLIC "-//W3C//DTD SVG 20010904//EN"
 "http://www.w3.org/TR/2001/REC-SVG-20010904/DTD/svg10.dtd">
<svg version="1.0" xmlns="http://www.w3.org/2000/svg"
 width="517.000000pt" height="427.000000pt" viewBox="0 0 517.000000 427.000000"
 preserveAspectRatio="xMidYMid meet">

<g transform="translate(0.000000,427.000000) scale(0.100000,-0.100000)"
fill="#000000" stroke="none">
<path d="M637 3882 l-58 -59 296 -309 c167 -174 304 -309 313 -308 10 0 62
-47 117 -105 55 -58 150 -158 211 -222 l111 -116 36 52 36 52 -202 213 c-111
117 -202 221 -202 230 0 17 -578 630 -594 630 -4 0 -33 -26 -64 -58z m89 9
c-4 -6 -22 -18 -39 -27 l-32 -17 25 28 25 28 -35 -17 -35 -17 35 30 c29 25 37
28 49 16 7 -7 10 -18 7 -24z m74 -111 c-31 -24 -39 -17 -14 12 18 21 18 21
-16 -2 l-35 -23 29 31 c35 37 27 41 -17 10 l-32 -21 30 33 30 33 -40 -23 -40
-23 30 33 30 33 -40 -23 -40 -23 30 32 29 32 46 -46 45 -46 -25 -19z m38 -1
c-2 -5 -19 -20 -38 -31 l-35 -22 29 32 c29 32 51 42 44 21z m22 -15 c0 -8 -27
-30 -55 -45 -13 -8 -10 -1 9 20 28 29 46 39 46 25z m25 -28 c12 -12 12 -16 -3
-28 -43 -35 -55 -40 -28 -10 34 37 27 41 -17 10 l-32 -21 29 31 c34 37 33 36
51 18z m35 -30 c0 -2 -17 -16 -37 -32 l-38 -29 25 32 c21 27 50 44 50 29z m10
-23 c0 -5 -12 -17 -27 -27 -25 -18 -25 -11 0 22 10 13 27 16 27 5z m25 -27
c12 -12 12 -16 -3 -28 -43 -35 -55 -40 -28 -10 17 18 25 32 19 32 -6 0 -16 -7
-23 -15 -7 -8 -17 -15 -23 -15 -6 0 0 11 13 25 27 29 27 29 45 11z m60 -56
l29 -30 -24 -23 -23 -22 16 28 c21 33 12 35 -22 5 l-26 -23 19 23 c27 32 11
40 -22 11 l-27 -24 28 31 c38 43 34 51 -10 19 l-38 -28 29 31 c17 18 33 32 36
32 3 0 19 -14 35 -30z m35 -65 c-7 -8 -17 -15 -23 -15 -5 0 -2 9 8 20 21 23
35 19 15 -5z m30 -9 c0 -2 -12 -12 -27 -21 l-28 -18 19 21 c17 20 36 29 36 18z
m10 -19 c0 -2 -10 -12 -22 -23 l-23 -19 19 23 c18 21 26 27 26 19z"/>
<path d="M4245 3635 c-159 -167 -291 -313 -293 -325 -2 -12 -89 -111 -193
-220 l-190 -199 37 -51 c34 -47 38 -50 54 -35 9 9 100 103 201 210 101 107
190 193 196 190 12 -4 589 585 600 613 6 14 -94 122 -112 121 -5 0 -140 -137
-300 -304z m331 264 l29 -31 -40 23 -40 23 30 -33 30 -33 -40 23 -40 22 35
-32 35 -33 -40 22 -40 22 30 -32 c30 -33 16 -31 -30 4 -20 14 -19 15 14 50 19
20 35 36 36 36 1 0 14 -14 31 -31z m-70 -81 l29 -32 -35 22 c-19 11 -36 26
-38 31 -7 21 15 11 44 -21z m-20 -20 l29 -31 -40 23 -40 23 30 -33 30 -33 -32
21 c-44 31 -52 27 -17 -10 l29 -31 -32 22 c-18 12 -33 25 -33 29 0 5 40 52 45
52 1 0 14 -14 31 -32z m-64 -45 c27 -24 22 -36 -7 -17 -14 9 -25 20 -25 25 0
14 11 11 32 -8z m-6 -35 l29 -32 -35 22 c-19 11 -36 26 -38 31 -7 21 15 11 44
-21z m-20 -19 c24 -26 25 -30 7 -20 -12 6 -25 16 -28 21 -3 6 -11 10 -17 10
-7 0 1 -14 18 -32 26 -29 15 -25 -28 10 -13 11 -14 17 -5 28 17 19 20 18 53
-17z m-40 -41 l29 -31 -37 28 c-39 28 -45 35 -30 35 5 0 21 -14 38 -32z m-16
-20 l23 -31 -36 27 c-40 31 -44 36 -24 36 7 0 24 -14 37 -32z m-21 -19 c15
-24 15 -24 -5 -6 -28 23 -41 22 -19 -3 22 -24 9 -27 -16 -4 -14 13 -15 19 -6
30 16 17 27 13 46 -17z m-38 -35 c21 -24 22 -26 3 -16 -25 13 -50 42 -37 42 5
0 20 -12 34 -26z m-20 -21 l24 -27 -32 23 c-38 26 -43 18 -10 -18 l22 -26 -27
24 c-36 31 -45 23 -17 -15 l22 -29 -28 27 c-28 27 -28 28 -10 48 23 26 27 25
56 -7z m-61 -55 c0 -6 -7 -5 -15 2 -8 7 -15 17 -15 22 0 6 7 5 15 -2 8 -7 15
-17 15 -22z m-25 -8 c3 -6 -1 -7 -9 -4 -18 7 -21 14 -7 14 6 0 13 -4 16 -10z"/>
<path d="M2996 2940 c4 -8 22 -35 39 -60 42 -59 72 -134 80 -196 l7 -50 -81
16 -81 15 -16 48 c-20 60 -102 150 -166 183 -166 84 -356 32 -457 -125 l-31
-48 -158 -6 c-274 -11 -419 -57 -397 -127 21 -66 237 -151 524 -205 66 -13 85
-21 117 -51 115 -108 304 -124 435 -39 33 21 42 23 134 16 l99 -6 -62 -67
c-119 -126 -217 -171 -382 -172 -89 0 -116 3 -177 26 -40 14 -96 43 -125 63
-35 25 -46 30 -31 14 70 -77 215 -129 358 -129 168 0 298 52 410 165 39 38 77
79 86 91 14 18 31 22 110 27 200 13 319 55 319 113 0 47 -117 114 -281 159
l-65 19 -22 68 c-26 83 -73 155 -143 223 -28 28 -48 43 -43 35z m-440 -51 c7
-12 -12 -29 -33 -29 -28 0 -11 36 19 39 4 1 10 -4 14 -10z m79 -8 c0 -8 -4
-16 -10 -18 -16 -5 -38 14 -30 26 9 16 40 9 40 -8z m84 10 c15 -10 7 -31 -13
-31 -21 0 -40 27 -24 33 19 8 22 8 37 -2z m-253 -26 c-11 -8 -22 -12 -25 -9
-6 6 19 24 34 24 6 -1 1 -7 -9 -15z m319 -3 c-3 -3 -11 0 -18 7 -9 10 -8 11 6
5 10 -3 15 -9 12 -12z m-232 -26 c7 -19 -18 -40 -38 -32 -15 6 -20 28 -8 39
12 12 41 7 46 -7z m93 3 c9 -16 -20 -41 -39 -33 -17 6 -22 25 -10 37 10 11 41
8 49 -4z m84 -4 c6 -8 9 -19 5 -25 -14 -23 -62 -2 -52 24 8 20 31 21 47 1z
m-265 -4 c8 -14 -23 -41 -40 -35 -18 7 -19 16 -3 32 14 14 35 16 43 3z m353
-14 c3 -14 -1 -18 -20 -15 -12 2 -24 11 -26 21 -3 14 1 18 20 15 12 -2 24 -11
26 -21z m-438 -17 c0 -5 -5 -10 -11 -10 -5 0 -7 5 -4 10 3 6 8 10 11 10 2 0 4
-4 4 -10z m260 -25 c18 -21 5 -47 -22 -43 -26 3 -37 36 -16 49 18 12 24 11 38
-6z m-184 -10 c7 -18 -13 -45 -33 -45 -19 0 -28 27 -13 45 16 19 39 19 46 0z
m92 -7 c-3 -25 -34 -36 -50 -20 -17 17 -1 42 27 42 22 0 26 -4 23 -22z m189
11 c17 -17 4 -39 -22 -39 -23 0 -40 24 -29 41 7 13 38 11 51 -2z m87 -12 c7
-11 7 -20 0 -27 -15 -15 -44 -2 -44 19 0 35 25 39 44 8z m-451 -1 c3 -8 -3
-22 -13 -31 -18 -16 -20 -16 -26 -1 -6 16 11 46 26 46 4 0 10 -6 13 -14z m527
-6 c9 -16 8 -22 -5 -26 -21 -8 -39 10 -32 30 9 22 24 20 37 -4z m-356 -63 c13
-21 -15 -53 -38 -44 -19 8 -21 38 -4 55 15 15 28 11 42 -11z m100 1 c7 -12 6
-21 -3 -32 -18 -22 -38 -20 -51 3 -7 15 -6 24 6 36 19 18 33 16 48 -7z m106
-11 c0 -7 -5 -18 -12 -25 -18 -18 -36 -15 -48 7 -14 28 13 55 41 41 10 -6 19
-16 19 -23z m-383 -21 c-8 -20 -36 -21 -43 -1 -4 8 0 22 7 31 11 13 14 13 27
0 8 -8 12 -22 9 -30z m78 14 c0 -16 -6 -26 -18 -28 -19 -4 -32 20 -23 44 9 25
41 13 41 -16z m390 10 c7 -23 -1 -40 -19 -40 -20 0 -39 27 -32 45 8 22 44 18
51 -5z m75 -16 c0 -33 -33 -30 -38 4 -3 17 2 22 17 22 16 0 21 -6 21 -26z
m-638 -61 c-3 -61 1 -90 17 -132 11 -30 20 -56 18 -57 -8 -7 -185 53 -247 84
-57 28 -77 44 -85 66 -8 25 -6 31 18 52 37 32 146 60 242 63 l40 1 -3 -77z
m776 11 c37 -9 70 -20 74 -23 11 -10 -9 -123 -33 -186 l-20 -55 -94 0 -94 0
34 56 c34 57 55 128 55 189 0 19 2 35 5 35 3 0 36 -7 73 -16z m-689 -12 c12
-23 -2 -47 -23 -39 -24 10 -20 57 5 57 5 0 13 -8 18 -18z m89 -5 c5 -23 -15
-47 -33 -41 -20 8 -27 34 -14 51 16 18 43 13 47 -10z m93 7 c9 -11 10 -20 3
-32 -15 -23 -29 -25 -48 -7 -12 12 -13 21 -6 36 13 23 33 25 51 3z m107 -10
c2 -11 -3 -26 -11 -33 -29 -24 -70 17 -46 46 17 20 53 12 57 -13z m98 4 c7
-24 -19 -50 -42 -41 -14 5 -19 44 -7 56 14 15 42 6 49 -15z m82 13 c20 -12 10
-46 -14 -49 -25 -4 -40 24 -23 44 13 16 19 17 37 5z m86 -34 c-3 -9 -13 -17
-20 -17 -21 0 -29 27 -13 46 10 13 14 13 26 1 8 -7 11 -21 7 -30z m394 -61
c38 -25 47 -36 47 -61 0 -22 -8 -35 -32 -51 -30 -20 -149 -52 -158 -42 -3 3 2
25 10 49 9 24 18 69 22 100 l6 57 29 -10 c16 -6 50 -25 76 -42z m-948 9 c15
-18 6 -45 -15 -45 -18 0 -30 24 -21 45 7 19 20 19 36 0z m548 -21 c-5 -26 -38
-31 -38 -7 0 24 21 46 33 34 5 -5 7 -17 5 -27z m-463 -4 c0 -38 -39 -35 -43 3
-3 25 0 28 20 25 17 -2 23 -9 23 -28z m100 0 c0 -18 -6 -26 -23 -28 -24 -4
-38 18 -28 44 3 9 15 14 28 12 17 -2 23 -10 23 -28z m100 0 c0 -30 -35 -40
-55 -15 -10 12 -10 18 0 30 20 25 55 15 55 -15z m101 15 c7 -18 -13 -45 -33
-45 -17 0 -27 24 -19 45 7 20 45 19 52 0z m91 -1 c3 -8 -2 -23 -11 -32 -14
-15 -18 -15 -31 -1 -9 9 -13 23 -9 32 8 21 43 22 51 1z m-469 -82 c2 -14 -2
-22 -12 -22 -19 0 -29 17 -22 36 8 22 30 12 34 -14z m536 19 c10 -16 -5 -41
-25 -41 -21 0 -25 20 -7 38 14 14 25 15 32 3z m-454 -16 c6 -8 9 -19 5 -25
-10 -16 -42 -12 -49 6 -12 32 21 47 44 19z m90 0 c16 -19 5 -47 -16 -43 -27 5
-42 37 -24 48 20 13 26 12 40 -5z m108 -23 c-5 -24 -52 -23 -56 2 -2 10 2 22
9 27 18 11 51 -9 47 -29z m90 10 c4 -28 -24 -40 -44 -20 -14 13 -14 17 1 32
22 21 39 16 43 -12z m90 6 c-4 -30 -48 -39 -48 -10 0 24 8 32 32 32 14 0 19
-6 16 -22z m-368 -63 c13 -16 6 -35 -14 -35 -18 0 -39 27 -31 40 9 14 31 12
45 -5z m356 4 c10 -17 -23 -46 -38 -31 -8 8 -8 15 2 27 15 18 26 19 36 4z
m-266 -14 c10 -12 9 -16 -4 -21 -22 -8 -46 2 -46 21 0 19 34 20 50 0z m93 1
c8 -19 -16 -38 -37 -30 -16 6 -21 25 -9 37 12 12 41 7 46 -7z m92 -6 c0 -9
-11 -16 -27 -18 -27 -3 -38 14 -21 32 12 12 48 2 48 -14z m-264 -47 c13 -15
12 -15 -8 -4 -24 12 -29 21 -14 21 5 0 15 -7 22 -17z m319 7 c-8 -5 -19 -10
-25 -10 -5 0 -3 5 5 10 8 5 20 10 25 10 6 0 3 -5 -5 -10z m-232 -18 c3 -9 -3
-13 -19 -10 -12 1 -24 9 -27 16 -3 9 3 13 19 10 12 -1 24 -9 27 -16z m80 1 c2
-8 -6 -13 -22 -13 -25 0 -33 10 -19 24 10 10 36 3 41 -11z m83 2 c0 -5 -9 -11
-21 -13 -20 -3 -27 8 -13 22 10 9 34 3 34 -9z m-94 -31 c-3 -3 -12 -4 -19 -1
-8 3 -5 6 6 6 11 1 17 -2 13 -5z"/>
<path d="M940 1726 l0 -96 114 0 c116 0 170 11 180 36 8 21 -3 42 -26 50 -20
6 -20 6 1 21 28 19 26 39 -5 60 -20 13 -55 18 -145 21 l-119 4 0 -96z m225 60
c46 -33 -21 -61 -130 -54 -48 3 -50 4 -53 36 l-3 32 83 0 c55 0 91 -5 103 -14z
m-5 -75 c28 -8 39 -39 18 -52 -7 -5 -55 -9 -105 -9 l-93 0 0 28 c0 16 3 32 7
35 8 9 140 7 173 -2z"/>
<path d="M1330 1725 l0 -95 130 0 c80 0 130 4 130 10 0 6 -42 10 -105 10
l-105 0 0 85 c0 84 0 85 -25 85 -25 0 -25 0 -25 -95z"/>
<path d="M1670 1741 c0 -106 7 -111 147 -111 56 0 113 4 127 10 25 9 26 12 26
95 0 78 -2 85 -20 85 -18 0 -20 -7 -20 -74 0 -54 -4 -77 -16 -87 -20 -16 -109
-23 -154 -12 l-35 9 -5 80 c-5 73 -7 79 -27 82 -22 3 -23 1 -23 -77z"/>
<path d="M2070 1725 l0 -95 125 0 c77 0 125 4 125 10 0 6 -40 10 -100 10
l-100 0 0 35 0 34 98 4 97 3 -97 2 -98 2 0 35 0 35 100 0 c60 0 100 4 100 10
0 6 -48 10 -125 10 l-125 0 0 -95z"/>
<path d="M2610 1726 l0 -96 125 0 c77 0 125 4 125 10 0 6 -40 10 -100 10 l-99
0 -3 83 c-3 76 -5 82 -25 85 -22 3 -23 1 -23 -92z"/>
<path d="M2995 1813 c-40 -11 -45 -23 -45 -104 0 -72 2 -79 20 -79 16 0 20 7
20 35 l0 35 105 0 105 0 0 -35 c0 -31 3 -35 25 -35 25 0 25 1 25 79 0 59 -4
82 -16 91 -16 14 -201 24 -239 13z m189 -19 c10 -4 16 -18 16 -40 l0 -34 -105
0 -105 0 0 28 c0 15 5 33 12 40 13 13 153 17 182 6z"/>
<path d="M3350 1726 l0 -96 115 0 c131 0 185 15 185 50 0 12 -10 25 -24 32
l-25 11 21 16 c24 20 18 55 -10 66 -9 4 -72 10 -139 13 l-123 5 0 -97z m228
62 c7 -7 12 -20 12 -29 0 -21 -56 -32 -140 -27 -54 3 -55 4 -58 36 l-3 32 88
0 c56 0 93 -4 101 -12z m-8 -77 c28 -8 39 -39 18 -52 -7 -5 -55 -9 -105 -9
l-93 0 0 28 c0 16 3 32 7 35 8 9 140 7 173 -2z"/>
<path d="M3747 1813 c-4 -3 -7 -46 -7 -95 l0 -88 125 0 c77 0 125 4 125 10 0
6 -40 10 -100 10 l-100 0 0 35 0 34 98 4 97 3 -97 2 -98 2 0 35 0 35 100 0
c60 0 100 4 100 10 0 11 -232 14 -243 3z"/>
<path d="M4097 1813 c-4 -3 -7 -46 -7 -95 l0 -88 130 0 c80 0 130 4 130 10 0
6 -42 10 -105 10 l-105 0 0 85 c0 76 -2 85 -18 85 -10 0 -22 -3 -25 -7z"/>
<path d="M1130 1450 l0 -61 83 3 82 3 2 50 c2 30 -2 52 -10 57 -6 4 -45 8 -84
8 l-73 0 0 -60z m140 25 c0 -12 -13 -15 -55 -15 -42 0 -55 3 -55 15 0 12 13
15 55 15 42 0 55 -3 55 -15z m-2 -52 c-3 -14 -14 -18 -53 -18 -39 0 -50 4 -53
18 -3 14 5 17 53 17 48 0 56 -3 53 -17z"/>
<path d="M1372 1453 l3 -58 83 -3 82 -3 0 61 c0 46 -3 60 -14 60 -11 0 -16
-15 -18 -52 l-3 -53 -47 -3 -48 -3 0 55 c0 50 -2 56 -20 56 -19 0 -21 -5 -18
-57z"/>
<path d="M1623 1503 c-18 -7 -16 -50 3 -57 9 -3 40 -6 71 -6 46 0 54 -3 51
-17 -3 -14 -17 -19 -73 -24 l-70 -5 88 -2 88 -2 -3 33 c-3 32 -3 32 -65 35
-47 2 -63 7 -63 17 0 12 15 15 65 15 37 0 65 4 65 10 0 10 -134 13 -157 3z"/>
<path d="M1857 1503 c-4 -3 -7 -30 -7 -60 0 -46 3 -53 20 -53 15 0 20 7 20 25
0 23 3 25 50 25 47 0 50 -2 50 -25 0 -18 5 -25 20 -25 18 0 20 7 20 60 0 53
-2 60 -20 60 -15 0 -20 -7 -20 -25 0 -23 -3 -25 -50 -25 -47 0 -50 2 -50 25 0
24 -18 34 -33 18z"/>
<path d="M2100 1499 c0 -6 12 -33 27 -60 37 -68 61 -67 102 6 35 63 36 65 17
65 -8 0 -26 -20 -41 -45 -14 -25 -30 -43 -34 -41 -4 3 -16 23 -26 46 -17 37
-45 55 -45 29z"/>
<path d="M2334 1496 c-3 -7 -4 -33 -2 -57 l3 -44 85 -1 85 -1 -70 6 c-56 5
-70 10 -73 24 -3 14 4 17 47 17 28 0 51 5 51 10 0 6 -22 10 -50 10 -38 0 -50
4 -50 15 0 12 14 15 70 15 40 0 70 4 70 10 0 16 -160 13 -166 -4z"/>
<path d="M2572 1453 l3 -58 85 -1 c70 0 73 0 18 3 l-68 4 0 54 c0 49 -2 55
-20 55 -19 0 -21 -5 -18 -57z"/>
<path d="M2810 1450 l0 -60 85 0 86 0 -3 58 -3 57 -82 3 -83 3 0 -61z m138 -2
l-3 -43 -47 -3 -48 -3 0 45 0 46 51 0 50 0 -3 -42z"/>
<path d="M3210 1500 c0 -5 14 -10 30 -10 29 0 30 -1 30 -50 0 -43 3 -50 20
-50 17 0 20 7 20 50 0 49 1 50 30 50 17 0 30 5 30 10 0 6 -33 10 -80 10 -47 0
-80 -4 -80 -10z"/>
<path d="M3451 1496 c-7 -8 -11 -34 -9 -58 l3 -43 85 0 85 0 3 49 c2 32 -1 52
-10 57 -23 15 -144 11 -157 -5z m127 -48 l-3 -43 -45 0 -45 0 -3 43 -3 42 51
0 51 0 -3 -42z"/>
<path d="M3684 1496 c-3 -7 -4 -33 -2 -57 l3 -44 85 0 85 0 3 58 c3 51 1 57
-17 57 -17 0 -20 -8 -23 -52 l-3 -53 -45 0 -45 0 -3 53 c-2 38 -7 52 -18 52
-8 0 -17 -6 -20 -14z"/>
<path d="M3930 1450 c0 -47 3 -60 15 -60 9 0 15 9 15 25 0 22 4 25 39 25 30 0
42 -5 55 -25 9 -14 23 -25 31 -25 19 0 19 14 0 30 -14 11 -13 14 1 24 9 7 14
22 12 37 -3 23 -7 24 -85 27 l-83 3 0 -61z m140 25 c0 -12 -13 -15 -55 -15
-42 0 -55 3 -55 15 0 12 13 15 55 15 42 0 55 -3 55 -15z"/>
<path d="M1699 925 l-242 -255 -51 47 c-28 26 -129 122 -224 213 -96 91 -183
170 -195 177 -12 7 -42 12 -65 13 -40 0 -49 -5 -109 -62 -83 -80 -107 -125
-101 -189 3 -28 15 -63 28 -82 27 -39 506 -378 552 -390 31 -8 93 6 104 25 4
6 -1 6 -14 -1 -35 -18 -87 -13 -126 14 -97 66 -266 187 -266 191 0 2 68 -41
151 -96 203 -135 202 -135 338 -7 86 79 571 582 571 592 0 4 -95 65 -103 65
-3 0 -114 -115 -248 -255z m-562 17 c197 -186 228 -222 83 -98 -238 206 -244
209 -80 47 l165 -162 -165 142 -165 142 140 -143 140 -143 -170 148 -170 148
145 -149 c80 -82 127 -133 105 -113 -22 19 -85 75 -140 124 -173 154 -174 153
-20 -4 l150 -154 -138 124 c-189 169 -205 176 -57 24 l125 -128 -137 123 -137
123 20 26 c32 42 78 63 126 58 39 -4 56 -17 180 -135z m-161 -303 c3 -6 -5 -3
-20 6 -14 10 -26 19 -26 22 0 7 39 -17 46 -28z"/>
<path d="M3263 1137 c-29 -18 -51 -35 -50 -38 3 -9 478 -509 501 -528 11 -9
51 -45 89 -80 68 -62 69 -63 117 -59 40 4 71 20 199 107 83 56 151 99 151 97
0 -3 -70 -54 -156 -115 -163 -116 -193 -128 -246 -100 -14 8 -18 8 -14 0 4 -6
24 -16 44 -22 31 -9 45 -8 72 4 64 27 513 351 537 386 53 78 39 149 -47 243
-67 74 -103 93 -160 85 -44 -6 -60 -20 -348 -295 l-160 -152 -203 212 c-111
117 -218 230 -238 250 l-36 37 -52 -32z m1138 -103 l38 -39 -127 -115 -127
-114 115 124 c62 69 94 107 70 84 -25 -22 -92 -82 -150 -134 l-105 -94 120
122 c66 67 116 122 112 122 -5 0 -70 -55 -145 -122 l-137 -121 140 144 c77 79
124 130 105 113 -19 -17 -93 -82 -165 -144 -71 -63 -139 -121 -149 -129 -11
-9 52 55 140 142 l159 159 -165 -143 c-91 -78 -176 -152 -190 -163 -14 -12 47
50 135 137 159 158 160 158 51 65 -298 -255 -303 -257 -46 -13 85 81 164 151
175 156 11 5 40 7 64 5 35 -3 51 -12 82 -42z"/>
</g>
</svg>
