<?xml version="1.0" standalone="no"?>
<!DOCTYPE svg PUBLIC "-//W3C//DTD SVG 20010904//EN"
 "http://www.w3.org/TR/2001/REC-SVG-20010904/DTD/svg10.dtd">
<svg version="1.0" xmlns="http://www.w3.org/2000/svg"
 width="293.000000pt" height="172.000000pt" viewBox="0 0 293.000000 172.000000"
 preserveAspectRatio="xMidYMid meet">

<g transform="translate(0.000000,172.000000) scale(0.100000,-0.100000)"
fill="#000000" stroke="none">
<path d="M214 1634 c-18 -14 -18 -15 4 -4 12 6 22 13 22 15 0 8 -5 6 -26 -11z"/>
<path d="M134 1558 l-19 -23 23 19 c21 18 27 26 19 26 -2 0 -12 -10 -23 -22z"/>
<path d="M72 1480 c-7 -11 -12 -25 -12 -32 1 -7 8 0 16 15 18 33 14 46 -4 17z"/>
<path d="M21 1364 c0 -11 3 -14 6 -6 3 7 2 16 -1 19 -3 4 -6 -2 -5 -13z"/>
<path d="M2 1255 c0 -16 2 -22 5 -12 2 9 2 23 0 30 -3 6 -5 -1 -5 -18z"/>
<path d="M437 1232 c-41 -25 -70 -92 -62 -142 17 -101 134 -154 223 -100 35
21 38 30 20 48 -8 8 -17 6 -36 -8 -95 -75 -218 65 -133 151 32 31 84 39 122
18 15 -8 24 -7 36 2 13 12 13 15 -7 31 -30 24 -124 24 -163 0z"/>
<path d="M695 1110 c0 -139 0 -140 23 -140 21 0 22 4 22 65 l0 65 75 0 75 0 0
-65 c0 -63 1 -65 25 -65 l25 0 0 140 0 140 -25 0 c-24 0 -25 -3 -25 -55 l0
-55 -75 0 -75 0 0 55 c0 50 -2 55 -22 55 -23 0 -23 -1 -23 -140z"/>
<path d="M1116 1242 c-6 -10 -116 -265 -116 -269 0 -2 10 -3 23 -3 17 0 28 10
40 35 16 34 19 35 72 35 53 0 56 -1 72 -35 12 -26 23 -35 41 -35 13 0 22 4 20
9 -1 6 -28 68 -58 140 -40 94 -60 131 -72 131 -9 0 -19 -4 -22 -8z m54 -149
c0 -8 -13 -13 -35 -13 -19 0 -35 2 -35 5 0 2 7 23 17 46 l16 42 18 -34 c10
-19 18 -40 19 -46z"/>
<path d="M1330 1110 l0 -140 85 0 c78 0 85 2 85 20 0 18 -7 20 -60 20 l-60 0
0 120 0 120 -25 0 -25 0 0 -140z"/>
<path d="M1560 1110 l0 -140 85 0 c78 0 85 2 85 20 0 18 -7 20 -60 20 l-60 0
0 120 0 120 -25 0 -25 0 0 -140z"/>
<path d="M1790 1110 l0 -140 85 0 c78 0 85 2 85 20 0 16 -8 19 -62 22 l-63 3
-3 43 -3 42 45 0 c39 0 46 3 46 19 0 16 -8 20 -42 23 -40 3 -43 5 -46 36 l-3
32 60 0 c54 0 61 2 61 20 0 18 -7 20 -80 20 l-80 0 0 -140z"/>
<path d="M2010 1110 l0 -140 25 0 c24 0 24 1 27 96 l3 96 83 -96 c46 -53 89
-96 97 -96 12 0 15 24 15 140 l0 140 -25 0 c-24 0 -24 -2 -27 -91 l-3 -90 -78
90 c-49 57 -85 91 -97 91 -19 0 -20 -8 -20 -140z"/>
<path d="M2393 1230 c-87 -52 -83 -198 6 -245 45 -23 112 -19 152 8 31 21 34
27 37 80 l3 57 -61 0 c-53 0 -60 -2 -60 -20 0 -16 7 -20 35 -20 32 0 35 -2 35
-30 0 -38 -29 -54 -84 -47 -53 7 -86 46 -86 100 0 74 85 122 152 86 16 -8 24
-8 35 4 14 14 12 17 -15 31 -42 22 -110 20 -149 -4z"/>
<path d="M2650 1110 l0 -140 85 0 c78 0 85 2 85 20 0 18 -7 20 -60 20 l-60 0
0 45 0 45 44 0 c39 0 44 2 39 20 -4 16 -14 20 -44 20 -38 0 -39 1 -39 35 l0
35 55 0 c48 0 55 2 55 20 0 18 -7 20 -80 20 l-80 0 0 -140z"/>
<path d="M1107 860 c-114 -20 -214 -98 -265 -208 -23 -48 -27 -71 -27 -142 0
-76 4 -93 33 -152 106 -216 379 -269 557 -107 32 30 65 73 82 107 25 51 28 68
28 157 0 91 -3 105 -29 155 -72 140 -224 216 -379 190z m149 -131 c50 -24 100
-77 121 -128 22 -52 19 -150 -6 -198 -25 -51 -88 -107 -136 -123 -20 -7 -65
-10 -100 -8 -243 15 -311 343 -94 452 68 33 153 36 215 5z"/>
<path d="M195 813 c15 -27 35 -54 43 -60 20 -16 473 -18 503 -3 10 6 30 33 44
60 l25 50 -321 0 -321 0 27 -47z"/>
<path d="M1632 613 l3 -248 28 -58 c47 -95 140 -147 265 -147 130 0 233 62
271 166 19 50 21 77 21 294 l0 240 -60 0 -60 0 -1 -177 c-3 -327 -7 -346 -85
-391 -49 -29 -139 -27 -181 4 -68 51 -68 52 -71 320 l-3 244 -65 0 -66 0 4
-247z"/>
<path d="M2350 515 l0 -345 60 0 60 0 0 140 0 140 58 0 57 0 95 -143 95 -142
71 5 71 5 -98 140 c-54 77 -99 142 -99 145 0 3 16 15 35 27 99 64 107 233 16
316 -51 46 -106 57 -281 57 l-140 0 0 -345z m328 205 c46 -43 41 -109 -11
-140 -25 -16 -50 -20 -114 -20 l-83 0 0 90 0 90 93 0 c80 0 96 -3 115 -20z"/>
<path d="M430 394 c0 -274 0 -275 25 -324 14 -28 29 -50 34 -50 4 0 20 22 34
49 l27 49 0 254 0 254 -60 22 -60 21 0 -275z"/>
</g>
</svg>
