<?xml version="1.0" standalone="no"?>
<!DOCTYPE svg PUBLIC "-//W3C//DTD SVG 20010904//EN"
 "http://www.w3.org/TR/2001/REC-SVG-20010904/DTD/svg10.dtd">
<svg version="1.0" xmlns="http://www.w3.org/2000/svg"
 width="1280.000000pt" height="796.000000pt" viewBox="0 0 1280.000000 796.000000"
 preserveAspectRatio="xMidYMid meet">

<g transform="translate(0.000000,796.000000) scale(0.100000,-0.100000)"
fill="#000000" stroke="none">
<path d="M4748 6848 l-3 -463 -5 454 -5 454 -82 -86 c-407 -431 -629 -936
-673 -1536 -6 -84 -10 -154 -8 -156 2 -2 116 -28 253 -59 212 -47 345 -73 523
-102 l32 -5 0 126 c0 207 33 428 94 630 14 48 20 84 15 90 -5 5 -9 19 -9 31 0
13 -7 29 -15 38 -8 8 -15 19 -15 24 0 6 -9 8 -20 5 -16 -4 -20 0 -20 21 0 15
-6 26 -14 26 -23 0 -26 58 -26 523 0 291 -3 447 -10 447 -6 0 -11 -162 -12
-462z"/>
<path d="M8357 4872 c-447 -661 -1278 -1114 -2170 -1181 -65 -5 -121 -12 -124
-15 -4 -4 67 -220 188 -563 l11 -33 173 0 c367 0 688 73 1010 230 463 225 857
612 1096 1078 27 53 49 102 49 110 0 18 -149 454 -159 465 -4 4 -37 -37 -74
-91z"/>
<path d="M6781 1545 c-416 -94 -652 -399 -627 -810 8 -134 28 -212 83 -324 56
-113 160 -226 268 -289 148 -86 343 -130 535 -118 376 22 641 213 742 536 20
66 23 95 23 240 0 145 -3 174 -23 240 -83 262 -269 439 -537 511 -105 28 -367
36 -464 14z m354 -360 c125 -33 222 -110 276 -220 41 -83 51 -208 25 -301 -58
-200 -254 -319 -500 -301 -281 21 -458 228 -417 487 27 166 141 289 310 335
66 19 235 18 306 0z"/>
<path d="M0 780 l0 -761 483 3 482 3 95 33 c156 54 255 122 347 237 111 139
164 294 164 485 0 139 -23 238 -81 355 -75 152 -175 252 -325 325 -154 74
-144 73 -682 77 l-483 4 0 -761z m875 419 c124 -23 236 -106 288 -213 88 -179
51 -386 -93 -519 -102 -95 -127 -101 -442 -105 l-268 -3 0 425 0 426 228 0
c126 0 255 -5 287 -11z"/>
<path d="M1730 780 l0 -760 185 0 185 0 0 189 0 190 328 3 c327 3 327 3 402
30 238 87 380 289 380 543 0 166 -57 302 -169 407 -79 75 -140 109 -241 137
-71 20 -100 21 -572 21 l-498 0 0 -760z m939 429 c63 -13 132 -72 156 -131 37
-93 12 -215 -57 -278 -58 -53 -102 -60 -400 -60 l-268 0 0 240 0 240 260 0
c146 0 281 -5 309 -11z"/>
<path d="M3662 1528 c2 -7 110 -349 239 -761 l234 -747 184 2 184 3 203 559
c112 307 205 560 207 563 3 2 96 -250 208 -559 l205 -563 184 0 185 0 237 755
c131 415 238 756 238 758 0 1 -84 1 -187 0 l-188 -3 -155 -458 c-102 -302
-158 -454 -164 -445 -4 8 -81 214 -170 458 l-161 445 -235 0 -234 0 -165 -457
c-91 -252 -168 -458 -171 -458 -3 0 -75 207 -160 460 l-155 460 -184 0 c-142
0 -182 -3 -179 -12z"/>
<path d="M7980 780 l0 -760 180 0 180 0 0 225 0 225 287 -2 287 -3 105 -222
104 -223 200 0 199 0 -141 274 -140 273 26 14 c38 20 130 125 157 178 57 112
76 271 47 391 -34 139 -140 273 -263 330 -128 60 -134 60 -705 60 l-523 0 0
-760z m1050 400 c117 -65 119 -262 3 -340 l-36 -25 -329 -3 -328 -3 0 201 0
201 323 -3 322 -3 45 -25z"/>
<path d="M9700 780 l0 -760 685 0 685 0 0 175 0 175 -505 0 -505 0 0 585 0
585 -180 0 -180 0 0 -760z"/>
<path d="M11220 779 l0 -760 483 4 c538 4 528 3 682 77 372 180 521 644 331
1034 -76 156 -216 286 -378 350 -134 53 -171 56 -664 56 l-454 0 0 -761z m898
416 c127 -30 212 -96 267 -208 117 -237 22 -505 -212 -598 -54 -22 -74 -24
-320 -27 l-263 -3 0 425 0 426 233 0 c169 0 249 -4 295 -15z"/>
</g>
</svg>
