<?xml version="1.0" encoding="UTF-8"?>
<svg id="Layer_2" data-name="Layer 2" xmlns="http://www.w3.org/2000/svg" viewBox="0 0 1243.46 708.58">
  <defs>
    <style>
      .cls-1 {
        fill: #040404;
      }

      .cls-1, .cls-2 {
        stroke-width: 0px;
      }

      .cls-2 {
        fill: #e43623;
      }
    </style>
  </defs>
  <g id="Layer_1-2" data-name="Layer 1">
    <g>
      <path class="cls-2" d="M0,501c2.36-.94,2.01-3.29,2.64-5.11,7.89-22.79,22.17-39.5,45.84-46.54,36.75-10.94,70.09,16.87,66.55,55.02-1.58,17.01-6.84,32.85-14.6,47.89-8.18,15.82-17.11,31.26-25.06,47.2-13.09,26.26-8.27,54.94,10.87,74.73,29.28,30.27,82.36,19,92.55-24.62,3.02-12.94,4.33-25.93,4.03-39.15-.04-1.92,0-3.83,0-6.97,3.56,5.5,4.57,10.62,5.3,15.7,3.26,22.68,2.11,44.73-12.66,63.67-27.07,34.7-81.03,33.28-108.45-3.15-19.71-26.19-22.14-54.96-9.25-84.93,5.93-13.78,14.23-26.35,21.46-39.46,8.36-15.15,15.33-30.76,17.65-48.15,2.97-22.32-7.12-38.83-26.88-43.08-11.35-2.44-21.79.43-31.17,6.85-16.71,11.44-25.33,28.03-28.86,47.46-4.01,22.06.91,42.57,11.52,62.01,1.48,2.72,2.88,3.64,6.11,3.23,7.12-.91,12.42,2.3,14.7,8.13,2.16,5.55.23,12.17-4.59,15.76-4.8,3.56-11.61,3.37-16.35-.46-4.95-4.01-6.25-10.03-3.49-16.46.69-1.6,2.26-2.96.54-4.88-10.16-11.36-14.35-25.49-18.4-39.68v-44.99Z"/>
      <path class="cls-1" d="M395.44,0c4.67,5.39,10.94,8.77,16.52,13,13.07,9.9,26.31,19.6,39.62,29.17,3.12,2.24,4.44,4.58,4.36,8.5-.27,12.55-.15,25.12-.06,37.68.02,2.59-.46,4.45-2.85,6.09-21.54,14.75-42.98,29.66-64.45,44.52-.65.45-1.23,1.09-2.87.14V0h9.73Z"/>
      <path class="cls-1" d="M877.34,482.13c49.27,13.89,55.84,75.76,25,104.27-11.66,10.78-25.8,16.28-41.37,16.72-26.34.74-52.7.44-79.06.53-14.6.05-29.2-.08-43.79.07-3.6.04-5.35-.4-5.34-4.83.15-75.38.12-150.76.06-226.14,0-3.33.34-5.13,4.47-5.11,39.13.2,78.27-.34,117.38.46,23.91.49,43.88,9.92,55.28,32.29,14.46,28.38,4.81,69.54-30.35,80.54-.73.23-1.38.71-2.29,1.19ZM815.33,502.01c-13.89,0-25.43.08-36.97-.05-2.98-.03-4.32.62-4.3,3.99.14,19.22.21,38.44-.03,57.66-.06,4.51,2.32,4.2,5.32,4.19,19.23-.05,38.47-.02,57.7-.03,4.45,0,8.85-.09,13.29-.82,17.29-2.85,27.6-13.79,28.26-30.36.68-17.08-9-29.65-26.29-33.37-12.99-2.8-26.23-.43-36.99-1.21ZM811.55,465.6v-.02c10.54,0,21.09.15,31.63-.04,13.75-.24,24.92-7.78,29-19.24,7.8-21.92-6.6-41.75-30.82-42.03-20.68-.24-41.36.02-62.05-.13-3.74-.03-5.35.67-5.29,4.95.26,17.22.25,34.45.01,51.67-.06,4.24,1.5,4.99,5.27,4.91,10.74-.23,21.49-.08,32.24-.08Z"/>
      <path class="cls-1" d="M267.19,475.91c1.05,2.12.55,4.39.55,6.58.04,26.54.13,53.09-.08,79.63-.03,4.41.85,5.94,5.59,5.76,19.02-.72,38.17,1.48,57.06-1.63,41.2-6.78,67.55-41.34,64.99-84.9-1.66-28.32-12.19-51.82-37.72-66.67-12.37-7.2-26.02-10.07-40.15-10.38-15-.33-30.01.04-45.01-.17-3.75-.05-5,1.02-4.74,4.78.27,3.81,1.35,9.17-.62,11.1-2.3,2.25-6.91-1.28-10.56-2.09-8.59-1.91-17.26-2.61-25.96-1.77-3.14.3-4.29.24-4.25-3.29.16-13.78.16-27.56,0-41.33-.04-3.11,1.18-3.7,3.92-3.66,33.24.41,66.61-2.02,99.7.94,72.92,6.51,114.23,63.26,107.18,131.43-5.66,54.77-44.76,94.61-99.52,101.91-9.66,1.29-19.34,1.89-29.07,1.87-25.55-.04-51.09-.09-76.64.06-3.94.02-5.65-.53-5.63-5.14.21-33.43.15-66.87.05-100.3,0-2.93.94-4.91,3.06-6.79,10.8-9.62,23.27-15.17,37.83-15.93Z"/>
      <path class="cls-1" d="M478.16,451.3c0-29.38.1-53.7-.09-78.01-.03-4.13.88-5.62,5.28-5.48,10.33.32,20.69.38,31.01-.02,4.78-.18,5.62,1.48,5.6,5.84-.15,45.8-.24,91.6-.02,137.39.09,19.41,5.64,36.65,21.76,49.22,20.88,16.29,72.14,18.1,90.56-14.98,5.96-10.71,8.5-22.26,8.52-34.38.08-45.39.15-90.79-.08-136.18-.03-5.59,1.4-7.19,6.97-6.93,10.12.47,20.27.25,30.41.07,3.37-.06,4.48.86,4.48,4.4-.12,48.23.64,96.47-.34,144.68-.66,32.44-12.51,60.1-42.01,77.47-13.31,7.84-28,11.64-43.25,13.03-22.62,2.06-44.99.86-66.24-8.12-31.17-13.16-47.28-37.77-51.24-70.48-3.32-27.42-.44-55.06-1.32-77.53Z"/>
      <path class="cls-2" d="M841.18,160.78c-17.43,0-34.86.19-52.28-.12-5.11-.09-5.58,1.8-4.86,6.05,4.14,24.66,28.42,38.06,51.48,28.29,6.04-2.56,10.66-6.75,13.26-12.72,1.25-2.87,2.76-3.89,5.86-3.85,12.97.16,25.94.23,38.9-.02,4.4-.09,4.56,1.29,3.25,4.86-10.48,28.62-31.65,43.51-61.14,47.71-13.78,1.96-27.48,1.4-40.97-2.22-24.37-6.53-41.6-21.39-50.57-44.94-9.04-23.72-9.56-47.98-.64-71.84,10.8-28.91,32.62-44.56,62.79-48.52,13.3-1.75,26.72-1.18,39.68,3.11,30.18,10,45.28,32.33,50.84,62.39,1.67,9.01,1.59,18.11,1.57,27.24,0,3.87-1.29,4.7-4.89,4.66-17.42-.17-34.85-.08-52.28-.08ZM817.83,128.66h21.28c14.39,0,15.93-2.73,8.97-16-.66-1.25-1.39-2.47-2.2-3.63-7.93-11.35-23.35-16.23-38.05-12.06-12.45,3.53-23.03,16.27-24.08,28.6-.28,3.31,1.57,3.09,3.67,3.09,10.13,0,20.27,0,30.4,0Z"/>
      <path class="cls-2" d="M561.87,147.42c0-25.12.1-50.23-.1-75.34-.03-4.22,1.05-5.51,5.36-5.4,11.34.31,22.7.29,34.04.01,4.1-.1,5.05,1.28,5,5.15-.19,16.4.07,32.81-.18,49.22-.07,4.35,1.29,5.39,5.48,5.35,19.66-.21,39.32-.19,58.97,0,3.97.04,5.18-1.07,5.13-5.09-.21-16.4.06-32.81-.19-49.22-.06-4.3,1.24-5.49,5.46-5.39,11.34.28,22.7.22,34.04.02,3.53-.06,5.02.67,5.01,4.62-.12,50.84-.11,101.68,0,152.51,0,3.95-1.6,4.67-5.08,4.63-11.55-.17-23.1-.2-34.65.02-3.83.07-4.78-1.26-4.75-4.9.16-17.82-.19-35.65.22-53.47.13-5.59-1.67-6.62-6.8-6.54-19.05.3-38.1.28-57.15,0-4.67-.07-5.76,1.35-5.69,5.82.25,17.62-.03,35.24.2,52.86.06,4.49-.75,6.45-5.86,6.26-11.13-.41-22.29-.28-33.43-.04-3.98.09-5.14-1.09-5.11-5.12.18-25.32.09-50.63.09-75.95Z"/>
      <path class="cls-2" d="M1105.66,62.75c51.16-.65,85.19,36.4,81.28,92.82-1.6,23.04-9.56,43.29-27.72,58.67-32.59,27.61-103.48,26.14-126.85-24.14-13.64-29.35-13.56-59.57,1.57-88.38,14.95-28.47,40.88-38.75,71.72-38.96ZM1068.33,147.42c-.14,11.28,1.35,22.27,6.68,32.37,6.56,12.43,17.01,18.66,31.12,18.41,13.92-.25,24.31-6.72,29.75-19.39,8.88-20.65,8.97-41.81.25-62.53-5.57-13.23-16.51-19.77-30.79-19.73-14.21.03-24.77,6.56-31.02,19.56-4.77,9.91-6.07,20.48-5.99,31.32Z"/>
      <path class="cls-2" d="M333.33,300.67c-22.92-16.65-44.99-32.71-67.12-48.71-1.83-1.33-2.55-2.83-2.55-5.08.06-68.67.07-137.35.1-206.02,0-.34.31-.68.79-1.64,5.89,4.35,11.67,8.63,17.47,12.89,15.98,11.77,31.94,23.57,47.98,35.26,2.46,1.8,3.81,3.61,3.8,6.91-.1,67.66-.08,135.32-.09,202.98,0,.78-.17,1.56-.38,3.4Z"/>
      <path class="cls-1" d="M1242.46,486.31c0,37.28-.09,74.56.11,111.83.03,4.82-1.31,6.13-6.04,5.96-9.92-.36-19.87-.36-29.79,0-4.65.17-5.72-1.36-5.71-5.82.16-45.79.1-91.57.1-137.36,0-28.97.1-57.94-.1-86.91-.03-4.55.87-6.4,5.88-6.2,10.12.4,20.28.36,30.4,0,4.43-.15,5.25,1.34,5.24,5.45-.16,37.68-.09,75.37-.09,113.05Z"/>
      <path class="cls-2" d="M917.59,177.6c.53-13.39-.75-29.79.68-46.17,3.69-42.2,28.37-65.94,70.93-68,8.12-.39,16.16.18,24.17,1.78,3.07.61,3.9,1.93,3.85,4.86-.15,9.51-.19,19.03,0,28.54.07,3.41-1.18,4.09-4.27,3.7-6.25-.79-12.58-.92-18.77.31-17.65,3.51-27.6,14.28-30.35,32.51-1.15,7.63-1.33,15.31-1.33,23.01.02,21.46-.16,42.92.12,64.38.06,4.93-1.43,6.14-6.14,6-10.93-.33-21.88-.31-32.81,0-4.64.13-6.35-1.01-6.22-6.02.36-13.96.12-27.93.12-44.89Z"/>
      <path class="cls-1" d="M1121.86,468.42c-13.64-8.09-27.09-11.04-41.39-9.77-3.7.33-4.28-1.93-5.2-4.46-5.57-15.39-11.2-30.77-16.82-46.14-.47-1.28-1.04-2.52-2.03-4.9-4.79,12.83-9.25,24.7-13.66,36.58-4.65,12.5-9.25,25.02-13.9,37.51-.56,1.5-.95,3.34-2.04,4.31-13.99,12.41-29.3,22.28-48.51,24.28-.36.04-.75-.23-1.62-.51,6.32-16.17,12.6-32.32,18.93-48.45,10.92-27.83,21.95-55.62,32.72-83.52,1.62-4.21,3.68-5.72,8.32-5.59,13.77.38,27.55.21,41.33.07,3-.03,4.74.69,5.91,3.69,12.38,31.82,24.89,63.59,37.96,96.89Z"/>
      <path class="cls-2" d="M113.02,667.03c1.57-2.13,3.53-1.17,5.22-1.16,24.68.06,42.05-16.45,43.72-41.16,1.09-16.16-2.73-31.3-8.16-46.28-4.55-12.55-8.4-25.36-13.1-37.86-12.04-31.96-5.91-61.22,12.63-88.74,2.47-3.66,5.25-7.11,7.94-10.74-1.66-1.59-3.56-.83-5.22-.83-21.9.03-43.8.18-65.7.23-7.21.02-9.36-2.7-7.07-9.4,5.4-15.81,16.82-25.3,32.92-28.17,16.35-2.91,30.99,1.29,42.27,14.32.39.45.73.98.95,1.54.12.32-.05.76-.15,1.66-2.43-.22-3.56-2.3-5.1-3.54-15.23-12.32-38.27-11.24-51.57,2.52-1.4,1.45-2.58,3.12-3.79,4.74-2.42,3.24-1.54,4.48,2.45,4.42,8.11-.13,16.22.02,24.33.01,17.03-.01,34.07-.09,51.1-.04,2.51,0,5.66-1.1,7.21,1.78,1.74,3.22-1.62,4.64-3.2,6.43-19.06,21.65-28.79,46.59-27.34,75.66.48,9.68,3.93,18.57,6.68,27.65,4.87,16.07,10.83,31.83,14.6,48.21,4.28,18.56,4.27,36.99-4.21,54.62-9.2,19.13-25.48,28.6-46.61,27.24-3.76-.24-7.58-.59-10.8-3.12Z"/>
      <path class="cls-2" d="M1181.26,535.53c-8.43-2.45-16.52-5.45-25.03-6.98-25.67-4.62-49.58-.48-71.38,14.05-11.11,7.41-21.89,15.31-32.84,22.95-32.61,22.74-78.07,23-110.92.65-.29-.2-.42-.65-1.04-1.64,4.16-.91,8.08-.46,11.9-.11,34.9,3.27,66.56-4.2,94.34-26.66,15.6-12.61,32.2-24.23,52.26-28.71,30.41-6.78,57.34.28,80.1,21.93,1.1,1.05,2.72,1.87,2.61,4.52Z"/>
      <path class="cls-2" d="M164.4,489.77c9.02-31.48,42.02-57.7,72.9-57.73,22.27-.02,40.74,8.92,55.06,28.13-4.11-.21-7.19-.3-10.27-.53-38.17-2.9-65.54,13.62-83.78,46.54-5.91,10.67-10.49,21.88-13.68,33.66-1.46,5.4-5.4,7.42-11.14,5.86-5.57-1.52-7.34-4.64-5.72-10.3,4.23-14.89,10.26-28.99,18.97-41.84,18.81-27.78,44-43.58,78.68-41.75-13.99-4.98-28.22-6.12-42.64-2.51-19,4.76-33.35,16.86-46.9,30.19-3.37,3.32-6.19,7.3-11.48,10.29Z"/>
      <path class="cls-1" d="M455.59,154.99v100.63c-23.44-17.03-46.24-33.59-69.64-50.59,23.31-16.75,46.13-33.15,69.64-50.04Z"/>
      <path class="cls-2" d="M1132.14,494.3c-27.07-6.82-51.23-1.35-73.26,14.9-6.68,4.93-13.56,9.59-20.47,14.2-13.67,9.11-28.75,13.99-45.22,13.69-12.12-.22-23.51-3.3-34.94-11.6,4.48-.44,7.5-.94,10.53-1,24.95-.46,47.1-8.4,66.83-23.78,13.45-10.49,27.71-19.94,44.87-23.33,15.22-3.01,29.86-1.58,43.03,7.58,3.48,2.43,6.49,5.33,8.63,9.35Z"/>
      <path class="cls-1" d="M1174.5,604.11c-14.03,0-27.94-.04-41.86.04-2.33.01-3.08-1.24-3.77-3.11-5.85-16.12-11.73-32.23-17.7-48.31-1.07-2.88-.03-3.8,2.68-4.63,11.42-3.49,22.98-4.2,34.77-2.64,2.36.31,4.03.91,5.01,3.46,6.81,17.7,13.78,35.33,20.68,53,.21.53.11,1.17.19,2.2Z"/>
      <path class="cls-2" d="M147.31,602.7c11.75,20.51-3.02,47.17-26.75,50-14.85,1.77-29.32-6.33-35.7-19.99-6.38-13.66-3.37-29.94,7.48-40.17,1.17-1.11,2.48-2.08,3.78-3.04.94-.7,2.06-1.76,3.2-.79,1.22,1.05.14,2.18-.49,3.18-3.32,5.29-5.17,11.01-4.43,17.29,1.65,14.23,13.53,24.62,27.34,24.07,14.26-.56,25.18-11.85,25.57-26.45.03-1,0-2.01,0-4.09Z"/>
      <path class="cls-1" d="M226.67,677.61c0-8.49.17-16.98-.08-25.46-.1-3.51,1.03-4.51,4.43-4.38,7.27.27,14.57-.14,21.83.27,15.99.91,27.05,13,27.14,29.23.1,16.28-10.73,28.36-26.79,29.45-7.25.49-14.56.12-21.82.45-3.65.17-4.95-.85-4.81-4.7.3-8.28.09-16.57.09-24.86ZM237.09,676.87c0,3.44,0,6.87,0,10.31q0,10.84,10.55,10.81c13.22-.04,21.35-7.62,21.51-20.08.17-13.03-7.67-20.89-21.12-21.16q-10.94-.23-10.94,10.43c0,3.23,0,6.47,0,9.7Z"/>
      <path class="cls-1" d="M590.12,706.49c-8.17,2.2-13.36.07-16.37-7.48-1.55-3.89-4.29-7.3-6.43-10.96-.94-1.6-1.81-2.87-4.01-3.15-7.41-.95-8.28-.31-8.28,7.22,0,3.03-.42,6.14.09,9.08,1.04,6.06-2.15,6.54-6.88,6.29-2.72-.14-3.4-1.04-3.39-3.55.07-17.59.1-35.18-.02-52.77-.02-2.81,1.07-3.33,3.55-3.29,8.29.15,16.6-.14,24.88.2,8.55.35,15.06,6.18,16.65,14.21,1.79,9.06-1.84,17.08-10.13,20.37-3.69,1.47-2.89,2.58-1.37,4.96,3.93,6.1,7.67,12.32,11.71,18.86ZM563.88,656.89q-8.86-.16-8.85,8.71c0,2.42.05,4.84,0,7.25-.05,1.91.52,3.08,2.7,3.02,4.63-.12,9.33.31,13.87-.36,5.19-.77,8.18-4.26,7.91-9.75-.26-5.2-3.47-8.02-8.37-8.81-2.36-.38-4.82-.07-7.24-.07Z"/>
      <path class="cls-1" d="M489.01,647.84c5.47,0,10.95.26,16.39-.09,4.1-.26,3.88,2.01,4,4.84.13,3.07-.64,4.32-3.99,4.21-7.48-.23-14.98.08-22.46-.14-3.25-.1-4.01,1.02-4.09,4.13-.31,11.56-.43,11.56,11.19,11.56,5.06,0,10.13.23,15.18-.07,4-.24,3.36,2.23,3.45,4.64.11,2.67.06,4.62-3.66,4.48-7.28-.26-14.57.04-21.86-.13-3.03-.07-4.16.73-4.31,4-.57,12.73-.7,12.72,11.8,12.72,5.06,0,10.13.21,15.18-.06,3.94-.21,3.44,2.22,3.51,4.68.08,2.67.04,4.64-3.68,4.57-11.13-.2-22.27-.15-33.4-.02-2.9.03-3.83-.85-3.81-3.8.13-17.19.16-34.39-.02-51.59-.04-3.37,1.17-4.08,4.16-3.98,5.46.18,10.93.05,16.39.05Z"/>
      <path class="cls-1" d="M1008.94,647.05c6.42-.05,12.33,1.59,17.78,5.08,2.68,1.71,3.96,3.44,1.29,6.06-1.81,1.77-2.51,5.81-6.71,2.3-4.86-4.06-10.97-5.01-17.22-4.1-3.67.54-6.61,2.35-7.01,6.39-.37,3.74,2.37,5.36,5.41,6.32,5.19,1.64,10.51,2.91,15.66,4.67,9.73,3.33,14.15,9.35,13.38,17.71-.81,8.76-7.02,14.83-16.86,16.24-9.76,1.4-18.84-.18-27.16-5.91-3.96-2.73-1.73-4.74-.06-7.24,1.71-2.56,2.93-3.54,5.94-1.01,5.46,4.58,12.07,6.53,19.25,5.28,4.19-.73,7.89-2.49,8.27-7.45.35-4.69-3.32-6.15-6.79-7.32-4.01-1.36-8.17-2.26-12.25-3.42-11.54-3.28-16.3-9.1-15.21-18.54.97-8.42,8.79-14.54,19.27-15.05,1.01-.05,2.02,0,3.03,0Z"/>
      <path class="cls-1" d="M1086.37,646.98c6.92.04,12.87,1.71,18.21,5.35,2.15,1.46,4.11,2.99,1.24,5.59-1.89,1.72-2.38,6.13-6.7,2.61-4.76-3.88-10.61-4.88-16.65-4.27-3.93.39-7.21,2.18-7.74,6.41-.5,4.02,2.76,5.63,5.88,6.66,4.99,1.64,10.15,2.74,15.12,4.42,9.52,3.21,14.1,9.19,13.48,17.11-.72,9.32-6.75,15.41-16.95,16.86-9.75,1.38-18.85-.09-27.13-5.99-3.5-2.5-2.22-4.23-.37-6.69,1.82-2.42,2.98-4.41,6.41-1.45,5.63,4.85,12.46,6.62,19.87,5.1,3.77-.77,7.06-2.57,7.53-6.85.49-4.54-2.73-6.41-6.43-7.55-5.21-1.61-10.54-2.87-15.67-4.7-8.8-3.14-12.97-8.66-12.51-15.89.49-7.77,5.87-13.55,14.49-15.86,2.8-.75,5.59-.79,7.93-.86Z"/>
      <path class="cls-1" d="M411.61,646.99c5.78,0,11.22,1.33,16.22,4.3,5.08,3.02,5.03,7.21.04,10.29-1.79,1.1-2.55-.24-3.59-.98-5.21-3.68-11.01-5.01-17.28-4.27-3.73.44-6.69,2.24-7.33,6.16-.67,4.12,2.51,5.7,5.64,6.74,4.98,1.66,10.14,2.79,15.11,4.48,9.92,3.36,14.41,9.27,13.68,17.55-.8,9.11-7.07,15.18-17.31,16.55-9.34,1.24-18.08-.22-26.11-5.59-3.75-2.51-3.05-4.52-.77-7.63,2.19-2.98,3.46-3.22,6.46-.76,5.72,4.69,12.54,6.49,19.94,4.78,3.77-.87,6.9-2.8,7.25-7.11.35-4.32-2.86-5.98-6.21-7.15-3.62-1.26-7.34-2.28-11.05-3.27-13.52-3.6-18.43-9.24-16.96-19.57,1.26-8.87,10.13-14.64,22.29-14.51Z"/>
      <path class="cls-1" d="M928.03,647.95c5.39-1.49,7.44,1.2,9.19,5.89,5.91,15.88,12.37,31.56,18.44,47.38.66,1.72,3.36,4.78.75,5.43-3.2.8-9.26,2.71-10.18-1.6-2.2-10.42-9.19-9.74-16.71-9.32-2.02.11-4.07.23-6.06-.02-6.53-.84-11.31.47-12.53,8.11-.45,2.79-9.45,4.9-11.36,2.98-1.08-1.08-.18-2.23.25-3.33,6.85-17.46,13.86-34.85,20.44-52.41,1.73-4.62,5.05-2.72,7.79-3.1ZM928.11,656.39c-4.12,11.16-7.57,20.51-11.24,30.46,6.9,0,12.92-.02,18.93.01,2.07.01,3.63-.02,2.52-2.93-3.28-8.57-6.4-17.21-10.21-27.55Z"/>
      <path class="cls-1" d="M314.87,677.43c0-8.5.13-17-.07-25.49-.07-3.1.72-4.22,4.01-4.17,10.93.19,21.87.27,32.79-.03,4.21-.11,3.7,2.18,3.86,4.9.18,3.05-.58,4.28-3.93,4.17-7.48-.25-14.98.06-22.47-.14-3.17-.09-4.07.89-4.15,4.09-.28,11.59-.42,11.59,11.19,11.59,4.66,0,9.32.17,13.97-.06,3.37-.16,5.11.32,5.05,4.46-.05,3.88-1.31,4.79-4.92,4.65-6.87-.25-13.77.06-20.65-.13-3.23-.09-4.58.63-4.67,4.29-.27,12.44-.44,12.44,12.16,12.44,4.45,0,8.91.11,13.36-.04,3.1-.1,5.21-.13,5.15,4.25-.06,4.11-1.31,5.07-5.17,4.98-10.12-.24-20.25-.31-30.36.02-4.43.15-5.41-1.4-5.26-5.5.3-8.08.09-16.18.09-24.28Z"/>
      <path class="cls-1" d="M776.06,646.83c8.56-.09,15.95,2.69,21.53,9.32,1.02,1.21,4.12,3.08,1.42,4.57-2.46,1.35-5.13,5.67-8.75,1.89-2.9-3.02-6.13-5.23-10.27-6.04-9.23-1.81-18.15,2.84-21.88,11.42-4.41,10.14-1.47,21.86,6.95,27.74,7.66,5.35,17.49,4.7,24.31-2.45,4.08-4.28,6.77-.58,9.18,1.06,3.4,2.32-.49,4.13-1.73,5.48-8.92,9.73-23.87,11.49-36.29,4.51-11.99-6.73-17.71-21.06-14.01-35.1,3.61-13.71,15.03-22.38,29.53-22.41Z"/>
      <path class="cls-1" d="M1243.46,659.7c-4.35,3.91-7.93,5.53-13.05.37-5.54-5.57-15.32-5.16-22.05-.64-7.34,4.94-10.82,15.69-8.08,24.95,4.44,14.96,21.31,19.57,32.67,8.67,4.24-4.06,6.88-.02,9.27,1.57,2.75,1.83-.73,3.62-1.89,4.9-8.66,9.54-22.97,11.75-35.15,5.65-11.95-5.99-18.52-19.55-16.07-33.16,2.52-14,12.86-23.71,26.74-24.98,11.59-1.05,21.13,2.43,27.61,12.66Z"/>
      <path class="cls-1" d="M833.57,677.26c0-8.51.26-17.03-.1-25.52-.21-4.83,2.76-3.89,5.45-3.9,2.72-.01,5.55-.87,5.45,3.92-.3,13.77.05,27.55-.2,41.32-.08,4.06,1.16,5.22,5.09,4.98,5.25-.32,10.54-.05,15.81-.09,3.07-.02,5.85-.63,5.76,4.38-.09,4.42-1.86,4.88-5.45,4.81-8.92-.19-17.84-.22-26.75.01-3.83.1-5.33-.8-5.15-5,.37-8.29.11-16.61.11-24.91Z"/>
      <path class="cls-1" d="M638.84,681.62c0-6.68-.27-13.37.1-20.03.23-4.16-1.3-5.31-5.14-4.91-2.6.27-5.26-.05-7.89.08-3.27.16-5.48.24-5.51-4.51-.03-4.96,2.52-4.44,5.63-4.43,12.15.05,24.3.19,36.45-.08,3.87-.09,4.69,1.14,4.68,4.77-.01,3.53-1.16,4.35-4.48,4.32-4.38-.05-10.16-2.01-12.8.85-2.85,3.09-.85,8.88-.91,13.48-.13,10.52-.25,21.05.06,31.57.12,4.21-1.79,4.53-5.09,4.44-3.06-.09-5.43.11-5.19-4.31.38-7.06.1-14.16.1-21.25Z"/>
      <path class="cls-2" d="M113.78,373.43c7.3-8.93,13.85-16.88,20.33-24.88,2.44-3.01,4.31-1.69,6.45.44,13.73,13.72,7.12,38.8-11.92,44.9-8.35,2.67-16.37,1.69-24.06-2.5-2.27-1.23-2.97-2.52-.89-4.6,1.28-1.28,2.46-2.72,3.44-4.24,1.86-2.9,3.57-3.28,6.82-1.37,6.46,3.79,14.31,2.49,19.7-2.42,5.56-5.07,7.46-13.15,5.04-20.01-1.36-3.84-2.91-3.59-5.44-1.07-4.45,4.43-9.03,8.72-13.61,13.01-1.23,1.15-2.19,2.88-5.87,2.74Z"/>
      <path class="cls-1" d="M1143.63,676.68c0-8.28.28-16.57-.11-24.83-.22-4.66,2.48-4.05,5.28-4.02,2.76.02,5.45-.73,5.37,3.99-.28,17.16-.24,34.33-.02,51.49.06,4.86-3.01,3.67-5.63,3.8-2.69.13-5.12.49-4.97-3.77.3-8.87.09-17.77.09-26.65Z"/>
      <path class="cls-2" d="M124.32,323.38c.83.03,13.11,10.4,13.35,11.23.33,1.18-.54,1.8-1.1,2.61-8.69,12.62-12.54,12.93-22.83,1.81-.54-.58-1.25-1.16-1.45-1.87-.38-1.36,10.65-13.84,12.03-13.79Z"/>
    </g>
  </g>
</svg>