<?xml version="1.0" encoding="UTF-8"?>
<svg id="Layer_2" data-name="Layer 2" xmlns="http://www.w3.org/2000/svg" viewBox="0 0 341.05 287.67">
  <defs>
    <style>
      .cls-1 {
        fill: #fff;
      }

      .cls-1, .cls-2, .cls-3 {
        stroke-width: 0px;
      }

      .cls-2 {
        fill: #38a750;
      }

      .cls-3 {
        fill: #880808;
      }
    </style>
  </defs>
  <g id="Layer_1-2" data-name="Layer 1">
    <g>
      <path class="cls-2" d="M184.45,121.88c-.14.59-.28,1.17-.4,1.77-.05.25-.21.56-.03.75.42.42.18.79.03,1.19-.34.89-.68,1.77-1.04,2.65-.15.37-.27.4-.66.14-.15-.1-.29-.22-.45-.09-.69.58-1.38,1.16-2.01,1.82.31.33.66.34.98.42,1.06.26,1.05.25,1.44-.78.08-.22.06-.52.36-.63.19-.07.29.22.26.74,0,.09,0,.17-.02.26-.31,1.64-.05,1.35-1.57,1.21-.09,0-.18-.01-.26-.04-.59-.2-1.08-.14-1.48.4-.35.48-.93.39-1.43.46-.42.06-.55.2-.48.59.12.62.12,1.17-.31,1.71-.3.38-.27.9-.31,1.37-.08.99-.14,1.98-.24,2.97-.06.6-.11.62-.74.6-.26,0-.52-.02-.78-.05-.49-.06-.57-.16-.49-.67.03-.17.07-.34.09-.51.06-.55-.38-1.36-.89-1.59-.09-.04-.28.02-.34.1-.45.58-.88,1.18-1.31,1.77-.13.17-.28.33-.26.58.36.32.92.13,1.34.57-.44.66-.9,1.34-1.34,2.02-.4.61-.78,1.24-1.17,1.86.36.58.72,1.16,1.07,1.74.11.18.23.37.33.56.13.24.07.43-.17.5-.33.09-.66.19-1.08.06,0-.75.01-1.52-.13-2.28-.03-.17-.06-.35-.15-.49-.16-.24-.44-.27-.7-.23-.19.03-.22.23-.21.41.05.92-.32,1.68-.91,2.36-.09.1-.23.22-.32.11-.49-.52-.94-.14-1.44,0,.09.47.43.75.71,1.06.13.15.31.15.43-.03.13-.18.26-.34.49-.4.75-.17,1-.17.85.7-.27,1.53-.55,3.06-.83,4.59-.03.17-.09.33-.32.4-.26-.31-.19-.71-.24-1.07-.08-.6-.13-1.21-.12-1.81,0-.61-.23-1.07-.66-1.48-.39-.38-.53-.37-.72.11-.11.28-.22.57-.28.86-.39,1.87-1.55,3.36-2.43,4.98-.08.14-.22.29-.37.33-.77.2-1.39.7-2.09,1.02-.22.1-.45.36-.69.13-.19-.17.01-.4.07-.59.33-1.09.48-2.19.25-3.32-.11-.56-.29-1.08-.61-1.56-.26-.4-.52-.8-.76-1.21-.26-.45-.5-.91-.5-1.45,0-.09-.02-.17-.03-.26-.04-.47-.58-.81-.42-1.32.13-.43.61-.6.86-.94.16-.21.23-.48.14-.74-.14-.41-.28-.82-.47-1.2-.5-1.01-1.07-1.98-1.17-3.14-.02-.28-.24-.44-.4-.65-.29-.37-.59-.75-.84-1.15-.17-.28-.38-.59-.07-.94.13-.15,0-.31-.1-.46-.29-.39-.41-.84-.48-1.32-.09-.6-.31-1.16-.71-1.64-.16-.2-.31-.42-.4-.66-.21-.55-.57-.95-1.03-1.3-.34-.26-.64-.58-.92-.91-1.09-1.28-2.13-2.6-3.49-3.64-1.26-.97-1.97-2.38-2.64-3.79-.28-.58-.54-1.17-.82-1.76-.08-.17-.06-.33,0-.5h-.02c.7.13.7.13.93-.3.18-.35.39-.68.51-1.05.11-.36.12-.76.17-1.15.25-.01.5-.02.67-.03.15-.06.18-.14.09-.21-.24-.19-.47-.38-.6-.66-.1-.21-.11-.37.1-.55.51-.45.56-.82.11-1.33-.26-.29-.24-.53-.07-.81.16-.26.37-.48.53-.74.2-.33.36-.67.4-1.08.11-1.03.26-2.06.42-3.08.06-.41.04-.77-.3-1.06-.3-.26-.48-.61-.61-.98-.1-.27.42-.53.03-.8-.28-.2-.45.18-.7.16-.77-.08-1.19-.46-1.38-1.28-.12-.49-.12-.53-.65-.45-.4.06-.38-.21-.49-.43-.15-.31-.33-.33-.53-.05-.13.19-.24.39-.47.39-.64,0-1.26.26-1.92.02-.42-.16-.84-.08-1.24.17-.88.54-1.89.45-2.85.5-.63.03-1.15-.34-1.56-.81-.5-.57-.67-1.29-.85-2-.06-.24.32-.38.28-.38-.72-.05-.79-.71-1.12-1.13-.35-.43-.77-.82-1.19-1.18-.55-.46-1.19-.7-1.92-.67-.39.01-.78-.01-1.17.03-.34.03-.4-.51-.5-.39-.56.62-1.28.34-1.93.41-.69.08-1.38.14-2.06.21-.78.07-1.53.26-2.28.48-.43.13-.81.29-1,.74-.16.38-.52.49-.86.47-1.37-.09-2.53.41-3.66,1.11-.18.11-.39.21-.6.25-1.16.23-2.21.73-3.26,1.25-.5.25-.96.25-1.48.03-.72-.3-1.47-.51-2.21-.75-.17-.05-.34-.09-.39-.28-.07-.23-.15-.28-.3-.05-.2.3-.5.36-.8.24-1.18-.47-2.38-.1-3.57-.08-2.52.05-4.82.95-7.07,1.95-.99.44-1.87.47-2.85.03-1.54-.7-3.04-1.45-4.3-2.61-.19-.17-.37-.36-.54-.55-.78-.82-1.62-1.56-2.72-1.93-.21-.07-.39-.19-.5-.39-.16-.29-.45-.39-.72-.52-.55-.26-1.09-.53-1.42-1.08-.16-.27-.48-.36-.75-.49-.51-.24-1.01-.49-1.53-.71-.34-.15-.58-.33-.58-.75,0-.28-.21-.43-.5-.5-.51-.12-.83-.41-.82-.99,0-.27-.12-.51-.45-.52-.25,0-.37-.17-.48-.37-.13-.25-.04-.4.19-.5.03-.01.06-.07.05-.09-.16-.29-.38-.52-.23-.94.09-.27-.26-.58-.24-.95,0-.17-.21-.36-.31-.54-.23-.39-.78-.58-.7-1.16,0-.06-.08-.17-.15-.19-.64-.19-1-.84-1.61-1.03-.56-.18-.84-.6-1.04-1.05-.18-.39-.46-.71-.61-1.1-.18-.47-.32-.4-.56-.06-.1.14-.22.04-.28-.09-.09-.2-.16-.42-.38-.5-.54-.18-.72-.65-.72-1.1,0-.37-.16-.64-.26-.95-.09-.29-.24-.31-.47-.21-.35.17-.63.19-.9-.18-.19-.25-.71.03-.81-.27-.2-.63-.82-.7-1.21-1.06-.13-.12-.26-.23-.25-.42.04-.77-.16-1.52-.18-2.28,0-.36.06-.68.48-.82.27-.09.28-.37.15-.53-.48-.62-.67-1.38-1.03-2.05-.33-.61-.71-1.17-1.52-1.18.11-.38.47-.39.7-.57,1.2-.9,2-2.03,2.07-3.58.05-1.09.31-2.13.76-3.13.8-1.78.77-3.61.24-5.45-.17-.59-.42-1.14-.91-1.49.19-.44.34-.79.49-1.15.38-.89.35-1.76-.12-2.61-.06-.11-.15-.3-.22-.3-.74,0-.83-.63-1.08-1.1-.26-.49-.3-.49-.78.02-.23-.15-.12-.38-.12-.56.04-.91.26-1.8.58-2.65.15-.4.32-.8.78-.98.39-.15.58-.47.71-.86.36-1.06.75-2.11,1.4-3.04.15-.21.33-.46.32-.7,0-.66.41-1.01.83-1.39.48-.43.94-.9,1.41-1.35.43-.4.69-.88.7-1.48.03-1.19.52-2.27.87-3.38.18-.56.56-.96,1.08-1.24.23-.12.46-.24.69-.36.73-.36,1.23-.94,1.52-1.69.25-.64.53-1.28.74-1.94.31-.94.94-1.42,1.91-1.46.88-.03,1.7-.29,2.48-.69.39-.2.75-.43,1.03-.77.44-.54.99-.97,1.57-1.35,1.3-.85,2.22-2.05,3.07-3.31.17-.25.27-.54.39-.82.24-.56.26-1.09-.22-1.55-.23-.23-.34-.47-.25-.81.06-.24.08-.52.02-.76-.28-1.12.17-2.05.8-2.9.45-.61.78-1.23.86-1.98.03-.25.11-.52.25-.72.85-1.27,1.81-2.42,3.3-3,.6-.23,1.2-.49,1.79-.75,1.24-.53,2.16-1.41,2.75-2.63.43-.9.84-1.8,1.05-2.78.07-.34.19-.67.25-1.01.19-1,.92-1.4,1.8-1.64.19-.05.35.03.44.19.15.26.25.55.4.81.67,1.17,1.72,1.7,3.03,1.49.73-.12,1.44-.21,2.17-.02.2.05.45.04.63-.04.46-.19.91-.55,1.22.19.02.06.15.1.22.11,1.1.03,2.21.45,3.31-.13.58-.31,1.15-.58,1.44-1.23.23-.52.73-.74,1.24-.84.35-.07.65-.1.91-.39.22-.25.48,0,.7.1.34.17.61.08.78-.22.78-1.44,2.1-1.99,3.6-2.22,1.15-.18,2.31-.29,3.47-.4.31-.03.59-.08.86-.25.49-.3.84-.35,1.53-.39.51-.03,1.03,0,1.49-.31.16-.11.41-.15.62-.15.91.02,1.82-.03,2.71.22.34.09.67.14.87.49.12.22.34.24.56.16.2-.08.41-.14.6-.25.38-.21.77-.37,1.22-.39.31-.01.67-.07.81-.33.43-.75.91-.55,1.5-.22.51.28,1.09.35,1.58-.07.2-.17.38-.16.59-.11.29.08.63.11.85.29.39.31.79.22,1.23.24,1.05.03,1.95-.29,2.76-.93.38-.3.85-.42,1.3-.58.67-.23,1.25.17,1.87.26.06,0,.13.11.17.18.04.07.03.17.06.25q.45,1.58,1.69.65c.23-.17.44-.47.79-.27.24.13.24.51-.05.9-.37.5-.5,1.2-1.24,1.42-.28.08-.37.46-.36.78.02.5.19.94.57,1.26.23.19.5.33.74.52.13.1.34.24.34.37.02.58.29,1.12.03,1.75-.38.92-.97,1.61-1.77,2.16-.35.25-.68.53-1,.82-.24.22-.3.52-.23.84.19.77.73,1.3,1.54,1.29.54,0,.49.34.54.66.97-.5.99-.5,1.26.47.08.28.18.44.48.52.88.21,1.72.52,2.51.98.82.49,1.68.66,2.59.21.37-.18.74-.19,1.12,0,.23.11.48.24.73.24.73,0,1.34.29,1.92.69.4.28.84.42,1.33.45.26.02.51.1.77.12.56.05.83.38.94.91.08.42.19.84.29,1.26.11.43.35.78.65,1.11.32.35.6.53,1.09.19.4-.28.93-.23,1.39-.08.86.29,1.7.62,2.55.95.14.06.33.12.36.33-.02.03-.05.08-.06.07-1.42-.4-2.89-.47-4.32-.79-.21-.05-.41-.09-.62.02-.61.32-1.23.62-1.84.95-.73.39-1.26.94-1.26,1.82,0,.52-.32.67-.71.77-1.71.46-3.42.91-5.14,1.36-11.02,2.94-22.04,5.87-33.06,8.82-2.68.72-5.29,1.62-7.76,2.9-.42.22-.83.46-1.23.71-.49.3-.9.7-1.09,1.24-.13.37-.3.61-.71.62-.27,0-.35.21-.38.44-.07.49.06.94.25,1.38.33.76.31.76-.04,1.53.96-.08,2.58-.59,3.66-1.15-.21-.3-.56-.34-.84-.5-.14-.08-.23-.21-.26-.4-.16-.9-.14-.96.7-.63.58.23.99-.1,1.48-.18l.02.02c.06.36-.4.43-.43.84.42.42,1.18.35,1.65.89-1.33.27-2.55.7-3.84,1.19.5.74,1.23.84,1.94.87.51.02,1.03-.13,1.5-.35.2-.09.43-.17.46-.41.06-.38.33-.46.63-.54.29-.07.42-.26.4-.57-.02-.26-.03-.51,0-.77.01-.17.17-.14.29-.14.16.2-.09.53.2.68.22.12.46.22.7.3.07.02.18,0,.24-.06.43-.38.84-.78,1.13-1.42-.61.02-1.02.29-1.46.42-.27.08-.53.33-.83.09-.03-.14,0-.24.15-.29.45-.16.89-.36,1.34-.47.5-.13.7-.47.79-.92.12-.56.09-1.12-.13-1.66-.19-.48-.38-.95-.61-1.51.78-.23,1.56-.19,2.31-.31.13-.02.25-.08.24-.24,0-.14-.09-.24-.22-.28-.08-.03-.17-.02-.25-.05-.08-.02-.16-.06-.25-.1.37-.39.77-.57,1.23-.16.37.33.76.31,1.21.16.45-.15.92-.22,1.38-.34.29-.08.57-.21.86-.27.5-.11.71-.81,1.3-.7.5.09.94-.11,1.38-.22,6.49-1.64,12.98-3.31,19.47-4.96,2.72-.69,5.45-1.37,8.17-2.04.59-.14,1.18-.27,1.78-.36.96-.14,1.9-.06,2.81.27,1.96.71,3.01,2.53,2.61,4.65-.2,1.06-.51,2.1-.81,3.14-.29,1.04-.62,2.07-.95,3.1-.23.75-.57,1.44-1.01,2.09-.79,1.16-1.08,2.48-1.25,3.87.37-.04.51-.27.7-.45.93-.9,1.84-1.83,2.79-2.72.7-.66,1.07-1.45,1.09-2.41,0-.17-.03-.37.05-.51.27-.54.59-1.05.13-1.66-.05-.06.02-.25.09-.35.12-.18.29-.32.42-.49.24-.3.14-.44-.22-.49-.13-.02-.23-.14-.19-.27.04-.11.15-.23.25-.26.46-.12.84.09.86.51.03.52,0,1.04.01,1.56,0,.23-.06.43-.28.54-.32.16-.38.41-.35.75.12,1.32-.3,2.44-1.23,3.42-.86.91-1.65,1.89-2.45,2.86-.47.57-.96,1.12-1.63,1.46-.5.26-.78.66-.88,1.21-.11.59-.22,1.19-.32,1.78-.02.12.03.28.17.31.42.09.87.21,1.22-.13.29-.28.44-.63.31-1.06-.07-.25-.12-.51-.15-.76-.03-.26-.37-.62.03-.75.29-.09.29.35.38.57.12.28.19.57.3.86.16.41.27.82.07,1.26-.11.24-.02.44.21.52.32.11.47.35.57.65.35,1.02.69,2.05,1.04,3.07.14.4.16.76-.31.99-.16.08-.23.24.04.34.52.2.63.82,1.08,1.1.28.99.91,1.89.76,2.98-.05.37.41.5.39.74-.02.26-.32.48-.44.74-.06.14-.02.34,0,.51.03.47.06.95.09,1.42.05.68.47,1.06,1.16,1.06.35,0,.86-.55.88-.98,0-.13-.03-.26-.08-.38-.19-.5.28-.41.57-.61-.25-.17-.47-.33-.69-.48-.27-.17-.44-.41-.5-.72-.02-.13-.05-.26.08-.34.06-.04.16-.04.23-.02.33.11.65.24.98.34.23.07.43-.09.42-.34-.03-.6-.06-1.21-.11-1.81-.04-.4.1-.67.46-.82.16-.07.31-.14.47-.22.2-.1.37,0,.43.15.31.81.6,1.62.89,2.43.08.22.02.43-.12.61-.11.14-.22.27-.32.41-.1.14-.19.34-.07.46.1.1.32.14.47.12.34-.03.68-.12,1.02-.17.56-.08,1.11-.16,1.67-.21.34-.03.43.08.46.45,0,.09.01.17,0,.26-.08.51.17.8.63.97.12.04.22.13.32.2,0,.22-.17.3-.3.38-.13.09-.17.21-.1.32.06.1.17.2.28.25.3.12.6-.02.88-.1.65-.18,1.28-.18,1.91.04.2.07.45.09.5.34.05.27-.19.35-.38.45-.19.1-.39.18-.59.27-.98.43-1.12.41-.31,1.43.19.24.38.47.55.73.28.43.6.57,1.07.29.17-.1.33.01.36.22.03.17.04.35.02.52-.13,1.02.31,1.83.89,2.61.4-.14.34-.62.74-.77.86.49,1.75,1.01,2.59,1.49.34-.07.37-.31.47-.49.15-.24.17-.65.55-.63.4.03.85.65.82,1.03-.02.21-.06.43-.13.63-.08.24-.26.32-.51.22-.08-.03-.16-.07-.24-.11-.23-.1-.51-.34-.71-.13-.33.34-.5.79-.47,1.29.01.17.16.19.28.22.42.1.9,0,1.26.26.29.21.52.13.82.09.6-.09,1.21.02,1.8.15.11.02.25.13.28.22.02.09-.05.28-.13.32-.83.45-1.68.89-2.52,1.32-.14.07-.36-.13-.32-.28.03-.12.09-.24.11-.37.07-.39.54-.7.22-1.17-.44-.02-.65.38-.97.58-.22.14-.45.25-.71.29-.37.06-.58-.1-.6-.46,0-.09.01-.17.01-.26q-.02-.73-1.01-.69c.13.38.25.74.35,1.04.01.24-.13.28-.25.3-.4.06-.65.23-.62.67.02.26.02.52.05.77.02.17.18.19.29.15.16-.05.33-.14.45-.25.44-.41.87-.24,1.3,0,.2.12.32.27.19.52-.05.11-.08.25-.06.37.04.4.31.63.7.58.77-.1,1.54-.23,2.31-.34.47-.07.94-.13,1.42-.17.39-.03.51.11.57.53.03.22.05.42-.11.61-.22.26-.68.35-.9.08-.25-.3-.51-.43-.89-.36-1.14.2-2.28.39-3.42.58,0,.26.15.33.33.37.71.13,1.42.26,2.12.39,0,.28-.17.35-.31.44-.27.16-.55.31-.4.7.11.29.25.47.84.39.56-.07,1.12-.14,1.67-.19.43-.05.86-.09,1.29-.11.29-.01.47.18.51.47.12.86-.31,1.5-.84,2.09-.23.25-.56.2-.85.24-.66.09-1.11.45-1.38,1.05-.07.16-.11.33,0,.54.58.16,1.16-.06,1.75-.13.41-.05.52.07.47.51-.03.21-.08.42-.09.64,0,.15.12.24.25.24.47-.03.94-.1,1.42-.13.25-.02.39.18.32.43-.06.21-.12.42-.22.61-.52,1.06-1.21,2.02-2.2,2.67-.48.31-.73.7-.9,1.2-.05.16-.11.33-.19.48-.09.16-.22.25-.43.2-.33-.07-.67-.14-1.01-.19-.05,0-.15.09-.18.15-.03.07,0,.16.03.23.01.04.06.08.09.08.31.04.62.14.64.5,0,.32-.27.53-.48.74-.24.26-.47-.1-.77-.02-.19.76-.38,1.54-.56,2.3.32.18.48,0,.64-.11.86-.51,1.71-1.02,2.55-1.55.29-.18.54-.2.82.02.57.45,1.19.85,1.7,1.33-.05.15-.06.25-.12.3-1.27,1.34-2.85,2.07-4.67,2.27-.41.04-.76.02-.92-.47-.06-.19-.29-.17-.43-.03-.14.14-.11.34.01.46.18.18.39.35.61.47,1.16.61.97.64.51,1.68-.28.63-.58,1.26-.87,1.88-.15.32-.32.62.04.93.06.05.05.25.01.35-.21.51-.36,1.06-.69,1.5-.11-.02-.2-.02-.26-.06-.25-.12-.32-.62-.69-.43-.26.13-.12.47-.1.71.02.3-.03.61.14.92.39,0,.71-.16.96-.49.28-.38.38-.4.66-.24.43.24.52.67.61,1.09.02.1-.07.25-.15.33-.22.2-.47.36-.68.52-.01.29.14.45.27.62.22.3.46.35.75.08.23-.22.44-.22.59.11.26.58.55,1.16.84,1.78.3-.24.14-.5.16-.72.01-.21-.03-.43-.05-.65-.04-.34-.08-.68-.11-1.03,0-.06.08-.15.14-.17.07-.02.18-.01.24.03.19.17.38.35.55.54,1.58,1.77,1.47,1.06.15,2.85-.15.21-.34.38-.5.55-.34-.01-.46-.27-.62-.47-.34-.45-.65-.92-1-1.36-.21-.26-.37-.79-.68-.69-.45.14-.4.7-.36,1.11.06.56.13,1.12.31,1.65.54,1.65.48,1.72,1.68.55.06-.06.13-.12.2-.16.18-.11.34-.07.41.12.07.2.13.42.14.63.03.64.15,1.2.92,1.36.13.03.27.23.33.37.16.38.41.5.8.42.07-.01.21.15.24.25.06.19-.06.33-.25.38-.63.17-1.25.33-1.88.49-.25.06-.43-.03-.49-.27-.07-.29-.11-.59-.14-.89-.07-.69.06-.87-.98-1.08-.13-.03-.27-.03-.38-.09-.15-.08-.29-.18-.41-.29-.45-.46-.45-.48-.86-.18-.34.25-.74.43-.96.84.2.35.54.23.81.29.29.07.59.13.89.16,1.31.1,1.34.14,1.15,1.38-.02.13-.02.26-.03.39-.1.86-.19,1.72.42,2.46.08.1.08.24-.01.36-.1.13-.23.07-.35.04-.08-.02-.16-.07-.24-.08-.9-.19-1.56-.64-1.96-1.51-.19-.41-.4-.85-.83-1.15-.31.34-.39.71-.49,1.07-.14.48-.1.56.39.77.2.09.4.15.6.24.71.3.76.37.59,1.05-.17.67-.36,1.33-.56,1.99-.06.19-.21.24-.4.13-.33-.19-.54-.55-.99-.64-.36.51-.34,1.13-.54,1.66.28.26.43.04.59-.05.26-.15.51-.32.77-.48.1.11.2.22.29.33ZM164.89,103.69c-.37.03-.8.05-1.24.09-.24.02-.39.15-.47.38-.41,1.27-.82,2.55-1.22,3.82-.09.29.02.49.31.61.44.19.58.19.8-.08.6-.73,1.2-1.47,1.8-2.21.41-.51.72-1.08.9-1.71.06-.2.07-.43.05-.64,0-.1-.14-.24-.24-.26-.21-.04-.43-.01-.7-.01ZM177.62,95.76c1.05-.08,1.87-.29,2.66-.63.44-.19.83-.45,1.15-.81.72-.83.65-.9-.17-1.48-.11-.07-.21-.15-.31-.23-1.23-.88-.79-.87-2.2-.05-.32.19-.5.46-.58.8-.17.75-.34,1.49-.54,2.4ZM186.53,85.32c-.7.06-1.29.12-1.88.26-.27.06-.47.19-.55.47-.1.33-.07.71-.36.95-.35.28-.74.05-1.12.05-.13,0-.26-.02-.39,0-.08,0-.18.03-.23.09-.27.31-.31.71-.3,1.1,0,.34.32.37.55.46.45.16.91.28,1.35.44.28.11.49.06.67-.18.47-.62.96-1.22,1.43-1.84.36-.48.7-.98.83-1.79ZM155.25,54.94c0,.39.12.75.32,1.09.09.16.26.25.43.11.53-.44,1.06-.89,1.57-1.36.87-.78.73-.58.38-1.64-.08-.25-.18-.49-.27-.73-.12-.29-.35-.35-.64-.31-.22.03-.42.09-.55.29-.33.51-.68,1-.98,1.53-.17.3-.27.64-.26,1.01ZM164.28,60.38c-.79-.89-1.5-1.7-2.21-2.51-.17-.2-.36-.22-.53,0-.08.1-.15.21-.22.32-.98,1.53-1.05,1.11.29,2.34,1.05.97.75.89,2.08.23.15-.07.28-.18.59-.38ZM179.69,78.79s0-.09,0-.13c-.01-.51-.34-.72-.76-.47-.9.54-1.62,1.26-2.17,2.14-.62.99-.51,1.21.62,1.35.32.04.59,0,.79-.28.4-.55.81-1.1,1.2-1.66.2-.28.31-.61.31-.96ZM186.45,89.55c.38.06.75.13,1.14.18.24.03.43-.07.5-.3.27-.91.53-1.82.78-2.73.04-.14-.05-.26-.19-.28-.21-.02-.43.02-.64.01-.3-.02-.35-.17-.21-.42.06-.11.09-.24.13-.36.04-.1,0-.17-.11-.18-.08,0-.18,0-.24.03-.15.1-.23.25-.24.43-.02.61-.08,1.2-.67,1.58-.12.08-.18.29-.21.45-.08.5-.2,1.01-.05,1.57ZM162.89,55.01c.08-.02.17-.04.24-.07.59-.25,1.19-.5,1.78-.77.44-.2.52-.36.35-.81-.67-1.85-.33-1.91-1.87-.54-.32.29-.64.58-.96.87-.14.12-.26.28-.2.45.1.28.27.53.42.78.04.06.15.07.23.1ZM160.27,141.66c.28-.29.32-.55.38-.8.56-2.56.88-1.88-1.71-2.45-.04,0-.09,0-.13,0-.13.04-.24.11-.23.26.08,1.25.38,2.38,1.68,2.99ZM176.27,75.28c1.08-.15,2-.28,2.91-.4.1-.45-.29-.66-.28-1.01,0-.34-.03-.69-.06-1.03-.07-.74-.37-.99-1.23-1.03-.08.56.08,1.11.12,1.66.03.5,0,.62-.5.71-.57.11-.77.46-.95,1.1ZM161.09,86.68c-.35.44-.41.92-.57,1.35-.12.32-.19.66-.25,1.01-.08.58.07.81.6.96.33.1.67.18,1.01.25.31.07.47-.08.45-.43-.08-1.15-.53-2.15-1.24-3.13ZM171.02,63.88c.08.56.15,1.11.23,1.67.05.34.27.4.56.37.13-.01.26-.03.38-.06.24-.06.39-.21.36-.46-.12-.94-.25-1.88-.4-2.82-.05-.29-.35-.38-.59-.21-.53.38-.57.93-.54,1.51ZM183.24,107.29c-.6-.64-1.17-1.27-1.76-1.89-.07-.08-.22-.13-.33-.12-.16.01-.17.18-.15.3.11.89.23,1.78.36,2.67.03.19-.02.43.33.55.54-.41,1.06-.89,1.55-1.51ZM179.34,97.72c.03.32.04.58.09.83.09.46.2.92.31,1.38,0,.04.03.08.06.11.09.1.22.17.33.08.4-.31.94-.56,1.1-1.05.14-.42-.29-.77-.47-1.14-.17-.35-.37-.68-.56-1.02-.08-.14-.17-.31-.39-.26-.19.04-.28.21-.33.36-.08.24-.11.5-.14.69ZM118.08,47.97c.19-.48.38-.91.54-1.35.15-.43.09-.53-.37-.8-.25-.14-.45-.07-.45.18.01.51.02,1.03.08,1.54.03.29.01.49-.31.59-.1.03-.21.17-.23.27-.07.49-.17.98-.11,1.51,1.05-.54,1.45-.86,1.98-1.54-.33-.22-.78-.05-1.14-.4ZM178.37,120.25c0-.12,0-.17-.02-.21-.05-.11-.08-.25-.16-.33-.1-.11-.24-.05-.34.03-.61.47-1.22.94-1.81,1.43-.26.22-.24.77-.02,1.06.17.22.67.31.94.12.76-.53,1.34-1.19,1.41-2.1ZM165.54,58.48s.03,0,.04,0c0,.39-.02.78,0,1.16.04.56.99,1.49,1.36,1.27.5-.3.19-.85.13-1.29-.03-.25-.15-.5-.25-.73-.25-.55-.51-1.09-.77-1.64-.08-.16-.21-.32-.38-.22-.13.08-.26.28-.26.42,0,.34.07.68.11,1.02ZM164.57,132.97c.33.55.75.79,1.1,1.09.35.29.64.68,1.17.81.18-.69.35-1.34.51-2.01.08-.32-.09-.52-.4-.45-.75.16-1.49.35-2.37.56ZM170.45,109.51c.32-.07.78.13.95-.21.21-.43-.31-.62-.49-.93-.02-.04-.05-.07-.08-.1-.55-.52-.89-1.25-1.6-1.59-.14-.07.07,1.87.32,2.55.07.19.22.25.39.27.17.02.34,0,.51,0ZM175.09,101.15s-.01,0-.02,0c.01.26,0,.52.05.77.02.09.18.25.24.23.4-.1.87-.13,1.01-.65.07-.25.14-.49.21-.74.11-.4.3-.79.25-1.23-.56-.14-.92.31-1.36.49-.26.1-.38.33-.37.62,0,.17,0,.34,0,.51ZM179.4,81.85c0,.6.28,1.03.49,1.48.1.23.3.29.53.2.55-.24,1.09-.47,1.63-.74.2-.1.5-.11.52-.49-1.03-.25-2.07-.38-3.16-.45ZM177.38,65.14c-.06-.06-.11-.16-.17-.17-.9-.08-1.78.16-2.66.25-.18.02-.27.4-.13.54.24.24.5.46.76.68.14.12.32.15.48.05.57-.37,1.14-.74,1.7-1.13.04-.03.02-.15.03-.23ZM110.74,59.38c-.33-.05-.56.08-.68.41-.16.44-.34.87-.5,1.3-.02.06.03.17.09.22.05.04.16.06.22.03.8-.4,1.59-.81,2.37-1.23.09-.05.17-.22.15-.32-.02-.1-.15-.23-.25-.25-.46-.07-.93-.11-1.41-.16ZM169.24,75.84c-.49-.04-.59,0-.79.47-.19.46-.53.89-.47,1.44.58.21.91-.31,1.37-.45.08-.03.15-.08.23-.13.42-.29.98-.35,1.28-.82-.37-.54-1-.3-1.5-.49-.04-.01-.09-.01-.13-.02ZM112.01,46.76c.12.9.21,1.57.3,2.24.02.17.05.34.1.5.06.22.37.37.63.3.18-.05.3-.16.3-.35.01-.38-.01-.77.03-1.15.07-.6-.18-.97-.71-1.21-.15-.07-.29-.14-.65-.33ZM173.01,70.74c-.08.05-.18.09-.19.14-.02.07.01.17.06.23.5.58,1,1.16,1.51,1.73.23.26.42.22.55-.12.52-1.33.46-1.09-.62-1.52-.43-.17-.88-.31-1.31-.46ZM164.17,126.63c-.44.73-.48,1.45-.58,2.14,0,.06.08.16.14.19.27.13,1.2.1,1.75-.05-.4-.75-.76-1.51-1.31-2.28ZM159.79,55.42c.04.26.08.52.12.77.23,1.32.55,1.47,1.74.81.12-.07.17-.21.07-.32-.51-.57-1-1.15-1.62-1.61-.13-.1-.24,0-.29.13-.03.07-.02.16-.02.23ZM171.73,125.22c-.43.11-.93.23-1.42.36-.17.04-.34.12-.35.31-.01.29-.05.65.24.82.37.22.81.32,1.23.2.31-.09.34-.46.43-.74.07-.2.16-.4.19-.61.03-.16,0-.34-.32-.34ZM160.24,68.03q-.47,1.31.37,2.27c.17.19.34.38.51.57.12.14.29.27.44.18.15-.08.13-.29.05-.46-.25-.54-.48-1.1-.76-1.62-.17-.33-.22-.75-.61-.94ZM177.92,110.18c.07-.05.15-.09.22-.14-.43-.97-.85-1.94-1.29-2.9-.09-.19-.27-.15-.41,0-.22.23-.39.48-.17.79.54.75,1.1,1.5,1.65,2.25ZM114.28,69.21c.45.11.87-.04,1.29-.11.53-.09,1.13.07,1.59-.34-.43-.51-1.08-.32-1.62-.48-.12-.04-.26-.04-.38-.06-.29-.05-.51.06-.66.3-.11.18-.29.33-.23.69ZM182.84,102.16c.29-.46.58-.92.86-1.39.34-.59.31-.65-.37-.87-.12-.04-.24-.08-.37-.11-.21-.06-.36.07-.37.24-.02.67-.14,1.35.07,2.02,0,.03.07.05.17.11ZM109.79,54.34c.07-.32-.12-.63-.38-.94-.36-.41-.49-.41-.72.04-.57,1.11-.49,1.32.67,1.74.21.07.31-.06.35-.24.04-.16.04-.34.07-.6ZM174.8,117.26c.68.14,1.37.07,2.06.06.19,0,.33-.09.33-.3,0-.18-.05-.35-.24-.42-.28-.11-.57-.21-.86-.29q-1.11-.33-1.3.95ZM177.15,89.25c-1.49.53-1.21.71-1.09,1.7.04.32.02.68.31.93.45-.67.61-1.21.78-2.63ZM172.76,76.89c.3-1.21.31-1.21-.13-1.78-.1-.13-.24-.31-.38-.33-.26-.03-.31.24-.38.43q-.46,1.06.89,1.67ZM161.95,66.56c.43.45.92.51,1.34.68.87.36.97.35,1.06-.71,0-.07-.05-.15-.1-.31-.74-.03-1.46.13-2.3.33ZM181.16,74.14c.35,0,.44-.31.67-.41.17-.08.22-.25.2-.43-.08-.72-.15-1.44-.24-2.15-.02-.18-.14-.32-.33-.32-.19,0-.34.11-.35.3-.04,1-.11,2.01.05,3.01ZM116.48,50.34c0-.72-.04-1.31-.45-1.8-.09-.11-.24-.11-.32,0-.48.63,0,1.83.57,2.27.09.07.17,0,.18-.08.01-.17.02-.34.02-.39ZM163.64,50.24c-.35-.19-.61-.14-.86-.12-.11,0-.29.09-.3.17-.09.37-.14.75-.18,1.13-.02.18-.13.43.26.56.34-.54.75-1.06,1.07-1.73ZM184.44,112.45c-.11-.42-.25-.86-.54-1.22-.13-.17-.38-.17-.59-.1-.21.07-.22.23-.2.4.06.37.11.75.21,1.12.02.08.21.19.29.17.28-.06.59-.08.83-.38ZM170.42,95.8c.58.12,1.16,0,1.73-.03.17,0,.26-.24.16-.39-.51-.8-.72-.84-1.45-.2-.17.15-.43.25-.45.62ZM167.55,90.23c.38.64.38.63.99.95.13-.45.26-.89.38-1.34.05-.17-.15-.32-.32-.25-.38.17-.78.31-1.05.64ZM184.58,95.77c-.04-.34-.08-.72-.13-1.1-.02-.17-.09-.35-.28-.35-.11,0-.24.09-.32.18-.44.54-.38,1.19.16,1.69.07.06.24.05.35.03.06-.01.13-.1.17-.17.04-.07.04-.16.06-.28ZM184.53,98.93c.03-.09.08-.16.08-.24,0-.13-.03-.26-.06-.38-.11-.49-.31-.62-.82-.55-.23.03-.39.15-.41.41-.02.23.03.43.25.54.31.14.61.29.97.22ZM174.99,136.12c.38.63.39.63.98.95.05-.66-.01-1.27-.14-2.03-.45.35-.69.68-.84,1.08ZM185.26,82.93c-.41-.28-.75-.29-1.09-.32-.26-.02-.39.13-.4.37-.01.21-.02.43,0,.63.02.2.17.29.35.2.41-.22.8-.47,1.13-.88ZM175,85.68c.49.02.61-.1.55-.51-.02-.16-.08-.33-.16-.47-.13-.19-.55-.22-.68-.06-.26.31-.41.8-.26.92.03.03.07.06.11.06.17.03.34.05.45.06ZM188.52,82.13c-.39-.17-.75-.03-1.11.08-.17.05-.28.19-.24.39.05.26.08.54.31.69.15.1.31-.07.41-.21.23-.3.56-.53.64-.96ZM143.49,57.6c-.3.71-.61,1.15-.7,1.78.49-.09.79-.32,1.09-.54.16-.12.16-.3.07-.46-.1-.19-.21-.36-.46-.78ZM178.8,85.82c.26.1.37.16.49.18.61.14.65.11.88-.41.05-.12.11-.24.13-.36.01-.07-.01-.18-.06-.23-.05-.05-.17-.09-.22-.07-.42.21-.82.45-1.23.88ZM176.65,129.59c-.6-.32-1.04-.43-1.49-.39-.26.02-.25.32-.26.53-.02.25.17.27.35.23.4-.09.8-.21,1.41-.37ZM166.43,81.88c.39.34.83.44,1.28.34.17-.04.25-.22.21-.4-.03-.13-.12-.21-.27-.18-.41.08-.82.16-1.22.24ZM182.36,123.99c-.34.74-.62,1.49-.57,2.31.42-.71.62-1.49.57-2.31ZM185.44,92.01c-.11.06-.2.08-.26.14-.33.34-.36.62-.13,1.05.07.13.19.16.29.04.17-.19.35-.38.48-.6.05-.09.06-.28,0-.35-.1-.13-.26-.2-.39-.28ZM174.08,69.21c.04-.44,0-.78-.33-.98-.18-.11-.42-.24-.59-.08-.24.21.02.37.16.51.21.2.37.47.76.56ZM179.41,69.52l.23-.05c-.03-.37-.03-.73-.1-1.09-.04-.21-.23-.19-.39-.1-.37.21-.44.4-.23.69.15.2.33.37.49.56ZM173.39,102.1c.22-.07.44-.1.62-.2.08-.04.11-.22.11-.34,0-.15-.13-.24-.25-.22-.3.03-.59.09-.88.15-.06.01-.13.11-.14.17,0,.07.03.18.09.22.14.09.3.15.45.22ZM168.29,118.58c.4-.26.41-.57.45-.86.01-.09-.09-.27-.17-.28-.15-.03-.33-.01-.47.05-.13.05-.12.21-.08.33.08.24.17.47.28.76ZM165.38,55.22c.03-.09,0-.18-.11-.18-.57.02-1.05.26-1.47.63-.04.04-.04.16,0,.23.07.18.23.27.4.2.44-.17.82-.43,1.16-.76.03-.02.02-.08.03-.12Z"/>
      <path class="cls-3" d="M247.39,84.68c.65-.07,1.29-.12,1.8.45.17.19.36.34.46.6.46,1.16,1.45,1.8,2.45,2.4.51.31,1.09.2,1.64.03.41-.13.79-.33,1.15-.59.81-.6,1.72-.83,2.69-.5.82.28,1.53.09,2.21-.36.22-.14.44-.27.65-.43.44-.33.93-.45,1.47-.34.65.14,1.28.05,1.91-.16.32-.11.67-.15,1.02-.19.69-.07,1.4-.04,2.06-.21.66-.16,1.3-.43,1.99-.49.49-.04.91-.25,1.26-.6.29-.3.52-.73,1.01-.75.57-.03,1.11.09,1.6.49-.12.28-.23.55-.36.83-.13.28-.23.57-.14.88.18.6-.07,1.19.03,1.79.02.16,0,.39-.11.49-.6.62-.61,1.41-.63,2.18-.02.73-.25,1.35-.72,1.89-.46.53-.81,1.11-1.04,1.78-.08.24-.19.5-.36.68-1.1,1.2-1.55,2.79-2.46,4.1-.36.52-.63,1.12-.7,1.79-.06.52-.35.98-.64,1.4-1.57,2.23-3.07,4.5-4.92,6.51-.68.73-1.35,1.46-2.04,2.18-.93.98-1.99,1.79-3.19,2.42-.73.38-1.44.79-2.15,1.21-.9.53-1.7,1.17-2.38,1.98-.36.43-.78.81-1.2,1.18-1.17,1.03-2.27,2.12-3.3,3.29-.8.91-1.57,1.81-2.13,2.9-.38.75-.97,1.33-1.81,1.56-.34.09-.44.31-.59.59-.25.49-.55.93-1.2,1.02-.63.09-.98.5-.91,1.19.04.42-.13.78-.38,1.07-.37.44-.55.94-.77,1.45-.27.61-.58,1.22-.82,1.85-.1.25-.25.45-.53.53-.33.1-.46.33-.53.65-.18.84-.48,1.64-.8,2.44-.17.44-.29.9-.3,1.39,0,.46.09.86.57,1.06.62.25.8,1.01,1.44,1.25.15.05.15.31.09.48-.08.2-.2.38-.31.56-.31.51-.4,1.07-.1,1.58.26.44.26.82.02,1.21-.24.41-.28.84-.07,1.24.63,1.17.86,2.47,1.2,3.72.07.28.15.46.39.61.32.21.61.48.94.64.9.44,1.26,1.11.99,2.1-.05.16.04.39-.05.5-.47.64-.24,1.33-.11,1.98.09.43.16.84.07,1.27-.03.16.05.34.03.5-.08.5.39.9.14,1.48-.18.43,0,1,0,1.51,0,.39-.04.78.1,1.15.12.33.11.66.09,1.02-.01.37.02.88.25,1.09.51.46.36.91.17,1.38-.18.47-.44.89-.39,1.43.03.35-.25.64-.48.89-.75.82-1.54,1.6-2.12,2.57-.22.37-.61.6-.99.82-.37.22-.77.39-1.07.72-.08.09-.22.21-.32.2-.87-.09-1.49.65-2.32.68-1.35.86-3.06,1.22-3.87,2.85-.23.45-.65.79-1.11,1.1-.9-.92-1.99-1.17-3.2-1.19-1.65-.04-3.26-.4-4.79-1.03-1.8-.74-3.31-1.87-4.46-3.44-.66-.91-1.28-1.85-1.89-2.79-.71-1.11-1.13-2.33-1.34-3.62-.84-5.16-1.83-10.29-2.81-15.43-.45-2.38-.81-4.77-1.41-7.12-.15-.58-.24-1.18-.35-1.78-.11-.6-.12-1.21.04-1.8.42-1.56.38-3.17.53-4.76.11-1.12.2-2.24.19-3.37,0-1.12-.12-2.24-.22-3.36-.21-2.41-.44-4.82-.66-7.23-.16-1.76-.29-3.53-.52-5.29-.21-1.66.01-3.27.29-4.9.74-4.28,1.07-8.58.67-12.91-.07-.74,0-1.46.18-2.18.74-2.99,1.1-6.03,1.16-9.11.09-5.21-.48-10.36-1.43-15.47-.33-1.74-.7-3.47-1.07-5.21-.46-2.21-.68-4.44-.83-6.69-.14-2.16-.28-4.32-.57-6.46-.12-.9-.3-1.79-.51-2.67-.31-1.32-.92-2.5-1.76-3.57-1.34-1.7-2.84-3.26-4.25-4.89-.31-.36-.62-.38-1.04-.28-.57.13-.67.1-.72-.38-.12-1.01-.62-1.76-1.36-2.42-.39-.34-.71-.75-1.08-1.12-.64-.62-.55-.71-.2-1.31.84-1.43,1.38-2.98,1.76-4.58.06-.25.07-.51.09-.77,0-.15-.12-.24-.24-.25-.26-.02-.52,0-.77.02-1.21.11-2.41.22-3.61.35-1.1.12-2.15-.04-3.19-.4-.81-.29-1.63-.57-2.45-.85-2.52-.87-5.01-.77-7.48.19-.48.19-.99.34-1.42.62-.59.38-1.15.29-1.73.09-1.16-.41-2.17-1.05-3.05-1.91-.26-.25-.46-.52-.36-.9.15-.59-.13-1.18-.07-1.83.22.05.39.06.54.13.75.35,1.45.77,2.01,1.4.87.98,1.91.93,2.94.39.47-.25.86-.57,1.19-.99.57-.74.79-1.53.32-2.41-.08-.15-.15-.31-.22-.47-.35-.83-.23-1.61.29-2.33.8-1.1,1.93-1.71,3.21-2.04.42-.11.79-.26,1.19-.43.71-.31,1.51-.34,2.26-.07.53.19,1.03.44,1.54.68.49.23.91.48.83,1.15-.03.28.23.46.48.55.2.08.42.09.63.12.34.06.75.02,1.01.2.86.6,1.82.46,2.75.46.57,0,.88.26,1.01.79.04.17.09.34.15.49.09.21.25.35.5.34.26,0,.53,0,.77-.06.78-.24,1.53-.14,2.3.06.46.12.94.17,1.4.27.46.11.92.23,1.37.38.52.17.94.51,1.56.51.47,0,.97.32,1.48.37.49.04.93.2,1.33.47.88.6,1.7.49,2.5-.15.3-.24.6-.5.91-.73.2-.15.39-.37.69-.28.25.08.43-.03.52-.24.15-.34.43-.49.72-.31.56.35,1.09.09,1.42-.21.31-.28.49-.24.76-.11.44.21.88.34,1.38.2.22-.06.32.09.29.28-.09.64.5.72.83,1.01.03.03.19,0,.22-.05.34-.55.67-.34,1.03-.03.24.21.55.26.86.19.44-.1.88-.06,1.32-.08.84-.04,1.73-.05,2.49-.53.18-.11.33.02.42.17.07.11.1.24.14.36.44,1.26.87,2.53,1.34,3.79.36.97.35,1.9,0,2.9-.42,1.17-.89,2.34-1.02,3.61-.02.21-.1.42-.19.61-.15.36-.42.44-.71.24-.9-.61-1.64-1.4-2.35-2.21-.26-.3-.42-.66-.45-1.06-.03-.5-.22-.93-.53-1.29-.58-.67-.94-1.44-1.13-2.3-.75.48-.82.66-.38,1.27.31.44.43.89.51,1.42.12.8.55,1.54,1.07,2.17.38.47.81.9,1.24,1.32.29.29.53.6.43,1.02-.11.48.12.84.36,1.2.45.7.81,1.42.92,2.26.03.21.12.42.21.61.72,1.38,1.44,2.76,2.16,4.13.3.57.61,1.15.87,1.73.6,1.32.63,1.38,1.79,2.38-.15.24-.63.24-.54.7.1.51.12,1.03.17,1.54.09.9.62,1.49,1.34,1.95.33.21.66.4.98.62.96.64,1.74,1.41,1.8,2.66,0,.04.02.08.04.12.63,1.49.76,3.06.82,4.66.04,1.25.13,2.5.53,3.71.14.43.34.71.83.86.51.16,1.04.44,1.24,1.05.08.24.3.31.5.36.64.17,1.02.63,1.3,1.18.71,1.35,1.24,2.76,1.38,4.29.1,1.1.52,2.08,1.18,2.93.28.36.2.84.52,1.15.04-.03.08-.05.1-.08.18-.26-.28-.78.26-.84.4-.04.47.43.61.74.09.19.18.39.3.57.1.15.28.26.44.18.5-.26.82-.03,1.11.35.13.17.24.36.48.38.86.09,1.41.66,1.82,1.33.42.69.97,1.19,1.64,1.61.43.27.86.58.95,1.17.04.26.3.37.51.53.37.28.64.7.97,1.03.2.21.61-.11.78.28.1.23.25.47.43.64.32.31.31.69.34,1.08.03.44-.17.76-.55.94-.35.17-.73.27-1.07.44-.18.09-.36.26-.17.51-.07-.02-.14-.06-.21-.06-.11,0-.16.06-.11.15.01.02.08.03.1.02.07-.04.13-.09.2-.14Z"/>
      <path class="cls-3" d="M194.9,137.58c0,1.78.16,3.37.41,4.94.54,3.34,1.57,6.55,2.85,9.68.85,2.08,1.76,4.13,2.69,6.18.3.66.39,1.3.28,2-.46,3-.55,6.02-.33,9.06.12,1.6.18,3.19.27,4.79.03.61.12,1.21.4,1.76.29.56.71.96,1.36,1.1,1.1.25,2.21.44,3.33.45,1.38.01,2.77.06,4.15-.04,2.72-.2,5.45-.09,8.17-.12.95-.01,1.9,0,2.85.11.99.12,1.99.07,2.98-.04.43-.05.86-.08,1.4-.14-.34.89-.88,1.41-1.74,1.55-.31.05-.5.11-.39.47.03.08.08.18.06.25-.38.95-.2,1.73.65,2.35.14.1.24.4.21.59-.09.63.17,1.2.34,1.76.26.86.54,1.71.44,2.62.33,0,.2-.25.3-.36.11-.13-.09-.12.08-.1.07,0,.17.07.18.13.04.16.06.34.05.5-.05.6-.17,1.2.11,1.79.12.24.02.51-.04.76-.13.5-.25,1.01-.4,1.5-.09.29-.05.49.22.65.17.1.18.28.12.45-.31.98-.82,1.82-1.8,2.25-1.11.48-2.23.92-3.35,1.39-.72.3-1.44.56-2.12.96-.73.43-.96,1.2-1.4,1.82-.16.22.18.75.58.87.18.05.39-.09.38.27-.09,1.96-.58,3.84-1.01,5.74-.13.58-.39,1.14-.64,1.69-.26.57-.81.92-1.3,1.22-1.23.76-2.06,1.83-2.59,3.12-.68,1.66-1.7,3.1-2.74,4.53-.36.49-.84.87-1.33,1.23-.74.54-1.34,1.21-1.9,1.93-1.64,2.1-3.63,3.81-5.88,5.23-.93.59-1.92.98-3.07.79-.43-.07-.85,0-1.15.41-.14.2.02.59-.32.63-.24.02-.5-.1-.75-.15-.17-.03-.34-.05-.51-.07-.33-.04-.6.04-.72.39-.15.42-.48.45-.84.37-.33-.08-.67-.18-.99-.32-.53-.23-1.09-.26-1.64-.34-.21-.03-.49-.06-.63.05-.65.52-1.33.26-1.98.1-.97-.25-1.81-.03-2.49.65-.34.35-.66.49-1.13.47-.63-.02-1.26.37-1.89.03-.7.36-1.61.22-2.17.94-.33.43-.76.66-1.35.58-.61-.07-1.11-.31-1.35-.85-.17-.38-.46-.56-.75-.63-.5-.11-1-.08-.93-.83.01-.14-.29-.3-.53-.29-.24,0-.4.13-.45.38-.03.11-.06.22-.1.36-.39-.38-.41-.78-.12-1.19.26-.38.19-.77-.04-1.09-.52-.73-.86-1.57-1.41-2.28-.32-.41-.12-.82.39-.94.68-.16.71-.21.8-.79.2-1.25,0-2.42-.72-3.47-1.46-2.17-2.55-4.5-3.26-7.02-.28-1.01-1.02-1.8-1.44-2.75-.04-.1-.18-.18-.29-.22-.56-.21-.91-.65-1.25-1.09-.97-1.23-1.75-2.58-2.28-4.05-.16-.44-.39-.88-.22-1.38.04-.11.03-.28-.03-.36-.8-1.04-.61-2.3-.8-3.48-.02-.13-.01-.26,0-.39.05-.98-.15-1.88-.68-2.72-.38-.6-.54-1.25-.43-1.98.11-.68-.09-1.37-.05-2.06.03-.46-.11-.91.18-1.35.16-.24.05-.59-.04-.88-.15-.5-.39-.96-.7-1.38-1.48-2.09-2.75-4.29-3.71-6.67-.17-.43-.38-.85-.58-1.29,1.47-.28,1.55-.32,2.65-1.5,1.16-1.25,2.04-2.68,2.72-4.24.48-1.11.88-2.25,1.32-3.38.11-.28.21-.56.35-.91.44.11.86.17,1.25.32.39.15.65.06.92-.22.93-.96,1.89-1.9,2.82-2.87,4.66-4.83,9.05-9.89,13.4-14.99,3.36-3.95,6.68-7.94,10.03-11.91.27-.32.49-.7,1.05-1.01Z"/>
      <path class="cls-3" d="M252.52,167.73c.74-.04,1.34-.12,1.8-.59.2-.2.4-.15.68-.06.34.11.78-.06,1.02-.35.41-.49,1.02-.29,1.51-.53.12-.06.29.25.53-.12.43-.66,1.03-1.26,1.93-1.27.22,0,.25-.08.34-.24.23-.45.5-.89.79-1.32.14-.2.24-.08.36.09.24.35.37.36.5.07.09-.19.24-.41.22-.59-.08-.56-.03-1.01.54-1.31.23-.12.28-.42.16-.7-.06-.16-.18-.31-.19-.47-.02-.25-.05-.56.21-.7.33-.19.41.15.56.34.15.2.39.3.48,0,.11-.33.38-.55.6-.64.52-.21.85-.49,1.02-1.04.19-.61.25-1.18-.05-1.76-.02-.03,0-.08,0-.1.33-.4.68-.77.98-1.19.09-.12.09-.4.26-.37.26.03.29.27.22.51-.01.04-.02.1,0,.12.21.25.47.48.63.76.16.29.17.67.49.88.47.31.61.83.78,1.31.3.86.48,1.75.54,2.66.08,1.17.22,2.33.87,3.35.15.23.19.49.13.75-.1.42-.23.83-.38,1.23-.09.24-.25.48-.55.48-.32,0-.42-.27-.5-.51-.1-.28-.15-.58-.26-.86-.04-.09-.2-.18-.31-.17-.1,0-.23.11-.29.2-.07.1-.13.25-.11.36.14.66-.08,1.39.43,1.98.18.2.2.49.05.73-.28.46-.2,1.07-.73,1.45-.31.22-.4.65-.41,1.06,0,.3-.04.61,0,.91.13,1.24-.16,2.4-.57,3.55-.35.97-.79,1.92-1.07,2.92-.46,1.62-1.14,3.16-1.5,4.81-.12.54-.35,1.07-.58,1.58-.58,1.31-1.02,2.66-1.24,4.08-.14.85-.48,1.65-.55,2.52-.01.21-.14.41-.23.6-.42.85-.79,1.73-1.06,2.64-.2.68-.64,1.11-1.34,1.26-.3.06-.59.15-.89.19-.74.08-1.43.31-2.06.73-.11.07-.23.13-.34.19-.67.37-1.33.37-1.94-.12-.38-.31-.76-.55-1.27-.57-.2,0-.41-.13-.58-.24-.67-.42-1.18-.92-1.36-1.78-.16-.75-.66-1.4-.67-2.21,0-.3-.09-.59.04-.89.26-.57.09-1.1-.2-1.6-.15-.26-.31-.52-.46-.78-.59-.97-.65-2.04-.55-3.13.02-.25.15-.49.26-.73.07-.15.27-.29.27-.43,0-.68.26-1.13.94-1.34.29-.09.39-.46.49-.74.29-.82.68-1.58,1.18-2.29.33-.47.56-.96.31-1.57-.07-.18,0-.43.05-.63.06-.23.05-.43-.1-.6-.36-.42-.45-.92-.53-1.44-.05-.34-.14-.68-.27-1-.37-.9-.43-1.85-.53-2.79-.06-.59.06-1.12.45-1.57.7-.82,1.05-1.77,1.08-2.95ZM260.49,165.21c0-.15-.08-.22-.22-.2-.05,0-.13.11-.12.15.01.06.09.13.15.16.1.05.16,0,.19-.11ZM261.6,163.9s-.06-.06-.08-.09c-.03.03-.06.06-.09.09.04.03.08.06.13.09.02-.03.03-.06.05-.09Z"/>
      <g>
        <path class="cls-3" d="M244.05,272.95c.08.51.45.84.71,1.22,2.71,3.86,5.42,7.71,8.14,11.56.2.28.4.56.59.85.1.15,0,.37-.18.38-.22.01-.43.02-.65.02-2.94,0-5.88,0-8.82,0-.7,0-1.38-.06-2.05-.28-1.11-.36-1.98-1.04-2.64-2-1.09-1.56-2.19-3.11-3.28-4.67-1.12-1.59-2.26-3.17-3.34-4.78-.34-.51-.74-.66-1.31-.61-.33.03-.45.19-.46.49,0,.35,0,.69,0,1.04,0,3.11,0,6.23,0,9.34,0,.35,0,.69-.01,1.04-.01.24-.14.4-.4.41-.09,0-.17.01-.26.01-2.34,0-4.67,0-7.01,0-.22,0-.43-.02-.65-.05-1.3-.21-2.16-1.12-2.29-2.44-.03-.3-.01-.61-.01-.91,0-12.16,0-24.31,0-36.47,0-1.44-.14-1.34,1.31-1.34,4.63,0,9.26,0,13.88,0,2.8,0,5.51.47,8.08,1.59,3.77,1.65,6.57,4.31,8.05,8.19,2.24,5.88.37,12.52-5.39,16.22-.65.42-1.34.77-2.02,1.16ZM230.76,260.21c0,1.6,0,3.2,0,4.8,0,.43.1.53.54.53,1.56,0,3.11.04,4.67-.03,1.22-.05,2.38-.42,3.4-1.13,1.08-.75,1.79-1.76,2-3.06.29-1.83-.23-3.42-1.57-4.72-1.1-1.07-2.46-1.62-3.97-1.7-1.51-.07-3.03-.04-4.54-.04-.44,0-.54.1-.54.54,0,1.6,0,3.2,0,4.8Z"/>
        <path class="cls-2" d="M71.42,266.55c0,1.86-.02,3.72,0,5.58.04,3.93-1.41,7.25-4.07,10.07-2.48,2.63-5.53,4.28-9.05,5.01-5.38,1.12-10.41.24-14.92-3-3.13-2.25-5.23-5.24-6.1-9.04-.25-1.1-.38-2.21-.38-3.34.01-3.68,0-7.35,0-11.03,0-4.46,1.72-8.15,4.99-11.12,2.8-2.55,6.13-3.98,9.89-4.44,4.75-.59,9.12.42,13.03,3.18,3.47,2.45,5.67,5.75,6.44,9.97.13.73.16,1.46.16,2.19,0,1.99,0,3.98,0,5.97ZM60.23,266.45c0-1.95.02-3.89,0-5.84-.03-1.95-.75-3.63-2.21-4.94-1.25-1.13-2.73-1.69-4.41-1.47-2.44.31-4.11,1.69-5.02,3.96-.34.85-.44,1.76-.45,2.67,0,1.43,0,2.85,0,4.28,0,2.16,0,4.32,0,6.49,0,1.64.37,3.17,1.37,4.51,2.47,3.33,7.25,3.25,9.6-.17.75-1.1,1.14-2.32,1.14-3.66,0-1.95,0-3.89,0-5.84Z"/>
        <path class="cls-3" d="M315.67,245.91c.33-.18.63-.13.93-.13,3.41,0,6.83,0,10.24,0,.75,0,1.45.1,2.11.51.9.56,1.4,1.38,1.68,2.37.4,1.46.8,2.91,1.2,4.37,3,10.91,6,21.81,9,32.72.07.25.15.5.2.75.07.32-.06.48-.41.49-1.12.01-2.25,0-3.37.01-1.3,0-2.59.01-3.89,0-2.13-.02-3.28-.91-3.84-2.96-.2-.71-.35-1.43-.54-2.13-.2-.75-.21-.75-.94-.77-.52,0-1.04,0-1.56,0-2.94,0-5.88,0-8.82,0-.26,0-.52.01-.78,0-.38-.02-.54.19-.62.51-.31,1.26-.62,2.51-.93,3.77-.09.38-.19.75-.28,1.13-.07.3-.26.43-.55.44-.52,0-1.04,0-1.56,0-1.86,0-3.72,0-5.58,0-.63,0-1.2-.14-1.67-.58-.62-.57-.89-1.25-.65-2.1.34-1.21.66-2.42.99-3.62,3.1-11.24,6.2-22.47,9.3-33.71.1-.37.22-.74.33-1.07ZM326.48,271.9c-1.24-4.97-2.49-9.94-3.74-14.91-.01-.06-.13-.09-.27-.18-1.27,5.05-2.53,10.08-3.75,15.12,1.31.17,6.73.15,7.76-.03Z"/>
        <path class="cls-3" d="M166.27,245.78c1.64,0,3.29,0,4.93,0,2.06.01,3.23.87,3.79,2.85,1.3,4.61,2.56,9.24,3.84,13.86,2.12,7.7,4.24,15.4,6.36,23.11.01.04.03.08.04.12.28,1.23.59,1.29-.93,1.28-2.08-.01-4.15,0-6.23,0-.26,0-.52.01-.78,0-1.65-.11-2.84-1.05-3.31-2.64-.25-.83-.41-1.68-.63-2.51-.17-.65-.22-.7-.87-.7-3.67,0-7.35,0-11.02,0-.58,0-.72.09-.86.71-.29,1.31-.64,2.6-.96,3.9-.07.29-.16.58-.23.88-.06.24-.22.36-.46.36-.22,0-.43.01-.65.01-2.08,0-4.15,0-6.23,0-.34,0-.7,0-1.03-.08-1.18-.27-1.89-1.37-1.59-2.54.55-2.13,1.15-4.25,1.73-6.38,2.82-10.24,5.64-20.48,8.46-30.72.12-.45.18-1,.47-1.31.36-.39.98-.16,1.49-.17,1.56-.02,3.11,0,4.67,0ZM170.75,271.93c-.09-1.06-3.33-14.06-3.8-15.22-.1.24-.2.43-.25.63-1.14,4.6-2.28,9.2-3.41,13.8-.06.26-.23.55-.05.83,1.65.13,6.55.1,7.51-.04Z"/>
        <path class="cls-2" d="M32.18,277.2c0,2.77,0,5.54,0,8.3,0,.35,0,.69-.01,1.04,0,.24-.14.4-.4.42-.26.02-.52.03-.78.03-4.58,0-9.17.02-13.75,0-3.26-.02-6.34-.77-9.17-2.42-3.83-2.23-6.48-5.39-7.64-9.73-.31-1.18-.44-2.37-.44-3.59.01-3.33.01-6.66,0-9.99-.01-3.82,1.36-7.1,3.93-9.87,2.67-2.89,6.02-4.59,9.87-5.32,1.11-.21,2.23-.29,3.35-.29,3.76,0,7.53.07,11.29-.03,2.23-.06,3.26,1.45,3.19,3.19-.07,1.64-.01,3.29-.02,4.93,0,.22-.01.43-.04.65-.02.19-.16.31-.34.32-.34.02-.69.03-1.04.03-4.15,0-8.3,0-12.45,0-.6,0-1.21,0-1.81.14-2.66.65-4.56,2.99-4.73,5.83-.01.17,0,.35,0,.52,0,3.29,0,6.57,0,9.86,0,1.9.63,3.56,1.98,4.92,1.05,1.05,2.31,1.67,3.81,1.7,1.3.03,2.59.02,3.89,0,.55,0,.65-.12.66-.71.01-1.69,0-3.37,0-5.06,0-1.99,0-3.98,0-5.97,0-.62.08-.68.66-.71.22-.01.43,0,.65,0,1.99,0,3.98,0,5.97,0,.3,0,.61-.01.91.02,1.42.16,2.35,1.15,2.44,2.58.02.3,0,.61,0,.91,0,2.77,0,5.54,0,8.3Z"/>
        <path class="cls-3" d="M188.5,265.27c0-6.01,0-12.02,0-18.03,0-.35,0-.69.01-1.04,0-.25.15-.4.39-.42.3-.02.6-.01.91-.01,7.69,0,15.39,0,23.08,0,.22,0,.43,0,.65,0,1.43.07,2.42,1,2.59,2.41.01.09.01.17.01.26,0,1.95,0,3.89,0,5.84,0,.44-.12.55-.52.57-.35.02-.69,0-1.04,0-4.67,0-9.34,0-14,0-.35,0-.69,0-1.04.01-.24.01-.39.16-.4.41,0,.3-.01.6-.01.91,0,1.43,0,2.85,0,4.28,0,1.57-.13,1.42,1.36,1.42.43,0,.86,0,1.3,0,3.11,0,6.22,0,9.34,0,.35,0,.69-.02,1.04.01,1.13.1,2.02.88,2.28,1.98.06.25.1.51.1.77,0,1.73.01,3.46,0,5.19,0,.5-.11.59-.62.6-.52.01-1.04,0-1.56,0-3.93,0-7.87,0-11.8,0-.35,0-.69,0-1.04.02-.25.01-.39.17-.39.42-.01.35-.01.69-.01,1.04,0,4.63,0,9.25,0,13.88,0,1.24.06,1.18-1.22,1.18-2.03,0-4.06,0-6.09,0-.3,0-.61,0-.91-.04-1.37-.18-2.26-1.1-2.39-2.48-.03-.34-.01-.69-.01-1.04,0-6.05,0-12.1,0-18.15Z"/>
        <path class="cls-2" d="M107.96,265.33c0-5.97,0-11.93,0-17.9,0-.3,0-.61,0-.91.02-.69.04-.71.75-.73.3,0,.61,0,.91,0,7.44,0,14.87,0,22.31,0,.39,0,.78-.01,1.17.01,1.36.1,2.33,1.05,2.43,2.41.03.47.01.95.01,1.43,0,1.56,0,3.11,0,4.67,0,.43-.13.54-.53.56-.35.02-.69,0-1.04,0-4.58,0-9.17,0-13.75,0-.35,0-.69,0-1.04,0-.45.02-.57.11-.57.51,0,1.99-.01,3.98,0,5.97,0,.43.12.52.54.54.35.02.69,0,1.04,0,3.46,0,6.92,0,10.38,0,.35,0,.69-.02,1.04.01,1.27.12,2.29,1.09,2.33,2.37.06,1.9.02,3.8.02,5.71,0,.32-.2.45-.5.46-.35,0-.69,0-1.04,0-4.06,0-8.13,0-12.19,0-.3,0-.61,0-.91,0-.66.02-.69.05-.71.77,0,.3,0,.61,0,.91,0,4.45,0,8.91,0,13.36,0,.35,0,.69-.01,1.04,0,.25-.15.4-.4.42-.26.02-.52.03-.78.03-2.08,0-4.15,0-6.23,0-.39,0-.78-.02-1.16-.1-1.19-.26-1.96-1.17-2.05-2.36-.03-.34,0-.69,0-1.04,0-6.05,0-12.11,0-18.16Z"/>
        <path class="cls-3" d="M296.34,286.99c-1.73,0-3.46.01-5.19,0-4.21-.04-8-1.29-11.25-4-3.97-3.32-6.05-7.58-6.09-12.79-.02-2.94,0-5.88,0-8.82-.02-3.91,1.38-7.26,4.03-10.09,2.66-2.84,5.97-4.5,9.78-5.22,1.11-.21,2.23-.29,3.35-.29,3.16,0,6.31,0,9.47,0,.26,0,.52,0,.78.02,1.07.11,1.95.85,2.21,1.9.09.37.13.77.13,1.15.01,1.73,0,3.46,0,5.19,0,.09,0,.17,0,.26-.03.44-.12.54-.53.56-.35.01-.69,0-1.04,0-3.5,0-7,0-10.51,0-.6,0-1.21,0-1.8.15-2.75.71-4.63,3.14-4.66,6.13-.03,3.07,0,6.14,0,9.21,0,.79.13,1.55.33,2.3.28,1.1.77,2.11,1.49,3,1.15,1.42,2.6,2.22,4.48,2.21,2.94-.02,5.88,0,8.82,0,.47,0,.95,0,1.42.07,1.17.16,1.96.92,2.19,2.08.06.29.08.6.08.9,0,1.73,0,3.46,0,5.19,0,.17,0,.35-.03.52-.02.19-.13.32-.33.34-.3.02-.6.03-.9.03-2.08,0-4.15,0-6.23,0Z"/>
        <path class="cls-2" d="M76.58,265.28c0-5.97,0-11.93,0-17.9,0-.39,0-.78.02-1.17,0-.25.15-.39.4-.41.22-.02.43-.02.65-.02,2.2,0,4.41,0,6.61,0,.48,0,.95,0,1.4.21.89.43,1.41,1.12,1.54,2.1.05.38.02.78.02,1.17,0,8.99,0,17.99,0,26.98,0,1.78-.2,1.61,1.57,1.61,3.76,0,7.52,0,11.28,0,.52,0,1.04.02,1.55.11,1.08.21,1.82,1.04,1.99,2.12.03.17.05.34.05.52,0,1.9.01,3.8,0,5.71,0,.59-.08.65-.69.68-.26,0-.52,0-.78,0-7.35,0-14.7,0-22.05,0-.47,0-.96,0-1.42-.09-1.24-.24-2.05-1.17-2.14-2.43-.02-.34,0-.69,0-1.04,0-6.05,0-12.11,0-18.16Z"/>
        <path class="cls-3" d="M268.66,267.33c0,6.01,0,12.02,0,18.03,0,.35,0,.69,0,1.04-.02.49-.1.58-.63.59-2.38,0-4.76.04-7.13,0-1.85-.03-2.82-1.08-2.87-2.96,0-.26,0-.52,0-.78,0-11.98,0-23.95,0-35.93,0-1.7-.23-1.52,1.5-1.53,1.95,0,3.89,0,5.84,0,.35,0,.69-.01,1.04.03,1.15.13,2.08,1.04,2.23,2.19.05.43.04.86.04,1.3,0,6.01,0,12.02,0,18.03Z"/>
      </g>
      <path class="cls-2" d="M173.64,32.23c-.05.54-.08.93-.12,1.31-.07.82-.13,1.63-.21,2.45-.12,1.15.26,2.12,1.07,2.94,1.03,1.05,1.93,2.21,2.86,3.34.42.51.73,1.04.75,1.73.04.92.43,1.75.85,2.56.18.34.36.69.57,1.02.17.27.1.48-.12.68-1.28,1.13-2.7,1.99-4.38,2.4-1.74.43-3.42.21-5.09-.34-.42-.14-.6-.39-.6-.86.02-2.37,0-4.75.02-7.12,0-1.26.29-2.48.59-3.7.22-.88.48-1.75.74-2.61.4-1.35,1.58-2.83,3.07-3.79Z"/>
      <path class="cls-2" d="M156.12,164.8c-.36-.62-.42-1.28-.51-1.91-.22-1.58-.48-3.16-.15-4.76.24-1.2.58-1.57,1.79-1.59.96-.02,1.88-.19,2.81-.41.05-.01.16.07.16.11,0,.08-.03.19-.08.23-.14.09-.3.17-.46.21-.41.1-.67.38-.85.74-.25.5-.52.99-.95,1.38-.23.21-.34.49-.36.81-.03.48-.15.93-.36,1.36-.11.23-.19.49-.2.74-.07,1.08-.5,2.05-.83,3.1Z"/>
      <path class="cls-2" d="M190.71,67.63c-.18-.26-.03-.46.03-.65.33-1.07.73-2.12,1-3.2.16-.64.51-.83,1.1-.81.3.01.6-.04.9-.06.94-.04,1.05.12.69,1.03-.51,1.29-1.46,2.21-2.53,3.03-.36.28-.72.59-1.2.65Z"/>
      <path class="cls-2" d="M193.65,102.38c.05.1.09.14.08.17-.2.79-.24,1.7-.76,2.31-.46.53-1.33.55-2.01.79-.27.1-.57.35-.85.13-.34-.27-.51-.69-.61-1.11-.05-.2.13-.3.28-.38,1.22-.64,2.45-1.28,3.67-1.91.03-.02.08,0,.2,0Z"/>
      <path class="cls-2" d="M172.53,52.69c.82.93,1.62,1.83,2.4,2.71-.09.14-.13.23-.19.27q-1.47.91-2.7-.26c-1.08-1.02-.97-.76-.2-1.98.16-.25.27-.55.7-.74Z"/>
      <path class="cls-2" d="M173.14,142.98c.02-.35.14-.44.34-.45.04,0,.09,0,.13,0,2.57.63,2.24-.03,1.64,2.51-.18.78-.52.88-1.13.37-.23-.2-.41-.43-.54-.71-.27-.59-.41-1.22-.44-1.73Z"/>
      <path class="cls-2" d="M197.41,104.41c.85,1.23,1.4,2.26,1.38,3.52,0,.26-.17.4-.42.34-.5-.13-.99-.27-1.48-.42-.3-.09-.36-.31-.27-.6.25-.86.48-1.72.79-2.83Z"/>
      <path class="cls-2" d="M193.23,98c-.17.01-.35.04-.52.03-.12,0-.28-.03-.33-.11-.14-.19.05-.31.18-.41.3-.24.59-.53.93-.7.42-.21.67.31,1.04.37.1.02.18.03.22-.07.03-.07.04-.16.05-.23,0-.04-.03-.08-.05-.12-.09-.23-.42-.36-.35-.66.08-.33.45-.37.69-.54.14-.1.3-.19.46-.23.13-.03.27.08.26.21-.05.52-.2,1.01-.42,1.48-.08.16-.22.07-.34.09-.12.02-.33.07-.33.11,0,.82-.62.68-1.11.74-.13.02-.26.02-.39.03,0,0,0,0,0,0Z"/>
      <path class="cls-2" d="M193.3,113.99c-.97-.02-.97-.02-1.16-.98-.11-.55-.2-1.09-.28-1.64,0-.06.05-.16.1-.19.06-.03.19-.02.23.03.52.56,1.05,1.12,1.54,1.72.22.27.73.5.5.91-.17.32-.63.11-.94.15Z"/>
      <path class="cls-2" d="M181.49,60.04c-.98-.63-1.35-1.57-1.59-2.57-.09-.37.22-.51.5-.66.48-.25.65-.2.72.28.13.98.25,1.97.37,2.95Z"/>
      <path class="cls-2" d="M184.12,65.5c.86.17,1.59.5,2.34.77.18.07.25.24.18.42-.14.4-.3.79-.46,1.21-.44-.04-.58-.38-.8-.61-.27-.27-.52-.57-.76-.86-.2-.25-.5-.45-.5-.92Z"/>
      <path class="cls-2" d="M205.33,66.59c.19.57.16,1.21.19,1.84.03.7-.34.99-1.03.82-.07-.02-.16-.07-.2-.13-.35-.47-.23-1.05.28-1.39.07-.05.15-.08.22-.13.09-.07.25-.14.16-.27-.06-.08-.21-.09-.33-.13-.12-.04-.32-.04-.34-.11-.06-.19.09-.31.26-.35.24-.06.44-.27.8-.15Z"/>
      <path class="cls-2" d="M187.17,50.68c.05.86.11,1.54.13,2.22.01.39-.12.52-.53.56-.17.02-.34.02-.51,0-.28-.05-.5-.43-.38-.7.11-.23.26-.44.42-.63.26-.31.24-.51-.18-.64-.12-.04-.15-.18-.03-.3.03-.03.07-.05.11-.07.27-.12.54-.25.97-.44Z"/>
      <path class="cls-2" d="M205.52,99.73s0,.15,0,.28c0,.65-.08.72-.74.71-.26,0-.53,0-.61-.32-.08-.32-.21-.67.12-.94.1-.08.22-.13.32-.21.33-.26.32-.29-.14-.5-.07-.03-.16-.07-.19-.14-.02-.04.02-.17.07-.19.19-.1.38-.19.58-.26.33-.12.48-.02.51.33.04.38.06.76.09,1.25Z"/>
      <path class="cls-2" d="M192.17,80.15c-.05-.44.22-.68.44-.93.07-.09.22-.16.33-.15.72.09,1.45.12,2.14.36.06.02.14.13.13.19,0,.07-.09.17-.15.18-.95.17-1.91.33-2.88.35Z"/>
      <path class="cls-2" d="M155.43,169.1c-.08-.61-.12-1.14-.22-1.66-.11-.56-.04-1.02.46-1.37.13-.09.19-.29.45-.3-.01,1.13-.07,2.25-.69,3.32Z"/>
      <path class="cls-2" d="M190.96,55.57c-.48-.02-.62-.27-.83-.41-.84-.56-1.26-1.28-.77-2.37.8.75,1.17,1.72,1.6,2.78Z"/>
      <path class="cls-2" d="M193.87,70.34c.15-.33.23-.53.32-.72.12-.24.27-.43.59-.34.27.07.46.21.48.51,0,.17.02.34,0,.5-.02.13-.1.25-.25.23-.33-.04-.66-.11-1.13-.18Z"/>
      <path class="cls-2" d="M193.01,90.95c-.04.19-.16.31-.3.41-.56.39-.98.52-1.01.31-.06-.39.28-.6.41-.91.05-.12.14-.22.22-.32.2-.25.42-.19.56.15.05.12.08.25.12.36Z"/>
      <path class="cls-2" d="M194.24,84.95c-.18-.03-.31-.04-.44-.07-.13-.03-.24-.11-.23-.25,0-.07.04-.17.1-.22.17-.13.35-.26.54-.35.25-.11.46-.51.77-.22.22.2-.03.48-.09.71-.09.35-.35.45-.64.4Z"/>
      <path class="cls-2" d="M198.53,85.55c-.41-.07-.75-.11-1.08-.18-.06-.01-.14-.11-.13-.16,0-.07.09-.17.15-.18.42-.06.85-.11,1.27-.14.13,0,.26.08.24.23-.02.12-.08.25-.16.33-.08.07-.22.08-.27.1Z"/>
      <path class="cls-2" d="M182.16,65.94c-.45-.48-.75-.79-1.03-1.11-.04-.05-.04-.17,0-.23.03-.06.14-.12.2-.11.71.07.81.23.83,1.45Z"/>
      <path class="cls-2" d="M119.15,41.03c.04-.12.11-.19.24-.18.02,0,.06.05.06.07-.07.16-.18.21-.33.09,0,0,.03.02.03.02Z"/>
      <path class="cls-2" d="M118.88,41.28c0-.18.11-.24.27-.25,0,0-.03-.02-.03-.02.12.26-.04.28-.23.28,0,0-.02-.02-.02-.02Z"/>
      <polygon class="cls-2" points="146.46 121.18 146.37 121.19 146.43 121.19 146.46 121.18"/>
      <path class="cls-2" d="M184.15,121.54c.1-.03.26-.13.3-.09.14.12.08.28,0,.42-.1-.11-.2-.22-.29-.33Z"/>
      <path class="cls-1" d="M247.39,84.68c-.07.05-.13.1-.2.14-.03.01-.09,0-.1-.02-.05-.09,0-.15.11-.15.07,0,.14.04.21.06,0,0-.02-.03-.02-.03Z"/>
      <path class="cls-1" d="M260.49,165.21c-.02.11-.09.15-.19.11-.06-.03-.14-.1-.15-.16,0-.04.07-.15.12-.15.13-.02.22.06.22.2Z"/>
      <path class="cls-1" d="M261.6,163.9s-.03.06-.05.09c-.04-.03-.08-.06-.13-.09.03-.03.06-.06.09-.09.03.03.06.06.08.09Z"/>
    </g>
  </g>
</svg>