<?xml version="1.0" encoding="UTF-8"?>
<svg id="Layer_2" data-name="Layer 2" xmlns="http://www.w3.org/2000/svg" viewBox="0 0 898.03 797.06">
  <defs>
    <style>
      .cls-1, .cls-2 {
        fill: #099dd8;
      }

      .cls-1, .cls-3 {
        stroke-width: 0px;
      }

      .cls-2 {
        font-family: Poppins-SemiBold, Poppins;
        font-size: 101.12px;
        font-weight: 600;
        letter-spacing: .19em;
      }

      .cls-3, .cls-4 {
        fill: #6c6055;
      }

      .cls-4 {
        font-family: Poppins-Regular, Poppins;
        font-size: 71.47px;
        letter-spacing: .19em;
      }
    </style>
  </defs>
  <g id="Layer_1-2" data-name="Layer 1">
    <g>
      <path class="cls-3" d="M898,544.06c0,.93-.02,1.87,0,2.8.43,22.99-3.73,28.12-26.4,26.1-21.17-1.89-42.04-1.37-62.19,4.55-8.28,2.43-7.69-7.1-15.43-6.44-13.05,1.11-3.49-9.09-3.5-13.92,0-19.15.21-38.26-2.38-57.32-.84-6.14-3.94-11.08,9.02-11.44,13.02-.37,27.09-4.76,40.8-6.09,15.76-1.53,31.69-1.4,47.55-1.73,3.56-.07,8.32-.46,9.01,4.47.33,2.34-1.38,5.36-2.96,7.48-3.47,4.62-6.04-.81-8.63-.99-14.29-1-28.81-1.58-43.02-.1-10.06,1.05-23.6-2.52-29.35,4.98-4.6,5.99-.89,18.33-.89,27.85,0,8.87.82,17.84-.22,26.59-1.16,9.81,3.36,10.2,11.25,10.3,15.57.21,31.21-.83,46.75,2.64,7.29,1.62,13.83-1.55,13.61-10.85-.17-7.42-1.25-14.83-1.24-22.25.01-4.76-1.09-11.35,6.99-10.96,7.15.34,10.22,5.3,10.82,11.81.38,4.15.07,8.36.07,12.54.11,0,.22,0,.32,0Z"/>
      <path class="cls-1" d="M845.63,512.85c8,.99,13.12,4.91,13.08,13.33-.04,8.35-5.04,13.13-13.03,13.05-7.87-.08-13.08-4.79-13.09-13.1,0-8.34,5.22-12.27,13.04-13.28Z"/>
      <path class="cls-3" d="M658.43,405.31c.66-1.12,1.32-2.23,1.98-3.35.31.42.61.85.92,1.27-1.03.62-2.06,1.24-3.09,1.86,0,0,.19.22.19.22Z"/>
      <path class="cls-3" d="M152.72,427.59c1.25,2.59.77,5.02-.72,7.34-2.69-2.21-5.38-4.42-8.07-6.64.66-.87,1.32-1.75,1.98-2.62,2.36.71,4.72,1.42,7.08,2.14,0,0-.26-.22-.26-.22Z"/>
      <path class="cls-3" d="M167.6,435.57c1.81,1.22,2.55,3.53,1.26,4.69-2.01,1.8-2.49-1.3-3.71-2.15.82-.84,1.63-1.69,2.45-2.54Z"/>
      <path class="cls-3" d="M143.92,428.3c-1.15-.85-3.57-1.23-2.09-3.32,1.39-1.95,2.77,0,4.07.7-.66.87-1.32,1.74-1.98,2.61Z"/>
      <path class="cls-3" d="M626.01,421.65c-1.74,1.49-2.49,2.56-3.47,2.86-1.85.57-3.73.17-4.5-1.84-.08-.22,2.16-1.65,3.45-1.95,1.03-.23,2.26.42,4.51.93Z"/>
      <path class="cls-3" d="M594.02,438.8c-.83-.73-1.43-1.24-2.02-1.76,1.06-.66,2.07-1.48,3.22-1.88.33-.12,1.09.97,1.65,1.51-.96.72-1.91,1.43-2.85,2.13Z"/>
      <g>
        <path class="cls-3" d="M417.83,507.9c9.22-.44,16.79-4.3,24.07-9.96,21.1-16.42,46.51-24.53,71.59-38.36-7.24,18.05-19.04,28.63-41.91,38.46,28.9,7.78,56.76,4.8,84.57,6.59-18.29,11.64-38.54,15.75-59.91,14.94-10.77-.4-21.68-1.99-31.32-6.92-11.2-5.73-22.14-5.65-34.03-.6,19.4,2.6,37.62,8.61,55.11,17.39-33.72,5.84-66.54-2.57-100-6.1,8.12,10.32,19.87,15.77,26.88,26.06,2.29,3.37,9.06,6.62,3.77,11.42-5.89,5.34-7.47-2.27-10.18-5.22-31.71-34.43-32.65-33.89-63.4.14-2.71,2.99-4.05,10.37-10.2,5.04-4.95-4.3.72-7.4,2.92-10.38,7.48-10.11,18.34-16.7,27.42-26.48-33.07,2.5-65.51,11.26-101.08,6.73,16.85-10.56,34.38-13.36,53.88-18.44-10.69-5.77-18.19-4.81-26.73-1.25-32.85,13.69-69.64,11.15-97.08-7.17,19.52,0,37.15-1.52,54.33.59,9.81,1.2,15.51-12.59,26.06-4.19-4.3-9.38-14.29-10.78-20.34-16.99-6.45-6.61-13.1-12.91-18.32-23.67,35.12,14.53,65.57,33.08,97.48,49.11-9.83-14.04-27.23-18.14-39.23-32.7,13.06-2.01,22.66,2.81,32.28,6.38,15.49,5.74,29.99,13.72,41.23,25.86,7.51,8.11,11.87,6.66,18.95-.47,16.56-16.68,37.47-25.98,60.05-31.62,3.29-.82,7.9-3.41,9.78,1.42,1.52,3.91-3.16,5.2-5.63,6.84-10.9,7.2-21.99,14.09-33.01,21.09-1.3.84-2.59,1.68-3.89,2.52,1.98,1.49,3.94.72,5.9-.06Z"/>
        <path class="cls-3" d="M161.62,435.57c-5.01-14.96-11.3-29.69-8.36-48.52,8.3,9.91,12.7,20.02,17.58,29.69,7.56,15,14.63,30.24,21.8,45.43,3.43,7.27,7.3,13.75,18.22,13.12-9.1-13.82-19.66-25.91-21.77-46.72,24.81,23.89,45.81,46.03,65.38,70.39-14.33-5.18-28.59-2.64-42.71-3.02-28.75-.77-52.48-12.93-76.18-34.56,20.49.93,35.07,10.42,52.7,12.72-3.9-10.12-11.15-11.21-18.4-12.86-34.19-7.79-58.28-28.69-74.58-59.94,10.72,6.61,21.44,13.21,32.16,19.82.99-.73,1.97-1.47,2.96-2.2-15.08-21.24-29.01-42.91-29.53-73.04,19.86,26.89,36.15,52.56,46.1,81.93-2.36-.71-4.72-1.42-7.08-2.13-1.3-.69-2.68-2.65-4.07-.7-1.48,2.08.94,2.47,2.09,3.32,2.69,2.21,5.38,4.42,8.07,6.64,1.49-2.32,1.98-4.75.72-7.34,5.54,1.86,7.96,7.41,12.44,10.52,1.23.86,1.71,3.95,3.71,2.15,1.29-1.16.55-3.47-1.26-4.69ZM214.12,478.15c-.42-.68-.75-1.86-1.26-1.94-1.13-.19-2.9-.28-1.81,1.87.39.77,1.06,1.41,1.61,2.1.5-.67.99-1.33,1.46-2.03ZM189.67,473.2c-.17.31-.56.69-.49.91.44,1.35,1.12,1.4,1.75.13.11-.21-.14-.73-.38-.95-.17-.16-.58-.07-.89-.09Z"/>
        <path class="cls-3" d="M652.26,405.08c-11.83,28.94-35.38,44.23-63.62,53.42-9.82,3.2-19.22,6.61-29.27,13.3,18.76,2.81,32.67-10.36,51.46-9.87-31.27,36.36-72.52,34.17-115.23,34.83,19.58-23.79,41.5-44.38,63.81-67.9.36,20.67-13.8,31.75-22.14,47.1,9.91-.01,15.35-1.52,19.31-11.62,10.32-26.35,22.76-51.87,39.55-77.55,3.18,18.09-2.81,32.78-4.99,48.62,22.28-25.19,31.52-58.77,55.21-82.46.76,26.2-13.22,46.17-29.42,68.48,15.96-3.02,22.9-15.82,35.52-16.12l-.19-.22ZM534.18,477.87c-1.11.53-2.7,1.1-1.42,2.52.41.46,2.29-.41,3.49-.67,1.35-1.24,3.04-2.52.63-4.14-.27-.18-1.77,1.48-2.69,2.29ZM620.03,421.65c-2.26-.51-3.49-1.16-4.51-.93-1.29.29-3.54,1.73-3.45,1.95.77,2.01,2.65,2.42,4.5,1.84.98-.3,1.73-1.38,3.47-2.86ZM588.04,438.8c.94-.7,1.89-1.42,2.85-2.13-.56-.54-1.32-1.63-1.65-1.51-1.15.4-2.16,1.22-3.22,1.88.59.52,1.19,1.04,2.02,1.76Z"/>
        <path class="cls-3" d="M417.83,507.9c-1.96.78-3.92,1.55-5.9.06,1.3-.84,2.59-1.68,3.89-2.52.67.82,1.34,1.64,2.01,2.46Z"/>
        <path class="cls-3" d="M214.14,478.17c-.48.68-.98,1.35-1.48,2.01-.54-.7-1.21-1.33-1.61-2.1-1.09-2.15.68-2.06,1.81-1.87.52.09.85,1.26,1.28,1.96Z"/>
        <path class="cls-3" d="M189.67,473.2c.3.02.72-.07.89.09.23.22.48.74.38.95-.63,1.27-1.31,1.22-1.75-.13-.07-.23.31-.61.49-.91Z"/>
        <path class="cls-3" d="M536.26,479.73c-1.21.26-3.09,1.13-3.5.67-1.28-1.43.31-2,1.42-2.52.64.68,1.33,1.3,2.08,1.86Z"/>
        <path class="cls-3" d="M534.18,477.87c.93-.81,2.43-2.47,2.69-2.29,2.42,1.61.72,2.9-.62,4.14-.74-.56-1.43-1.17-2.07-1.85Z"/>
      </g>
      <g>
        <path class="cls-1" d="M374.05,439.98c-122.1.25-222.03-99.16-221.17-221.15C153.75,94.98,249.14,2.29,356.56.07c140.63-2.92,237.76,90.2,238.32,218.24.53,122.06-98.46,221.43-220.83,221.68ZM167.61,211.09c19.6-11.99,32.73-5.39,35.49,16.27.53,4.15.9,8.42,2.17,12.37,3.43,10.58,8.37,17.7,21.37,10.56,11.13-6.11,18.71-.69,23.24,9.96,2,4.69,3.19,9.76,5.41,14.32,1.89,3.87,4.79,6.3,10.08,5.41,26.28-4.43,26.3-4.3,39.32,17.88,7.48,12.74,17.11,14.74,28.64,5.95,19.48-14.86,27.89-13.77,44.48,5.77,11.93,14.05,26.96,14.96,39.99,2.11,3.28-3.24,5.76-7.3,8.58-11,9.96-13.11,21.83-15.18,35.3-6.15,18.45,12.37,32.78,6.7,38.05-15.06,3.78-15.61,14.24-23.53,29.24-22.13,16.01,1.49,19.84-2.09,19.28-18.34-.38-11,2.14-20.78,12.96-25.68,6.8-3.08,7.33-7.13,5.29-13.35-3.55-10.8-4-21.2,6.16-29.23,2.86-2.27,3.9-5.07,2.73-8.65-2.89-8.81-5.09-17.9-8.67-26.42C533.02,55.44,450.98,3.26,365.59,7.49c-90.09,4.46-167.99,64.78-193.32,149.89-5.06,17-8.77,34.25-4.66,53.7ZM424.97,320.74c6.35,12.29,15.14,15.92,26.28,13.44,9.18-2.05,14.11-11.03,12.94-22.2-11.23,8.82-23.93,11.66-39.22,8.77ZM381.76,356.43c-.22,12.32,6.42,18.39,17.17,19.35,9.16.82,18.23-.36,22.83-12.14-14.34.09-28.19,3.14-39.99-7.22ZM375.87,402.37c1.28-14.7-6.36-19.33-15.24-21.29-9.11-2.01-18.72-1.87-24.25,8.05-.64,1.14.29,3.58,1.14,5.03,1.53,2.6,2.66.39,4.15-.56,12.51-7.98,23.07-4.28,34.2,8.77ZM290.28,343.46c-1.57,15.28,6.58,22.2,17.7,26.18,9,3.22,16.92.98,23.17-8.78-16.93,1.04-30.06-4.26-40.86-17.4ZM439.46,392.43c5.46-11.6,16.33-15.78,30.11-11.68,2.36.7,4.84,4.68,6.9,1.01,2.23-3.98-.94-6.98-4.24-9.09-8.82-5.63-30.36-.14-35.21,9.04-1.81,3.42-2.64,7.03,2.45,10.72ZM475.4,346.33c12.39,7.83,21.69,6.66,30.18-1.19,7.17-6.63,7.75-12.48,2.44-23.23-5.41,14.07-15.04,22.43-32.62,24.42ZM335.78,316.76c4.34,15.52,8.85,20.26,18.19,20.73,8.62.44,13.75-3.1,17.96-12.4-17.2,3.83-22.08,2.83-36.15-8.33ZM509.3,297.49c10.52,6.69,17.54,3.47,23.94-2.8,6.77-6.63,10.52-13.94,3.53-24.64-4.73,13.7-12.18,23.65-27.47,27.45ZM216.31,295.18c-15.77-6.36-18.56-19.32-19.04-36.28-7.9,14.1-3.84,23.84,2.86,32.91,3.55,4.8,8.04,9.07,16.18,3.37ZM265.67,295.28c-.13,9.86,1.82,19,12.21,22.42,6.18,2.04,12.25.49,16.39-7.06-14.24,2.17-21.8-5.4-28.59-15.36ZM567.11,292.27c.21-4.18-.24-7.41-4.74-7.49-4.9-.09-2.63,3.39-2.82,5.84-.63,8.19-5.2,13.6-12.63,16.65-2.05.84-5.08.7-3.93,4.07,1.09,3.17,3.59,3.86,6.66,2.42,9.51-4.48,14.4-12.61,17.45-21.49ZM247.91,333.16c-9.21-8.4-16.24-17.56-12.75-32.24-11.23,12.56-5.92,25.63,12.75,32.24ZM247.18,277.14c-14.66,3.39-17.77-7.41-23.42-15.52-3.59,10.25.34,16.78,7.22,21.55,5.43,3.76,10.41,1.74,16.19-6.03ZM272.82,371.39c-1.53-10.85-8.42-15.05-15.61-18.81-1.98-1.03-4.54-1.04-6.17,1.26-2.14,3.02-1.2,6.25-.06,9.21,1.22,3.15,3.15,1.69,5.36.56,7.44-3.8,10.69,3.19,16.47,7.78ZM564.66,257.47c14.57-15.78,14.57-27.87,2.14-35.85,5.46,14.12,5.39,17.48-2.14,35.85ZM181.83,217.87c-2.94,9.21-1.19,16.05,3.18,22.31,1.99,2.85,5.07,4.59,8.42,2.26,5.34-3.72-.61-4.74-1.87-6.95-2.97-5.19-5.79-10.47-9.72-17.62ZM421.79,413.96c-2.48-8.96-8.69-9.13-14.62-8.18-5.28.85-10.65,2.82-10.25,12.17,7.93-6.83,16.14-4.84,24.88-4ZM579.06,202.79c1.82-8.36,5.09-16.94-5.64-27.12,3.57,11.32,4.17,19.32,5.64,27.12Z"/>
        <path class="cls-1" d="M421.49,291.47c-20.54-8.22-29.3-8.06-46.06.83-2.07-13.66,5.5-22.74,20.3-24.36,14.35-1.57,25.14,8.28,25.76,23.53Z"/>
        <path class="cls-1" d="M289.93,257.29c-3.61-9.54-6.51-16.66-14.62-16.61-9.49.06-14.53,6.92-17.86,16.93-5.73-12.63-3.89-22.15,5-29.99,7.03-6.2,15.37-7.21,22.98-1.57,9.73,7.22,8.9,17.19,4.5,31.23Z"/>
        <path class="cls-1" d="M339,290.21c-14.52-14.89-17.43-15.71-33.61-9.5-2.34-8.78-.41-15.7,8.29-19.49,10.23-4.45,19.46-1.78,26.43,6.24,6.41,7.37,4.85,15.31-1.12,22.75Z"/>
        <path class="cls-1" d="M340.88,256.79c-2.34-19.25,2.55-26.63,16.07-28.44,14.67-1.96,24.98,6.51,27.43,23.75-7.2-5.46-14.4-9.36-22.76-8.61-7.99.71-15.47,3.12-20.74,13.3Z"/>
        <path class="cls-1" d="M421.63,215.1c-19.9-4.86-26.76-2.31-36.89,13.55-5.97-6.46-6.16-13.55-1.55-20.26,5.55-8.09,14.05-10.31,23.42-8.77,8.54,1.41,14.2,5.93,15.03,15.48Z"/>
        <path class="cls-1" d="M495.05,211.09c-14.7-.4-25.79,4.87-32.83,17.74-6.67-14.59-3.82-25.05,8.07-29.73,11.39-4.48,19.68-.83,24.75,12Z"/>
        <path class="cls-1" d="M346.33,189.25c-2.59-13.07,2.81-19.68,13.25-22.12,8.86-2.07,16.79.37,21.42,8.93,1.21,2.24,1.82,5.73.95,7.96-1.63,4.16-4.66.5-6.88-.02-9.99-2.33-19.39-1.67-28.73,5.25Z"/>
        <path class="cls-1" d="M451.96,257.73c-9.73-5.29-18.87-6.8-28.06-1.48-1.73,1-3.27,4.4-5.54,1.8-1.3-1.48-1.74-4.42-1.39-6.51,1.63-9.72,8.04-14.77,17.53-14.6,12.16.21,16.42,8.36,17.48,20.79Z"/>
        <path class="cls-1" d="M455.17,189.43c-13.65-7.16-24.52-7.05-34.7,3.82-4.61-9.68-3.59-16.83,5.94-21,11.46-5.01,22.76,1.27,28.76,17.18Z"/>
        <path class="cls-1" d="M336.4,227.88c-9.67-17.23-18.63-19.24-35.07-8.8-2.52-9.06,2.02-14.68,9.45-17.73,7.87-3.22,15.78-1.81,22.18,4.13,6.38,5.91,8.9,12.84,3.44,22.4Z"/>
        <path class="cls-1" d="M456.38,281.31c-1.43-15.66,5.22-21.85,15.24-25.23,10.4-3.51,17.98.39,24.12,11.97-14.25-.14-28.03-.63-39.36,13.26Z"/>
        <path class="cls-1" d="M275.52,196.38c-12.18-13.37-16.94-13.63-30.12-3.02-.27-12.33,5.89-20.86,15.35-19.7,11.93,1.47,16.19,9.35,14.77,22.71Z"/>
        <path class="cls-1" d="M415.9,159.26c-11.6-6.79-22.02-8.93-32.85-.81-2.62-11.31,2.75-16.19,12.33-17.71,12.03-1.91,18.18,3.15,20.52,18.52Z"/>
        <path class="cls-1" d="M512.89,240.99c-5.86-10.06-3.75-17.25,4.96-22.04,9.18-5.05,15.78-1.76,20.35,8.68-10.25,1.19-20.67,1.51-25.31,13.36Z"/>
        <path class="cls-1" d="M284.14,172.9c5.39-11.76,11.5-16.44,20.36-12.45,10.1,4.55,9.69,13.34,6.64,23.74-6.48-9.29-12.18-18.32-27-11.3Z"/>
        <path class="cls-1" d="M234.85,234.19c-4.06-16.38-13.23-17.28-24.77-11.3.6-9.8,5.38-14.76,13.25-14.09,10.32.89,14.48,8.8,11.52,25.38Z"/>
        <path class="cls-1" d="M482.09,147.92c-11.43-2.27-20.23,1.53-27.25,10.47-3.37-10.7-2.75-13.38,4.26-17.17,9.16-4.95,16.68-2.5,23,6.69Z"/>
        <path class="cls-1" d="M536.11,154.36c-7.26-3.41-9.03-17.74-20.17-7.37-1.77,1.65-2.69-2.76-2.66-4.8.06-5.64,3.32-9.06,8.74-7.95,10.28,2.09,13.06,9.94,14.1,20.13Z"/>
        <path class="cls-1" d="M198.3,178.3c2.83-9.42,4.95-19.76,15.83-19.5,6.44.15,6.49,7.79,8.02,14.39-9.15-3.11-16.48.07-23.85,5.11Z"/>
        <path class="cls-1" d="M295.37,127.3c-11.18-1.47-18.64,2.49-21.17,18.03-4.91-13.5-1.93-21.29,7.31-25.62,6.49-3.04,12.99-1.67,13.67,7.74l.19-.15Z"/>
        <path class="cls-1" d="M317.78,148.83c5.34-14.48,17.04-18.13,25.21-9.33,1.59,1.72,3.54,3.56,2.38,5.96-1.23,2.53-3.87,2.11-5.99,1.11-7.14-3.37-14.05-1.29-21.6,2.26Z"/>
        <path class="cls-1" d="M496.67,132.06c-6.71-13.7-7-13.92-21.75-17.51,5.5-6.66,11.35-5.7,17.1-1.92,6.26,4.11,9.36,9.57,4.65,19.43Z"/>
        <path class="cls-1" d="M515.44,171.6c-8.82,2.06-15.83,3.71-22.86,5.33,3.64-12.92,8.89-14.57,22.86-5.33Z"/>
        <path class="cls-1" d="M258.59,147.21c-9.72-2.21-16.15,2.23-22.15,11.49-.15-10.38,3.11-16.48,10.64-19.31,5.82-2.18,9.41,1.29,11.51,7.81Z"/>
        <path class="cls-1" d="M556.44,196.17c-4.66-3.26-6.34-8.62-11.94-7.77-1.8.27-4.2,3.52-5.02-.6-.39-1.96.27-4.57,1.39-6.27,1.39-2.11,4.12-1.98,6.2-.83,5.32,2.95,9.67,6.7,9.37,15.48Z"/>
        <path class="cls-1" d="M487.77,85.25c9.43-1.19,15.84,2.4,19.02,15.95-7.54-6.99-11.43-14.45-19.02-15.95Z"/>
        <path class="cls-1" d="M260.36,107.88c2.86-10.53,6.92-15.55,14.5-17.11,2.59-.53,4.67,1.11,5.25,3.54.9,3.72-1.62,3-4,2.78-6.67-.61-9.24,5.31-15.75,10.79Z"/>
        <path class="cls-1" d="M295.18,127.45l.39.65s-.21-.8-.21-.8-.18.15-.18.15Z"/>
      </g>
      <text class="cls-2" transform="translate(0 657.48)"><tspan x="0" y="0">MEDICLINIC</tspan></text>
      <text class="cls-4" transform="translate(69.26 756.18)"><tspan x="0" y="0">INVITATIONAL</tspan></text>
    </g>
  </g>
</svg>