<?xml version="1.0" encoding="UTF-8"?>
<svg id="Layer_2" data-name="Layer 2" xmlns="http://www.w3.org/2000/svg" viewBox="0 0 1023.8 551.53">
  <defs>
    <style>
      .cls-1 {
        fill: #c43942;
      }

      .cls-1, .cls-2, .cls-3 {
        stroke-width: 0px;
      }

      .cls-3 {
        fill: #0b0b0b;
      }
    </style>
  </defs>
  <g id="Layer_1-2" data-name="Layer 1">
    <g>
      <path class="cls-2" d="M398.92,551.53c.05-34.37.19-68.73.03-103.1-.02-4.38,1.45-6.46,5.34-8.04,11.02-4.49,22.3-6.6,34.13-4.59,13.9,2.36,22.61,10.8,26.49,24.01,3.75,12.74,3.33,25.63-.92,38.23-5.31,15.74-16.07,23.68-32.66,24.57-7.25.39-14.32-.49-21.01-3.27-2.92-1.21-3.29-.38-3.28,2.32.05,9.96-.07,19.92-.12,29.89h-8ZM407.09,478.85v21.4q0,10.99,10.71,13.89c19.26,5.23,34.63-3.63,39.46-22.94,2.12-8.48,2.42-17.14.4-25.65-2.65-11.17-8.49-19.95-20.56-22.54-8.83-1.89-17.48-.65-25.88,2.75-2.98,1.21-4.34,2.72-4.23,6.2.29,8.95.1,17.92.1,26.88Z"/>
      <path class="cls-2" d="M868.83,551.53c.01-34.58.09-69.16-.05-103.74-.02-3.72,1.1-5.61,4.53-7.07,11.3-4.81,22.91-7.01,35.09-4.89,14.86,2.59,23.37,12.15,26.95,26.14,3.15,12.34,2.5,24.81-1.78,36.84-6.41,18-21.77,26.33-42.32,23.45-4.76-.67-9.33-2.09-14.41-4.13v33.39h-8ZM876.89,478.59c0,7.32,0,14.63,0,21.95q0,10.65,10.5,13.55c16.61,4.58,31.57-1.73,37.46-16.22,4.65-11.44,5.28-23.35,1.75-35.18-2.92-9.77-8.78-17.27-19.35-19.57-9.39-2.04-18.52-.74-27.33,3.11-2.32,1.01-3.13,2.39-3.09,4.93.15,9.14.06,18.29.06,27.44Z"/>
      <path class="cls-2" d="M1023.8,370.93q-7.96-.28-7.96-8.32c0-15.63.06-31.25-.02-46.88-.08-15.76-7.98-23.5-23.8-23.53-7.96-.02-15.44,1.93-22.68,5.2-2.85,1.28-3.73,3.02-3.71,6.11.14,20.94,0,41.89.14,62.83.02,3.3-.58,4.59-4.29,4.63-3.85.05-3.81-1.8-3.8-4.55.05-37.07.12-74.14-.09-111.21-.02-4.25,1.61-4.88,5.13-5.01,4.74-.18,2.87,3.22,2.9,5.16.16,11.92.08,23.85.08,36.48,11.19-5.49,22.36-7.91,34.24-6.26,12.88,1.78,20.14,9.64,23.86,21.5v63.86Z"/>
      <path class="cls-2" d="M0,450.75c1.94-2.25,1.67-5.16,2.26-7.79,6.96-31.33,30.24-46.12,62.68-39.71,3.58.71,7.07,1.86,10.62,2.72,3.05.74,4.23,2,3.21,5.52-1.15,3.97-3.21,2.72-5.58,1.92-6.01-2.04-12.15-3.38-18.51-3.85-19.86-1.48-34.8,7.82-41.48,26.54-5.74,16.08-6.27,32.61-1.65,49.02,6.53,23.2,27.33,34.57,52.07,28.91,4.04-.92,7.97-2.31,11.95-3.5,1.42-.42,3.19-2.16,3.64.93.3,2.04,2.67,4.55-.81,5.91-3.55,1.39-7.18,2.69-10.88,3.55-11.92,2.8-23.88,2.72-35.44-1.42-17.34-6.22-26.02-19.76-30.06-36.93-.55-2.32-.31-4.88-2.03-6.85v-2.99c.75-6.65,1.24-13.3,0-19.96v-2Z"/>
      <path class="cls-2" d="M0,452.75c1.24,6.65.75,13.3,0,19.96v-19.96Z"/>
      <path class="cls-1" d="M660.72,200c-9.51.27-18.97-.03-28.36-1.74-19.95-3.63-35.34-13.45-43.66-32.46-1.99-4.55-4.63-5.24-8.92-4.05-16.07,4.44-31.42,10.94-47.13,16.4-18.4,6.38-36.75,12.93-56.18,15.59-8.48,1.16-16.95,1.23-25.31-.75-12.6-2.98-21.12-10.79-26.16-22.56-2.69-6.29-4.4-12.88-6.17-19.46-.73-2.72-1.5-5.45-2.47-8.1-3.61-9.89-7.01-12.27-17.62-11.32-17.47,1.57-33.65,7.8-49.57,14.67-28.35,12.23-55.18,27.32-81.16,43.89-4.01,2.56-6.5,2-9.34-1.28-8.44-9.76-14.72-20.94-21.05-32.06-11.93-20.96-22.88-42.43-33.26-64.19-1.77-3.72-3.17-3.82-6.47-1.88-49.58,29.22-96.17,62.73-141.53,98.01-3.42,2.66-6.9,5.23-10.18,8.05-2.4,2.07-4.75,2.28-7.25.53-13.01-9.09-23.55-20.49-31.72-34.06-1.93-3.21-.32-5.7,1.65-8.11,4.98-6.08,10.8-11.32,16.72-16.43,24.35-20.99,50.07-40.25,76.14-59.03,31.75-22.87,63.8-45.32,97.47-65.33,8.99-5.34,17.84-11.07,28.15-13.97,2.69-.75,3.64-.41,5.08,1.76,4.7,7.1,7.68,15.04,11.35,22.63,12.6,26.03,24.96,52.18,38.24,77.88q5.53,10.71,16.4,4.91c21.7-11.68,44.06-21.84,67.91-28.27,14.9-4.02,30.1-6.73,45.57-7.44,27.41-1.26,44.47,10.54,52.87,36.82,2.47,7.74,3.98,15.77,6.06,23.64,1.69,6.36,2.77,6.99,9.19,5.27,15.96-4.29,30.94-11.28,46.41-16.9,23.12-8.4,46.29-16.76,70.72-20.59,8.89-1.39,17.95-1.81,26.94-2.49,2.87-.22,1.64,1.57.97,2.86-3.29,6.39-4.36,13.18-4.48,20.34-.2,11.82,12.01,20.15,20.56,21.44,24.54,3.7,48.81.15,73.08-3.06,6.27-.83,12.55-1.55,18.8-2.5,3.45-.53,5.22.74,6.17,4.05,3.33,11.57,4.64,23.43,5.53,35.37.29,3.89-2.59,5.17-5.12,6.59-10.4,5.87-21.79,9.01-33.33,11.67-14.97,3.46-30.18,5.13-45.52,5.66Z"/>
      <path class="cls-2" d="M84.61,370.27c-6.93,1.61-10.91.07-14.18-5.79-6.06-10.86-13.27-21.08-19.82-31.68-5.76-9.32-13.54-13.86-24.89-13.12-10.98.72-11.02.15-11.02,11.2,0,11.63-.05,23.26.03,34.89.02,3.02.24,5.25-4.21,5.22-4.22-.03-3.93-2.11-3.92-4.92.04-35.89.07-71.78-.05-107.68-.01-3.36.68-4.64,4.32-4.46,13.59.67,27.3-1.26,40.77,2.08,16.76,4.15,24.93,14.3,24.69,30.83-.24,16.57-8.58,26.56-25.32,30.35-.95.22-1.88.58-2.54.79,14.82,15.33,23.51,34.77,36.13,52.28ZM14.7,286.93c0,7.48,0,14.95,0,22.43,0,1.67-.23,3.37,2.39,3.31,11.61-.25,23.36.98,34.66-2.79,11.65-3.88,16.81-11.92,16.32-24.87-.45-11.79-6.27-18.72-18.15-21.84-10.81-2.84-21.84-1.59-32.78-1.93-2.61-.08-2.44,1.55-2.44,3.26,0,7.48,0,14.95,0,22.43Z"/>
      <path class="cls-2" d="M259.25,481.97c0-11.47.08-22.95-.06-34.42-.03-2.63.55-4.26,3.11-5.44,12.05-5.57,24.51-8.4,37.82-6.39,4.7.71,9.28,2.12,12.63,5.48,2.84,2.86,4.85,2.33,8.03.62,10.36-5.54,21.43-7.89,33.27-6.24,13.96,1.94,23.26,11.13,23.64,25.23.52,18.94.14,37.91.32,56.86.04,3.66-2.22,2.82-4.26,2.97-2.46.18-3.96-.07-3.93-3.32.17-15.63.07-31.26.07-46.89,0-2,.03-3.99,0-5.99-.27-14.39-8.55-22.47-23.02-22.28-8.49.11-16.38,2.44-23.77,6.68-2.35,1.35-2.9,2.71-1.98,5.13,1.25,3.3,1.64,6.81,1.66,10.29.08,17.63-.06,35.25.14,52.88.04,3.63-1.76,3.39-4.28,3.55-3.05.19-3.96-.71-3.93-3.84.16-16.63.1-33.26.05-49.89,0-2.65-.23-5.32-.66-7.93-1.58-9.72-7.41-15.1-17.25-16.52-5.05-.73-10.01-.24-14.9.67-13.74,2.55-14.61,3.72-14.61,17.54,0,18.46-.06,36.92.06,55.37.02,3.15-.31,4.65-4.16,4.69-4.16.04-4.03-1.99-4-4.9.09-11.31.04-22.62.04-33.92Z"/>
      <path class="cls-2" d="M741.16,331.78c0-11.47.05-22.94-.04-34.41-.02-2.38.42-4.01,2.82-5.15,11.05-5.25,22.59-7.94,34.84-6.93,6.25.52,12.19,2.25,16.81,6.75,1.9,1.85,3.22,1.89,5.49.59,9.45-5.4,19.66-8.01,30.6-7.51,17.69.79,27.94,11.27,28.07,28.98.13,17.46,0,34.91.08,52.37.02,2.86-.16,4.5-3.87,4.5-3.79,0-4.24-1.47-4.22-4.68.14-16.62.09-33.25.06-49.88-.03-17.07-9.14-25.45-26.15-24.11-7.42.59-14.31,2.87-20.74,6.62-1.92,1.11-3.13,2.08-2.1,4.63,1.64,4.07,1.73,8.44,1.74,12.77.03,16.63-.05,33.25.06,49.88.02,3.1-.23,4.71-4.15,4.79-4.45.08-3.78-2.43-3.77-5.05.01-16.29.05-32.59-.03-48.88-.02-2.97-.32-5.98-.89-8.9-1.71-8.78-7.16-14.13-16.04-15.48-9.84-1.49-19.18.47-28.17,4.61-2.54,1.17-2.58,3.02-2.57,5.27.04,21.28-.05,42.56.1,63.84.02,3.34-.64,4.72-4.31,4.54-2.86-.14-3.67-.96-3.64-3.75.13-11.8.05-23.61.05-35.41Z"/>
      <path class="cls-2" d="M313.93,333.32c-7.99,0-15.98.1-23.97-.06-2.62-.05-3.79.84-4.57,3.32-3.22,10.29-6.66,20.5-10.01,30.75-.94,2.88-5.92,5.01-8.22,3.29-1.81-1.35-.16-3.04.3-4.39,5.53-16.34,10.98-32.71,16.83-48.93,7.26-20.14,15.37-39.95,24.08-59.52,1.43-3.21,3.25-3.82,6.41-3.89,3.25-.08,4.61,1.23,5.85,3.99,15.9,35.3,29.21,71.57,40.89,108.45.41,1.28,2.78,3.79-.25,4.23-2.39.35-6.04,2.21-7.46-2.34-3.22-10.29-6.8-20.47-9.91-30.79-1.01-3.37-2.62-4.3-6-4.19-7.98.26-15.98.08-23.97.08ZM314.48,262.17c-9.3,20.61-16.83,40.81-24.38,61.01-1.24,3.31.79,3.06,2.93,3.06,12.49-.03,24.98-.01,37.46-.01q9.43,0,6.26-8.64c-6.79-18.35-13.78-36.61-22.26-55.42Z"/>
      <path class="cls-2" d="M533.29,370.27c-6.36,1.61-10.24.09-13.76-5.22-10.66-16.07-22.11-31.62-32.95-47.57-2.23-3.28-3.66-3.03-6.56-1.16-5.15,3.34-10.54,6.35-15.98,9.22-2.37,1.25-3.29,2.63-3.25,5.37.17,11.97-.05,23.95.15,35.92.06,3.42-1.14,4.07-4.28,4.11-3.19.04-3.86-1.02-3.85-4,.09-36.42.11-72.84-.02-109.26-.01-3.31,1.2-3.77,4.04-3.75,2.77.02,4.14.33,4.11,3.72-.17,18.96,0,37.92-.15,56.87-.03,3.86.79,4.24,4.04,2.35,9.8-5.7,19.3-11.8,27.87-19.27,12.15-10.6,20.41-23.6,24.09-39.3.8-3.42,2.04-4.58,5.57-4.4,3.1.15,3.4.92,2.76,3.79-4.3,19.25-14.46,34.8-29.45,47.4q-5.23,4.4-1.12,10.18c11.82,16.7,23.63,33.4,35.43,50.11,1.04,1.47,2.02,2.99,3.31,4.9Z"/>
      <path class="cls-2" d="M547.14,310.72c0-18.61.15-37.23-.11-55.84-.06-4.15,1.83-4.36,5-4.68,4.16-.42,3.15,2.31,3.16,4.41.04,10.8.16,21.61-.05,32.41-.08,3.96.5,4.94,4.51,3.03,10.03-4.79,20.67-6.23,31.63-4.08,13.05,2.56,21.28,10.98,21.78,24.25.72,19.25.26,38.55.41,57.82.03,3.73-2.51,2.55-4.45,2.8-2.54.33-3.47-.54-3.45-3.24.11-16.29.06-32.57.05-48.86,0-20.32-9.59-28.69-29.93-26.19-5.66.7-11.01,2.38-16.24,4.65-3.14,1.36-4.37,3.18-4.34,6.79.2,20.61.08,41.22.12,61.82,0,2.94.39,5.23-4.14,5.2-4.72-.04-3.95-2.7-3.95-5.44,0-18.28,0-36.56,0-54.85Z"/>
      <path class="cls-2" d="M103.78,441.91c11.35-5.66,22.34-7.98,34.13-6.3,14.33,2.04,23.75,12.07,23.96,26.69.26,18.28-.02,36.56.18,54.84.04,3.58-1.67,3.45-4.23,3.57-2.96.14-4.01-.59-3.98-3.8.17-16.95.09-33.9.07-50.85-.02-15.98-7.99-24-23.95-23.87-7.73.06-15.15,1.7-22.2,5.07-2.92,1.39-4.1,3.01-4.07,6.39.18,20.77.05,41.54.14,62.31.01,2.99-.02,4.84-4.06,4.84-3.92,0-4.11-1.64-4.11-4.72.08-37.06.16-74.11-.08-111.17-.03-4.58,2.1-4.55,5.3-4.75,4.32-.26,2.83,2.85,2.84,4.76.11,12.11.06,24.22.06,37Z"/>
      <path class="cls-2" d="M751.49,460.46c0-18.61.17-37.23-.12-55.83-.07-4.36,2.13-4.21,5.08-4.46,3.97-.34,2.73,2.5,2.74,4.32.09,11.13.12,22.27,0,33.4-.04,3.36.6,3.94,3.85,2.4,9.19-4.36,18.92-6.19,29.12-4.81,16.01,2.17,24.78,10.8,25.36,26.9.66,18.42.13,36.89.29,55.33.03,3.68-2.29,2.76-4.3,2.95-2.51.24-3.91-.14-3.88-3.33.16-16.95.06-33.9.08-50.85,0-3.68-.3-7.32-1.48-10.81-3.01-8.89-10.39-13.47-22.16-13.48-8.08,0-15.8,1.7-23.13,5.33-2.8,1.39-3.78,3.04-3.76,6.13.13,20.77.03,41.54.11,62.32.01,2.91.11,4.79-3.98,4.85-4.46.07-3.8-2.39-3.8-5.01,0-18.45,0-36.89,0-55.34Z"/>
      <path class="cls-2" d="M936.08,336c0,8.31-.12,16.61.07,24.92.06,2.86-.72,4.55-3.41,5.79-12.81,5.93-26.12,7.75-39.88,4.55-12.11-2.81-18.9-11.45-18.82-23.05.08-11.99,6.52-19.99,18.62-23.26,9.71-2.62,19.45-1.95,29.2-.35,6.28,1.03,6.28,1.06,6.28-5.06,0-1,0-1.99,0-2.99-.03-17.43-7.63-24.81-25.18-24.33-6.2.17-12.28,1.2-18.03,3.51-2.8,1.12-3.54-.18-4.08-2.38-.44-1.81-1.8-3.56,1.43-4.6,12.15-3.92,24.43-5.39,36.79-1.57,10.85,3.35,16.04,11.58,16.71,22.42.54,8.77.11,17.6.11,26.4.06,0,.12,0,.18,0ZM928.14,346.66c0-3.65.01-7.31,0-10.96,0-1.47.28-3.18-1.77-3.57-11.32-2.13-22.71-4.06-33.92.21-7.05,2.68-10.39,8.57-10.15,16.64.22,7.56,4.03,12.69,11.5,15.08,9.04,2.9,18.12,2.08,27.05-.44,7.22-2.04,7.31-2.42,7.31-9.98,0-2.32,0-4.65,0-6.97Z"/>
      <path class="cls-2" d="M153.65,335.34c0,9.58-.13,17.56.07,25.53.07,2.89-.82,4.57-3.47,5.79-12.97,6.01-26.43,7.85-40.35,4.5-11.61-2.79-18.17-11.08-18.36-22.37-.2-12.11,6.01-20.34,17.98-23.72,10.01-2.82,20.09-2.11,30.17-.42q5.88.99,5.88-5.08c0-1.16,0-2.33,0-3.49-.06-16.71-7.43-24.01-24.14-23.88-6.55.05-12.95,1.11-19.03,3.5-2.74,1.08-3.53,0-4.13-2.28-.56-2.12-1.44-3.84,1.87-4.87,11.01-3.45,22.14-4.77,33.46-2.22,11.57,2.6,18.32,10.44,19.57,22.24,1,9.44.21,18.92.47,26.77ZM145.57,346.87c0-3.82-.01-7.64,0-11.45,0-1.57-.08-3.01-2.08-3.38-10.67-1.96-21.37-3.68-32.04-.3-8.1,2.57-11.8,8.19-11.68,17,.11,8,4.06,13.23,12.15,15.53,9.25,2.63,18.39,1.66,27.51-1.05,4.66-1.39,6.97-3.81,6.2-8.89-.37-2.43-.06-4.97-.07-7.46Z"/>
      <path class="cls-2" d="M546.52,522.68c-15.75-.07-27.27-7.57-32.78-22.25-5.78-15.41-5.69-31.01,1.25-46.08,6.04-13.13,17.01-19.18,31.23-19.31,14.13-.13,25.49,5.31,31.79,18.39,7.87,16.34,7.86,33.2.55,49.67-6.03,13.57-17.34,19.59-32.04,19.57ZM575.08,478.72c.04-7.89-1.02-15.56-4.61-22.72-4.76-9.48-12.81-13.64-23.08-13.81-10.2-.17-18.97,3.25-23.69,12.72-7.8,15.65-7.78,31.81-.17,47.48,4.7,9.67,13.55,13.17,24.03,12.96,10.58-.21,18.54-4.67,23.21-14.35,3.4-7.04,4.37-14.57,4.3-22.28Z"/>
      <path class="cls-2" d="M238.13,485.62c0,8.64-.07,17.29.05,25.93.03,2.25-.54,3.75-2.66,4.76-13.73,6.56-28.01,8.49-42.7,4.28-11.01-3.16-16.78-11.56-16.63-22.66.15-11.47,5.72-18.88,16.92-22.46,10.8-3.46,21.76-2.58,32.6-.55,4.24.8,4.75-.52,4.51-4.05-.3-4.47.37-9-.6-13.42-2.31-10.43-10.97-15.9-24.2-15.27-6.16.3-12.29,1.04-18.07,3.38-2.21.89-3.68,1-4.3-1.86-.49-2.26-1.72-4.07,1.91-5.21,11.03-3.46,22.17-4.72,33.47-2.15,11.9,2.7,18.89,11.04,19.47,23.36.4,8.62.08,17.28.08,25.92h.19ZM230.15,496.84c0-3.82-.04-7.64.02-11.45.02-1.6-.07-3.02-2.03-3.37-10.67-1.95-21.38-3.71-32.05-.29-8.22,2.64-12.02,8.61-11.67,17.54.32,8.01,4.78,13.37,13.14,15.3,9.12,2.1,18.11,1.32,27.03-1.54,4.24-1.36,6.4-3.5,5.63-8.23-.42-2.59-.08-5.3-.08-7.96Z"/>
      <path class="cls-2" d="M689.82,336.9c0,7.98-.12,15.96.06,23.93.06,2.83-.69,4.58-3.37,5.82-12.98,6-26.45,7.87-40.38,4.51-11.73-2.83-18.21-11.05-18.31-22.36-.12-12.44,5.79-20.3,17.91-23.72,10.36-2.93,20.79-2.14,31.17-.21,3.68.68,5.51.26,5.01-4.11-.47-4.1.04-8.26-.7-12.41-1.53-8.6-6.66-13.52-14.97-15.31-9.23-1.98-18.23-.52-27.03,2.41-2.36.78-3.79,1.33-4.69-1.91-.75-2.7-.95-4.15,2.2-5.13,9.36-2.92,18.88-4.14,28.59-2.92,15.75,1.98,23.99,11.1,24.43,26.98.22,8.14.04,16.29.04,24.43h.04ZM681.84,346.69c0-3.82-.01-7.65,0-11.47,0-1.39-.02-2.75-1.77-3.08-11.34-2.13-22.74-4.07-33.97.18-7.2,2.72-10.48,8.69-10.18,17.13.25,7.14,4.17,12.24,11.47,14.6,8.88,2.87,17.8,2.09,26.6-.3,7.71-2.09,7.85-2.51,7.85-10.58,0-2.16,0-4.32,0-6.48Z"/>
      <path class="cls-2" d="M600.71,481.89c0-11.47.12-22.94-.08-34.41-.05-2.97.94-4.48,3.58-5.64,12.78-5.6,25.98-8.13,39.91-6.08,13.03,1.92,22.19,11.22,22.57,24.62.55,19.1.16,38.23.34,57.34.04,3.7-2.29,2.73-4.29,2.92-2.6.26-3.87-.33-3.83-3.43.16-15.13.07-30.25.07-45.38,0-2.16.03-4.32-.01-6.48-.28-14.91-7.28-22.37-22.27-23.1-8.39-.41-16.54,1.13-24.35,4.48-2.89,1.24-3.77,2.93-3.75,6.03.14,21.11.01,42.22.14,63.33.02,3.22-.43,4.67-4.22,4.69-3.74.02-3.87-1.65-3.85-4.48.1-11.47.04-22.94.04-34.41Z"/>
      <path class="cls-2" d="M709.77,522.69c-10.62-.1-18.1-1.65-25.56-3.45-3.37-.81-3.32-2.48-2.71-5.43.74-3.58,2.63-2.6,4.66-1.97,9.49,2.93,19.12,4.52,29.04,2.81,8.01-1.38,12.96-5.92,13.79-12.36.78-6.1-1.31-10.7-6.8-13.72-4.84-2.67-10-4.49-15.24-6.14-4.77-1.5-9.43-3.26-13.79-5.73-9.4-5.31-13.05-12.26-11.63-22.15,1.45-10.09,7.19-16.31,17.57-18.46,9.81-2.03,19.49-1.03,29.16,1.47,4.18,1.08,2.95,3.52,2.57,6.03-.61,3.95-3.14,1.36-4.52,1.04-7.67-1.79-15.31-3.16-23.23-1.94-7.22,1.11-12.08,5.09-13.2,11.04-1.49,7.92.93,12.97,8.03,17,4.83,2.74,10.16,4.09,15.35,5.85,5.21,1.77,10.31,3.78,15,6.7,12.4,7.72,12.73,25.77.56,33.94-6.63,4.45-14.18,5.46-19.05,5.46Z"/>
      <path class="cls-2" d="M190.76,372.69c-5.06-.11-12.68-1.66-20.3-3.56-4.01-1-2.58-3.34-2.21-5.69.53-3.3,2.44-2.13,4.38-1.55,9.33,2.77,18.81,4.59,28.54,2.9,6.91-1.2,12.72-4.08,14.33-11.86,1.19-5.77-.71-10.5-5.75-13.71-4.52-2.87-9.54-4.66-14.63-6.25-6.04-1.89-11.9-4.14-17.38-7.41-8.02-4.79-10.58-12.03-9.69-20.8.9-8.78,5.67-14.85,14.07-17.57,11.16-3.61,22.31-2.52,33.41.71,3.63,1.06,2.23,3.29,1.91,5.49-.45,3.06-2.42,1.99-4.07,1.54-7.92-2.16-15.91-3.67-24.14-2.13-7.78,1.46-11.85,5.23-12.95,11.87-1.23,7.47,1.23,12.42,8.55,16.23,3.22,1.68,6.69,2.93,10.14,4.09,6.31,2.12,12.56,4.29,18.46,7.45,7.77,4.16,11.09,10.52,10.58,19.23-.5,8.55-4.84,14.22-12.45,17.69-5.72,2.61-11.78,3.43-20.81,3.32Z"/>
      <path class="cls-2" d="M381.91,303.49c0,15.44-.1,30.89.03,46.33.1,12.43,2.22,14.69,14.45,15.49,2.73.18,2.17,1.84,2.46,3.34.39,2,.26,3.34-2.33,3.88-9.81,2.07-19.05-3.38-21.46-13.17-.75-3.03-1.11-6.24-1.11-9.36-.08-31.72-.02-63.43-.1-95.15,0-2.95.41-4.46,3.9-4.64,3.32-.17,4.24.62,4.21,3.96-.16,16.44-.07,32.88-.07,49.32h.03Z"/>
      <path class="cls-3" d="M824.7,127.07c22.41.04,40.24,17.82,40.29,40.17.05,22.46-18.2,40.59-40.65,40.41-22.31-.18-40.16-18.25-40.03-40.52.12-22.4,17.97-40.1,40.39-40.06ZM862.03,167.18c-.04-20.75-16.75-37.52-37.39-37.54-20.47-.01-37.55,17.03-37.62,37.52-.06,20.77,17.13,37.91,37.84,37.72,20.8-.19,37.21-16.83,37.17-37.7Z"/>
      <path class="cls-2" d="M711.11,328.98c0-12.64.13-25.28-.08-37.91-.06-3.5,1.26-3.98,4.32-4.08,3.31-.11,3.76,1.16,3.75,4.03-.1,25.27-.09,50.55,0,75.82,0,2.78-.31,4.23-3.7,4.09-3-.13-4.43-.49-4.37-4.04.22-12.63.09-25.27.09-37.91Z"/>
      <path class="cls-2" d="M484.74,479.21c0-12.63.08-25.25-.06-37.88-.03-3.01.41-4.47,3.99-4.38,3.24.08,4.22.9,4.2,4.22-.14,25.09-.12,50.17-.02,75.26.01,3.08-.56,4.38-4.04,4.32-3.24-.05-4.2-.88-4.15-4.16.19-12.46.08-24.92.08-37.38Z"/>
      <path class="cls-2" d="M846.86,478.97c0,12.46-.07,24.93.05,37.39.03,2.93-.28,4.54-3.92,4.39-3.07-.13-4.28-.63-4.26-4.07.15-25.26.14-50.52.01-75.77-.02-3.1.88-3.94,3.94-3.93,3.13.01,4.33.67,4.27,4.11-.22,12.63-.09,25.26-.09,37.89Z"/>
      <path class="cls-2" d="M494.66,411.56c-.37,3.27-2.03,5.77-5.88,5.75-3.92-.02-6.14-2.14-6.16-6.18-.02-3.65,2.7-6.23,6.32-6.08,3.31.14,5.76,2.81,5.72,6.52Z"/>
      <path class="cls-2" d="M848.85,411.91c-.4,3.09-2.17,5.36-6,5.43-3.64.07-6.19-2.66-6.09-6.35.1-3.62,2.9-6.16,6.52-5.94,3.35.21,5.7,2.89,5.57,6.86Z"/>
      <path class="cls-3" d="M720.97,262.42c-.19,2.72-2,4.85-5.85,4.88-3.65.03-6.24-2.67-6.12-6.28.12-3.57,2.94-6.11,6.55-5.9,3.4.2,5.54,2.69,5.42,7.31Z"/>
      <path class="cls-3" d="M832.99,178.4c-1.69-.09-2.88-.94-3.01-2.63-.14-1.95,1.04-3.19,2.95-3.18,1.64.01,2.74,1.12,2.77,2.86.03,1.75-1.01,2.68-2.72,2.95Z"/>
      <path class="cls-3" d="M816.44,172.49c1.64.28,2.8,1.16,2.82,2.87.03,1.94-1.09,3.11-3.07,2.98-1.74-.11-2.6-1.26-2.56-2.99.05-1.78,1.18-2.57,2.81-2.87Z"/>
      <path class="cls-3" d="M802.85,175.15c-.11,2.05-.99,3.12-2.74,3.21-1.76.08-2.91-.97-3.02-2.61-.13-1.9,1.04-3.18,2.99-3.18,1.73,0,2.55,1.25,2.78,2.58Z"/>
      <path class="cls-3" d="M827.63,167.16c-.2,1.6-.98,2.9-2.68,3.05-1.97.17-3.16-1.03-3.16-2.97,0-1.7,1.04-2.76,2.81-2.83,1.84-.07,2.58,1.17,3.04,2.75Z"/>
      <path class="cls-3" d="M816.09,189.12c2.16.07,3.15,1.06,3.17,2.74.03,1.98-1.25,3.06-3.11,2.93-1.63-.11-2.6-1.27-2.51-3.02.09-1.76,1.12-2.59,2.45-2.66Z"/>
      <path class="cls-3" d="M841.26,180.91c1.68.22,2.72,1.07,2.67,2.87-.05,1.78-1.06,2.68-2.8,2.7-2.04.03-3.06-1.15-2.92-3.07.12-1.71,1.34-2.51,3.05-2.5Z"/>
      <path class="cls-3" d="M819.31,158.89c-.03,1.71-.9,2.86-2.56,3.06-1.67.2-2.88-.69-3.07-2.41-.21-1.89.61-3.22,2.67-3.29,1.74-.06,2.66,1,2.96,2.65Z"/>
      <path class="cls-3" d="M811.01,184.12c-.18,1.51-1.13,2.41-2.88,2.36-2.07-.06-2.92-1.31-2.73-3.19.17-1.77,1.46-2.49,3.11-2.34,1.71.15,2.59,1.2,2.5,3.17Z"/>
      <path class="cls-3" d="M802.84,159.21c-.17,1.75-1.19,2.82-2.86,2.77-1.9-.06-3.1-1.29-2.88-3.24.19-1.65,1.38-2.65,3.11-2.5,1.72.15,2.6,1.23,2.62,2.97Z"/>
      <path class="cls-3" d="M811.02,150.82c0,1.75-.87,2.74-2.62,2.84-1.73.1-2.88-.75-3.02-2.46-.15-1.92.88-3.14,2.87-3.11,1.67.02,2.72.93,2.77,2.73Z"/>
      <path class="cls-3" d="M835.73,191.46c.04,2.02-.94,3.19-2.54,3.34-1.86.18-3.17-.89-3.21-2.87-.03-1.73,1.03-2.7,2.76-2.79,1.78-.09,2.65.96,2.99,2.32Z"/>
      <path class="cls-3" d="M823.98,186.47c-1.13-.07-2.17-.96-2.21-2.69-.05-1.76,1.03-2.75,2.71-2.83,1.97-.09,3.17,1.07,3.07,2.97-.09,1.59-1.17,2.64-3.56,2.56Z"/>
      <path class="cls-3" d="M808.17,170.28c-1.75-.22-2.79-1.23-2.79-2.9,0-1.92,1.11-3.12,3.12-2.94,1.74.16,2.6,1.35,2.5,3.06-.1,1.73-1.17,2.6-2.83,2.78Z"/>
    </g>
  </g>
</svg>