<?xml version="1.0" encoding="UTF-8"?>
<svg id="Layer_2" data-name="Layer 2" xmlns="http://www.w3.org/2000/svg" viewBox="0 0 1265.17 552.2">
  <defs>
    <style>
      .cls-1 {
        fill: #f2b019;
      }

      .cls-1, .cls-2 {
        stroke-width: 0px;
      }

      .cls-2 {
        fill: #146c3d;
      }
    </style>
  </defs>
  <g id="Layer_1-2" data-name="Layer 1">
    <g>
      <path class="cls-2" d="M1170.42,275.56c-.05,84-59.92,158.16-141.95,176.41-95.09,21.15-189.36-38.32-213.65-129.05-3.51-13.1-5.62-26.41-5.71-40.01-.01-1.67-.01-3.35.11-5.01.31-4.2,2.08-5.67,6.23-5.28,3.09.3,4.51,1.76,4.82,5.22.31,3.47.47,6.95.72,10.42,4.23,57.59,38.97,114.88,92.52,142.37,1.48.76,2.98,1.52,4.55,2.08,2.35.84,3.6.35,4.89-1.76.43-.71.75-1.5,1.02-2.28,9.62-28.01,24.88-52.81,43.07-75.95,1.89-2.41,3.72-4.89,5.79-7.14,2.84-3.09,4.42-6.7,5.12-10.77.67-3.87.83-7.77.32-11.66-.64-4.83-2.34-6.32-7.19-5.98-44.8,3.17-84.08-23.32-103.42-54.2-12.89-20.58-18.47-42.9-15.31-67.03,3.34-25.51,15.37-46.59,34.41-63.67,16.94-15.2,36.82-24.98,58.81-30.33,30.81-7.49,61.81-8.52,92.58-.05,44.07,12.14,78.22,38.16,103.21,76.18,19.4,29.51,28.84,62.17,29.05,97.49ZM957.98,188.39c-6.22-3.52-11.9-6.73-17.59-9.93-1.82-1.02-3.6-2.15-5.5-2.99-2.27-1.01-3.38-.37-3.9,2.04-.15.67-.17,1.38-.17,2.08.02,6.41-.02,12.82.13,19.23.1,4.17.26,8.34,1.22,12.45,1.31,5.64,4.73,8.96,10.39,10.08,4,.79,8.04.74,12.07.58,12.8-.52,17.34,5.98,21.53,14.5.62,1.25.77,2.49-.44,3.38-1.3.96-2.65.67-3.76-.47-.58-.59-1.04-1.3-1.55-1.96-2.74-3.59-6.32-5.72-10.76-6.64-4.44-.92-8.88-.5-13.33-.5-3.49,0-6.96-.01-10.37-.92-6.69-1.79-10.82-5.95-12.15-12.85-.65-3.33-.7-6.65-.39-9.99.9-9.43,1.82-18.86,2.8-28.28.6-5.78,2.74-8.09,8.5-9.13,8.38-1.51,16.82-2.35,25.35-1.97,4.89.22,6.91-1.29,8.08-6,.74-2.99,1.53-5.94,2.95-8.67,3.97-7.66,10.36-11.55,18.92-11.43,8.61.12,14.76,4.35,18.48,12.11,2.42,5.05,3.11,10.4,2.36,15.89-.34,2.5.34,4.16,2.33,5.73,4.64,3.63,7.44,8.59,9.34,14.08,1.65,4.75,2.5,9.69,3.45,14.61.76,3.96,1.44,7.94,3.2,11.64,3.55,7.46,9.21,10.8,17.42,10.25,2.53-.17,4.93-.81,7.3-1.65,1.98-.7,3.99-1.21,6.12-1.13,3.96.16,6.71,2.19,8.13,6.06,1.39,3.79.58,7.27-2.5,9.81-4.47,3.67-9.39,4.81-14.72,1.95-4.66-2.5-9.23-5.18-13.89-7.67-4.81-2.57-6.32-1.63-6.24,3.73,0,.28.03.56.04.84.39,9.89.75,19.77,1.17,29.65.13,2.98.41,5.95.66,9.58,9.15-8.56,14.74-18.85,21.31-28.34.94.59.67,1.18.64,1.68-.48,8.38-3.18,16.06-7.36,23.27-2.81,4.85-6.26,9.21-10.01,13.35-3.21,3.55-4.78,7.62-4.89,12.51-.49,20.61-.62,41.24-2.19,61.81-.88,11.53-1.63,23.07-2.98,34.56-1.74,14.82-4.44,29.44-8.65,43.78-1.66,5.64-.19,7.18,5.35,5.84,20.09-4.85,38.96-12.48,55.63-24.94,11.42-8.53,21.94-18.07,31.44-28.71,27.91-31.26,42.57-67.83,43.8-109.74.38-12.98-.58-25.88-2.42-38.74-4.32-30.14-15.47-57.43-33.92-81.63-18.93-24.83-42.95-42.74-72.98-51.98-23.44-7.21-47.41-7.98-71.55-4.57-35.18,4.98-64.17,21.33-86.96,48.49-12.8,15.25-20.11,32.95-21.61,52.88-2.05,27.35,6.69,51.31,23.52,72.51,11.2,14.11,25.81,23.14,43.26,27.54,11.19,2.82,22.57,3.24,34.03,2.72,8.08-.36,10.52-3.04,10.33-11.26,0-.28,0-.56-.01-.84-.71-11.57,0-23.12.31-34.68.06-2.08.39-4.16.75-6.22.39-2.21,1.26-4.27,2.61-6.09.39-.53.77-1.24,1.64-.97.75.24,1.09.95,1.18,1.59.16,1.23.18,2.49.1,3.73-.79,13.38-.28,26.74.42,40.1.1,1.94.33,3.9.71,5.8.72,3.62,2.43,4.69,5.96,3.9.81-.18,1.6-.47,2.37-.79,7.74-3.18,15.16-6.98,22.38-11.21,4.23-2.48,6.42-6.07,6.78-10.84.37-4.86.87-9.71.97-14.6.21-10.74-.4-21.45-.83-32.17-.3-7.36-3.34-12.59-10.03-16.02-13.14-6.73-25.99-14-38.64-21.61-5.16-3.1-10.09-3.52-15.4-.77-5.31,2.75-10.66,5.45-16.04,8.07-.97.47-1.94,1.56-3.48.83,4.93-7.35,13.19-10.39,19.76-16.37ZM1022.88,319.32c-1.26.41-1.38,1.65-1.84,2.56-3.99,7.98-8.2,15.82-12.68,23.53-19.99,34.48-44.83,64.79-76.73,89-.55.42-1.1.85-1.64,1.3-.9.75-.56,1.53.17,2.06.78.56,1.69.96,2.59,1.31,6.35,2.51,12.86,4.51,19.53,6.03,17.02,3.89,34.26,3.91,51.56,3.11,1.52-.07,3.06-.3,4.55-.63,2.42-.55,3.28-1.73,3.16-4.15-.04-.83-.26-1.65-.43-2.47-2.86-14.05-5.65-28.11-7.35-42.37-1.42-11.93-1.48-23.91-1.54-35.89-.01-2.37.9-4.45,3.69-5.42,1.16,4.78,1.47,9.37,2.04,13.9.56,4.42.92,8.87,1.51,13.28.61,4.55,1.36,9.09,2.09,13.62.7,4.37,1.55,8.7,3.14,13.36,4.42-13.81,9.85-76.06,8.16-92.15ZM934.29,423.3c35.32-35.01,64.01-73.84,83.12-119.47-2.49.73-4.72,1.74-6.94,2.78-5.55,2.59-11.07,5.2-17.11,6.54-8.01,1.78-9.29,3.94-7.35,12.06,1.62,6.8.8,13.25-2.49,19.41-1.65,3.09-3.62,5.96-5.91,8.59-17.41,20.01-30.9,42.51-42.44,66.28-.46.95-1.28,1.83-.9,3.82ZM1001,167.61c-.02-4.51-.45-8.6-2.41-12.44-2.7-5.31-11.03-8.68-16.48-1.48-4.9,6.49-7.27,13.65-5.99,21.83.71,4.55,2.15,5.2,6.04,2.64.35-.23.7-.47.99-.76,1.51-1.49,3.15-1.4,4.96-.56,1.89.88,3.9,1.42,5.98,1.71,3.77.52,5.31-.51,6.33-4.23.64-2.31.43-4.69.58-6.71ZM975.3,189.87c14.74,7.85,29.14,15.51,43.72,23.27.6-2.71-.32-4.7-.7-6.71-1.25-6.7-2.53-13.42-5.61-19.6-2.02-4.05-3.8-4.5-6.97-1.38-3.64,3.59-7.44,3.89-11.76,1.61-3.39-1.79-6.97-1.82-10.56-.8-2.66.75-5.24,1.76-8.13,3.62Z"/>
      <path class="cls-2" d="M470.8,202.49c-7.24,0-14.49.01-21.73,0-5.9-.01-8.22,2.11-7.95,8.07.38,8.64-.09,17.27.19,25.91.06,1.81.11,3.61.53,5.39.97,4.13,3.38,6.94,7.41,8.33.79.27,1.59.52,2.35.86.98.44,1.46,1.25,1.45,2.33-.02,1.3-.82,2.08-1.93,2.44-.77.24-1.65.22-2.48.22-10.59.01-21.18,0-31.77,0-.42,0-.84,0-1.25-.03-1.68-.11-3.06-.72-3.27-2.57-.19-1.69,1.06-2.42,2.42-2.98,7.23-2.99,8.37-4.61,8.39-12.45.06-25.36.08-50.72.11-76.08,0-1.39-.04-2.79-.14-4.18-.31-4.74-2.43-8.17-7.05-9.86-1.75-.64-4.03-.97-3.76-3.69.18-1.82,1.69-2.67,4.97-2.68,10.45-.04,20.9-.02,31.35,0,.83,0,1.7.03,2.47.28,1.28.41,2.12,1.29,2.15,2.75.02,1.29-.69,2.08-1.76,2.59-.5.24-1.05.37-1.58.54-5.63,1.82-8.26,5.93-8.49,11.62-.19,4.73-.08,9.47-.11,14.21-.03,4.46-.09,8.92-.09,13.37,0,6.23,1.75,8.02,7.88,8.03,5.15,0,10.31-.13,15.46-.13,8.92,0,17.83.08,26.75.12.84,0,1.67.04,2.51,0,4.71-.25,6.74-2.1,6.61-6.75-.23-8.35.31-16.71-.34-25.06-.18-2.36-.34-4.71-.89-7.03-.98-4.12-3.39-6.96-7.4-8.34-1.86-.64-4.09-1.02-3.52-3.71.53-2.53,2.74-2.35,4.71-2.35,10.59-.02,21.18-.04,31.77-.05.69,0,1.41-.01,2.07.17,1.31.36,2.18,1.22,2.33,2.63.14,1.29-.58,2.13-1.63,2.67-.74.38-1.56.59-2.34.86-4.59,1.57-6.92,4.97-7.59,9.59-.3,2.06-.38,4.16-.41,6.25-.28,23.68-.24,47.37,0,71.05.01,1.39.12,2.78.19,4.17.28,5.72,2.62,9.88,8.54,11.38.66.17,1.34.46,1.89.86.83.6,1.29,1.46,1.06,2.54-.22,1.02-.8,1.86-1.81,2.1-.93.22-1.93.2-2.9.2-10.45.01-20.9.01-31.35,0-.83,0-1.69,0-2.49-.2-1.16-.3-1.92-1.08-2.05-2.35-.13-1.28.42-2.15,1.57-2.66.51-.22,1.03-.46,1.56-.56,4.89-.85,6.86-4.24,7.73-8.69,1.13-5.77,1.31-11.62,1.36-17.47.04-5.15-.34-10.29-.19-15.45.12-4.38-1.51-6-6.07-6.05-7.8-.09-15.6-.02-23.41-.02,0-.03,0-.06,0-.09Z"/>
      <path class="cls-2" d="M161.08,245.61c-3.19,2.1-6.16,4.15-9.22,6.06-8.62,5.36-17.98,8.01-28.17,7.73-18.44-.52-33.15-13.49-36.08-31.71-1.03-6.38-.77-12.79-.81-19.18-.08-14.91.02-29.82.03-44.73,0-2.5-.06-4.99-.55-7.48-.83-4.2-3.15-7.03-7.09-8.6-.64-.26-1.33-.42-1.97-.69-1.12-.48-1.86-1.35-1.76-2.58.1-1.18.84-2.01,1.97-2.48,1.07-.45,2.19-.37,3.29-.37,9.89.01,19.79.04,29.68.06.56,0,1.11,0,1.67,0,1.85,0,3.43.61,3.75,2.58.31,1.87-1.09,2.7-2.67,3.16-5.39,1.57-7.85,5.43-8.37,10.76-.17,1.8-.28,3.61-.28,5.42,0,18.95.03,37.9.06,56.86,0,4.64.65,9.18,2.45,13.48,3.18,7.58,8.63,12.54,16.87,14.05,11.42,2.08,21.89-.13,31.12-7.3,5.24-4.07,7.93-9.31,7.86-16.22-.2-20.34-.08-40.69-.06-61.04,0-2.1-.21-4.16-.49-6.24-.62-4.54-2.94-7.73-7.2-9.46-.52-.21-1.07-.35-1.56-.59-1.08-.54-1.73-1.39-1.66-2.66.08-1.46.99-2.28,2.29-2.64.79-.21,1.65-.22,2.48-.22,10.03-.01,20.06,0,30.1,0,.56,0,1.12-.03,1.67.04,1.63.21,2.98.79,3.18,2.7.18,1.73-.84,2.56-2.29,3.01-6.54,2.01-8.68,7.01-8.69,13.21-.06,25.5-.02,51.01-.03,76.51,0,1.83.32,3.61.73,5.37.81,3.5,2.86,5.98,6.14,7.43.89.39,1.81.71,2.69,1.12,1.17.54,1.55,1.53,1.4,2.76-.16,1.33-1.11,1.87-2.25,2.13-.67.15-1.38.13-2.08.14-6.13.02-12.26.1-18.39,0-4.36-.07-5.23-.97-6.05-5.25-.31-1.61-.32-3.33-1.71-5.12Z"/>
      <path class="cls-2" d="M688.25,224.5c0-1.1,0-2.19,0-3.29-.02-20.21-.05-40.42-.07-60.63,0-.84-.02-1.67-.05-2.51-.17-4.85-2.62-8.08-7.07-9.87-1.03-.41-2.12-.68-3.15-1.09-1.33-.54-1.85-1.57-1.7-3,.13-1.3.93-2.03,2.07-2.32.93-.24,1.93-.28,2.89-.29,7.8-.01,15.61,0,23.41.02.97,0,1.96,0,2.92.15,1.53.25,2.52,1.14,2.6,2.78.08,1.5-.82,2.3-2.11,2.73-.92.31-1.88.5-2.8.8-4.22,1.36-6.7,4.34-7.78,8.55-.7,2.71-.89,5.49-.89,8.29-.02,26.9-.05,53.8-.06,80.7,0,1.95.14,3.9.17,5.85.03,1.69-.69,3.01-2.27,3.66-1.65.68-3.3.59-4.7-.66-.72-.64-1.37-1.38-1.98-2.14-22.89-28.26-45.77-56.53-68.66-84.79-.88-1.08-1.82-2.11-2.78-3.12-1.21-1.28-2.01-.54-2.39.69-.28.9-.24,1.93-.24,2.89,0,21.74.02,43.48.05,65.23,0,2.78.02,5.54.66,8.31,1.05,4.55,3.83,7.28,8.2,8.57.4.12.82.16,1.23.26,3.01.73,4.32,1.81,3.9,3.4-.58,2.26-2.46,2.32-4.34,2.32-8.64-.01-17.28,0-25.92,0-.56,0-1.12.03-1.67-.07-1.32-.23-2.44-.85-2.64-2.28-.2-1.44.68-2.34,1.96-2.84.52-.2,1.06-.35,1.59-.48,5.66-1.37,8.38-5.19,8.79-10.77.28-3.89.44-7.79.45-11.69.04-20.07.04-40.14,0-60.21,0-2.36-.19-4.74-.57-7.07-.97-6-4.29-10.15-10.06-12.24-.92-.33-1.85-.6-2.78-.9-1.5-.48-2.35-1.43-2.22-3.09.15-1.9,1.4-2.6,3.08-2.77.83-.08,1.67-.07,2.51-.07,5.85,0,11.71.2,17.55-.06,4.65-.21,7.9,1.63,10.71,5.2,9.24,11.7,18.64,23.28,27.99,34.89,9.79,12.16,19.57,24.32,29.39,36.44,1.91,2.36,3.97,4.58,5.97,6.87.27-.11.55-.22.82-.33Z"/>
      <path class="cls-2" d="M299.7,225.07c.8-1.93.5-3.32.5-4.68,0-20.07-.03-40.13-.05-60.2,0-7.8-1.62-10.1-8.84-12.65-.52-.19-1.07-.3-1.58-.53-1.15-.51-1.65-1.42-1.56-2.67.08-1.26.78-2.03,1.91-2.48,1.2-.48,2.47-.36,3.71-.36,7.66-.01,15.33,0,22.99,0,.7,0,1.39,0,2.09.04,1.85.1,3.38.82,3.58,2.81.19,1.88-1.23,2.72-2.85,3-7.16,1.26-9.66,6.19-10.46,12.73-.54,4.44-.74,8.88-.74,13.34.02,23.55.04,47.1.08,70.65,0,2.23.18,4.45.21,6.68.03,1.97-.67,3.59-2.64,4.3-1.9.69-3.62.23-4.91-1.31-1.52-1.81-2.89-3.75-4.38-5.59-21.62-26.59-43.25-53.18-64.89-79.76-1.14-1.4-2.37-2.74-3.62-4.04-1.2-1.25-2-.54-2.38.74-.23.78-.15,1.65-.15,2.49,0,22.16.02,44.31.01,66.47,0,2.39.25,4.73.75,7.05,1,4.66,3.82,7.62,8.39,8.92.93.27,1.92.37,2.82.71,1.27.47,2.17,1.37,1.93,2.84-.22,1.39-1.2,2.16-2.57,2.35-.83.11-1.67.12-2.5.12-8.22-.01-16.44-.04-24.66-.06-.42,0-.84.01-1.25-.02-1.46-.11-2.84-.46-3.15-2.16-.35-1.91.89-2.78,2.46-3.32.52-.18,1.1-.21,1.63-.38,4.41-1.37,7.01-4.33,7.77-8.9.5-3.03.65-6.09.65-9.16,0-21.46-.01-42.92,0-64.38,0-2.38-.2-4.72-.56-7.07-.92-6.09-4.29-10.12-10.01-12.26-.91-.34-1.85-.63-2.73-1.04-1.1-.5-1.73-1.35-1.67-2.63.06-1.45.89-2.3,2.13-2.81,1.19-.49,2.47-.35,3.72-.35,5.85-.02,11.71.06,17.55-.08,3.33-.08,6,1.07,8.12,3.52,2.19,2.53,4.29,5.13,6.39,7.72,18.05,22.31,36.09,44.63,54.15,66.95,1.39,1.72,2.85,3.4,4.6,5.47Z"/>
      <path class="cls-2" d="M764.19,256.11c-11.42,0-22.85.02-34.27-.02-2.14,0-4.68.64-5.7-2.2-.6-1.68.37-2.65,4.28-4.07,4-1.45,6-4.32,6.43-8.42.13-1.24.15-2.5.15-3.76,0-25.64,0-51.27,0-76.91,0-1.25,0-2.52-.18-3.75-.59-4.33-2.72-7.53-6.92-9.16-.78-.3-1.58-.54-2.32-.92-.91-.46-1.55-1.17-1.54-2.29,0-1.28.69-2.05,1.8-2.55,1.72-.77,3.55-.64,5.35-.64,10.03-.02,20.06-.01,30.09-.01,12.26,0,24.52,0,36.78,0,1.25,0,2.51,0,3.76.11,1.63.14,3.15.88,3.61,2.44,1.45,4.99,2.3,10.06.45,15.16-.42,1.14-.87,2.53-2.44,2.49-1.5-.04-2.08-1.3-2.46-2.49-2.2-6.91-7.33-9.18-14.1-9.48-8.91-.39-17.82-.3-26.73-.44-5.55-.09-6.95,1.37-6.97,6.85-.04,10.59-.03,21.18,0,31.77.02,5.3,1.62,6.96,7,7.02,7.94.09,15.88.03,23.81.02,4.32,0,7.5-1.79,9.17-5.92.26-.64.53-1.29.86-1.9.66-1.25,1.7-1.8,3.11-1.52,1.4.28,2.16,1.19,2.32,2.59.1.83.15,1.66.17,2.5.18,5.99.24,11.97-.05,17.96-.02.42-.04.83-.05,1.25-.05,1.72-.77,3.03-2.51,3.39-1.87.39-2.89-.88-3.43-2.39-2.05-5.67-6.5-7.63-12.03-8.05-.28-.02-.56-.05-.83-.06-5.43-.02-10.86-.04-16.29-.06-.14,0-.28.01-.42.02-7.88.56-10.49,3.01-10.7,10.88-.24,9.05-.24,18.11-.11,27.16.08,5.59,1.38,7.12,6.85,7.33,9.72.36,19.47.97,29.19-.2,6.89-.83,11.92-4.32,14.96-10.6.42-.87.83-1.78,1.42-2.54.72-.93,1.75-1.39,2.96-.97,1.19.41,1.8,1.29,1.69,2.56-.09,1.11-.18,2.23-.44,3.3-.87,3.51-1.78,7.01-2.73,10.5-1.43,5.26-2.32,5.97-7.87,5.98-11.7.03-23.4.01-35.1.01Z"/>
      <path class="cls-2" d="M751.72,273.49c5.47.06,12.59-.54,19.66.13,10.88,1.04,19.37,5.9,23.97,16.21,4.31,9.67,2.17,23.48-9.64,30.1-6.97,3.91-4.95,4.19-1.3,8.13,3.8,4.1,6.84,8.78,9.79,13.51,3.31,5.32,6.54,10.69,10.25,15.74,2.6,3.53,5.61,6.56,9.71,8.33.51.22,1.04.44,1.47.78,1.79,1.39,1.54,3.26-.52,4.23-6.1,2.88-15.79,1.43-20.87-3.12-2.2-1.97-3.99-4.28-5.57-6.74-3.54-5.5-6.96-11.08-10.54-16.56-2.81-4.32-5.77-8.55-9.51-12.15-3.82-3.67-8.34-5.47-13.67-4.94-3.26.32-4.88,1.83-4.91,5.07-.08,8.36-.08,16.72.08,25.07.08,3.95,2.12,6.83,5.84,8.4.77.32,1.6.55,2.29,1.01,1.61,1.07,1.43,3.27-.36,3.94-1.01.38-2.18.47-3.28.47-8.22.04-16.44.02-24.65.02-.42,0-.84,0-1.25-.05-1.55-.18-3.22-.37-3.52-2.29-.28-1.83,1.28-2.31,2.58-2.75,5.21-1.77,6.74-5.79,6.74-10.8,0-8.5,0-16.99,0-25.49,0-13.09,0-26.19,0-39.28,0-1.67-.06-3.34-.23-5-.36-3.53-2.18-5.89-5.63-7-1.51-.49-3.72-.65-3.38-2.93.37-2.49,2.63-2.02,4.38-2.03,6.82-.03,13.65-.01,22.1-.01ZM750.04,299.91c0,5.28-.08,10.57.03,15.85.07,3.36,1.24,4.53,4.52,4.7,2.77.14,5.57.19,8.33-.03,10.18-.78,18.36-8.77,18.96-18.37.73-11.61-5.72-20.37-16.57-22.63-3.02-.63-6.06-.81-9.12-.8-4.7.02-6.02,1.19-6.13,5.84-.13,5.14-.03,10.29-.03,15.43Z"/>
      <path class="cls-2" d="M690.68,361.5c-1.72,1.28-3.46,2.6-5.22,3.9-10.44,7.75-22.1,9.5-34.51,6.6-12.84-3-21.13-12.56-23.06-26.1-1.42-9.98-.66-20.03-.8-30.05-.13-9.05-.06-18.11-.03-27.17.01-5.24-1.63-9.31-7.24-10.74-1.38-.35-2.26-1.2-2.1-2.66.18-1.72,1.62-1.69,2.87-1.69,9.47-.02,18.95,0,28.42,0,1.31,0,2.65.12,2.9,1.72.24,1.48-.69,2.38-2.04,2.7-6.11,1.46-7.54,6.07-7.56,11.45-.06,17.14-.06,34.27.03,51.41.01,2.63.34,5.31.95,7.86,2.16,9.09,9.79,15.33,19.63,16.02,8.57.6,16.21-1.98,22.93-7.29,4.19-3.32,6.24-7.61,6.22-13.05-.09-18.25-.02-36.5-.05-54.75,0-1.52-.23-3.05-.44-4.57-.45-3.16-2.14-5.36-5.14-6.54-.9-.35-1.88-.66-2.6-1.25-1.36-1.12-.9-3.11.8-3.58.92-.25,1.93-.2,2.9-.2,8.22-.01,16.44,0,24.66,0,.28,0,.56-.01.84,0,1.48.1,3.29-.3,3.66,1.83.36,2.05-1.31,2.57-2.74,3.09-4.78,1.72-6.45,5.47-6.53,10.13-.1,5.71-.03,11.42-.03,17.14,0,15.88,0,31.77,0,47.65,0,1.81-.02,3.61.4,5.4.76,3.2,2.49,5.55,5.57,6.83.77.32,1.55.62,2.31.97.87.4,1.14,1.19,1.1,2.07-.05,1.08-.63,1.83-1.69,2.11-.53.14-1.1.19-1.65.22-5.43.27-10.86.39-16.28-.04-3.49-.28-4.24-1.06-4.91-4.49-.27-1.37-.53-2.73-.84-4.09-.05-.22-.32-.39-.7-.83Z"/>
      <path class="cls-2" d="M508.88,325.76c.05-31.21,18.96-52.04,45.85-54.76,17.39-1.76,32.78,2.73,44.74,15.74,14.11,15.34,17.1,33.6,10.4,52.92-6.6,19.03-20.8,29.87-40.65,32.83-17.76,2.65-33.47-2-46.22-14.94-9.77-9.92-14.08-22.16-14.12-31.79ZM525.66,321.91c.02,4.32.26,8.63,1.12,12.88,1.69,8.31,4.69,16,10.53,22.38,12.14,13.25,31.67,14.13,44.87,1.94,5.44-5.02,9.18-11.12,11.5-18.14,2.95-8.94,2.82-18.09,2.02-27.29-.65-7.45-2.68-14.49-6.54-20.94-7.34-12.28-20.72-18.5-34.53-15.65-11.83,2.44-19.69,9.92-24.43,20.79-3.33,7.64-4.61,15.73-4.55,24.04Z"/>
      <path class="cls-2" d="M61.77,154.86c0,2.79.02,5.57-.01,8.36-.01.97-.04,1.97-.31,2.89-.34,1.16-1.33,1.78-2.5,1.94-1.25.16-2.15-.5-2.67-1.59-.3-.62-.42-1.32-.63-1.98-.75-2.4-1.75-4.69-2.96-6.89-7.34-13.36-20.49-13.57-29.47-10.12-8.07,3.1-11.76,12.45-8.39,20.45,1.44,3.41,3.76,6.16,6.38,8.7,4.23,4.1,9.1,7.33,14.14,10.33,7.19,4.28,14.26,8.72,20.59,14.25,5.03,4.4,8.89,9.6,10.84,16.06,5.6,18.57-7.11,38.31-26.54,41.37-6.19.97-12.2.62-18.09-1.59-1.82-.68-3.69-1.24-5.55-1.81-3.87-1.17-7.63-1.11-11.39.63-2.64,1.22-3.87.49-4.41-2.26-.16-.81-.12-1.66-.15-2.5-.26-6.53.61-13.09-.57-19.6-.2-1.12.07-2.21.55-3.25.61-1.33,1.8-1.72,3.08-1.76,1.36-.04,2.41.6,2.89,1.96.52,1.46.79,2.96.81,4.51.03,2.91,1.18,5.39,2.84,7.71,6.82,9.55,19.28,13.85,29.95,10.31,12.02-3.99,16.53-16.64,9.73-27.35-2.19-3.45-5.15-6.21-8.33-8.73-4.6-3.64-9.63-6.64-14.54-9.82-3.74-2.42-7.54-4.77-11.12-7.41-7.05-5.18-12.21-11.82-14.32-20.46-4.83-19.8,8.41-37.21,28.9-38.13,5.34-.24,10.56.52,15.65,2.1,3.8,1.17,7.52,1.77,11.42.14,2.34-.97,3.79.13,4,3.09.25,3.47.06,6.96.06,10.44.05,0,.1,0,.15,0Z"/>
      <path class="cls-2" d="M394.54,155.2c0,2.93.05,5.85-.02,8.78-.06,2.57-.96,3.92-2.7,4.06-2.16.17-2.77-1.35-3.25-3.08-1.01-3.65-2.62-7.04-4.83-10.13-6.54-9.13-19.76-12.04-29.55-6.54-7.12,4-9.85,13.23-6.09,20.7,1.52,3.02,3.72,5.54,6.15,7.86,4.26,4.07,9.14,7.28,14.18,10.28,6.47,3.84,12.81,7.87,18.65,12.65,5.73,4.69,10.27,10.21,12.48,17.39,5.67,18.48-7.09,38.39-26.45,41.45-6.33,1-12.47.55-18.5-1.67-2.35-.86-4.74-1.65-7.18-2.2-3.2-.73-6.32-.3-9.36,1.08-2.8,1.27-4.17.46-4.5-2.56-.21-1.93-.05-3.9-.11-5.85-.16-5.14.49-10.31-.54-15.43-.22-1.09-.09-2.21.3-3.29.56-1.53,1.73-2.17,3.21-2.22,1.56-.06,2.6.73,3.06,2.3.43,1.48.69,2.98.74,4.52.06,1.84.55,3.56,1.42,5.19,5.86,10.95,20.45,16.52,32.05,12.23,11.2-4.14,15.47-15.97,9.48-26.31-2.28-3.93-5.53-6.97-9.07-9.72-5.4-4.2-11.29-7.65-17.04-11.34-3.87-2.48-7.79-4.9-11.22-7.98-7.82-7.04-12.51-15.56-12.33-26.36.28-16.9,12.43-29.13,29.72-29.92,5.06-.23,10.04.4,14.86,1.83,4.22,1.25,8.28,2.21,12.61.28,1.88-.84,3.26.24,3.61,2.74.33,2.33.24,4.72.3,7.09.04,1.39,0,2.79,0,4.18h-.07Z"/>
      <path class="cls-1" d="M1234.82,148.18c1.35.1,2.61-.26,3.3.9.78,1.32,0,2.47-.79,3.42-1.6,1.93-3.26,3.82-5.04,5.58-15.33,15.22-30.69,30.41-46.03,45.61-1.29,1.27-2.51,2.63-4.09,3.55-2.53,1.48-4.04,1.12-5.55-1.43-.63-1.07-1.08-2.26-1.51-3.43-4.42-12.08-10.17-23.51-16.89-34.46-3.67-5.99-2.9-7.96,4.15-9.16,10.15-1.72,20.36-3.13,30.55-4.62,12.81-1.88,25.62-3.7,38.44-5.54,1.24-.18,2.49-.3,3.47-.42Z"/>
      <path class="cls-1" d="M1184.67,78.2c1.9-.06,2.65.96,2.26,2.85-.49,2.33-1.58,4.45-2.67,6.55-6.42,12.34-12.84,24.68-19.26,37.02-3.85,7.41-7.66,14.83-11.51,22.23-.64,1.23-1.28,2.48-2.08,3.61-2.18,3.06-4.08,3.18-6.8.47-.79-.78-1.47-1.67-2.15-2.55-7.78-9.87-16.51-18.83-26.04-27-5.81-4.98-5.61-7.19,1.4-10.7,13.44-6.71,26.93-13.32,40.41-19.95,7.49-3.68,15-7.32,22.51-10.95,1.37-.66,2.83-1.15,3.95-1.6Z"/>
      <path class="cls-2" d="M466.97,320.99c0,9.75-.01,19.51,0,29.26,0,2.09.12,4.18.19,6.26.17,4.6,2.01,8.04,6.59,9.63,1.35.47,2.77.99,2.39,2.83-.35,1.72-1.79,1.97-3.24,1.98-9.05.06-18.11.12-27.16.14-.68,0-1.42-.14-2.03-.41-1.81-.81-1.99-2.87-.38-3.97.22-.15.5-.25.76-.32,6.6-1.83,8.23-6.84,8.25-12.88.06-22.57.13-45.14.16-67.71,0-4.77-.55-5.3-5.21-5.49-4.44-.19-8.86-.67-13.34-.1-6.16.78-10.93,3.15-12.79,9.57-.15.53-.43,1.03-.69,1.52-.44.84-1.26,1.17-2.1,1.11-1.04-.07-1.92-.65-2.03-1.77-.52-5.54-1.15-11.11-.6-16.64.33-3.4,3.42-5.15,6.54-3.53,4.99,2.6,10.19,2.32,15.46,2.4,11.83.18,23.65,1.18,35.5.73,7.94-.3,15.83-1.07,23.58-2.96.27-.07.54-.14.81-.2,4.72-.95,5.91-.14,6.07,4.55.15,4.31.06,8.64.03,12.96,0,.83-.14,1.67-.33,2.48-.21.88-.82,1.44-1.76,1.51-.77.06-1.31-.38-1.7-1-.23-.35-.46-.71-.61-1.09-3.1-7.48-9.13-10.1-16.72-10-3.9.05-7.79.27-11.68.5-2.68.15-3.43.85-3.8,3.48-.17,1.23-.15,2.5-.15,3.75-.01,11.15,0,22.29,0,33.44Z"/>
      <path class="cls-1" d="M1184.51,473.65c-1.61-.1-3.39-.95-5.12-1.81-9.36-4.63-18.69-9.3-28.03-13.97-11.21-5.6-22.41-11.2-33.62-16.79-7.2-3.59-7.46-5.65-1.17-10.84,9.7-8,18.51-16.87,26.57-26.52,4.71-5.64,7.15-5.41,10.55,1.17,9.14,17.68,18.17,35.42,27.21,53.15,2.09,4.09,4.16,8.19,6.02,12.39,1.01,2.3.23,3.27-2.41,3.21Z"/>
      <path class="cls-1" d="M1116.21,522.24c-.02,1.34.17,2.58-.93,3.27-1.3.82-2.42-.05-3.38-.8-1.53-1.19-3.03-2.45-4.4-3.83-16.04-16.22-32.07-32.46-48.07-48.73-4.75-4.83-4.26-7.16,2.03-9.51,12.29-4.58,24.01-10.3,35.17-17.19.47-.29.94-.6,1.43-.86,4.07-2.22,6.25-1.43,7.22,3.21,1.14,5.43,1.81,10.97,2.61,16.47,2.4,16.36,4.78,32.73,7.15,49.1.44,3.03.8,6.06,1.16,8.86Z"/>
      <path class="cls-1" d="M929.87,474.32c.01-4.46,1.43-5.8,5.16-5.1,5.6,1.05,11.05,2.76,16.66,3.8,8.22,1.51,16.47,2.65,24.81,3.13.69.04,1.4.04,2.08.17,3.44.64,4.44,2.23,3.43,5.64-.39,1.32-.96,2.61-1.59,3.85-10.48,20.42-20.97,40.82-31.49,61.22-.76,1.47-1.61,2.95-2.66,4.22-1.2,1.44-2.35,1.26-3.29-.38-.84-1.46-1.22-3.09-1.49-4.75-2.19-13.44-4.38-26.89-6.57-40.33-1.56-9.6-3.11-19.21-4.65-28.82-.18-1.1-.31-2.2-.37-2.63Z"/>
      <path class="cls-1" d="M930.07,77.2c1.07-7.19,2.12-14.49,3.24-21.79,2.43-15.82,4.9-31.64,7.36-47.47.28-1.79.59-3.57.97-5.34.24-1.1.61-2.25,1.92-2.47,1.08-.18,1.87.53,2.44,1.34.97,1.36,1.96,2.72,2.74,4.19,10.89,20.71,21.75,41.44,32.62,62.17.26.49.5,1,.69,1.52,1.5,3.95.52,5.82-3.61,6.51-3.71.62-7.49.51-11.24.9-10.14,1.06-20.09,3.03-29.96,5.5-.27.07-.53.17-.8.23-4.73,1.12-6.63-.43-6.38-5.31Z"/>
      <path class="cls-1" d="M1116.39,30.75c-.97,6.04-1.91,12.09-2.92,18.13-2.95,17.71-5.92,35.41-8.9,53.12-.18,1.1-.37,2.2-.68,3.26-1.18,4.01-3.13,4.8-6.86,2.75-1.22-.67-2.35-1.5-3.51-2.26-9.8-6.45-20.15-11.87-30.95-16.44-1.15-.49-2.33-.93-3.46-1.47-3.71-1.8-4.33-4.03-1.62-7.24,2.42-2.86,5.19-5.43,7.89-8.05,14.79-14.36,29.61-28.7,44.43-43.05.8-.77,1.61-1.56,2.51-2.21,2.28-1.63,3.56-1.03,3.88,1.76.06.55,0,1.11,0,1.67.06,0,.12.02.18.03Z"/>
      <path class="cls-1" d="M1186.81,333.85c-4.53.05-6.04-1.71-5.02-5.84,1.4-5.67,2.9-11.31,3.95-17.06,1.43-7.81,2.28-15.68,2.94-23.58.54-6.48,2.5-7.59,8.36-4.64,16.02,8.07,31.97,16.3,47.93,24.48,4.83,2.47,9.62,5,14.43,7.52.99.52,1.96,1.05,2.92,1.62,1.07.64,2.43,1.25,2.31,2.69-.14,1.66-1.68,2.02-3.02,2.42-5.35,1.59-10.91,2.13-16.39,3.04-18.65,3.08-37.32,6.03-55.98,9.02-.96.15-1.93.25-2.43.32Z"/>
      <path class="cls-1" d="M1232.66,405.57c-4.38-.68-9.74-1.47-15.09-2.33-18.8-3.01-37.59-6.04-56.39-9.06-.41-.07-.83-.09-1.24-.18-4.78-1.03-5.81-3.23-3.4-7.41,1.04-1.8,2.26-3.51,3.37-5.27,6.19-9.78,11.33-20.1,15.69-30.82,2.42-5.95,4.73-6.6,9.35-2.12,7.28,7.08,14.33,14.39,21.46,21.63,9.08,9.22,18.15,18.45,27.21,27.69,1.17,1.19,2.33,2.4,3.35,3.72,1.89,2.45,1.33,3.77-1.66,4.14-.55.07-1.11,0-2.66,0Z"/>
      <path class="cls-1" d="M1045.97,78.16c0,4.01-1.47,5.45-5.19,4.78-3.55-.64-7.02-1.72-10.53-2.59-10.29-2.57-20.77-3.94-31.32-4.85-.69-.06-1.4-.05-2.08-.19-2.91-.6-3.92-2.22-3.1-5.19.36-1.33.91-2.64,1.55-3.87,10.49-19.97,21.01-39.93,31.54-59.88.84-1.6,1.77-3.16,2.71-4.71.6-.98,1.38-1.86,2.67-1.63,1.09.19,1.58,1.18,1.82,2.11.65,2.56,1.33,5.13,1.73,7.73,3.38,22.15,6.7,44.31,10.04,66.47.1.69.13,1.39.17,1.82Z"/>
      <path class="cls-1" d="M1046.01,475.46c-.83,5.56-1.72,11.75-2.69,17.92-2.7,17.16-5.44,34.31-8.18,51.47-.22,1.37-.52,2.73-.79,4.09-.25,1.24-.47,2.67-1.85,3.01-1.65.42-2.49-1.02-3.23-2.15-1.29-1.98-2.48-4.02-3.57-6.12-9.75-18.75-19.47-37.52-29.18-56.29-.89-1.73-1.87-3.43-2.55-5.24-1.38-3.66-.21-5.54,3.73-6.01,2.76-.33,5.54-.48,8.31-.67,11-.73,21.76-2.86,32.43-5.49.4-.1.79-.27,1.2-.36,4.84-1.06,6.5.3,6.38,5.83Z"/>
      <path class="cls-2" d="M561.31,256.04c-4.88,0-9.75.01-14.63,0-.97,0-1.96.01-2.92-.16-1.34-.24-2.34-1.03-2.43-2.47-.08-1.22.63-2.09,1.73-2.61.38-.17.76-.36,1.16-.46,5.23-1.24,7.56-4.84,7.99-9.93.15-1.8.26-3.61.27-5.42.02-23.97.02-47.93,0-71.9,0-1.81-.15-3.61-.32-5.41-.46-5.06-2.92-8.62-7.89-10.2-1.69-.54-3.27-1.26-2.88-3.39.37-2.01,2.03-2.51,3.82-2.51,10.73-.02,21.46,0,32.18,0,.42,0,.84.01,1.24.11,1.28.3,2.37.84,2.6,2.33.27,1.65-.46,2.75-1.98,3.2-7.19,2.15-8.97,7.68-8.97,14.3-.01,24.94,0,49.89-.02,74.83,0,2.11.28,4.17.78,6.2.81,3.31,2.76,5.73,5.88,7.16,1.01.46,2.07.82,3.06,1.32,1.16.58,1.42,1.64,1.24,2.84-.17,1.13-1.02,1.7-1.98,1.91-1.08.23-2.21.25-3.32.25-4.88.02-9.75.01-14.63.01Z"/>
      <path class="cls-1" d="M1188.02,217.75c3.22.51,7.07,1.08,10.9,1.73,19.45,3.3,38.9,6.61,58.34,9.94,2.05.35,4.12.73,6.08,1.4,2.14.73,2.4,2.21.72,3.74-1.97,1.8-4.38,2.93-6.74,4.11-17.63,8.88-35.26,17.77-52.89,26.65-2.61,1.31-5.2,2.66-7.82,3.95-1.12.55-2.26,1.06-3.55,1.13-2.31.14-3.44-.52-3.92-2.79-.4-1.89-.55-3.86-.63-5.8-.49-12.41-2.49-24.6-5.4-36.65-.13-.54-.33-1.07-.44-1.61-.81-4.06.59-5.77,5.34-5.81Z"/>
      <path class="cls-2" d="M218.23,424.14c-1.91,7.09-3.69,13.8-5.52,20.5-1.46,5.38-1.88,5.67-7.49,5.58-.95-.02-1.96.22-3-.59,2.33-8.76,4.68-17.61,7.04-26.46,1.04-3.89,2.22-7.76,3.09-11.69.53-2.37,1.66-3.09,4.05-2.99,6.55.27,4.89-.78,7.57,4.93,3.13,6.65,6.15,13.34,9.39,20.38,1.02-.9,1.21-1.77,1.44-2.62,1.75-6.58,3.48-13.17,5.27-19.74.79-2.9,2.34-3.62,5.7-2.79,2.42.6,3.59,2.43,2.89,5.08-3.05,11.56-6.2,23.08-9.28,34.63-.33,1.25-.87,1.99-2.25,1.86-.41-.04-.85-.07-1.25,0-3.75.71-5.68-.86-7.09-4.43-2.39-6.07-5.37-11.91-8.15-17.82-.58-1.23-.85-2.66-2.41-3.85Z"/>
      <path class="cls-2" d="M36.15,420.91c-3.31-3.15-7.24-4.81-12.01-4.42-8.85.72-15.8,9.59-14.17,18.29.58,3.1,2.39,5.32,5.22,6.61,1.65.75,3.41,1.14,5.27,1.14,6.35,0,7.85-1.37,8.56-7.96-1.19-.56-2.47-.17-3.7-.34-2.53-.34-3.79-1.76-3.71-4.15.11-2.96,1.04-3.93,3.95-3.96,2.79-.03,5.58-.14,8.36.04,4.16.26,5.97,2.79,4.92,6.84-1.05,4.04-2.31,8.02-3.4,12.05-.39,1.45-1.13,2.4-2.53,3.05-5.32,2.45-10.88,3.54-16.68,2.67-12.53-1.88-18.96-12.35-15.11-24.7,4.9-15.71,21.84-21.8,35.43-16.13.64.27,1.26.59,1.86.95,4.15,2.48,4.4,4.52.88,7.71-.92.83-1.71,1.85-3.14,2.32Z"/>
      <path class="cls-2" d="M72.85,436.39c1.23,2.52,2.32,4.77,3.42,7.01,1.03,2.09,2.08,4.17,3.4,6.82-3.51,0-6.38-.01-9.26,0-1.18,0-1.66-.72-2.11-1.67-1.6-3.4-3.38-6.72-4.88-10.16-1.72-3.96,1.11-9.12,5.42-9.89,1.82-.32,3.54-.71,5.04-1.82,2-1.49,2.66-3.54,2.16-5.92-.46-2.22-2.16-3.07-4.22-3.48-2.91-.58-5.83-.22-8.75-.29-1.95-.05-2.03,1.51-2.39,2.84-2.4,8.86-4.81,17.72-7.21,26.59-1.1,4.05-1.12,4.08-4.94,3.8-3.3-.24-4.72-2.05-3.91-5.32,1.14-4.59,2.45-9.14,3.67-13.71,1.76-6.59,3.53-13.17,5.23-19.77.51-1.99,1.36-3.05,3.67-2.91,5.56.31,11.15-.37,16.69.42,6.79.96,10.73,4.12,11.88,9.42,1.32,6.06-1.29,11.78-6.88,15.33-1.79,1.14-3.86,1.56-6.04,2.72Z"/>
      <path class="cls-2" d="M102.75,425.17c4.48,0,8.78-.06,13.08.02,4.12.07,5.37,2,4.18,6.01-.46,1.56-1.22,2.23-2.93,2.2-4.74-.11-9.48.05-14.21-.07-1.98-.05-3.2.43-3.49,2.55-.26,1.9-1.33,3.65-1.09,6.01h21.23c.04.74.14,1.15.07,1.54q-1.2,6.81-8.04,6.81c-5.99,0-11.98.04-17.98-.01-4.92-.04-6.61-2.17-5.37-6.86,2.81-10.63,5.75-21.22,8.49-31.87.54-2.09,1.28-3.03,3.59-2.99,7.38.13,14.77,0,22.16.07,4.39.04,5.68,1.98,4.65,6.14-.43,1.74-1.26,2.18-2.9,2.16-5.43-.07-10.87-.04-16.3-.02-3.34.01-3.35.04-4.23,3.19-.34,1.21-.63,2.42-.91,3.64-.06.26,0,.55,0,1.49Z"/>
      <path class="cls-2" d="M263.6,425.17c4.69,0,8.85-.04,13.02.01,4.54.06,5.64,1.74,4.43,6.07-.48,1.73-1.34,2.15-2.94,2.13-4.73-.06-9.47.04-14.2-.05-1.91-.04-3.15.33-3.46,2.53-.27,1.89-.95,3.73-1.55,5.98h21.74c.25,2.73-.92,4.84-1.4,7.08-.28,1.31-1.25,1.3-2.24,1.3-7.8,0-15.59.09-23.39-.04-4.02-.07-5.51-2.57-4.34-7.05,1.97-7.53,4.05-15.04,6.08-22.55.87-3.22,1.85-6.42,2.58-9.67.41-1.87,1.31-2.42,3.17-2.4,7.66.09,15.31-.05,22.97.07,4.16.07,5.9,3.89,3.65,7.44-.7,1.11-1.68.8-2.58.81-5.01.04-10.02.03-15.04.01-5.65-.02-4.26-.01-5.71,4.54-.33,1.04-.45,2.14-.79,3.79Z"/>
      <path class="cls-2" d="M166.24,450.22c-2.47,0-4.54-.05-6.6.01-2.05.07-3.11-.87-3.33-2.88-.22-2.06.11-4.69-1.35-5.91-1.64-1.37-4.29-.39-6.49-.47-2.64-.09-5.3.11-7.94-.06-1.95-.13-3.18.6-4.03,2.24-.06.12-.14.24-.22.35-1.53,2.16-2.61,5.14-4.69,6.26-2.57,1.37-5.98.43-9.04.37-.32-1.55.86-2.35,1.52-3.31,7.83-11.35,15.85-22.57,23.46-34.07,2.28-3.45,4.68-4.97,8.77-4.52,3.35.37,3.44.1,3.95,3.34,1.99,12.65,3.94,25.3,6.01,38.64ZM152.59,419.99c-3.81,4.34-7.21,9.75-7.98,12.51h9.65c-.55-4.11-1.07-8-1.67-12.51Z"/>
      <path class="cls-2" d="M312.44,408.06c4.14-.06,8.56,1.29,12.42,4.42,1.3,1.06,1.72,1.86.32,3.33-3.25,3.39-4.75,3.78-9.12,1.73-2.59-1.22-5.25-1.83-8.09-1.01-1.88.54-3.35,1.59-3.53,3.64-.17,1.8,1.22,2.73,2.63,3.41,2.5,1.21,5.07,2.28,7.57,3.51,4,1.96,6.91,4.87,7.01,9.58.11,4.98-2.15,8.86-6.36,11.52-7.39,4.67-20.27,3.24-26.52-2.91-1.97-1.94-1.9-1.96.04-3.83,2.56-2.46,5.5-3.43,8.97-.94,2.58,1.85,5.6,2.38,8.75,2.14,1.43-.11,2.74-.54,3.83-1.48,1.77-1.52,1.82-3.47.13-5.05-1.13-1.06-2.57-1.64-3.97-2.28-2.02-.92-4.12-1.73-6.04-2.84-7.34-4.24-8.22-12.78-1.94-18.58,3.7-3.42,8.24-4.47,13.9-4.36Z"/>
      <path class="cls-2" d="M326.88,443.18c.54-1.19,1.69-1.79,2.62-2.59,2.29-1.98,4.75-2.15,7.27-.47,2.76,1.84,5.74,2.76,9.07,2.54,1.29-.08,2.49-.37,3.56-1.06,2.4-1.55,2.57-4.11.27-5.82-1.21-.9-2.65-1.51-4.03-2.18-1.87-.91-3.83-1.67-5.67-2.65-7.89-4.21-6.67-12.81-3.12-17.14.98-1.19,2.12-2.2,3.43-3.03,6.82-4.34,18.25-3.46,24.34,1.79,1.34,1.15,1.54,1.91.2,3.29-2.86,2.95-5.23,4.07-9.19,1.72-2.45-1.45-5.22-1.88-8.06-1.06-1.72.5-3.06,1.44-3.39,3.29-.36,2.04,1.03,3.05,2.6,3.8,2.38,1.14,4.8,2.21,7.2,3.31,10.96,5.04,7.96,16.5,1.54,20.87-8.3,5.64-22.77,3.4-28.65-4.62Z"/>
      <path class="cls-2" d="M206.73,408.58c-.09.94-.1,1.48-.21,2-1.29,6.13-1.81,6.5-7.96,6.57-7.84.09-5.98-1.12-8.06,6.31-2.25,8.02-4.36,16.09-6.56,24.13-.68,2.49-3.39,3.49-6.66,2.53-1.93-.57-2.66-2.05-1.98-4.71,2.08-8.07,4.26-16.12,6.41-24.17.32-1.2.84-2.36.48-3.79-3.74-.83-7.66.15-11.64-.61.07-2.1.74-3.91,1.33-5.72.54-1.66,1.83-2.52,3.47-2.53,10.39-.05,20.79-.03,31.37-.03Z"/>
      <path class="cls-2" d="M380.47,449.52c1.93-7.05,3.71-13.57,5.49-20.09,1.72-6.3,3.51-12.58,5.11-18.91.45-1.8,1.16-2.56,3.07-2.51,4.87.12,9.74.02,14.61.1,1.38.02,2.8.2,4.11.6,3.5,1.07,6.3,2.97,7.03,6.9.76,4.08-.61,7.37-3.72,10.02-1.49,1.27-3.37,1.88-4.96,2.77,0,1.09.76,1.27,1.32,1.56,5.81,2.98,5.77,10.26,1.68,14.59-2.6,2.76-5.97,4.25-9.6,4.6-7.87.77-15.76.19-24.13.38ZM384.61,446.49c6.2,0,12.01.15,17.81-.06,2.91-.11,5.78-.93,8.16-2.83,2.35-1.87,3.53-4.32,3.04-7.33-.45-2.76-2.39-4.33-4.89-5.21-1.3-.46-2.7-.83-4.06-.87-4.59-.13-9.18-.07-13.77-.12-1.29-.02-1.99.39-2.33,1.75-1.23,4.82-2.58,9.61-3.96,14.67ZM398.48,427.09c3.89-.05,7.8.22,11.56-1.18,2.71-1.01,5.01-2.54,6.12-5.3,1.84-4.55-.47-8.37-5.86-9.33-4.82-.86-9.72-.23-14.59-.34-.94-.02-1.57.41-1.83,1.36-1.15,4.3-2.33,8.59-3.47,12.89-.41,1.56.47,1.93,1.81,1.92,2.09-.03,4.18,0,6.26,0Z"/>
      <path class="cls-2" d="M503.04,430.92c-3.98,0-7.7.01-11.43-.01-.76,0-1.8.26-1.77-1.06.02-1.11.51-1.88,1.75-1.89,5.12,0,10.25,0,15.9,0-1.72,5.9-3.32,11.32-4.86,16.76-.3,1.05-.99,1.61-1.86,2.1-5.95,3.39-12.3,4.47-18.93,2.78-8.76-2.23-13.62-9.71-12.66-19,1.5-14.49,15.06-25.13,29.5-23.08,4.27.61,7.96,2.44,10.63,5.99.53.71,1.05,1.43.15,2.14-.76.6-1.56,1.13-2.47.02-5.08-6.15-11.71-6.6-18.62-4.43-7.88,2.47-12.72,8.18-15.08,16.04-.24.8-.37,1.63-.52,2.45-1.74,10,4.69,17.66,14.84,17.74,2.11.02,4.17-.39,6.19-.86,3.72-.87,6.59-2.55,7.15-6.94.36-2.82,1.83-5.46,2.09-8.75Z"/>
      <path class="cls-2" d="M767.73,448.86c2.26-8.36,4.52-16.79,6.81-25.21,1.2-4.43,2.57-8.82,3.63-13.29.45-1.91,1.36-2.38,3.18-2.37,8.22.08,16.45.01,24.67.07.89,0,2.53-.74,2.4,1.24-.09,1.45-1.2,1.63-2.43,1.62-6.27-.03-12.54-.04-18.81,0-7.06.04-5.31-.66-7.13,5.39-.8,2.66-1.57,5.34-2.25,8.04-.6,2.4-.4,2.68,2.06,2.71,5.57.06,11.15.02,16.72.02.84,0,1.67,0,2.51.01.73.02,1.49.18,1.38,1.1-.09.78-.22,1.74-1.33,1.82-.83.06-1.67.05-2.51.05-5.71,0-11.43-.02-17.14,0-3.26.01-3.27.04-4.16,3.25-.89,3.22-1.78,6.44-2.61,9.68-.91,3.56-.88,3.6,3.01,3.61,6.27.02,12.54,0,18.81,0,.84,0,1.67,0,2.51.01.57,0,1.22.11,1.23.77.01.51-.24,1.1-.55,1.54-.45.65-1.23.51-1.91.5-9.06-.02-18.11-.04-27.17-.08-.22,0-.45-.25-.91-.52Z"/>
      <path class="cls-2" d="M723.31,449.05c3.56-13.01,7.12-25.87,10.58-38.76.44-1.63,1.09-2.32,2.81-2.28,5.01.11,10.03.07,15.05.11.83,0,1.68.08,2.49.25,4.15.87,7.83,2.58,9.05,7.03,1.28,4.68-.02,8.82-3.64,12.14-1.67,1.53-3.63,2.6-5.78,3.25-1.73.53-3.5.91-5.82,1.51,2.51,5.7,5.79,10.96,8.5,16.52-3.36.81-3.39.83-4.79-1.8-2.16-4.06-4.34-8.1-6.37-12.22-.84-1.71-1.87-2.52-3.86-2.38-2.5.18-5.03.19-7.52,0-2.3-.18-3.11.85-3.59,2.93-.94,4.07-2.19,8.06-3.22,12.1-.5,1.95-1.59,2.44-3.87,1.6ZM732.79,429.38c5.37.11,10.89.34,16.4-.29,2.92-.34,5.66-1.41,7.93-3.37,2.75-2.38,3.82-5.42,3.01-8.97-.75-3.28-3.29-4.61-6.29-5.28-1.08-.24-2.18-.48-3.27-.5-3.74-.07-7.49.02-11.23-.07-1.65-.04-2.45.51-2.87,2.2-1.13,4.57-2.49,9.08-3.74,13.62-.21.78-.54,1.58.07,2.67Z"/>
      <path class="cls-2" d="M578.51,408.52c-2.33,8.58-4.65,17.15-6.98,25.71-1.17,4.29-2.35,8.58-3.56,12.86-.28.99-.14,2.29-1.78,2.38-1.47.08-1.86-.97-2.36-1.94-4.63-8.88-9.25-17.76-13.89-26.64-1.21-2.32-2.48-4.61-3.88-7.21-1.39,1.17-1.39,2.59-1.72,3.81-2.7,9.78-5.39,19.57-8.01,29.37-.48,1.81-.95,3.27-3.34,2.35-.73-.93.05-1.79.28-2.65,3.14-11.68,6.3-23.35,9.47-35.02.18-.67.36-1.35.62-1.99.7-1.78,2.63-2.13,3.82-.63.6.75.95,1.69,1.4,2.55,4.9,9.37,9.77,18.75,14.71,28.09.61,1.16.79,2.72,2.64,3.33,1.99-7.25,3.97-14.45,5.95-21.64,1.03-3.75,2.15-7.48,3.08-11.26.52-2.11,1.63-2.29,3.57-1.46Z"/>
      <path class="cls-2" d="M692.15,427.1c6.21,0,11.89,0,17.58,0,1.39,0,2.79-.02,4.18.02.83.02,1.78.04,1.64,1.27-.1.88-.55,1.6-1.55,1.66-.97.06-1.95.04-2.92.04-5.71,0-11.42.09-17.12-.05-2.1-.05-2.94.7-3.4,2.68-.88,3.79-2.08,7.5-3.04,11.27-.6,2.33-.37,2.61,2.16,2.63,6.54.05,13.09.02,19.63.02.84,0,1.67-.01,2.51.01.67.02,1.48-.03,1.44.98-.03.87-.28,1.67-1.35,1.79-.41.05-.83.05-1.25.05-8.77,0-17.54,0-26.31-.03-.37,0-.75-.19-1.05-.28-.52-.96-.08-1.75.13-2.52,3.21-11.8,6.45-23.6,9.69-35.4.87-3.17.89-3.19,4.15-3.2,7.94-.02,15.87-.03,23.81.03.9,0,2.44-.68,2.36,1.26-.06,1.54-1.19,1.61-2.38,1.61-7.1-.02-14.2.09-21.3-.07-2.36-.05-3.53.62-4.07,2.97-.97,4.18-2.19,8.31-3.53,13.25Z"/>
      <path class="cls-2" d="M425.12,449.47c1.35-4.95,2.52-9.22,3.67-13.49,2.29-8.45,4.62-16.89,6.84-25.36.5-1.91,1.36-2.66,3.44-2.63,8.21.13,16.42.04,24.63.07.82,0,2.15-.53,2.13,1.12-.02,1.45-.96,1.77-2.25,1.77-6.96-.03-13.92-.02-20.88-.01-3.74,0-3.75.02-4.74,3.58-1.11,4-2.19,8-3.31,12.1,2.3.84,4.39.45,6.43.47,5.01.06,10.02.01,15.03.04.78,0,1.87-.16,1.84,1.07-.03,1.02-.55,1.88-1.79,1.88-2.92,0-5.85.01-8.77.02-3.76,0-7.52.04-11.27-.02-1.56-.03-2.61.27-3.04,2.04-.98,4.05-2.14,8.06-3.25,12.08-.5,1.83.14,2.49,2.03,2.47,6.68-.07,13.36-.03,20.04-.02.83,0,1.67.01,2.5,0,.58,0,1.18.11,1.24.77.06.68-.04,1.46-.76,1.79-.48.22-1.08.25-1.62.26-9.16.01-18.32.01-28.14.01Z"/>
      <path class="cls-2" d="M665.7,448.97c1.6-6.03,3.21-12.05,4.76-17.88-.95-1.13-1.97-.91-2.91-.91-6.68-.02-13.36.08-20.04-.06-2.34-.05-3.49.59-4.04,2.99-1.09,4.74-2.62,9.37-3.76,14.1-.53,2.21-1.57,2.69-3.64,1.89.2-2.55,1.15-4.88,1.79-7.27,2.76-10.2,5.55-20.38,8.34-30.58.22-.8.37-1.65.72-2.39.55-1.13,1.65-.97,2.55-.66.92.31.48,1.14.31,1.76-1.3,4.83-2.64,9.65-3.91,14.49-.63,2.4-.49,2.6,2.05,2.62,7.1.05,14.2-.03,21.3.04,1.89.02,2.66-.75,3.11-2.54,1.21-4.85,2.64-9.65,3.95-14.48.26-.95.34-1.98,1.65-2.03,1.03-.04,2.07-.06,1.78,1.47-.1.54-.31,1.07-.45,1.6-3.2,11.8-6.39,23.61-9.61,35.41-.79,2.89-.82,2.88-3.94,2.42Z"/>
      <path class="cls-2" d="M596.58,450.17c-5.69-.03-10.8-1.84-14.83-6.17-.56-.6-1.79-1.2-.72-2.38,1.14-1.26,2.07-.87,3.1.25,4.49,4.85,10.18,5.9,16.43,5.02,2.71-.38,5.06-1.55,6.89-3.59,3.13-3.5,2.67-7.81-1.24-10.38-1.84-1.21-3.95-2.03-5.98-2.93-2.67-1.17-5.44-2.15-7.86-3.83-4.52-3.14-5.45-8.75-2.14-13.13.74-.98,1.68-1.88,2.67-2.61,6.45-4.71,17.95-3.84,23.64,1.76.59.58,1.86,1.12.7,2.31-.88.9-1.64,1.2-2.78.17-4.33-3.94-9.45-5.06-15.13-3.88-1.66.35-3.17,1.04-4.53,2.04-3.61,2.64-4.97,8.18.45,11.32,2.06,1.19,4.23,2.11,6.44,2.94,2.22.83,4.42,1.71,6.4,3.02,5.55,3.64,6.39,10.14,1.86,15.04-3.55,3.84-8.17,5.08-13.38,5.04Z"/>
      <path class="cls-2" d="M515.01,448.97c2.3-8.52,4.61-17.09,6.93-25.65,1.05-3.89,2.12-7.77,3.19-11.65.26-.94.45-1.91.84-2.79.51-1.16,1.64-.95,2.54-.71.88.24.63,1.07.45,1.74-1,3.61-2.01,7.22-3,10.84-2.37,8.71-4.75,17.41-7.06,26.14-.55,2.07-1.32,3.37-3.89,2.07Z"/>
    </g>
  </g>
</svg>