<?xml version="1.0" encoding="UTF-8"?>
<svg id="Layer_2" data-name="Layer 2" xmlns="http://www.w3.org/2000/svg" viewBox="0 0 1366.61 355.68">
  <defs>
    <style>
      .cls-1 {
        fill: #0c2340;
        stroke-width: 0px;
      }
    </style>
  </defs>
  <g id="Layer_1-2" data-name="Layer 1">
    <g>
      <path class="cls-1" d="M1083.42,355.68c-49.42-12.39-62.38-47.91-61.95-93.52.75-80.11.45-160.24-.05-240.35-.08-12.23,2.79-16.58,15.96-16.43,36.62.41,36.63-.22,36.63,36.4,0,72.78.03,145.57-.03,218.35,0,9.63.22,19.25,3.1,28.49,4.02,12.89,13.16,19.39,26.72,19.35,13.69-.04,22.9-6.87,26.06-19.93,1.96-8.11,2.37-16.73,2.39-25.13.17-80.12.4-160.24-.19-240.36-.1-13.25,3.55-17.34,17.06-17.16,36.2.5,36.21-.11,36.21,34.95v208.2c0,3.39,0,6.77,0,10.16-.04,58.87-11.13,75.58-64.37,96.99h-37.53Z"/>
      <path class="cls-1" d="M902.58,355.68c-46.91-12.05-58.09-46.79-57.9-89.17.27-61.54-.39-123.1.32-184.63.49-42.86,19.1-69.51,54.14-78.37,43.1-10.89,95.34,1.51,100.49,66.73,2.8,35.39,3.91,34.22-31.18,35.7-17.76.75-23.59-4.82-20.98-21.63.76-4.89-.11-10.19-1.04-15.15-2.31-12.37-8.99-20.93-22.59-21.24-14.29-.33-21.77,7.93-24.41,21.18-.55,2.76-.92,5.6-.92,8.41-.03,66.06-.1,132.12.18,198.18.03,6.05,1.63,12.34,3.71,18.08,3.73,10.3,12.08,14.67,22.77,14.19,10.18-.45,16.91-6.01,20.23-15.48,3.82-10.89,3.67-22.3,3.17-33.53-.41-9.18,3.17-12.38,11.88-11.21,1.68.23,3.41.04,5.11.03,41.1-.13,40.58-.2,34.95,41.25-4.93,36.3-25.11,57.98-60.4,66.64h-37.53Z"/>
      <path class="cls-1" d="M1366.61,138.83c-.97,1.33-2.59,2.57-2.82,4.01-7.26,46.93-38.61,65.08-83.19,65.03-19.8-.02-39.6,0-60.16,3.95,9.04,2.57,17.95,5.72,27.14,7.52,8.26,1.62,11.22,5.7,11.15,13.87-.27,34.99-.28,69.98-.03,104.97.06,8.65-3.11,11.45-11.95,11.9-40.54,2.05-40.53,2.33-40.53-37.22,0-96.51.29-193.02-.32-289.53-.09-13.9,3.29-18.76,17.76-17.94,23.23,1.3,46.62-.21,69.87.95,39.84,1.98,59.33,18.58,69.65,57.18.7,2.63,2.26,5.03,3.43,7.54v67.77ZM1258.69,106.49c0,15.77-.01,31.54,0,47.31,0,5.77-.12,10.68,8.15,11.96,24.76,3.82,43.06-8.67,45.52-33.62,1.54-15.62,1.57-31.52.75-47.22-1.47-28.01-14.93-38.59-43.46-36.73-7.88.51-11.21,3-11.04,11,.33,15.76.1,31.54.08,47.3Z"/>
      <path class="cls-1" d="M650.55,232.03c5.62-34.32,11.14-68.67,16.88-102.97,6.06-36.18,12.67-72.27,18.31-108.51,1.6-10.24,5.27-14.47,16.22-13.89,17.01.9,34.11.61,51.14.09,8.7-.26,11.98,2.44,11.96,11.43-.22,107.26-.22,214.51,0,321.77.02,8.8-2.86,11.4-11.72,11.76-38.46,1.57-38.53,1.88-38.44-35.8.19-73.95.48-147.9.73-221.85.03-7.83,0-15.65-3.08-23.78-3.82,27.19-7.59,54.39-11.46,81.57-8.85,62.01-18.05,123.97-26.34,186.06-1.44,10.78-5.09,13.86-15.85,13.85-35.64-.03-35.75.43-40.2-34.13-10.16-78.92-20.17-157.86-30.35-236.78-.85-6.62-2.55-13.13-4.69-23.86,0,21.25-.07,38.21.01,55.17.35,75.08.54,150.15,1.34,225.22.12,10.96-2.82,14.43-14.2,14.39-33.49-.11-33.5.41-33.5-32.32,0-98.22.26-196.45-.3-294.67-.08-13.51,2.61-19.4,17.47-18.19,15.81,1.29,31.85.94,47.71.06,10.72-.59,14.91,3.13,16.38,13.61,9.7,69.3,20.75,138.42,28.26,208.01.12,1.09.57,2.15.87,3.23.94.17,1.89.34,2.83.51Z"/>
      <path class="cls-1" d="M360.28,262.11c1.44.74,2.8,1.74,4.32,2.19q32.78,9.76,28.27,42.61c-.31,2.23-.76,4.45-1.08,6.68-5.63,39.03-5.63,38.58-45.2,38.19-11.3-.11-12.92-3.15-11.16-13.67,13.74-82.29,26.84-164.68,40.17-247.03,3.87-23.93,8.21-47.79,11.53-71.8,1.22-8.78,3.88-12.95,13.62-12.57,17.58.68,35.21.61,52.8.03,8.89-.29,11.41,3.48,12.75,11.55,17.66,106.21,35.5,212.39,53.77,318.49,2.2,12.78-2.32,14.99-13.95,14.96-38.47-.09-38.48.31-44.24-37.77-2.19-14.49-4.47-28.97-6.44-43.5-.93-6.85-2.84-11.61-11.33-11.52-27.68.29-55.37.11-83.06.11-.26,1.02-.53,2.04-.79,3.06ZM427.69,61.17h-2.34c-5.21,40.61-10.17,81.25-15.72,121.8-4.18,30.52-3.98,30.83,27.24,28.06,7.2-.64,10.17-2.61,9.16-10.11-6.23-46.57-12.25-93.17-18.33-139.75Z"/>
      <path class="cls-1" d="M194.02,58.33c2,.84,3.93,1.93,6,2.49q35.03,9.48,35.04,46.21,0,38.71,39.29,38.71c1.14,0,2.27,0,3.41,0,34.96,0,34.43,0,34.27,34.82-.05,11.02-4.13,13.29-13.91,12.96-17.03-.56-34.1.21-51.13-.28-8.95-.26-12.05,3.25-11.98,11.82.25,28.78.36,57.56-.08,86.34-.15,9.97,4.28,12.5,13.37,12.34,21.02-.37,42.05.2,63.07-.19,9.21-.17,11.36,3.16,10.53,12.05-3.37,35.87-3.09,35.89-39.13,35.89-28.98,0-57.97-.43-86.94.22-10.58.24-13.45-3.18-13.42-13.45.33-106.09.35-212.18,0-318.27-.03-10.49,3.21-13.47,13.56-13.31,35.79.55,71.6.48,107.4.04,9.6-.12,12.47,2.88,12.68,12.5.8,35.9,1.18,35.89-35.24,35.89-28.81,0-57.62,0-86.42,0-.13,1.07-.25,2.15-.38,3.22Z"/>
      <path class="cls-1" d="M100.28,67.2c8.34,1.76,10.74,5.89,10.72,14.05-.24,86.38-.27,172.76.03,259.14.03,9.27-3.57,11.02-12.03,11.3-40.76,1.36-40.76,1.6-40.76-39.18,0-80.17-.28-160.34.27-240.51.09-13.12-3.28-19.24-17.06-16.94-1.66.28-3.4.04-5.11.04C-.75,55.09-3.03,52.17,1.96,15.11c.94-6.94,3.96-8.24,9.85-8.23,48.32.08,96.65.13,144.97-.07,7.17-.03,9.63,2.57,10.44,9.67,4.31,37.52,3.53,38.62-33.97,38.62-25.9,0-51.8,0-77.69,0,15.1,3.12,29.64,8.91,44.73,12.09Z"/>
    </g>
  </g>
</svg>