<?xml version="1.0" encoding="UTF-8"?>
<svg id="Layer_2" data-name="Layer 2" xmlns="http://www.w3.org/2000/svg" viewBox="0 0 191.67 274.56">
  <defs>
    <style>
      .cls-1 {
        fill: #fff;
        stroke-width: 0px;
      }
    </style>
  </defs>
  <g id="Layer_1-2" data-name="Layer 1">
    <g>
      <g>
        <path class="cls-1" d="M99.49,204.07c0,1.86-.02,3.72,0,5.58.04,3.93-1.41,7.25-4.07,10.07-2.48,2.63-5.53,4.28-9.05,5.01-5.38,1.12-10.41.24-14.92-3-3.13-2.25-5.23-5.24-6.1-9.04-.25-1.1-.38-2.21-.38-3.34.01-3.68,0-7.35,0-11.03,0-4.46,1.72-8.15,4.99-11.12,2.8-2.55,6.13-3.98,9.89-4.44,4.75-.59,9.12.42,13.03,3.18,3.47,2.45,5.67,5.75,6.44,9.97.13.73.16,1.46.16,2.19,0,1.99,0,3.98,0,5.97ZM88.29,203.97c0-1.95.02-3.89,0-5.84-.03-1.95-.75-3.63-2.21-4.94-1.25-1.13-2.73-1.69-4.41-1.47-2.44.31-4.11,1.69-5.02,3.96-.34.85-.44,1.76-.45,2.67,0,1.43,0,2.85,0,4.28,0,2.16,0,4.32,0,6.49,0,1.64.37,3.17,1.37,4.51,2.47,3.33,7.25,3.25,9.6-.17.75-1.1,1.14-2.32,1.14-3.66,0-1.95,0-3.89,0-5.84Z"/>
        <path class="cls-1" d="M60.25,214.73c0,2.77,0,5.54,0,8.3,0,.35,0,.69-.01,1.04,0,.24-.14.4-.4.42-.26.02-.52.03-.78.03-4.58,0-9.17.02-13.75,0-3.26-.02-6.34-.77-9.17-2.42-3.83-2.23-6.48-5.39-7.64-9.73-.31-1.18-.44-2.37-.44-3.59.01-3.33.01-6.66,0-9.99-.01-3.82,1.36-7.1,3.93-9.87,2.67-2.89,6.02-4.59,9.87-5.32,1.11-.21,2.23-.29,3.35-.29,3.76,0,7.53.07,11.29-.03,2.23-.06,3.26,1.45,3.19,3.19-.07,1.64-.01,3.29-.02,4.93,0,.22-.01.43-.04.65-.02.19-.16.31-.34.32-.34.02-.69.03-1.04.03-4.15,0-8.3,0-12.45,0-.6,0-1.21,0-1.81.14-2.66.65-4.56,2.99-4.73,5.83-.01.17,0,.35,0,.52,0,3.29,0,6.57,0,9.86,0,1.9.63,3.56,1.98,4.92,1.05,1.05,2.31,1.67,3.81,1.7,1.3.03,2.59.02,3.89,0,.55,0,.65-.12.66-.71.01-1.69,0-3.37,0-5.06,0-1.99,0-3.98,0-5.97,0-.62.08-.68.66-.71.22-.01.43,0,.65,0,1.99,0,3.98,0,5.97,0,.3,0,.61-.01.91.02,1.42.16,2.35,1.15,2.44,2.58.02.3,0,.61,0,.91,0,2.77,0,5.54,0,8.3Z"/>
        <path class="cls-1" d="M136.03,202.85c0-5.97,0-11.93,0-17.9,0-.3,0-.61,0-.91.02-.69.04-.71.75-.73.3,0,.61,0,.91,0,7.44,0,14.87,0,22.31,0,.39,0,.78-.01,1.17.01,1.36.1,2.33,1.05,2.43,2.41.03.47.01.95.01,1.43,0,1.56,0,3.11,0,4.67,0,.43-.13.54-.53.56-.35.02-.69,0-1.04,0-4.58,0-9.17,0-13.75,0-.35,0-.69,0-1.04,0-.45.02-.57.11-.57.51,0,1.99-.01,3.98,0,5.97,0,.43.12.52.54.54.35.02.69,0,1.04,0,3.46,0,6.92,0,10.38,0,.35,0,.69-.02,1.04.01,1.27.12,2.29,1.09,2.33,2.37.06,1.9.02,3.8.02,5.71,0,.32-.2.45-.5.46-.35,0-.69,0-1.04,0-4.06,0-8.13,0-12.19,0-.3,0-.61,0-.91,0-.66.02-.69.05-.71.77,0,.3,0,.61,0,.91,0,4.45,0,8.91,0,13.36,0,.35,0,.69-.01,1.04,0,.25-.15.4-.4.42-.26.02-.52.03-.78.03-2.08,0-4.15,0-6.23,0-.39,0-.78-.02-1.16-.1-1.19-.26-1.96-1.17-2.05-2.36-.03-.34,0-.69,0-1.04,0-6.05,0-12.11,0-18.16Z"/>
        <path class="cls-1" d="M104.64,202.8c0-5.97,0-11.93,0-17.9,0-.39,0-.78.02-1.17,0-.25.15-.39.4-.41.22-.02.43-.02.65-.02,2.2,0,4.41,0,6.61,0,.48,0,.95,0,1.4.21.89.43,1.41,1.12,1.54,2.1.05.38.02.78.02,1.17,0,8.99,0,17.99,0,26.98,0,1.78-.2,1.61,1.57,1.61,3.76,0,7.52,0,11.28,0,.52,0,1.04.02,1.55.11,1.08.21,1.82,1.04,1.99,2.12.03.17.05.34.05.52,0,1.9.01,3.8,0,5.71,0,.59-.08.65-.69.68-.26,0-.52,0-.78,0-7.35,0-14.7,0-22.05,0-.47,0-.96,0-1.42-.09-1.24-.24-2.05-1.17-2.14-2.43-.02-.34,0-.69,0-1.04,0-6.05,0-12.11,0-18.16Z"/>
      </g>
      <g>
        <path class="cls-1" d="M94.66,260.51c.08.51.45.84.71,1.22,2.71,3.86,5.42,7.71,8.14,11.56.2.28.4.56.59.85.1.15,0,.37-.18.38-.22.01-.43.02-.65.02-2.94,0-5.88,0-8.82,0-.7,0-1.38-.06-2.05-.28-1.11-.36-1.98-1.04-2.64-2-1.09-1.56-2.19-3.11-3.28-4.67-1.12-1.59-2.26-3.17-3.34-4.78-.34-.51-.74-.66-1.31-.61-.33.03-.45.19-.46.49,0,.35,0,.69,0,1.04,0,3.11,0,6.23,0,9.34,0,.35,0,.69-.01,1.04-.01.24-.14.4-.4.41-.09,0-.17.01-.26.01-2.34,0-4.67,0-7.01,0-.22,0-.43-.02-.65-.05-1.3-.21-2.16-1.12-2.29-2.44-.03-.3-.01-.61-.01-.91,0-12.16,0-24.31,0-36.47,0-1.44-.14-1.34,1.31-1.34,4.63,0,9.26,0,13.88,0,2.8,0,5.51.47,8.08,1.59,3.77,1.65,6.57,4.31,8.05,8.19,2.24,5.88.37,12.52-5.39,16.22-.65.42-1.34.77-2.02,1.16ZM81.38,247.78c0,1.6,0,3.2,0,4.8,0,.43.1.53.54.53,1.56,0,3.11.04,4.67-.03,1.22-.05,2.38-.42,3.4-1.13,1.08-.75,1.79-1.76,2-3.06.29-1.83-.23-3.42-1.57-4.72-1.1-1.07-2.46-1.62-3.97-1.7-1.51-.07-3.03-.04-4.54-.04-.44,0-.54.1-.54.54,0,1.6,0,3.2,0,4.8Z"/>
        <path class="cls-1" d="M166.29,233.48c.33-.18.63-.13.93-.13,3.41,0,6.83,0,10.24,0,.75,0,1.45.1,2.11.51.9.56,1.4,1.38,1.68,2.37.4,1.46.8,2.91,1.2,4.37,3,10.91,6,21.81,9,32.72.07.25.15.5.2.75.07.32-.06.48-.41.49-1.12.01-2.25,0-3.37.01-1.3,0-2.59.01-3.89,0-2.13-.02-3.28-.91-3.84-2.96-.2-.71-.35-1.43-.54-2.13-.2-.75-.21-.75-.94-.77-.52,0-1.04,0-1.56,0-2.94,0-5.88,0-8.82,0-.26,0-.52.01-.78,0-.38-.02-.54.19-.62.51-.31,1.26-.62,2.51-.93,3.77-.09.38-.19.75-.28,1.13-.07.3-.26.43-.55.44-.52,0-1.04,0-1.56,0-1.86,0-3.72,0-5.58,0-.63,0-1.2-.14-1.67-.58-.62-.57-.89-1.25-.65-2.1.34-1.21.66-2.42.99-3.62,3.1-11.24,6.2-22.47,9.3-33.71.1-.37.22-.74.33-1.07ZM177.09,259.46c-1.24-4.97-2.49-9.94-3.74-14.91-.01-.06-.13-.09-.27-.18-1.27,5.05-2.53,10.08-3.75,15.12,1.31.17,6.73.15,7.76-.03Z"/>
        <path class="cls-1" d="M16.89,233.34c1.64,0,3.29,0,4.93,0,2.06.01,3.23.87,3.79,2.85,1.3,4.61,2.56,9.24,3.84,13.86,2.12,7.7,4.24,15.4,6.36,23.11.01.04.03.08.04.12.28,1.23.59,1.29-.93,1.28-2.08-.01-4.15,0-6.23,0-.26,0-.52.01-.78,0-1.65-.11-2.84-1.05-3.31-2.64-.25-.83-.41-1.68-.63-2.51-.17-.65-.22-.7-.87-.7-3.67,0-7.35,0-11.02,0-.58,0-.72.09-.86.71-.29,1.31-.64,2.6-.96,3.9-.07.29-.16.58-.23.88-.06.24-.22.36-.46.36-.22,0-.43.01-.65.01-2.08,0-4.15,0-6.23,0-.34,0-.7,0-1.03-.08-1.18-.27-1.89-1.37-1.59-2.54.55-2.13,1.15-4.25,1.73-6.38,2.82-10.24,5.64-20.48,8.46-30.72.12-.45.18-1,.47-1.31.36-.39.98-.16,1.49-.17,1.56-.02,3.11,0,4.67,0ZM21.36,259.49c-.09-1.06-3.33-14.06-3.8-15.22-.1.24-.2.43-.25.63-1.14,4.6-2.28,9.2-3.41,13.8-.06.26-.23.55-.05.83,1.65.13,6.55.1,7.51-.04Z"/>
        <path class="cls-1" d="M39.11,252.84c0-6.01,0-12.02,0-18.03,0-.35,0-.69.01-1.04,0-.25.15-.4.39-.42.3-.02.6-.01.91-.01,7.69,0,15.39,0,23.08,0,.22,0,.43,0,.65,0,1.43.07,2.42,1,2.59,2.41.01.09.01.17.01.26,0,1.95,0,3.89,0,5.84,0,.44-.12.55-.52.57-.35.02-.69,0-1.04,0-4.67,0-9.34,0-14,0-.35,0-.69,0-1.04.01-.24.01-.39.16-.4.41,0,.3-.01.6-.01.91,0,1.43,0,2.85,0,4.28,0,1.57-.13,1.42,1.36,1.42.43,0,.86,0,1.3,0,3.11,0,6.22,0,9.34,0,.35,0,.69-.02,1.04.01,1.13.1,2.02.88,2.28,1.98.06.25.1.51.1.77,0,1.73.01,3.46,0,5.19,0,.5-.11.59-.62.6-.52.01-1.04,0-1.56,0-3.93,0-7.87,0-11.8,0-.35,0-.69,0-1.04.02-.25.01-.39.17-.39.42-.01.35-.01.69-.01,1.04,0,4.63,0,9.25,0,13.88,0,1.24.06,1.18-1.22,1.18-2.03,0-4.06,0-6.09,0-.3,0-.61,0-.91-.04-1.37-.18-2.26-1.1-2.39-2.48-.03-.34-.01-.69-.01-1.04,0-6.05,0-12.1,0-18.15Z"/>
        <path class="cls-1" d="M146.95,274.55c-1.73,0-3.46.01-5.19,0-4.21-.04-8-1.29-11.25-4-3.97-3.32-6.05-7.58-6.09-12.79-.02-2.94,0-5.88,0-8.82-.02-3.91,1.38-7.26,4.03-10.09,2.66-2.84,5.97-4.5,9.78-5.22,1.11-.21,2.23-.29,3.35-.29,3.16,0,6.31,0,9.47,0,.26,0,.52,0,.78.02,1.07.11,1.95.85,2.21,1.9.09.37.13.77.13,1.15.01,1.73,0,3.46,0,5.19,0,.09,0,.17,0,.26-.03.44-.12.54-.53.56-.35.01-.69,0-1.04,0-3.5,0-7,0-10.51,0-.6,0-1.21,0-1.8.15-2.75.71-4.63,3.14-4.66,6.13-.03,3.07,0,6.14,0,9.21,0,.79.13,1.55.33,2.3.28,1.1.77,2.11,1.49,3,1.15,1.42,2.6,2.22,4.48,2.21,2.94-.02,5.88,0,8.82,0,.47,0,.95,0,1.42.07,1.17.16,1.96.92,2.19,2.08.06.29.08.6.08.9,0,1.73,0,3.46,0,5.19,0,.17,0,.35-.03.52-.02.19-.13.32-.33.34-.3.02-.6.03-.9.03-2.08,0-4.15,0-6.23,0Z"/>
        <path class="cls-1" d="M119.28,254.89c0,6.01,0,12.02,0,18.03,0,.35,0,.69,0,1.04-.02.49-.1.58-.63.59-2.38,0-4.76.04-7.13,0-1.85-.03-2.82-1.08-2.87-2.96,0-.26,0-.52,0-.78,0-11.98,0-23.95,0-35.93,0-1.7-.23-1.52,1.5-1.53,1.95,0,3.89,0,5.84,0,.35,0,.69-.01,1.04.03,1.15.13,2.08,1.04,2.23,2.19.05.43.04.86.04,1.3,0,6.01,0,12.02,0,18.03Z"/>
      </g>
      <g>
        <path class="cls-1" d="M106.3,91.74c-.1.44-.21.88-.3,1.33-.04.19-.16.42-.02.56.32.31.14.6.02.89-.26.67-.51,1.34-.78,2-.11.28-.2.3-.5.11-.12-.08-.22-.16-.34-.07-.52.43-1.04.87-1.51,1.37.23.25.5.26.74.32.8.2.79.19,1.08-.59.06-.17.05-.39.27-.48.14-.05.22.16.2.56,0,.06,0,.13-.01.19-.23,1.23-.04,1.02-1.18.91-.06,0-.13,0-.19-.03-.44-.15-.81-.11-1.12.3-.27.36-.7.29-1.08.35-.31.05-.42.15-.36.45.09.47.09.88-.23,1.29-.23.29-.2.68-.23,1.03-.06.75-.11,1.49-.18,2.24-.05.45-.08.46-.56.45-.2,0-.39-.02-.58-.04-.37-.04-.43-.12-.37-.51.02-.13.06-.25.07-.38.05-.41-.29-1.03-.67-1.2-.06-.03-.21.02-.26.08-.34.44-.66.89-.99,1.33-.09.13-.21.25-.19.44.27.24.7.1,1.01.43-.33.5-.67,1.01-1.01,1.52-.3.46-.59.93-.88,1.4.27.44.54.87.81,1.31.09.14.17.28.25.42.1.18.05.33-.13.38-.25.07-.5.14-.81.05,0-.56,0-1.15-.1-1.72-.02-.13-.04-.27-.11-.37-.12-.18-.33-.21-.52-.17-.15.03-.17.18-.16.31.04.69-.24,1.27-.68,1.77-.06.07-.17.16-.24.09-.37-.39-.71-.1-1.09,0,.07.36.32.56.53.8.1.11.23.11.33-.02.1-.14.2-.26.37-.3.56-.13.75-.13.64.52-.2,1.15-.41,2.3-.63,3.45-.02.13-.07.25-.24.3-.19-.23-.15-.54-.18-.81-.06-.45-.1-.91-.09-1.36,0-.46-.17-.81-.5-1.12-.3-.28-.4-.28-.54.09-.08.21-.17.43-.21.65-.29,1.41-1.17,2.53-1.83,3.75-.06.1-.17.22-.28.25-.58.15-1.04.53-1.58.76-.16.07-.34.27-.52.1-.14-.13.01-.3.06-.45.25-.82.36-1.65.19-2.5-.08-.42-.22-.81-.46-1.17-.2-.3-.39-.6-.57-.91-.2-.34-.38-.68-.37-1.09,0-.06-.01-.13-.02-.19-.03-.36-.43-.61-.31-.99.1-.32.46-.45.65-.71.12-.16.17-.36.11-.56-.1-.31-.21-.61-.35-.9-.38-.76-.81-1.49-.88-2.36-.02-.21-.18-.33-.3-.49-.22-.28-.44-.56-.63-.87-.13-.21-.28-.44-.05-.71.1-.11,0-.24-.08-.34-.22-.3-.31-.63-.36-1-.06-.46-.24-.88-.54-1.24-.12-.15-.24-.32-.3-.49-.16-.41-.43-.71-.77-.98-.25-.2-.48-.44-.69-.68-.82-.97-1.6-1.96-2.63-2.74-.95-.73-1.48-1.79-1.99-2.85-.21-.44-.41-.88-.61-1.32-.06-.13-.04-.25,0-.38h-.02c.53.1.53.1.7-.23.13-.26.3-.51.38-.79.08-.27.09-.57.13-.87.19,0,.38-.02.51-.02.12-.04.13-.11.07-.16-.18-.14-.35-.28-.45-.5-.07-.16-.08-.28.07-.42.39-.34.42-.62.09-1-.19-.22-.18-.4-.05-.61.12-.19.28-.36.4-.56.15-.25.27-.51.3-.81.08-.78.2-1.55.31-2.32.05-.31.03-.58-.22-.8-.23-.2-.36-.46-.46-.74-.08-.21.31-.4.02-.6-.21-.15-.34.14-.53.12-.58-.06-.89-.35-1.04-.96-.09-.37-.09-.4-.49-.34-.3.05-.28-.16-.37-.32-.12-.23-.25-.25-.4-.03-.1.14-.18.29-.36.29-.48,0-.95.2-1.44.01-.31-.12-.63-.06-.93.12-.66.41-1.42.34-2.15.37-.47.02-.86-.26-1.18-.61-.38-.43-.51-.97-.64-1.51-.04-.18.24-.29.21-.29-.54-.04-.59-.54-.85-.85-.27-.33-.58-.62-.9-.89-.41-.34-.89-.52-1.44-.5-.29.01-.59,0-.88.02-.25.03-.3-.38-.38-.3-.42.47-.96.25-1.45.31-.52.06-1.04.11-1.55.16-.59.06-1.15.2-1.72.36-.32.1-.61.22-.75.56-.12.29-.39.37-.64.35-1.03-.07-1.91.31-2.75.83-.14.08-.29.16-.45.19-.87.17-1.67.55-2.45.94-.38.19-.72.19-1.12.03-.54-.22-1.1-.38-1.66-.56-.13-.04-.25-.07-.3-.21-.05-.17-.11-.21-.23-.04-.15.22-.38.27-.6.18-.89-.36-1.79-.08-2.69-.06-1.9.04-3.62.72-5.32,1.47-.75.33-1.41.36-2.15.02-1.16-.53-2.29-1.09-3.24-1.96-.14-.13-.28-.27-.41-.42-.59-.62-1.22-1.18-2.05-1.45-.16-.05-.29-.14-.38-.29-.12-.22-.34-.29-.54-.39-.41-.19-.82-.4-1.07-.81-.12-.2-.36-.27-.56-.37-.38-.18-.76-.37-1.15-.54-.25-.11-.44-.25-.44-.57,0-.21-.16-.32-.38-.37-.38-.09-.63-.31-.61-.75,0-.21-.09-.39-.34-.39-.19,0-.28-.12-.36-.28-.1-.19-.03-.3.14-.38.02,0,.04-.05.04-.07-.12-.22-.29-.39-.17-.71.07-.2-.2-.44-.18-.71,0-.13-.15-.27-.23-.41-.17-.29-.59-.44-.53-.88,0-.04-.06-.13-.11-.15-.48-.15-.75-.63-1.21-.78-.42-.14-.63-.45-.79-.79-.13-.29-.35-.53-.46-.82-.13-.35-.24-.3-.42-.05-.07.1-.17.03-.21-.07-.06-.15-.12-.32-.29-.38-.41-.14-.54-.49-.54-.83,0-.28-.12-.48-.19-.71-.07-.22-.18-.24-.35-.16-.26.12-.48.14-.68-.13-.14-.19-.53.03-.61-.2-.15-.47-.62-.53-.91-.8-.09-.09-.2-.17-.19-.32.03-.58-.12-1.14-.13-1.72,0-.27.05-.51.36-.62.2-.07.21-.28.11-.4-.36-.47-.51-1.04-.78-1.54-.25-.46-.54-.88-1.14-.89.08-.28.35-.29.53-.43.9-.68,1.5-1.53,1.56-2.69.04-.82.23-1.6.57-2.36.6-1.34.58-2.72.18-4.1-.13-.44-.32-.86-.68-1.12.14-.33.25-.6.37-.86.28-.67.26-1.32-.09-1.96-.05-.08-.11-.23-.17-.23-.56,0-.62-.48-.81-.83-.2-.37-.23-.37-.59.02-.17-.11-.09-.29-.09-.42.03-.69.2-1.35.43-1.99.11-.3.24-.6.59-.74.3-.11.43-.35.54-.65.27-.8.57-1.59,1.05-2.29.11-.16.25-.35.24-.52,0-.5.31-.76.62-1.04.36-.33.7-.68,1.06-1.01.32-.3.52-.66.53-1.11.02-.9.39-1.71.66-2.54.13-.42.42-.73.81-.93.17-.09.34-.18.52-.27.55-.27.93-.71,1.15-1.27.19-.48.4-.96.56-1.46.23-.71.71-1.07,1.44-1.1.67-.02,1.28-.22,1.86-.52.29-.15.57-.33.77-.58.33-.41.75-.73,1.18-1.01.98-.64,1.67-1.54,2.31-2.49.13-.19.2-.41.29-.61.18-.42.19-.82-.16-1.17-.18-.17-.25-.35-.19-.61.05-.18.06-.39.02-.58-.21-.85.13-1.55.6-2.18.34-.46.59-.92.65-1.49.02-.19.08-.39.19-.55.64-.96,1.37-1.82,2.49-2.26.45-.18.9-.37,1.35-.56.94-.4,1.62-1.06,2.07-1.98.32-.68.63-1.36.79-2.1.05-.25.14-.5.19-.76.14-.75.7-1.05,1.35-1.24.14-.04.27.03.33.14.11.2.19.42.3.61.51.88,1.29,1.28,2.28,1.12.55-.09,1.09-.16,1.64-.01.15.04.34.03.48-.03.35-.15.69-.42.92.14.02.04.11.08.17.08.83.02,1.67.34,2.49-.1.44-.23.87-.44,1.08-.92.18-.39.55-.56.93-.63.26-.05.49-.08.68-.29.17-.19.36,0,.53.08.25.13.46.06.58-.16.59-1.08,1.58-1.5,2.71-1.67.86-.13,1.74-.22,2.61-.3.23-.02.44-.06.64-.19.37-.23.64-.27,1.15-.29.38-.02.77,0,1.12-.23.12-.08.31-.11.46-.11.68.01,1.37-.02,2.04.17.25.07.51.11.65.37.09.16.25.18.42.12.15-.06.31-.11.45-.19.29-.16.58-.28.92-.29.23,0,.5-.06.61-.25.32-.57.69-.41,1.13-.17.38.21.82.26,1.19-.05.15-.13.29-.12.44-.08.22.06.48.08.64.22.29.23.6.17.92.18.79.02,1.46-.22,2.08-.7.29-.22.64-.32.98-.43.5-.18.94.13,1.41.19.05,0,.1.08.13.13.03.06.02.13.04.19q.34,1.19,1.27.49c.17-.13.33-.35.6-.2.18.1.18.39-.04.68-.28.38-.38.9-.93,1.07-.21.06-.28.35-.27.59.01.37.14.7.43.95.17.15.38.25.56.39.1.08.25.18.26.28.01.44.22.84.02,1.32-.29.69-.73,1.21-1.33,1.63-.27.19-.51.4-.75.62-.18.16-.23.39-.17.63.14.58.55.98,1.16.97.41,0,.37.26.4.5.73-.38.74-.38.95.35.06.21.14.33.36.39.66.16,1.3.39,1.89.74.62.37,1.27.5,1.95.16.28-.14.56-.14.84,0,.17.09.36.18.55.18.55,0,1.01.22,1.44.52.3.21.64.32,1,.34.19.01.38.07.58.09.42.04.63.28.7.68.06.32.14.63.22.95.08.32.27.59.49.83.24.27.45.4.82.14.3-.21.7-.17,1.04-.06.65.22,1.28.47,1.92.72.11.04.25.09.27.25-.02.02-.04.06-.05.05-1.07-.3-2.18-.36-3.25-.6-.16-.04-.31-.07-.47.02-.46.24-.93.47-1.39.71-.55.29-.95.71-.95,1.37,0,.39-.24.5-.53.58-1.29.35-2.58.68-3.87,1.03-8.3,2.21-16.59,4.42-24.89,6.64-2.01.54-3.98,1.22-5.84,2.19-.32.17-.63.35-.93.54-.37.23-.68.52-.82.94-.1.28-.22.46-.54.46-.2,0-.26.16-.28.33-.05.37.04.7.19,1.04.24.57.23.58-.03,1.15.72-.06,1.94-.44,2.75-.87-.16-.22-.42-.26-.63-.38-.11-.06-.17-.15-.2-.3-.12-.68-.11-.73.53-.47.44.17.75-.08,1.11-.14h.01c.04.29-.3.34-.33.64.32.31.89.27,1.24.67-1,.2-1.92.53-2.89.9.38.56.92.63,1.46.65.39.01.77-.1,1.13-.26.15-.07.32-.13.35-.31.04-.29.25-.35.48-.4.22-.05.32-.2.3-.43-.01-.19-.02-.39,0-.58,0-.13.13-.11.22-.11.12.15-.07.4.15.51.17.09.35.16.53.23.05.02.14,0,.18-.04.32-.29.63-.59.85-1.07-.46.02-.77.21-1.1.32-.2.06-.4.25-.63.06-.02-.1,0-.18.11-.22.34-.12.67-.27,1.01-.35.38-.1.52-.36.59-.69.09-.42.06-.84-.1-1.25-.14-.36-.29-.72-.46-1.14.59-.17,1.17-.14,1.74-.23.1-.02.19-.06.18-.18,0-.1-.07-.18-.17-.21-.06-.02-.13-.02-.19-.04-.06-.02-.12-.05-.18-.07.28-.29.58-.43.92-.12.28.25.57.23.91.12.34-.11.69-.17,1.04-.26.22-.06.43-.16.65-.21.38-.09.53-.61.98-.53.38.07.71-.08,1.04-.17,4.89-1.23,9.77-2.49,14.65-3.73,2.05-.52,4.1-1.03,6.15-1.54.44-.11.89-.2,1.34-.27.72-.11,1.43-.04,2.12.2,1.48.53,2.27,1.9,1.97,3.5-.15.8-.39,1.58-.61,2.36-.22.78-.47,1.56-.71,2.33-.18.56-.43,1.09-.76,1.58-.59.87-.81,1.87-.94,2.91.28-.03.39-.21.52-.34.7-.68,1.39-1.38,2.1-2.05.53-.5.81-1.09.82-1.81,0-.13-.02-.28.03-.39.2-.41.44-.79.1-1.25-.04-.05.02-.19.07-.26.09-.13.22-.24.32-.37.18-.23.11-.33-.16-.37-.1-.01-.18-.11-.14-.2.03-.08.11-.18.19-.2.35-.09.63.07.65.38.02.39,0,.78,0,1.17,0,.17-.05.33-.21.41-.24.12-.28.31-.26.56.09,1-.23,1.84-.93,2.57-.65.68-1.24,1.42-1.84,2.15-.36.43-.72.84-1.23,1.1-.37.2-.59.5-.66.91-.08.45-.17.89-.24,1.34-.01.09.02.21.13.23.32.07.65.16.92-.1.22-.21.33-.48.23-.8-.05-.19-.09-.38-.11-.57-.02-.19-.28-.47.02-.56.22-.07.22.27.29.43.09.21.14.43.23.64.12.31.2.62.05.94-.08.18-.02.33.16.39.24.09.35.27.43.49.26.77.52,1.54.78,2.31.1.3.12.57-.23.74-.12.06-.17.18.03.26.39.15.48.62.81.83.21.74.68,1.42.57,2.25-.04.28.31.37.3.56-.02.19-.24.36-.33.56-.05.11-.01.25,0,.38.02.36.04.71.07,1.07.04.51.35.8.87.8.27,0,.65-.42.66-.74,0-.09-.02-.2-.06-.28-.14-.38.21-.31.43-.46-.19-.13-.35-.25-.52-.36-.2-.13-.33-.31-.38-.54-.02-.09-.04-.2.06-.26.04-.03.12-.03.17-.01.25.08.49.18.74.25.17.05.33-.07.32-.25-.02-.45-.04-.91-.09-1.36-.03-.3.07-.5.35-.62.12-.05.24-.11.35-.17.15-.08.28,0,.32.11.24.61.45,1.22.67,1.83.06.16.01.32-.09.46-.08.1-.16.2-.24.31-.08.11-.15.25-.05.35.08.08.24.1.36.09.26-.02.51-.09.77-.13.42-.06.84-.12,1.26-.16.25-.02.33.06.35.34,0,.06,0,.13,0,.2-.06.39.13.6.47.73.09.03.16.1.24.15,0,.16-.13.22-.23.29-.1.06-.12.16-.08.24.04.08.13.15.21.19.23.09.45-.01.67-.07.49-.13.96-.14,1.44.03.15.05.34.07.38.26.04.2-.15.26-.28.34-.14.08-.3.14-.44.2-.74.33-.84.31-.24,1.07.14.18.29.35.41.55.21.33.45.43.81.22.13-.08.25,0,.27.17.02.13.03.26.02.39-.1.77.23,1.38.67,1.96.3-.1.25-.47.55-.58.65.37,1.32.76,1.95,1.12.25-.05.28-.24.36-.37.11-.18.13-.49.41-.47.3.02.64.49.61.77-.01.16-.04.32-.1.48-.06.18-.2.24-.38.16-.06-.03-.12-.05-.18-.08-.17-.07-.39-.25-.53-.1-.25.26-.38.6-.36.97,0,.13.12.14.21.17.31.08.68,0,.95.19.22.16.39.1.62.06.45-.07.91.02,1.35.11.08.02.19.09.21.17.02.07-.04.21-.1.24-.63.34-1.26.67-1.9,1-.11.06-.27-.1-.24-.21.02-.09.07-.18.08-.28.05-.29.41-.53.17-.88-.33-.01-.49.28-.73.43-.17.11-.34.19-.54.22-.27.04-.44-.07-.45-.35,0-.06.01-.13,0-.19q-.02-.55-.76-.52c.1.28.19.56.26.78,0,.18-.1.21-.19.22-.3.04-.49.17-.46.5.01.19.01.39.04.58.02.12.14.14.22.11.12-.04.24-.1.34-.19.33-.31.66-.18.98,0,.15.09.24.2.14.39-.04.08-.06.19-.05.28.03.3.23.47.53.43.58-.08,1.16-.18,1.74-.26.35-.05.71-.1,1.07-.13.29-.02.39.08.43.4.02.16.04.32-.08.46-.17.2-.51.26-.68.06-.19-.23-.38-.32-.67-.27-.86.15-1.72.29-2.57.44,0,.19.11.25.25.28.53.1,1.07.19,1.6.29,0,.21-.13.26-.24.33-.2.12-.41.24-.3.52.09.22.18.36.64.3.42-.06.84-.1,1.26-.15.32-.03.65-.07.97-.08.22-.01.35.13.38.35.09.65-.24,1.13-.63,1.57-.17.19-.42.15-.64.18-.49.07-.83.34-1.04.79-.05.12-.08.25,0,.4.43.12.87-.04,1.32-.1.31-.04.39.05.35.39-.02.16-.06.32-.06.48,0,.11.09.18.19.18.36-.03.71-.07,1.07-.1.19-.01.29.14.24.32-.04.16-.09.31-.16.46-.39.8-.91,1.52-1.66,2.01-.36.24-.55.53-.68.9-.04.12-.08.25-.14.36-.07.12-.17.19-.32.15-.25-.06-.51-.11-.76-.14-.04,0-.12.06-.13.12-.02.05,0,.12.03.18,0,.03.04.06.07.06.24.03.47.11.48.38,0,.24-.2.4-.36.56-.18.19-.36-.07-.58-.02-.14.57-.28,1.16-.42,1.73.24.14.36,0,.48-.08.64-.38,1.28-.77,1.92-1.16.22-.14.41-.15.62.02.43.34.89.64,1.28,1-.04.11-.05.18-.09.23-.96,1.01-2.14,1.56-3.52,1.71-.3.03-.57.02-.69-.35-.05-.14-.22-.13-.32-.02-.1.1-.08.26,0,.35.13.14.29.26.46.35.87.46.73.48.38,1.26-.21.48-.44.95-.66,1.42-.11.24-.24.47.03.7.05.04.04.19,0,.27-.16.39-.27.8-.52,1.13-.09-.02-.15-.02-.2-.04-.19-.09-.24-.46-.52-.32-.19.1-.09.35-.08.54.01.22-.03.46.11.69.3,0,.54-.12.72-.37.21-.29.29-.3.5-.18.32.18.39.5.46.82.01.07-.05.19-.11.25-.17.15-.35.27-.51.39-.01.22.1.34.2.47.17.23.34.26.56.06.18-.16.33-.17.45.09.2.44.41.87.63,1.34.22-.18.11-.38.12-.54,0-.16-.02-.32-.04-.49-.03-.26-.06-.52-.08-.77,0-.04.06-.11.1-.13.05-.02.14,0,.18.03.15.13.29.26.42.41,1.19,1.33,1.11.79.11,2.15-.11.15-.26.29-.38.42-.26,0-.35-.2-.46-.35-.26-.34-.49-.69-.75-1.02-.16-.2-.28-.6-.51-.52-.34.11-.3.53-.27.84.04.42.1.85.23,1.24.4,1.24.36,1.3,1.26.41.05-.05.1-.09.15-.12.13-.08.26-.06.31.09.06.15.1.31.11.47.02.48.11.9.69,1.02.1.02.2.17.25.28.12.28.31.38.6.32.05,0,.16.11.18.19.05.15-.05.25-.19.28-.47.13-.94.25-1.42.37-.19.05-.33-.02-.37-.21-.05-.22-.08-.45-.11-.67-.05-.52.04-.65-.74-.82-.1-.02-.2-.02-.28-.07-.11-.06-.22-.13-.31-.22-.34-.35-.34-.36-.64-.14-.25.19-.56.33-.72.63.15.26.41.17.61.22.22.05.45.1.67.12.99.08,1.01.1.86,1.04-.01.1-.01.2-.02.29-.08.65-.14,1.29.31,1.85.06.07.06.18,0,.27-.08.1-.17.05-.26.03-.06-.01-.12-.05-.18-.06-.68-.14-1.18-.48-1.47-1.13-.14-.31-.3-.64-.62-.86-.23.25-.29.54-.37.81-.1.36-.08.42.29.58.15.07.3.12.45.18.53.22.57.28.44.79-.13.5-.27,1-.42,1.5-.04.14-.16.18-.3.1-.24-.14-.4-.42-.74-.48-.27.38-.26.85-.4,1.25.21.2.32.03.44-.04.2-.11.38-.24.58-.36.07.08.15.17.22.25ZM91.59,78.04c-.28.02-.61.04-.93.07-.18.02-.3.12-.35.29-.31.96-.62,1.92-.92,2.88-.07.21.01.37.23.46.33.14.44.14.61-.06.45-.55.9-1.11,1.35-1.66.31-.38.54-.81.67-1.29.04-.15.05-.32.04-.48,0-.07-.11-.18-.18-.2-.16-.03-.32,0-.53,0ZM101.16,72.07c.79-.06,1.41-.22,2-.47.33-.14.63-.34.86-.61.54-.62.49-.68-.13-1.11-.08-.06-.16-.11-.23-.17-.92-.66-.6-.66-1.66-.04-.24.14-.38.34-.44.61-.13.56-.26,1.12-.41,1.8ZM107.87,64.22c-.53.04-.97.09-1.41.19-.21.05-.35.14-.41.36-.07.24-.06.54-.27.71-.26.21-.56.03-.84.04-.1,0-.2-.02-.29,0-.06,0-.14.03-.17.07-.21.24-.23.53-.22.82,0,.25.24.28.41.34.34.12.68.21,1.02.33.21.08.37.05.51-.14.35-.46.72-.92,1.07-1.38.27-.36.53-.74.63-1.34ZM84.33,41.35c0,.29.09.57.24.82.07.12.2.19.32.09.4-.33.79-.67,1.18-1.02.66-.59.55-.43.29-1.23-.06-.19-.13-.37-.21-.55-.09-.22-.26-.26-.48-.23-.17.02-.32.07-.42.22-.25.38-.51.75-.74,1.15-.13.22-.2.48-.19.76ZM91.13,45.44c-.59-.67-1.13-1.28-1.66-1.89-.13-.15-.27-.16-.4,0-.06.07-.11.16-.17.24-.74,1.15-.79.83.22,1.76.79.73.57.67,1.57.18.11-.06.21-.14.45-.29ZM102.72,59.31s0-.06,0-.1c0-.38-.25-.54-.57-.35-.67.4-1.22.95-1.63,1.61-.47.75-.38.91.47,1.02.24.03.44,0,.6-.21.3-.42.61-.83.91-1.25.15-.21.23-.46.24-.72ZM107.81,67.4c.28.05.57.1.85.14.18.02.33-.05.38-.23.2-.68.4-1.37.59-2.05.03-.11-.04-.2-.14-.21-.16-.01-.32.02-.48,0-.22-.01-.26-.13-.16-.32.05-.08.06-.18.1-.27.03-.07,0-.13-.08-.14-.06,0-.13,0-.18.03-.11.07-.18.19-.18.33-.02.46-.06.9-.5,1.19-.09.06-.14.22-.16.34-.06.38-.15.76-.04,1.19ZM90.08,41.4c.06-.02.12-.03.18-.05.45-.19.9-.38,1.34-.58.33-.15.39-.27.27-.61-.51-1.39-.25-1.44-1.41-.41-.24.22-.48.44-.72.65-.1.09-.19.21-.15.34.08.21.2.4.32.59.03.04.11.05.17.08ZM88.11,106.63c.21-.22.24-.41.28-.6.42-1.93.67-1.41-1.29-1.85-.03,0-.07,0-.1,0-.1.03-.18.08-.17.2.06.94.29,1.79,1.27,2.25ZM100.15,56.66c.82-.11,1.51-.21,2.19-.3.07-.34-.22-.5-.21-.76,0-.26-.03-.52-.05-.77-.05-.56-.28-.75-.93-.78-.06.42.06.83.09,1.25.02.38,0,.46-.38.54-.43.08-.58.34-.72.83ZM88.72,65.24c-.27.33-.31.69-.43,1.01-.09.24-.15.5-.18.76-.06.43.05.61.45.73.25.07.5.13.76.19.24.05.36-.06.34-.33-.06-.87-.4-1.62-.94-2.36ZM96.2,48.08c.06.42.12.84.17,1.25.03.26.2.3.42.28.1-.01.19-.02.29-.05.18-.04.29-.16.27-.35-.09-.71-.19-1.42-.3-2.12-.03-.22-.27-.28-.45-.15-.4.29-.43.7-.4,1.14ZM105.4,80.76c-.45-.48-.88-.96-1.32-1.42-.06-.06-.17-.1-.25-.09-.12.01-.13.13-.11.23.09.67.17,1.34.27,2.01.02.14-.02.33.24.41.41-.31.8-.67,1.17-1.13ZM102.46,73.55c.03.24.03.44.07.63.07.35.15.69.23,1.04,0,.03.02.06.04.09.07.07.16.13.25.06.3-.24.71-.42.83-.79.11-.31-.22-.58-.35-.86-.13-.26-.28-.51-.42-.76-.06-.11-.13-.23-.29-.2-.14.03-.21.16-.25.27-.06.18-.08.37-.11.52ZM56.35,36.1c.15-.36.29-.69.41-1.02.12-.32.07-.4-.28-.6-.19-.11-.34-.05-.34.14.01.39.02.78.06,1.16.02.22.01.37-.23.44-.07.02-.16.13-.17.2-.05.37-.13.74-.08,1.14.79-.41,1.09-.64,1.49-1.16-.25-.16-.59-.04-.86-.3ZM101.73,90.51c0-.09,0-.13-.01-.16-.03-.09-.06-.19-.12-.25-.08-.08-.18-.04-.26.02-.46.36-.92.71-1.36,1.08-.19.16-.18.58-.01.8.13.17.5.23.71.09.58-.4,1.01-.9,1.06-1.58ZM92.08,44.01s.02,0,.03,0c0,.29-.01.58,0,.88.03.42.75,1.12,1.03.95.37-.22.14-.64.1-.97-.02-.19-.11-.37-.19-.55-.19-.41-.38-.82-.58-1.23-.06-.12-.16-.24-.28-.17-.1.06-.19.21-.19.32,0,.26.05.51.08.77ZM91.34,100.08c.25.42.56.6.83.82.26.22.48.51.88.61.13-.52.26-1.01.38-1.51.06-.24-.07-.39-.3-.34-.56.12-1.12.26-1.79.42ZM95.77,82.43c.24-.05.59.1.71-.16.16-.32-.23-.47-.37-.7-.02-.03-.04-.05-.06-.07-.41-.39-.67-.94-1.2-1.2-.11-.05.05,1.41.24,1.92.05.15.17.19.3.2.13.01.26,0,.39,0ZM99.26,76.14s0,0-.01,0c0,.19,0,.39.04.58.01.07.14.19.18.18.3-.08.66-.1.76-.49.05-.19.1-.37.16-.56.08-.3.23-.59.19-.92-.42-.11-.69.23-1.03.37-.19.08-.29.25-.28.46,0,.13,0,.26,0,.39ZM102.5,61.61c0,.45.21.77.37,1.12.08.17.23.22.4.15.41-.18.82-.36,1.23-.56.15-.07.38-.08.39-.37-.77-.19-1.56-.28-2.38-.34ZM100.99,49.03s-.08-.12-.13-.13c-.68-.06-1.34.12-2,.19-.13.01-.2.3-.09.41.18.18.37.35.57.51.1.09.24.12.36.04.43-.28.86-.56,1.28-.85.03-.02.01-.12.02-.17ZM50.83,44.69c-.25-.04-.42.06-.51.31-.12.33-.26.65-.38.98-.02.04.03.13.07.16.04.03.12.04.17.02.6-.3,1.2-.61,1.79-.93.07-.04.12-.17.11-.24-.01-.07-.11-.17-.19-.19-.35-.06-.7-.08-1.06-.12ZM94.86,57.08c-.37-.03-.44,0-.59.35-.14.35-.4.67-.35,1.08.43.16.69-.23,1.03-.34.06-.02.12-.06.17-.1.31-.22.74-.26.96-.62-.28-.41-.76-.23-1.13-.37-.03-.01-.06,0-.1-.01ZM51.78,35.19c.09.67.16,1.18.23,1.68.02.13.04.25.08.37.05.17.28.28.47.23.13-.03.22-.12.23-.27.01-.29-.01-.58.02-.86.05-.45-.14-.73-.54-.91-.11-.05-.22-.11-.49-.25ZM97.69,53.25c-.06.04-.14.06-.14.1-.01.05.01.13.05.17.38.44.75.87,1.14,1.3.18.2.31.16.41-.09.39-1,.35-.82-.47-1.14-.33-.13-.66-.23-.99-.34ZM91.05,95.31c-.33.55-.36,1.09-.44,1.61,0,.04.06.12.11.14.2.09.9.07,1.32-.04-.3-.57-.57-1.14-.98-1.72ZM87.75,41.72c.03.2.06.39.09.58.17.99.41,1.11,1.31.61.09-.05.13-.16.05-.24-.38-.43-.75-.87-1.22-1.21-.1-.07-.18,0-.22.1-.02.05-.01.12-.02.18ZM96.73,94.25c-.32.08-.7.18-1.07.27-.13.03-.26.09-.26.24,0,.22-.04.49.18.62.28.17.61.24.92.15.23-.07.25-.35.32-.55.05-.15.12-.3.15-.46.02-.12,0-.26-.24-.26ZM88.09,51.21q-.36.99.28,1.71c.13.14.26.29.39.43.09.1.22.2.33.14.11-.06.1-.22.04-.34-.19-.41-.36-.83-.57-1.22-.13-.25-.16-.57-.46-.71ZM101.39,82.93c.06-.03.11-.07.17-.1-.32-.73-.64-1.46-.97-2.18-.07-.14-.2-.11-.31,0-.16.17-.29.36-.12.59.41.57.83,1.13,1.24,1.69ZM53.49,52.09c.34.08.66-.03.97-.09.4-.07.85.05,1.2-.26-.33-.39-.81-.24-1.22-.36-.09-.03-.19-.03-.29-.04-.22-.04-.38.05-.49.23-.08.13-.22.25-.17.52ZM105.09,76.9c.21-.35.44-.69.64-1.05.26-.44.23-.49-.28-.65-.09-.03-.18-.06-.28-.08-.16-.04-.27.05-.28.18-.02.51-.1,1.02.05,1.52,0,.02.05.04.13.09ZM50.11,40.9c.05-.24-.09-.48-.29-.7-.27-.31-.37-.31-.54.03-.43.84-.37.99.51,1.31.15.06.24-.04.27-.18.03-.12.03-.25.05-.45ZM99.05,88.26c.51.11,1.03.05,1.55.05.14,0,.25-.07.25-.23,0-.13-.04-.26-.18-.32-.21-.08-.43-.16-.64-.22q-.83-.25-.98.72ZM100.81,67.18c-1.12.4-.91.54-.82,1.28.03.24.02.51.24.7.34-.5.46-.91.58-1.98ZM97.51,57.87c.23-.91.23-.91-.1-1.34-.08-.1-.18-.23-.28-.25-.19-.02-.23.18-.29.32q-.34.8.67,1.26ZM89.37,50.1c.32.34.69.38,1.01.51.66.27.73.27.8-.53,0-.06-.04-.12-.07-.23-.56-.03-1.1.1-1.73.25ZM103.84,55.8c.27,0,.33-.23.51-.31.13-.06.17-.19.15-.32-.06-.54-.11-1.08-.18-1.62-.02-.13-.1-.24-.25-.24-.14,0-.26.09-.26.22-.03.76-.09,1.51.03,2.27ZM55.15,37.89c0-.54-.03-.98-.34-1.35-.07-.08-.18-.08-.24,0-.36.48,0,1.38.43,1.71.06.05.13,0,.13-.06,0-.13.01-.25.01-.3ZM90.65,37.82c-.26-.14-.46-.11-.65-.09-.08,0-.21.07-.23.12-.06.28-.11.56-.13.85-.01.13-.1.32.2.42.26-.41.57-.8.81-1.31ZM106.3,84.64c-.09-.31-.19-.64-.41-.92-.1-.13-.28-.13-.44-.07-.15.05-.17.18-.15.3.04.28.09.57.16.84.02.06.16.14.22.13.21-.05.44-.06.62-.28ZM95.75,72.11c.43.09.87,0,1.3-.02.13,0,.19-.18.12-.29-.38-.6-.54-.63-1.09-.15-.13.12-.32.19-.34.46ZM93.59,67.92c.29.48.29.48.74.71.1-.34.2-.67.29-1.01.03-.13-.11-.24-.24-.19-.28.13-.58.23-.79.48ZM106.41,72.08c-.03-.26-.06-.54-.1-.83-.02-.13-.07-.26-.21-.26-.08,0-.18.07-.24.14-.33.41-.29.9.12,1.27.05.05.18.04.26.03.05,0,.1-.07.13-.13.03-.05.03-.12.04-.21ZM106.37,74.46c.02-.07.06-.12.06-.18,0-.1-.02-.19-.05-.29-.08-.37-.23-.47-.62-.41-.18.02-.29.11-.31.31-.02.18.02.32.19.4.23.11.46.22.73.17ZM99.19,102.45c.29.48.29.47.74.72.04-.49,0-.95-.11-1.53-.34.27-.52.51-.63.81ZM106.92,62.42c-.31-.21-.56-.22-.82-.24-.2-.02-.29.1-.3.28-.01.16-.01.32,0,.48.02.15.13.22.27.15.31-.16.6-.35.85-.67ZM99.2,64.49c.37.01.46-.08.41-.39-.02-.12-.06-.25-.12-.35-.1-.15-.41-.16-.51-.05-.2.23-.31.6-.2.69.02.02.05.04.08.05.13.02.25.04.34.05ZM109.37,61.82c-.3-.13-.57-.02-.84.06-.13.04-.21.14-.18.3.03.19.06.41.23.52.12.08.23-.06.31-.15.17-.23.42-.4.48-.72ZM75.48,43.36c-.22.54-.46.87-.52,1.34.37-.07.59-.24.82-.41.12-.09.12-.22.05-.35-.07-.14-.16-.27-.35-.59ZM102.06,64.59c.19.07.28.12.37.14.46.1.49.08.66-.31.04-.09.08-.18.1-.27.01-.05,0-.13-.04-.17-.04-.04-.13-.07-.17-.05-.32.16-.62.34-.93.66ZM100.44,97.54c-.45-.24-.78-.32-1.12-.3-.19.02-.19.24-.2.4-.01.19.13.21.26.18.3-.07.6-.16,1.06-.28ZM92.75,61.63c.3.26.62.33.97.26.13-.03.18-.16.16-.3-.02-.1-.09-.16-.2-.14-.31.06-.61.12-.92.18ZM104.74,93.33c-.26.56-.46,1.12-.43,1.74.32-.54.46-1.12.43-1.74ZM107.05,69.25c-.08.04-.15.06-.2.1-.25.26-.27.46-.09.79.05.1.14.12.22.03.13-.14.26-.29.36-.45.04-.07.04-.21,0-.26-.07-.09-.2-.15-.29-.21ZM98.5,52.09c.03-.33,0-.58-.24-.74-.13-.08-.31-.18-.44-.06-.18.16.01.28.12.38.16.15.28.36.57.42ZM102.52,52.32l.17-.04c-.02-.27-.02-.55-.07-.82-.03-.16-.17-.14-.3-.08-.28.16-.33.3-.17.52.11.15.25.28.37.42ZM97.99,76.85c.17-.05.33-.08.46-.15.06-.03.08-.17.08-.26,0-.11-.1-.18-.19-.17-.22.02-.44.07-.66.12-.04,0-.1.08-.1.13,0,.06.03.14.07.17.1.07.22.11.34.17ZM94.14,89.26c.3-.2.31-.43.34-.64,0-.07-.07-.2-.12-.21-.11-.02-.25,0-.36.03-.1.04-.09.16-.06.25.06.18.13.35.21.57ZM91.96,41.56c.02-.07,0-.13-.08-.13-.43.02-.79.2-1.11.48-.03.03-.03.12,0,.17.05.13.17.2.3.15.33-.13.62-.33.87-.57.02-.02.02-.06.02-.09Z"/>
        <path class="cls-1" d="M153.68,63.73c.49-.05.97-.09,1.35.34.13.14.27.26.35.45.34.87,1.09,1.35,1.84,1.81.38.23.82.15,1.23.02.31-.1.6-.25.86-.45.61-.45,1.3-.63,2.03-.38.62.21,1.15.07,1.66-.27.16-.11.33-.21.49-.32.33-.25.7-.34,1.1-.26.49.1.97.04,1.44-.12.24-.08.51-.11.77-.14.52-.06,1.05-.03,1.55-.15.5-.12.98-.33,1.5-.37.37-.03.69-.19.95-.46.22-.23.39-.55.76-.57.43-.02.84.06,1.2.37-.09.21-.18.42-.27.62-.1.21-.17.43-.1.66.14.45-.05.9.02,1.35.02.12,0,.29-.08.37-.45.47-.46,1.06-.47,1.64-.01.55-.19,1.01-.54,1.42-.35.4-.61.84-.78,1.34-.06.18-.14.38-.27.51-.83.9-1.17,2.1-1.85,3.09-.27.39-.47.85-.53,1.35-.04.39-.26.74-.48,1.06-1.18,1.68-2.31,3.39-3.71,4.9-.51.55-1.02,1.1-1.53,1.64-.7.74-1.5,1.35-2.4,1.82-.55.29-1.08.6-1.61.91-.68.4-1.28.88-1.79,1.49-.27.32-.59.61-.9.89-.88.77-1.71,1.59-2.49,2.47-.6.68-1.18,1.36-1.6,2.18-.29.56-.73,1-1.37,1.17-.25.07-.33.23-.44.44-.19.37-.41.7-.9.77-.47.07-.74.38-.68.89.03.31-.1.59-.29.81-.28.33-.41.71-.58,1.09-.2.46-.43.91-.62,1.39-.07.19-.19.34-.4.4-.25.07-.35.25-.4.49-.14.63-.36,1.24-.6,1.84-.13.33-.22.68-.22,1.04,0,.35.07.65.43.8.46.19.6.76,1.08.94.11.04.11.24.06.36-.06.15-.15.28-.24.42-.23.38-.3.81-.08,1.19.19.33.19.61.02.91-.18.31-.21.63-.05.93.47.88.65,1.86.9,2.8.06.21.12.35.29.46.24.15.46.36.71.48.68.33.95.84.74,1.58-.03.12.03.29-.03.38-.35.48-.18,1-.08,1.49.06.33.12.63.05.96-.02.12.04.26.02.38-.06.38.3.68.11,1.12-.14.32,0,.75,0,1.13,0,.29-.03.58.07.87.09.25.08.5.07.76,0,.28.02.66.19.82.38.35.27.68.13,1.04-.14.35-.33.67-.3,1.08.02.26-.19.48-.37.67-.57.62-1.16,1.21-1.6,1.93-.17.27-.46.45-.75.62-.28.16-.58.29-.8.54-.06.07-.16.16-.24.15-.66-.07-1.12.49-1.75.51-1.02.65-2.3.92-2.91,2.14-.17.34-.49.6-.84.83-.68-.69-1.5-.88-2.41-.9-1.24-.03-2.45-.3-3.61-.77-1.35-.56-2.49-1.41-3.36-2.59-.5-.68-.96-1.39-1.42-2.1-.53-.83-.85-1.75-1.01-2.73-.63-3.88-1.38-7.75-2.11-11.61-.34-1.79-.61-3.59-1.06-5.36-.11-.44-.18-.89-.26-1.34-.08-.45-.09-.91.03-1.36.32-1.17.29-2.39.4-3.58.08-.84.15-1.69.14-2.53,0-.84-.09-1.69-.17-2.53-.16-1.82-.33-3.63-.5-5.44-.12-1.33-.22-2.66-.39-3.98-.16-1.25,0-2.46.22-3.68.56-3.22.81-6.46.5-9.72-.05-.56,0-1.1.14-1.64.55-2.25.83-4.54.87-6.86.07-3.92-.36-7.8-1.08-11.64-.24-1.31-.53-2.61-.8-3.92-.35-1.66-.51-3.35-.62-5.03-.11-1.62-.21-3.25-.43-4.86-.09-.68-.22-1.35-.38-2.01-.23-.99-.69-1.88-1.33-2.69-1.01-1.28-2.14-2.45-3.2-3.68-.23-.27-.46-.28-.78-.21-.43.1-.5.07-.54-.29-.09-.76-.47-1.33-1.02-1.82-.29-.26-.54-.57-.82-.84-.48-.47-.41-.54-.15-.99.63-1.07,1.04-2.24,1.32-3.45.04-.19.05-.38.07-.58,0-.11-.09-.18-.18-.19-.19-.01-.39,0-.58.02-.91.08-1.81.17-2.72.26-.83.09-1.62-.03-2.4-.3-.61-.22-1.23-.43-1.84-.64-1.89-.66-3.77-.58-5.63.14-.36.14-.75.26-1.07.47-.44.28-.86.22-1.3.07-.87-.31-1.64-.79-2.3-1.44-.2-.19-.35-.39-.27-.68.11-.45-.1-.89-.06-1.38.16.04.29.05.41.1.56.26,1.09.58,1.51,1.05.66.73,1.44.7,2.21.3.35-.19.65-.43.89-.74.43-.56.6-1.15.24-1.81-.06-.11-.11-.23-.16-.35-.26-.63-.17-1.21.22-1.75.6-.83,1.45-1.29,2.41-1.54.32-.08.6-.19.89-.32.53-.23,1.14-.26,1.7-.05.4.14.78.33,1.16.51.37.17.69.36.63.86-.02.21.17.35.36.42.15.06.32.06.48.09.26.05.57.02.76.15.65.46,1.37.35,2.07.35.43,0,.66.19.76.6.03.13.06.25.11.37.07.16.19.26.37.26.19,0,.4,0,.58-.05.59-.18,1.15-.11,1.73.04.35.09.7.12,1.05.2.35.08.69.18,1.03.28.39.13.71.38,1.17.38.35,0,.73.24,1.12.27.37.03.7.15,1,.35.66.45,1.28.37,1.88-.11.23-.18.45-.37.69-.55.15-.11.29-.28.52-.21.19.06.32-.03.39-.18.11-.26.33-.37.54-.23.42.27.82.07,1.07-.16.23-.21.37-.18.57-.08.33.16.66.26,1.04.15.17-.05.24.07.22.21-.07.48.38.54.62.76.03.02.15,0,.17-.04.25-.41.51-.26.78-.02.18.16.42.19.65.14.33-.07.66-.05.99-.06.63-.03,1.3-.03,1.88-.4.14-.09.25.01.32.12.05.08.07.18.1.27.33.95.66,1.9,1.01,2.85.27.73.26,1.43,0,2.18-.32.88-.67,1.76-.77,2.71-.02.16-.08.32-.14.46-.12.27-.31.33-.54.18-.68-.46-1.23-1.06-1.77-1.67-.2-.22-.32-.5-.34-.8-.02-.37-.16-.7-.4-.97-.43-.5-.7-1.08-.85-1.73-.57.36-.62.5-.29.96.24.33.32.67.38,1.07.09.6.41,1.16.8,1.64.29.35.61.68.93,1,.22.22.4.45.33.77-.08.36.09.63.27.91.34.53.61,1.07.69,1.7.02.16.09.31.16.46.54,1.04,1.09,2.07,1.63,3.11.23.43.46.86.66,1.31.45,1,.48,1.04,1.35,1.79-.12.18-.47.18-.41.53.07.38.09.77.13,1.16.07.68.46,1.12,1.01,1.47.25.16.5.3.74.47.73.48,1.31,1.06,1.35,2,0,.03.02.06.03.09.48,1.12.57,2.31.62,3.51.03.94.1,1.88.4,2.79.11.33.25.53.63.65.38.12.78.33.93.79.06.18.22.23.37.27.48.13.77.47.98.88.53,1.02.93,2.08,1.04,3.23.08.83.39,1.56.89,2.21.21.27.15.63.39.87.03-.02.06-.04.08-.06.13-.2-.21-.59.2-.63.3-.03.35.33.46.55.07.15.14.29.23.43.07.11.21.2.33.13.38-.2.62-.02.83.26.1.13.18.27.36.29.65.07,1.06.49,1.37,1,.32.52.73.89,1.23,1.21.32.2.65.44.72.88.03.2.23.28.38.4.28.21.48.52.73.78.15.16.46-.08.59.21.08.18.19.35.32.48.24.23.23.52.25.81.03.33-.13.57-.42.71-.26.13-.55.2-.81.33-.13.07-.27.19-.13.38-.05-.02-.11-.04-.16-.05-.09,0-.12.05-.08.11,0,.02.06.03.08.02.05-.03.1-.07.15-.1Z"/>
        <path class="cls-1" d="M114.17,103.55c0,1.34.12,2.53.31,3.72.41,2.52,1.18,4.93,2.15,7.28.64,1.56,1.33,3.11,2.03,4.65.23.5.3.98.21,1.51-.34,2.26-.41,4.53-.25,6.82.09,1.2.14,2.4.2,3.61.02.46.09.91.3,1.32.22.42.53.72,1.02.83.83.19,1.66.33,2.51.34,1.04.01,2.09.05,3.12-.03,2.05-.15,4.1-.07,6.15-.09.72,0,1.43,0,2.14.08.75.09,1.5.05,2.24-.03.32-.04.65-.06,1.05-.1-.26.67-.66,1.06-1.31,1.17-.23.04-.38.09-.29.35.02.06.06.14.04.19-.29.72-.15,1.3.49,1.77.11.08.18.3.16.44-.07.48.13.9.25,1.32.19.65.41,1.28.33,1.98.25,0,.15-.19.22-.27.09-.1-.07-.09.06-.07.05,0,.13.06.14.1.03.12.04.25.03.38-.04.45-.13.9.08,1.34.09.18.02.38-.03.57-.1.38-.19.76-.3,1.13-.07.22-.04.37.17.49.13.07.14.21.09.34-.23.74-.61,1.37-1.36,1.69-.83.36-1.68.69-2.52,1.04-.54.22-1.08.42-1.59.72-.55.33-.72.9-1.05,1.37-.12.17.13.56.43.65.14.04.29-.07.28.2-.07,1.47-.44,2.89-.76,4.32-.1.44-.3.86-.48,1.27-.2.43-.61.69-.98.92-.92.57-1.55,1.37-1.95,2.35-.51,1.25-1.28,2.33-2.06,3.41-.27.37-.63.66-1,.93-.56.41-1.01.91-1.43,1.46-1.23,1.58-2.74,2.87-4.43,3.94-.7.44-1.44.74-2.31.6-.33-.06-.64,0-.87.31-.11.15.02.45-.24.47-.18.02-.38-.08-.56-.11-.13-.02-.26-.04-.39-.05-.25-.03-.45.03-.54.3-.11.32-.36.34-.63.28-.25-.06-.51-.13-.74-.24-.4-.17-.82-.2-1.24-.26-.16-.02-.37-.05-.47.04-.49.39-1,.2-1.49.07-.73-.19-1.37-.03-1.87.49-.26.26-.49.37-.85.36-.47-.02-.95.28-1.43.02-.53.27-1.21.17-1.63.71-.25.33-.57.49-1.02.44-.46-.06-.84-.23-1.01-.64-.13-.29-.35-.42-.57-.47-.37-.09-.75-.06-.7-.63.01-.11-.22-.22-.4-.22-.18,0-.3.1-.34.28-.02.09-.05.17-.08.27-.3-.29-.31-.58-.09-.89.2-.29.14-.58-.03-.82-.39-.55-.65-1.18-1.06-1.72-.24-.31-.09-.62.3-.71.51-.12.54-.16.61-.59.15-.94,0-1.82-.54-2.61-1.1-1.63-1.92-3.39-2.45-5.29-.21-.76-.77-1.35-1.08-2.07-.03-.07-.14-.14-.22-.17-.42-.16-.68-.49-.94-.82-.73-.93-1.31-1.94-1.71-3.05-.12-.33-.29-.66-.16-1.04.03-.08.02-.21-.02-.27-.6-.78-.46-1.73-.6-2.62-.02-.1,0-.2,0-.29.04-.73-.12-1.42-.51-2.05-.28-.45-.41-.94-.32-1.49.08-.51-.07-1.03-.04-1.55.02-.35-.09-.68.14-1.02.12-.18.04-.44-.03-.66-.11-.38-.3-.72-.52-1.04-1.11-1.57-2.07-3.23-2.79-5.02-.13-.32-.29-.64-.44-.97,1.1-.21,1.17-.24,1.99-1.13.88-.94,1.54-2.02,2.05-3.19.36-.83.66-1.69.99-2.54.08-.21.16-.42.26-.69.33.08.65.13.94.24.29.11.49.04.69-.17.7-.72,1.42-1.43,2.12-2.16,3.51-3.63,6.82-7.44,10.09-11.29,2.53-2.97,5.03-5.98,7.55-8.97.2-.24.37-.53.79-.76Z"/>
        <path class="cls-1" d="M157.54,126.25c.56-.03,1.01-.09,1.35-.44.15-.15.3-.11.51-.05.26.08.59-.05.77-.26.31-.37.77-.22,1.13-.4.09-.05.22.19.4-.09.33-.5.77-.95,1.45-.96.17,0,.19-.06.25-.18.18-.34.38-.67.59-.99.1-.15.18-.06.27.07.18.27.28.27.38.05.07-.15.18-.31.16-.45-.06-.42-.02-.76.41-.99.17-.09.21-.32.12-.52-.05-.12-.13-.23-.14-.36-.02-.19-.03-.42.16-.53.25-.14.31.11.42.26.11.15.29.22.36,0,.08-.25.29-.41.45-.48.39-.16.64-.37.77-.78.14-.46.19-.89-.04-1.32-.01-.02,0-.06,0-.08.25-.3.51-.58.74-.89.07-.09.07-.3.19-.28.19.03.22.2.17.38,0,.03-.02.08,0,.09.16.19.35.36.47.57.12.22.13.51.37.66.35.23.46.62.59.98.23.65.36,1.31.41,2,.06.88.16,1.75.66,2.52.11.18.14.37.1.56-.08.31-.17.63-.29.93-.07.18-.18.36-.41.36-.24,0-.31-.2-.38-.38-.08-.21-.11-.44-.2-.64-.03-.07-.15-.13-.23-.13-.08,0-.17.08-.22.15-.05.08-.1.19-.08.27.11.5-.06,1.05.33,1.49.13.15.15.37.04.55-.21.35-.15.81-.55,1.09-.23.17-.3.49-.31.8,0,.23-.03.46,0,.68.1.93-.12,1.81-.43,2.67-.27.73-.59,1.45-.8,2.2-.35,1.22-.86,2.38-1.13,3.62-.09.41-.27.8-.44,1.19-.43.99-.76,2-.93,3.07-.1.64-.36,1.25-.41,1.9-.01.15-.1.31-.17.45-.31.64-.6,1.3-.8,1.99-.15.51-.48.84-1.01.95-.22.05-.44.11-.67.14-.56.06-1.08.24-1.55.55-.08.05-.17.1-.26.14-.5.27-1,.28-1.46-.09-.29-.23-.57-.41-.96-.43-.15,0-.31-.1-.44-.18-.51-.32-.89-.7-1.03-1.34-.12-.56-.5-1.05-.5-1.67,0-.22-.07-.44.03-.67.19-.43.07-.83-.15-1.21-.11-.2-.23-.39-.35-.59-.44-.73-.49-1.54-.41-2.36.02-.19.11-.37.19-.55.05-.12.2-.22.2-.32,0-.51.19-.85.71-1.01.22-.07.29-.34.37-.56.22-.62.51-1.19.89-1.72.25-.35.42-.72.24-1.18-.05-.13,0-.32.04-.47.05-.17.03-.32-.08-.46-.27-.31-.34-.69-.4-1.08-.04-.25-.1-.51-.2-.75-.28-.68-.32-1.39-.4-2.1-.05-.44.04-.85.34-1.18.53-.62.79-1.33.81-2.22ZM163.54,124.35c0-.11-.06-.17-.16-.15-.04,0-.1.08-.09.12,0,.05.07.09.11.12.07.04.12,0,.14-.08ZM164.38,123.36s-.04-.05-.06-.07c-.02.02-.04.04-.07.07.03.02.06.05.09.07.01-.02.02-.04.03-.07Z"/>
        <path class="cls-1" d="M98.17,24.26c-.04.41-.06.7-.09.99-.05.61-.1,1.23-.16,1.84-.09.87.2,1.6.8,2.21.78.79,1.45,1.66,2.15,2.51.32.39.55.78.57,1.31.03.7.32,1.32.64,1.93.13.26.27.52.43.76.13.21.07.36-.09.51-.96.85-2.03,1.5-3.29,1.81-1.31.32-2.58.16-3.83-.26-.32-.11-.45-.3-.45-.65.02-1.79,0-3.57.01-5.36,0-.95.22-1.87.44-2.78.17-.66.36-1.31.55-1.97.3-1.02,1.19-2.13,2.31-2.85Z"/>
        <path class="cls-1" d="M84.99,124.04c-.27-.47-.32-.96-.38-1.44-.17-1.19-.36-2.38-.11-3.58.18-.9.44-1.18,1.35-1.2.72-.01,1.42-.14,2.11-.31.03,0,.12.05.12.08,0,.06-.02.14-.06.17-.11.07-.22.13-.35.16-.31.08-.5.29-.64.56-.19.38-.39.75-.71,1.04-.18.16-.26.37-.27.61-.02.36-.11.7-.27,1.03-.08.17-.14.37-.15.56-.05.81-.38,1.55-.63,2.33Z"/>
        <path class="cls-1" d="M111.02,50.9c-.13-.2-.02-.34.02-.49.25-.8.55-1.59.76-2.41.12-.48.38-.62.83-.61.23,0,.45-.03.68-.04.71-.03.79.09.52.78-.38.97-1.1,1.66-1.91,2.28-.27.21-.54.45-.9.49Z"/>
        <path class="cls-1" d="M113.23,77.06c.03.07.06.1.06.13-.15.6-.18,1.28-.57,1.74-.35.4-1,.41-1.52.6-.2.07-.43.27-.64.1-.25-.21-.38-.52-.46-.83-.04-.15.1-.23.21-.29.92-.48,1.84-.96,2.76-1.44.03-.01.06,0,.15,0Z"/>
        <path class="cls-1" d="M97.34,39.66c.62.7,1.22,1.38,1.8,2.04-.07.1-.1.17-.15.21q-1.1.69-2.04-.2c-.81-.77-.73-.57-.15-1.49.12-.19.2-.41.53-.56Z"/>
        <path class="cls-1" d="M97.79,107.62c.02-.26.11-.33.26-.34.03,0,.07,0,.1,0,1.94.47,1.69-.02,1.24,1.89-.14.59-.39.66-.85.28-.18-.15-.31-.33-.41-.54-.21-.45-.31-.92-.33-1.3Z"/>
        <path class="cls-1" d="M116.06,78.59c.64.93,1.06,1.7,1.04,2.65,0,.19-.13.3-.32.25-.37-.09-.74-.2-1.11-.31-.23-.07-.27-.23-.2-.45.19-.65.36-1.3.59-2.13Z"/>
        <path class="cls-1" d="M112.92,73.76c-.13,0-.26.03-.39.02-.09,0-.21-.02-.25-.08-.11-.15.04-.23.13-.31.23-.18.44-.4.7-.53.32-.16.5.23.79.28.07.01.13.02.16-.05.02-.05.03-.12.04-.18,0-.03-.02-.06-.04-.09-.07-.18-.32-.27-.26-.49.06-.25.34-.28.52-.4.1-.08.23-.14.35-.17.1-.02.21.06.2.16-.04.39-.15.76-.31,1.12-.06.12-.17.05-.25.07-.09.02-.25.05-.25.08,0,.61-.46.51-.83.56-.1.01-.19.02-.29.02,0,0,0,0,0,0Z"/>
        <path class="cls-1" d="M112.97,85.8c-.73-.01-.73-.01-.87-.74-.08-.41-.15-.82-.21-1.24,0-.04.04-.12.08-.14.05-.02.14-.01.17.02.39.42.79.85,1.16,1.29.17.2.55.37.38.69-.13.24-.48.08-.71.11Z"/>
        <path class="cls-1" d="M104.08,45.19c-.74-.47-1.02-1.18-1.19-1.94-.06-.28.17-.39.38-.5.36-.19.49-.15.54.21.1.74.19,1.48.28,2.22Z"/>
        <path class="cls-1" d="M106.06,49.3c.64.13,1.2.37,1.76.58.14.05.19.18.14.32-.11.3-.23.59-.35.91-.33-.03-.44-.29-.6-.46-.2-.21-.39-.43-.57-.65-.15-.19-.37-.34-.38-.69Z"/>
        <path class="cls-1" d="M122.02,50.12c.14.43.12.91.14,1.39.02.53-.26.75-.77.61-.06-.01-.12-.05-.15-.1-.26-.35-.17-.79.21-1.04.05-.04.12-.06.17-.1.07-.05.19-.11.12-.2-.04-.06-.16-.07-.25-.1-.09-.03-.24-.03-.26-.08-.05-.14.06-.23.2-.27.18-.04.33-.2.6-.11Z"/>
        <path class="cls-1" d="M108.36,38.15c.04.65.08,1.16.1,1.67.01.3-.09.4-.4.42-.13.01-.26.02-.38,0-.21-.04-.38-.33-.28-.53.08-.17.19-.33.31-.48.19-.23.18-.38-.13-.48-.09-.03-.11-.14-.03-.22.02-.02.05-.04.08-.05.2-.09.41-.19.73-.33Z"/>
        <path class="cls-1" d="M122.17,75.07s0,.11,0,.21c0,.49-.06.54-.56.53-.2,0-.4,0-.46-.24-.06-.24-.15-.5.09-.71.07-.06.16-.1.24-.16.25-.2.24-.22-.11-.38-.05-.03-.12-.06-.15-.1-.02-.03.02-.13.05-.15.14-.08.29-.14.44-.2.25-.09.36-.02.39.25.03.29.04.58.07.94Z"/>
        <path class="cls-1" d="M112.12,60.33c-.04-.33.17-.51.33-.7.05-.06.17-.12.25-.11.54.07,1.09.09,1.61.27.05.02.1.09.1.14,0,.05-.07.13-.11.14-.72.13-1.43.25-2.17.26Z"/>
        <path class="cls-1" d="M84.46,127.28c-.06-.46-.09-.86-.16-1.25-.08-.42-.03-.77.35-1.03.1-.07.14-.22.34-.23-.01.85-.05,1.69-.52,2.5Z"/>
        <path class="cls-1" d="M111.21,41.83c-.36-.02-.47-.21-.63-.31-.64-.42-.94-.96-.58-1.79.61.57.88,1.29,1.2,2.1Z"/>
        <path class="cls-1" d="M113.4,52.94c.11-.25.17-.4.24-.54.09-.18.2-.32.44-.26.21.05.35.16.36.38,0,.13.01.26,0,.38-.01.09-.08.19-.19.17-.25-.03-.49-.08-.85-.14Z"/>
        <path class="cls-1" d="M112.75,68.46c-.03.14-.12.23-.23.31-.42.29-.74.39-.76.24-.05-.29.21-.46.31-.68.04-.09.11-.16.16-.24.15-.19.32-.15.42.11.04.09.06.18.09.27Z"/>
        <path class="cls-1" d="M113.68,63.94c-.14-.03-.24-.03-.33-.05-.1-.02-.18-.08-.18-.19,0-.06.03-.13.07-.16.13-.1.26-.19.41-.26.19-.08.35-.38.58-.17.16.15-.02.36-.07.54-.07.27-.27.34-.48.3Z"/>
        <path class="cls-1" d="M116.91,64.39c-.31-.05-.56-.09-.81-.14-.04,0-.11-.08-.1-.12,0-.05.06-.13.11-.14.32-.05.64-.08.96-.11.1,0,.19.06.18.17-.01.09-.06.19-.12.25-.06.06-.17.06-.21.08Z"/>
        <path class="cls-1" d="M104.58,49.63c-.34-.36-.56-.59-.78-.83-.03-.04-.03-.13,0-.17.03-.04.1-.09.15-.09.54.05.61.17.63,1.09Z"/>
        <path class="cls-1" d="M57.16,30.89c.03-.09.09-.14.18-.14.02,0,.05.04.04.05-.05.12-.13.16-.25.07,0,0,.02.02.02.02Z"/>
        <path class="cls-1" d="M56.96,31.07c0-.14.09-.18.21-.19,0,0-.02-.02-.02-.02.09.19-.03.21-.17.21,0,0-.01-.01-.01-.01Z"/>
        <polygon class="cls-1" points="77.71 91.21 77.64 91.22 77.69 91.22 77.71 91.21"/>
        <path class="cls-1" d="M106.08,91.48c.08-.03.19-.1.22-.07.1.09.06.21,0,.32-.07-.08-.15-.17-.22-.25Z"/>
        <path class="cls-1" d="M153.68,63.73s-.1.07-.15.1c-.02.01-.07,0-.08-.02-.04-.07,0-.11.08-.11.05,0,.11.03.16.05,0,0-.02-.02-.02-.02Z"/>
        <path class="cls-1" d="M163.54,124.35c-.02.08-.07.12-.14.08-.05-.02-.1-.07-.11-.12,0-.03.05-.11.09-.12.1-.01.17.04.16.15Z"/>
        <path class="cls-1" d="M164.38,123.36s-.02.04-.03.07c-.03-.02-.06-.05-.09-.07.02-.02.04-.04.07-.07.02.02.04.05.06.07Z"/>
      </g>
    </g>
  </g>
</svg>