<?xml version="1.0" encoding="UTF-8"?>
<svg id="Layer_2" data-name="Layer 2" xmlns="http://www.w3.org/2000/svg" viewBox="0 0 142.59 159.74">
  <defs>
    <style>
      .cls-1 {
        fill: #fff;
      }

      .cls-1, .cls-2, .cls-3 {
        stroke-width: 0px;
      }

      .cls-2 {
        fill: #38a750;
      }

      .cls-3 {
        fill: #880808;
      }
    </style>
  </defs>
  <g id="Layer_1-2" data-name="Layer 1">
    <g>
      <path class="cls-2" d="M81,85.01c-.09.41-.19.82-.28,1.23-.04.17-.15.39-.02.52.29.29.13.55.02.83-.24.62-.48,1.24-.73,1.85-.11.26-.19.28-.46.1-.11-.07-.21-.15-.31-.06-.48.4-.96.81-1.4,1.27.21.23.46.24.68.29.74.18.73.18,1-.55.06-.15.04-.36.25-.44.13-.05.2.15.18.52,0,.06,0,.12-.01.18-.21,1.14-.04.94-1.1.84-.06,0-.12,0-.18-.03-.41-.14-.75-.1-1.03.28-.25.33-.65.27-1,.32-.29.04-.39.14-.33.41.08.43.08.82-.22,1.19-.21.27-.19.63-.21.96-.06.69-.1,1.38-.17,2.07-.04.42-.08.43-.52.42-.18,0-.36-.02-.54-.04-.34-.04-.4-.11-.34-.47.02-.12.05-.24.07-.36.04-.38-.27-.95-.62-1.11-.06-.03-.2.02-.24.07-.31.41-.61.82-.92,1.23-.09.12-.2.23-.18.41.25.23.65.09.93.4-.31.46-.63.93-.93,1.41-.28.43-.55.86-.82,1.29.25.4.5.81.75,1.21.08.13.16.26.23.39.09.17.05.3-.12.35-.23.06-.46.13-.75.04,0-.52,0-1.06-.09-1.59-.02-.12-.04-.25-.1-.34-.11-.17-.31-.19-.48-.16-.14.02-.15.16-.15.29.03.64-.22,1.17-.63,1.64-.06.07-.16.15-.23.08-.34-.36-.66-.1-1.01,0,.06.33.3.52.49.74.09.1.22.1.3-.02.09-.13.18-.24.34-.28.52-.12.7-.12.59.49-.19,1.07-.38,2.13-.58,3.2-.02.12-.06.23-.22.28-.18-.22-.14-.5-.17-.75-.05-.42-.09-.84-.09-1.26,0-.43-.16-.75-.46-1.03-.27-.26-.37-.26-.5.08-.07.2-.15.4-.2.6-.27,1.3-1.08,2.34-1.69,3.48-.05.1-.16.21-.26.23-.54.14-.97.49-1.46.71-.15.07-.31.25-.48.09-.13-.12.01-.28.05-.41.23-.76.33-1.52.17-2.32-.08-.39-.2-.75-.42-1.09-.18-.28-.36-.56-.53-.84-.18-.31-.35-.63-.35-1.01,0-.06-.01-.12-.02-.18-.03-.33-.4-.56-.29-.92.09-.3.42-.42.6-.66.11-.15.16-.33.1-.52-.1-.28-.2-.57-.33-.84-.35-.7-.75-1.38-.81-2.19-.02-.2-.17-.31-.28-.45-.2-.26-.41-.52-.58-.8-.12-.2-.26-.41-.05-.66.09-.11,0-.22-.07-.32-.2-.27-.29-.59-.33-.92-.06-.42-.22-.81-.5-1.15-.11-.14-.22-.29-.28-.46-.15-.38-.4-.66-.72-.91-.24-.18-.45-.41-.64-.63-.76-.89-1.49-1.81-2.43-2.54-.88-.68-1.37-1.66-1.84-2.64-.19-.41-.38-.82-.57-1.23-.06-.12-.04-.23,0-.35h-.02c.49.09.49.09.65-.21.12-.24.27-.48.35-.73.08-.25.08-.53.12-.8.18,0,.35-.02.47-.02.11-.04.12-.1.06-.15-.17-.13-.33-.26-.42-.46-.07-.15-.08-.26.07-.39.36-.31.39-.57.08-.93-.18-.2-.17-.37-.05-.56.11-.18.26-.34.37-.51.14-.23.25-.47.28-.75.08-.72.18-1.43.29-2.15.04-.29.03-.54-.21-.74-.21-.18-.33-.42-.43-.68-.07-.19.29-.37.02-.56-.2-.14-.31.13-.49.11-.54-.06-.83-.32-.97-.89-.08-.34-.09-.37-.45-.31-.28.04-.26-.15-.34-.3-.11-.22-.23-.23-.37-.03-.09.13-.17.27-.33.27-.44,0-.88.18-1.34.01-.29-.11-.59-.05-.86.12-.61.38-1.32.31-1.99.35-.44.02-.8-.24-1.09-.57-.35-.4-.47-.9-.59-1.4-.04-.17.23-.27.19-.27-.5-.04-.55-.5-.78-.79-.25-.3-.53-.58-.83-.83-.38-.32-.83-.49-1.34-.47-.27,0-.54,0-.81.02-.24.02-.28-.36-.35-.27-.39.43-.89.23-1.34.29-.48.06-.96.1-1.44.15-.54.05-1.07.18-1.59.34-.3.09-.57.2-.7.52-.11.27-.36.34-.6.33-.95-.07-1.77.29-2.55.77-.13.08-.27.14-.42.17-.81.16-1.54.51-2.27.87-.35.17-.67.17-1.03.02-.5-.21-1.02-.35-1.54-.52-.12-.04-.24-.06-.27-.2-.05-.16-.1-.19-.21-.04-.14.21-.35.25-.56.17-.83-.33-1.66-.07-2.49-.06-1.76.03-3.36.67-4.93,1.36-.69.3-1.3.33-1.99.02-1.08-.49-2.12-1.01-3-1.82-.13-.12-.26-.25-.38-.39-.54-.57-1.13-1.09-1.9-1.34-.15-.05-.27-.13-.35-.27-.11-.2-.31-.27-.51-.36-.38-.18-.76-.37-.99-.75-.11-.19-.33-.25-.52-.34-.36-.16-.71-.34-1.06-.5-.23-.1-.4-.23-.41-.52,0-.19-.15-.3-.35-.35-.35-.08-.58-.28-.57-.69,0-.19-.08-.36-.31-.36-.18,0-.26-.12-.33-.26-.09-.17-.03-.28.13-.35.02,0,.04-.05.03-.06-.11-.2-.26-.36-.16-.66.07-.19-.18-.4-.17-.66,0-.12-.14-.25-.22-.38-.16-.27-.55-.41-.49-.81,0-.04-.06-.12-.1-.14-.45-.14-.7-.58-1.12-.72-.39-.13-.59-.42-.73-.73-.12-.27-.32-.49-.42-.76-.12-.33-.22-.28-.39-.04-.07.09-.16.03-.2-.06-.06-.14-.11-.3-.26-.35-.38-.13-.5-.45-.5-.77,0-.26-.11-.44-.18-.66-.06-.2-.17-.22-.33-.14-.24.12-.44.13-.63-.12-.13-.18-.49.02-.56-.19-.14-.44-.57-.49-.84-.74-.09-.08-.18-.16-.17-.3.03-.54-.11-1.06-.12-1.59,0-.25.04-.47.33-.57.19-.06.2-.26.11-.37-.34-.43-.47-.96-.72-1.43-.23-.43-.5-.82-1.06-.82.08-.26.33-.27.49-.4.84-.63,1.39-1.41,1.44-2.49.03-.76.22-1.49.53-2.18.56-1.24.54-2.52.16-3.8-.12-.41-.29-.79-.63-1.04.13-.3.23-.55.34-.8.26-.62.24-1.23-.09-1.82-.04-.08-.1-.21-.15-.21-.52,0-.58-.44-.75-.77-.18-.34-.21-.34-.54.02-.16-.1-.09-.27-.08-.39.03-.64.18-1.25.4-1.85.1-.28.23-.56.55-.68.28-.1.4-.33.5-.6.25-.74.52-1.47.97-2.12.1-.15.23-.32.23-.49,0-.46.28-.7.58-.97.34-.3.65-.63.98-.94.3-.28.48-.62.49-1.03.02-.83.36-1.58.61-2.35.12-.39.39-.67.75-.87.16-.09.32-.17.48-.25.51-.25.86-.65,1.06-1.18.18-.45.37-.89.52-1.35.21-.66.66-.99,1.34-1.02.62-.02,1.18-.2,1.73-.48.27-.14.52-.3.72-.54.31-.38.69-.67,1.1-.94.9-.59,1.55-1.43,2.14-2.31.12-.17.19-.38.27-.57.17-.39.18-.76-.15-1.08-.16-.16-.24-.33-.17-.57.04-.17.06-.37.02-.53-.19-.78.12-1.43.56-2.02.31-.43.55-.85.6-1.38.02-.17.08-.36.17-.51.59-.89,1.27-1.69,2.3-2.09.42-.16.84-.35,1.25-.52.87-.37,1.5-.98,1.91-1.84.3-.63.59-1.26.73-1.94.05-.24.13-.46.18-.7.13-.7.64-.97,1.25-1.15.13-.04.25.02.31.13.1.18.17.39.28.57.47.82,1.2,1.19,2.12,1.04.51-.08,1.01-.15,1.52-.01.14.04.31.03.44-.03.32-.13.63-.38.85.13.02.04.1.07.15.07.77.02,1.54.31,2.31-.09.41-.21.8-.4,1.01-.86.16-.36.51-.52.87-.59.24-.05.45-.07.63-.27.16-.17.34,0,.49.07.24.12.43.06.54-.15.54-1,1.46-1.39,2.51-1.55.8-.12,1.61-.2,2.42-.28.22-.02.41-.06.6-.17.34-.21.59-.25,1.07-.27.36-.02.72,0,1.04-.22.11-.08.29-.1.43-.1.63.01,1.27-.02,1.89.16.23.07.47.1.6.34.08.15.24.17.39.11.14-.05.29-.1.42-.17.27-.15.54-.26.85-.27.21,0,.46-.05.57-.23.3-.52.64-.38,1.05-.16.35.19.76.24,1.1-.05.14-.12.27-.11.41-.07.2.06.44.08.59.2.27.22.55.16.85.16.73.02,1.36-.21,1.93-.65.26-.21.59-.29.91-.4.47-.16.87.12,1.31.18.05,0,.09.07.12.12.03.05.02.12.04.17q.31,1.1,1.18.45c.16-.12.31-.33.55-.19.16.09.17.36-.04.63-.26.35-.35.84-.86.99-.2.06-.26.32-.25.54.01.35.13.65.4.88.16.13.35.23.52.36.09.07.23.17.24.26.01.4.2.78.02,1.22-.27.64-.68,1.12-1.23,1.51-.25.17-.48.37-.7.57-.16.15-.21.36-.16.58.13.54.51.91,1.07.9.38,0,.34.24.37.46.68-.35.69-.35.88.33.06.19.13.31.34.36.61.15,1.2.36,1.75.69.57.34,1.17.46,1.81.15.26-.13.52-.13.78,0,.16.08.34.17.51.17.51,0,.94.2,1.34.48.28.2.59.29.93.31.18.01.36.07.54.08.39.04.58.26.65.63.06.3.13.59.2.88.08.3.25.55.45.77.22.25.42.37.76.13.28-.19.65-.16.97-.05.6.2,1.19.43,1.78.66.1.04.23.08.25.23-.02.02-.04.05-.05.05-.99-.28-2.02-.33-3.01-.55-.15-.03-.29-.06-.43.02-.43.23-.86.44-1.29.66-.51.27-.88.65-.88,1.27,0,.36-.22.47-.49.54-1.19.32-2.39.63-3.58.95-7.69,2.05-15.38,4.09-23.06,6.15-1.87.5-3.69,1.13-5.41,2.03-.29.15-.58.32-.86.5-.34.21-.63.49-.76.87-.09.26-.21.42-.5.43-.19,0-.24.15-.26.31-.05.34.04.65.17.96.23.53.22.53-.03,1.07.67-.06,1.8-.41,2.55-.8-.15-.21-.39-.24-.59-.35-.1-.06-.16-.14-.18-.28-.11-.63-.1-.67.49-.44.41.16.69-.07,1.03-.13h.01c.04.27-.28.31-.3.6.29.29.82.25,1.15.62-.93.19-1.78.49-2.68.83.35.52.85.59,1.35.6.36.01.72-.09,1.05-.24.14-.06.3-.12.32-.28.04-.27.23-.32.44-.37.2-.05.29-.18.28-.4-.01-.18-.02-.36,0-.54,0-.12.12-.1.2-.1.11.14-.06.37.14.47.16.08.32.15.49.21.05.02.13,0,.17-.04.3-.26.59-.54.79-.99-.43.02-.71.2-1.02.3-.19.06-.37.23-.58.06-.02-.1,0-.17.1-.2.31-.11.62-.25.94-.33.35-.09.49-.33.55-.64.08-.39.06-.78-.09-1.16-.13-.33-.27-.67-.42-1.05.55-.16,1.09-.13,1.61-.21.09-.01.18-.05.17-.17,0-.1-.06-.16-.15-.19-.06-.02-.12-.02-.18-.03-.06-.02-.11-.04-.17-.07.26-.27.53-.4.86-.11.26.23.53.22.84.11.31-.1.64-.15.96-.24.2-.05.4-.14.6-.19.35-.08.5-.56.9-.49.35.06.65-.08.97-.16,4.53-1.14,9.05-2.31,13.58-3.46,1.9-.48,3.8-.96,5.7-1.43.41-.1.82-.19,1.24-.25.67-.1,1.33-.04,1.96.19,1.37.49,2.1,1.76,1.82,3.24-.14.74-.36,1.46-.56,2.19-.2.72-.43,1.44-.66,2.16-.16.52-.39,1.01-.7,1.46-.55.81-.75,1.73-.87,2.7.26-.03.36-.19.49-.31.65-.63,1.29-1.28,1.94-1.9.49-.46.75-1.01.76-1.68,0-.12-.02-.26.03-.36.19-.38.41-.74.09-1.16-.03-.04.02-.18.06-.24.08-.12.2-.22.3-.34.17-.21.1-.31-.15-.34-.09-.01-.16-.1-.13-.19.03-.07.11-.16.18-.18.32-.09.59.07.6.35.02.36,0,.72,0,1.09,0,.16-.04.3-.19.38-.22.11-.26.28-.24.52.08.92-.21,1.7-.86,2.38-.6.63-1.15,1.32-1.71,1.99-.33.4-.67.78-1.14,1.02-.35.18-.55.46-.62.84-.08.41-.16.83-.22,1.24-.01.09.02.19.12.22.29.06.6.14.85-.09.2-.19.3-.44.22-.74-.05-.17-.08-.35-.11-.53-.02-.18-.26-.43.02-.52.2-.06.2.25.27.4.08.19.13.4.21.6.11.29.19.57.05.88-.07.17-.02.3.15.36.22.08.33.25.4.45.24.71.48,1.43.73,2.14.1.28.11.53-.21.69-.11.05-.16.17.03.24.37.14.44.57.75.77.19.69.63,1.32.53,2.08-.04.26.29.35.27.52-.01.18-.22.33-.31.52-.05.1-.01.24,0,.36.02.33.04.66.07.99.04.47.33.74.81.74.25,0,.6-.39.61-.68,0-.09-.02-.18-.05-.26-.13-.35.19-.28.4-.42-.17-.12-.33-.23-.48-.34-.19-.12-.31-.28-.35-.5-.02-.09-.03-.18.06-.24.04-.03.11-.03.16-.01.23.07.45.16.68.24.16.05.3-.06.29-.23-.02-.42-.04-.84-.08-1.26-.03-.28.07-.47.32-.57.11-.05.22-.1.33-.15.14-.07.26,0,.3.1.22.56.42,1.13.62,1.7.05.15.01.3-.09.42-.07.1-.15.19-.22.29-.07.1-.14.23-.05.32.07.07.22.1.33.09.24-.02.47-.09.71-.12.39-.06.78-.11,1.17-.15.24-.02.3.06.32.32,0,.06,0,.12,0,.18-.06.36.12.56.44.67.08.03.15.09.22.14,0,.15-.12.21-.21.27-.09.06-.12.15-.07.22.04.07.12.14.19.17.21.08.42-.01.62-.07.45-.12.89-.13,1.34.03.14.05.32.06.35.24.04.19-.14.24-.26.31-.13.07-.27.13-.41.19-.68.3-.78.28-.22.99.13.17.27.33.38.51.19.3.42.4.75.2.12-.07.23,0,.25.15.02.12.03.24.02.36-.09.71.22,1.28.62,1.82.28-.1.24-.43.51-.54.6.34,1.22.7,1.81,1.04.24-.05.26-.22.33-.34.1-.17.12-.46.38-.44.28.02.59.45.57.72-.01.15-.04.3-.09.44-.06.17-.18.22-.35.15-.06-.02-.11-.05-.17-.07-.16-.07-.36-.23-.5-.09-.23.24-.35.55-.33.9,0,.12.12.13.2.15.29.07.63,0,.88.18.2.15.36.09.57.06.42-.07.84.02,1.25.11.08.02.18.09.19.15.02.06-.03.19-.09.22-.58.32-1.17.62-1.76.92-.1.05-.25-.09-.22-.19.02-.09.06-.17.08-.26.05-.27.38-.49.16-.81-.31-.01-.45.26-.67.4-.16.1-.31.17-.5.2-.25.04-.4-.07-.42-.32,0-.06,0-.12,0-.18q-.02-.51-.71-.48c.09.26.17.52.24.73,0,.17-.09.19-.17.21-.28.04-.45.16-.43.47.01.18.01.36.04.54.01.12.13.13.21.1.11-.04.23-.09.31-.17.31-.28.61-.17.91,0,.14.08.22.19.13.36-.04.07-.05.17-.05.26.03.28.21.44.49.4.54-.07,1.07-.16,1.61-.24.33-.05.66-.09.99-.12.27-.02.36.07.4.37.02.15.03.3-.08.43-.15.18-.47.24-.63.06-.18-.21-.35-.3-.62-.25-.8.14-1.59.27-2.38.41,0,.18.1.23.23.26.5.09.99.18,1.48.27,0,.19-.12.24-.22.3-.19.11-.38.22-.28.49.08.2.17.33.59.27.39-.05.78-.09,1.17-.14.3-.03.6-.06.9-.08.2,0,.33.12.35.33.08.6-.22,1.04-.59,1.46-.16.18-.39.14-.59.16-.46.06-.77.31-.96.73-.05.11-.07.23,0,.37.4.11.81-.04,1.22-.09.29-.04.36.05.32.36-.02.15-.05.3-.06.44,0,.1.08.17.17.16.33-.02.66-.07.99-.09.17-.01.27.13.22.3-.04.14-.08.29-.15.42-.36.74-.84,1.41-1.54,1.86-.34.22-.51.49-.63.84-.04.11-.08.23-.13.33-.06.11-.16.17-.3.14-.23-.05-.47-.1-.71-.13-.04,0-.11.06-.12.11-.02.05,0,.11.02.16,0,.02.04.05.07.06.22.03.44.1.44.35,0,.22-.19.37-.33.52-.17.18-.33-.07-.54-.02-.13.53-.26,1.08-.39,1.61.22.13.33,0,.45-.07.6-.35,1.19-.71,1.78-1.08.2-.13.38-.14.58.01.4.31.83.59,1.19.93-.04.1-.04.17-.08.21-.89.94-1.98,1.45-3.26,1.58-.28.03-.53.01-.64-.33-.04-.13-.2-.12-.3-.02-.09.1-.07.24,0,.32.12.13.27.24.42.32.81.43.68.44.35,1.17-.2.44-.4.88-.61,1.31-.1.22-.22.43.03.65.04.04.04.18,0,.25-.15.36-.25.74-.48,1.05-.08-.02-.14-.02-.18-.04-.17-.09-.22-.43-.48-.3-.18.09-.08.33-.07.5.01.21-.02.42.1.64.27,0,.5-.11.67-.34.2-.26.27-.28.46-.17.3.17.36.47.42.76.01.07-.05.18-.1.23-.15.14-.33.25-.47.36,0,.2.1.31.19.43.16.21.32.24.52.05.16-.15.31-.16.41.08.18.41.38.81.59,1.24.21-.17.1-.35.11-.5,0-.15-.02-.3-.04-.45-.03-.24-.06-.48-.07-.72,0-.04.05-.11.09-.12.05-.02.13,0,.17.02.14.12.27.24.39.38,1.1,1.23,1.03.74.1,1.99-.11.14-.24.27-.35.38-.24,0-.32-.19-.43-.33-.24-.31-.45-.64-.7-.95-.15-.18-.26-.55-.47-.48-.31.1-.28.49-.25.78.04.39.09.78.21,1.15.37,1.15.33,1.2,1.17.38.04-.04.09-.08.14-.11.12-.07.24-.05.29.08.05.14.09.29.1.44.02.45.1.84.64.95.09.02.19.16.23.26.11.26.28.35.56.3.05,0,.15.1.17.18.04.14-.05.23-.17.26-.44.12-.87.23-1.31.34-.17.04-.3-.02-.34-.19-.05-.2-.08-.41-.1-.62-.05-.48.04-.61-.69-.76-.09-.02-.19-.02-.26-.06-.1-.05-.2-.12-.28-.21-.31-.32-.32-.33-.6-.13-.23.17-.52.3-.67.59.14.24.38.16.57.2.21.05.41.09.62.11.91.07.93.09.8.96-.01.09-.01.18-.02.27-.07.6-.13,1.2.29,1.72.05.07.06.17,0,.25-.07.09-.16.05-.24.03-.06-.01-.11-.05-.17-.06-.63-.13-1.09-.45-1.37-1.05-.13-.29-.28-.59-.58-.8-.21.24-.27.5-.34.75-.1.34-.07.39.27.54.14.06.28.11.42.17.49.21.53.26.41.73-.12.47-.25.93-.39,1.39-.04.13-.15.17-.28.09-.23-.13-.38-.39-.69-.45-.25.35-.24.79-.37,1.16.19.18.3.03.41-.04.18-.1.36-.22.53-.33.07.08.14.16.2.23ZM67.36,72.32c-.26.02-.56.04-.86.06-.17.01-.28.11-.33.27-.28.89-.57,1.78-.85,2.67-.06.2.01.34.21.43.3.13.41.13.56-.06.42-.51.84-1.03,1.25-1.54.29-.36.5-.75.63-1.19.04-.14.05-.3.04-.44,0-.07-.1-.17-.16-.18-.14-.03-.3,0-.49,0ZM76.23,66.79c.73-.06,1.31-.2,1.86-.44.31-.13.58-.31.8-.57.5-.58.45-.63-.12-1.03-.07-.05-.14-.11-.22-.16-.86-.62-.55-.61-1.54-.04-.23.13-.35.32-.41.56-.12.52-.24,1.04-.38,1.67ZM82.45,59.51c-.49.04-.9.08-1.31.18-.19.05-.33.13-.38.33-.07.23-.05.5-.25.66-.24.19-.52.03-.78.03-.09,0-.18-.01-.27,0-.06,0-.13.02-.16.06-.19.22-.21.49-.21.76,0,.23.22.26.38.32.31.11.63.19.94.31.2.07.34.04.47-.13.33-.43.67-.85,1-1.28.25-.34.49-.68.58-1.25ZM60.64,38.32c0,.27.08.53.22.76.06.11.18.18.3.08.37-.31.74-.62,1.09-.95.61-.55.51-.4.26-1.14-.06-.17-.12-.34-.19-.51-.08-.2-.25-.24-.44-.22-.15.02-.29.06-.39.2-.23.35-.47.7-.68,1.06-.12.21-.19.44-.18.7ZM66.93,42.11c-.55-.62-1.05-1.19-1.54-1.75-.12-.14-.25-.15-.37,0-.06.07-.11.15-.15.22-.68,1.07-.73.77.2,1.64.73.68.53.62,1.45.16.11-.05.2-.13.41-.27ZM77.68,54.96s0-.06,0-.09c0-.35-.23-.5-.53-.33-.63.37-1.13.88-1.51,1.5-.43.69-.35.85.44.94.22.03.41,0,.55-.2.28-.39.57-.77.84-1.16.14-.2.21-.42.22-.67ZM82.39,62.46c.26.04.53.09.79.13.17.02.3-.05.35-.21.19-.63.37-1.27.55-1.9.03-.1-.04-.18-.13-.19-.15-.01-.3.02-.45,0-.21-.01-.24-.12-.15-.29.04-.08.06-.17.09-.25.02-.07,0-.12-.08-.13-.06,0-.12,0-.17.02-.1.07-.16.17-.17.3-.01.43-.05.84-.47,1.1-.08.05-.13.2-.14.32-.06.35-.14.71-.03,1.1ZM65.96,38.37c.06-.02.12-.03.17-.05.41-.18.83-.35,1.24-.54.31-.14.36-.25.25-.57-.47-1.29-.23-1.33-1.3-.38-.22.2-.44.41-.67.61-.09.08-.18.2-.14.31.07.19.19.37.29.55.03.04.1.05.16.07ZM64.14,98.81c.2-.2.23-.38.26-.56.39-1.79.62-1.31-1.19-1.71-.03,0-.06,0-.09,0-.09.03-.16.08-.16.18.06.87.26,1.66,1.17,2.08ZM75.3,52.51c.76-.1,1.4-.19,2.03-.28.07-.31-.2-.46-.2-.71,0-.24-.02-.48-.04-.72-.05-.52-.26-.69-.86-.72-.06.39.06.77.08,1.16.02.35,0,.43-.35.5-.4.08-.54.32-.66.77ZM64.7,60.46c-.25.31-.28.64-.4.94-.09.22-.14.46-.17.7-.06.4.05.57.42.67.23.07.47.12.7.17.22.05.33-.06.31-.3-.05-.81-.37-1.5-.87-2.18ZM71.63,44.55c.05.39.11.78.16,1.16.03.24.19.28.39.26.09-.01.18-.02.27-.04.16-.04.27-.15.25-.32-.09-.66-.18-1.31-.28-1.97-.03-.2-.25-.26-.41-.14-.37.27-.4.65-.37,1.06ZM80.16,74.84c-.42-.45-.82-.89-1.23-1.32-.05-.05-.15-.09-.23-.08-.11.01-.12.12-.11.21.08.62.16,1.24.25,1.86.02.13-.01.3.23.38.38-.29.74-.62,1.08-1.05ZM77.44,68.16c.02.22.03.4.06.58.06.32.14.64.21.96,0,.03.02.06.04.08.06.07.15.12.23.06.28-.22.65-.39.77-.73.1-.29-.2-.54-.33-.8-.12-.24-.26-.48-.39-.71-.06-.1-.12-.22-.27-.18-.13.03-.19.15-.23.25-.06.17-.07.35-.1.48ZM34.71,33.46c.14-.34.27-.64.38-.94.11-.3.07-.37-.26-.56-.17-.1-.32-.05-.31.13,0,.36.02.72.05,1.07.02.2,0,.34-.21.41-.07.02-.15.12-.16.19-.05.34-.12.68-.08,1.06.73-.38,1.01-.6,1.38-1.08-.23-.15-.54-.04-.79-.28ZM76.76,83.87c0-.09,0-.12-.01-.14-.03-.08-.05-.17-.11-.23-.07-.07-.17-.04-.24.02-.42.33-.85.66-1.26,1-.18.15-.17.54-.01.74.12.16.47.22.66.08.53-.37.94-.83.98-1.47ZM67.81,40.79s.02,0,.03,0c0,.27-.01.54,0,.81.02.39.69,1.04.95.88.35-.21.13-.59.09-.9-.02-.17-.1-.35-.18-.51-.17-.38-.36-.76-.54-1.14-.05-.11-.14-.22-.26-.15-.09.05-.18.19-.18.3,0,.24.05.48.08.71ZM67.13,92.75c.23.39.52.55.77.76.24.21.45.47.82.57.12-.48.24-.94.35-1.4.05-.23-.07-.36-.28-.32-.52.11-1.04.24-1.66.39ZM71.24,76.39c.23-.05.54.09.66-.14.15-.3-.22-.43-.34-.65-.01-.03-.04-.05-.06-.07-.38-.36-.62-.87-1.12-1.11-.1-.05.05,1.3.22,1.78.05.13.15.17.27.19.12.01.24,0,.36,0ZM74.47,70.56s0,0-.01,0c0,.18,0,.36.03.53.01.07.13.17.17.16.28-.07.61-.09.7-.46.05-.17.1-.34.14-.52.08-.28.21-.55.17-.86-.39-.1-.64.22-.95.34-.18.07-.27.23-.26.43,0,.12,0,.24,0,.36ZM77.47,57.09c0,.42.2.72.34,1.03.07.16.21.2.37.14.38-.16.76-.33,1.14-.51.14-.07.35-.08.36-.34-.72-.17-1.44-.26-2.21-.32ZM76.07,45.43s-.08-.11-.12-.12c-.63-.06-1.24.11-1.86.18-.12.01-.19.28-.09.38.17.17.35.32.53.48.1.08.22.11.33.04.4-.26.79-.52,1.19-.79.03-.02.01-.11.02-.16ZM29.58,41.41c-.23-.04-.39.05-.47.29-.11.31-.24.6-.35.91-.01.04.02.12.06.15.03.03.11.04.15.02.56-.28,1.11-.56,1.66-.86.06-.03.12-.15.1-.22-.01-.07-.1-.16-.17-.17-.32-.05-.65-.08-.98-.11ZM70.39,52.9c-.34-.03-.41,0-.55.33-.13.32-.37.62-.33,1,.4.15.64-.22.96-.32.06-.02.11-.05.16-.09.29-.2.68-.24.89-.57-.26-.38-.7-.21-1.04-.34-.03-.01-.06,0-.09-.01ZM30.47,32.61c.08.63.15,1.09.21,1.56.02.12.04.23.07.35.05.15.26.26.44.21.13-.03.21-.11.21-.25,0-.27-.01-.54.02-.8.05-.42-.13-.68-.5-.84-.1-.05-.2-.1-.45-.23ZM73.02,49.34c-.06.04-.13.06-.13.1-.01.05.01.12.04.16.35.41.7.81,1.05,1.21.16.18.29.15.38-.09.36-.93.32-.76-.43-1.06-.3-.12-.61-.21-.91-.32ZM66.86,88.32c-.31.51-.33,1.01-.41,1.49,0,.04.05.11.1.13.19.09.84.07,1.22-.03-.28-.52-.53-1.05-.91-1.59ZM63.8,38.66c.03.18.06.36.09.53.16.92.38,1.02,1.21.56.08-.05.12-.15.05-.23-.35-.4-.7-.81-1.13-1.12-.09-.07-.17,0-.2.09-.02.05-.01.11-.02.16ZM72.13,87.34c-.3.08-.65.16-.99.25-.12.03-.24.09-.24.22,0,.21-.03.45.17.57.26.16.57.22.86.14.22-.07.24-.32.3-.51.05-.14.11-.28.13-.42.02-.11,0-.24-.22-.24ZM64.12,47.45q-.33.91.26,1.58c.12.13.24.27.36.4.08.09.2.18.3.13.11-.06.09-.2.04-.32-.18-.38-.34-.76-.53-1.13-.12-.23-.15-.52-.43-.66ZM76.45,76.85c.05-.03.1-.06.15-.1-.3-.67-.59-1.35-.9-2.02-.06-.13-.19-.11-.29,0-.15.16-.27.33-.12.55.38.53.77,1.05,1.15,1.57ZM32.06,48.27c.32.07.61-.03.9-.08.37-.07.79.05,1.11-.24-.3-.36-.75-.23-1.13-.34-.09-.03-.18-.03-.27-.04-.2-.03-.35.04-.46.21-.08.12-.2.23-.16.48ZM79.87,71.26c.2-.32.41-.64.6-.97.24-.41.21-.45-.26-.6-.08-.03-.17-.05-.26-.08-.15-.04-.25.05-.26.17-.01.47-.1.94.05,1.41,0,.02.05.03.12.08ZM28.92,37.9c.05-.22-.08-.44-.26-.65-.25-.29-.34-.29-.5.03-.39.77-.34.92.47,1.21.14.05.22-.04.25-.17.02-.11.03-.23.05-.42ZM74.27,81.79c.48.1.96.05,1.44.04.13,0,.23-.06.23-.21,0-.12-.04-.24-.17-.29-.2-.07-.4-.14-.6-.2q-.77-.23-.9.67ZM75.91,62.25c-1.04.37-.84.5-.76,1.19.03.22.02.47.22.65.31-.46.43-.85.54-1.84ZM72.85,53.63c.21-.84.21-.84-.09-1.24-.07-.09-.17-.22-.26-.23-.18-.02-.21.17-.27.3q-.32.74.62,1.17ZM65.31,46.42c.3.32.64.35.93.48.61.25.68.25.74-.49,0-.05-.03-.11-.07-.21-.51-.02-1.02.09-1.61.23ZM78.71,51.71c.25,0,.31-.21.47-.29.12-.05.15-.17.14-.3-.05-.5-.11-1-.17-1.5-.02-.12-.09-.22-.23-.22-.13,0-.24.08-.24.21-.03.7-.08,1.4.03,2.1ZM33.59,35.11c0-.5-.03-.91-.31-1.25-.06-.08-.16-.07-.22,0-.33.44,0,1.28.4,1.59.06.05.12,0,.12-.06,0-.12.01-.24.01-.27ZM66.49,35.04c-.24-.13-.42-.1-.6-.08-.08,0-.2.06-.21.12-.06.26-.1.52-.12.79-.01.12-.09.3.18.39.24-.38.52-.74.75-1.21ZM81,78.43c-.08-.29-.18-.6-.38-.85-.09-.12-.26-.12-.41-.07-.14.05-.15.16-.14.28.04.26.08.52.15.78.01.06.14.13.2.12.2-.04.41-.06.58-.26ZM71.22,66.82c.4.09.81,0,1.21-.02.12,0,.18-.17.11-.27-.35-.56-.5-.58-1.01-.14-.12.11-.3.18-.31.43ZM69.21,62.94c.26.45.27.44.69.66.09-.32.18-.62.26-.93.03-.12-.1-.23-.22-.17-.26.12-.54.22-.73.45ZM81.09,66.8c-.03-.24-.06-.5-.09-.77-.02-.12-.06-.24-.2-.24-.07,0-.17.06-.22.13-.31.38-.27.83.11,1.18.05.05.16.04.24.02.04,0,.09-.07.12-.12.03-.05.03-.11.04-.2ZM81.06,69.01c.02-.06.05-.11.05-.17,0-.09-.02-.18-.04-.27-.08-.34-.21-.43-.57-.38-.16.02-.27.11-.29.29-.01.16.02.3.18.38.21.1.43.21.68.16ZM74.4,94.94c.27.44.27.44.69.66.04-.46,0-.88-.1-1.42-.32.25-.48.47-.59.75ZM81.56,57.85c-.28-.19-.52-.2-.76-.22-.18-.02-.27.09-.28.26,0,.15-.01.3,0,.44.02.14.12.21.25.14.28-.15.56-.33.79-.62ZM74.41,59.76c.34.01.43-.07.38-.36-.02-.11-.05-.23-.11-.33-.09-.14-.38-.15-.47-.04-.18.21-.28.56-.18.64.02.02.05.04.08.05.12.02.24.03.31.04ZM83.84,57.29c-.27-.12-.53-.02-.78.06-.12.04-.19.13-.17.27.03.18.06.38.21.48.11.07.21-.05.29-.14.16-.21.39-.37.45-.67ZM52.43,40.18c-.21.5-.43.8-.49,1.24.34-.06.55-.22.76-.38.11-.08.11-.21.05-.32-.07-.13-.15-.25-.32-.55ZM77.06,59.86c.18.07.26.11.34.13.42.09.45.08.62-.29.04-.08.08-.16.09-.25,0-.05,0-.12-.04-.16-.03-.04-.12-.07-.15-.05-.29.15-.57.31-.86.62ZM75.56,90.39c-.42-.22-.73-.3-1.04-.27-.18.01-.17.22-.18.37-.01.17.12.19.24.16.28-.07.56-.14.98-.26ZM68.43,57.11c.27.24.58.31.89.24.12-.03.17-.15.14-.28-.02-.09-.08-.15-.19-.13-.28.05-.57.11-.85.17ZM79.54,86.48c-.24.52-.43,1.04-.4,1.61.29-.5.43-1.04.4-1.61ZM81.69,64.18c-.08.04-.14.06-.18.1-.23.24-.25.43-.09.73.05.09.13.11.2.03.12-.13.24-.27.34-.42.04-.06.04-.19,0-.24-.07-.09-.18-.14-.27-.2ZM73.77,48.27c.03-.31,0-.54-.23-.68-.12-.08-.29-.16-.41-.06-.16.15.01.26.11.35.15.14.26.33.53.39ZM77.49,48.49l.16-.03c-.02-.25-.02-.51-.07-.76-.03-.15-.16-.13-.27-.07-.26.14-.31.28-.16.48.1.14.23.26.34.39ZM73.29,71.22c.15-.05.3-.07.43-.14.05-.03.07-.16.08-.24,0-.1-.09-.16-.18-.16-.21.02-.41.06-.61.11-.04,0-.09.08-.09.12,0,.05.02.13.06.16.1.06.21.1.32.15ZM69.72,82.71c.28-.18.28-.4.31-.6,0-.06-.06-.19-.12-.2-.1-.02-.23,0-.33.03-.09.04-.09.15-.06.23.05.17.12.33.19.53ZM67.7,38.51c.02-.06,0-.13-.08-.12-.4.02-.73.18-1.03.44-.03.02-.02.11,0,.16.05.12.16.19.28.14.31-.12.57-.3.81-.53.02-.02.01-.06.02-.09Z"/>
      <path class="cls-3" d="M124.9,59.06c.46-.05.9-.08,1.25.31.12.13.25.24.32.42.32.81,1.01,1.25,1.71,1.68.35.22.76.14,1.14.02.29-.09.55-.23.8-.41.57-.42,1.2-.58,1.88-.35.57.2,1.06.06,1.54-.25.15-.1.31-.19.45-.3.31-.23.65-.32,1.02-.24.46.09.89.04,1.33-.11.23-.08.47-.11.71-.13.48-.05.97-.03,1.44-.14.46-.11.91-.3,1.39-.35.34-.03.63-.17.88-.42.21-.21.36-.51.7-.52.4-.02.78.06,1.11.34-.08.19-.16.39-.25.58-.09.2-.16.4-.1.61.13.42-.05.83.02,1.25.02.11,0,.27-.07.34-.42.43-.43.99-.44,1.52-.01.51-.17.94-.5,1.32-.32.37-.57.78-.73,1.24-.06.17-.13.35-.25.48-.77.84-1.08,1.94-1.72,2.86-.25.36-.44.78-.49,1.25-.04.37-.24.68-.45.98-1.09,1.55-2.14,3.14-3.44,4.54-.47.51-.94,1.02-1.42,1.52-.65.68-1.39,1.25-2.22,1.69-.51.27-1,.55-1.5.84-.63.37-1.19.82-1.66,1.38-.25.3-.54.56-.84.82-.82.72-1.58,1.48-2.3,2.29-.56.63-1.1,1.26-1.49,2.02-.27.52-.68.93-1.27,1.08-.24.06-.31.21-.41.41-.17.34-.38.65-.84.71-.44.06-.69.35-.63.83.03.29-.09.54-.27.75-.26.3-.38.66-.54,1.01-.19.43-.4.85-.57,1.29-.07.17-.18.32-.37.37-.23.07-.32.23-.37.46-.13.59-.33,1.15-.55,1.7-.12.31-.2.63-.21.97,0,.32.06.6.4.74.43.18.56.7,1.01.87.1.04.1.22.06.33-.05.14-.14.26-.22.39-.21.36-.28.75-.07,1.1.18.3.18.57.02.85-.17.29-.2.59-.05.86.44.82.6,1.72.84,2.6.05.19.11.32.27.42.22.14.42.33.66.45.63.31.88.77.69,1.46-.03.11.03.27-.03.35-.33.45-.17.92-.08,1.38.06.3.11.58.05.89-.02.11.04.24.02.35-.06.35.27.63.1,1.03-.13.3,0,.7,0,1.05,0,.27-.03.54.07.8.09.23.07.46.07.71,0,.26.01.62.18.76.35.32.25.63.12.97-.13.32-.31.62-.27,1,.02.25-.18.44-.34.62-.53.57-1.08,1.12-1.48,1.79-.15.25-.43.42-.69.57-.26.15-.54.27-.75.5-.06.06-.15.15-.22.14-.61-.06-1.04.45-1.62.47-.94.6-2.14.85-2.7,1.98-.16.32-.45.55-.78.76-.63-.64-1.39-.81-2.23-.83-1.15-.03-2.27-.28-3.34-.72-1.25-.52-2.31-1.3-3.11-2.4-.46-.63-.89-1.29-1.32-1.95-.49-.77-.79-1.62-.93-2.53-.58-3.6-1.28-7.18-1.96-10.76-.31-1.66-.57-3.33-.99-4.96-.1-.41-.17-.83-.24-1.24-.08-.42-.08-.84.03-1.26.29-1.09.27-2.21.37-3.32.07-.78.14-1.57.13-2.35,0-.78-.08-1.56-.15-2.34-.15-1.68-.31-3.36-.46-5.04-.11-1.23-.2-2.46-.36-3.69-.15-1.16,0-2.28.21-3.41.52-2.98.75-5.98.47-9.01-.05-.51,0-1.02.13-1.52.51-2.09.77-4.21.81-6.36.06-3.63-.33-7.23-1-10.79-.23-1.21-.49-2.42-.74-3.63-.32-1.54-.47-3.1-.58-4.66-.1-1.51-.19-3.01-.4-4.5-.09-.63-.21-1.25-.35-1.86-.22-.92-.64-1.75-1.23-2.49-.94-1.18-1.98-2.27-2.97-3.41-.22-.25-.43-.26-.72-.2-.4.09-.47.07-.5-.26-.08-.7-.43-1.23-.95-1.69-.27-.24-.5-.53-.76-.78-.44-.43-.38-.5-.14-.92.58-1,.96-2.08,1.22-3.2.04-.17.05-.36.06-.54,0-.1-.08-.17-.17-.17-.18-.01-.36,0-.54.02-.84.08-1.68.15-2.52.24-.77.08-1.5-.02-2.22-.28-.57-.2-1.14-.4-1.71-.59-1.76-.61-3.5-.54-5.22.13-.34.13-.69.24-.99.43-.41.26-.8.2-1.2.06-.81-.28-1.52-.73-2.13-1.33-.18-.18-.32-.36-.25-.63.11-.41-.09-.82-.05-1.27.15.04.27.05.38.09.52.24,1.01.54,1.4.97.61.68,1.34.65,2.05.27.33-.17.6-.4.83-.69.4-.52.55-1.07.23-1.68-.06-.11-.1-.22-.15-.33-.24-.58-.16-1.12.21-1.62.56-.77,1.34-1.2,2.24-1.42.29-.07.55-.18.83-.3.49-.21,1.05-.24,1.58-.05.37.13.72.31,1.07.47.34.16.64.33.58.8-.02.19.16.32.33.39.14.05.29.06.44.09.24.04.52.01.7.14.6.42,1.27.32,1.92.32.4,0,.62.18.71.55.03.12.06.23.11.34.06.15.18.24.35.24.18,0,.37,0,.54-.04.54-.16,1.07-.1,1.6.04.32.08.65.12.98.19.32.07.64.16.96.26.36.12.65.35,1.09.35.33,0,.67.22,1.03.25.34.03.65.14.93.33.61.42,1.19.34,1.75-.1.21-.17.42-.35.64-.51.14-.1.27-.26.48-.2.18.05.3-.02.36-.17.11-.24.3-.34.5-.22.39.25.76.06.99-.15.22-.2.34-.17.53-.08.31.15.62.24.96.14.16-.04.22.06.2.19-.06.45.35.5.58.71.02.02.14,0,.16-.04.23-.38.47-.24.72-.02.17.15.39.18.6.13.31-.07.61-.04.92-.06.59-.02,1.21-.03,1.74-.37.13-.08.23.01.29.12.05.08.07.17.1.25.31.88.61,1.77.93,2.64.25.68.25,1.32,0,2.02-.29.82-.62,1.64-.71,2.51-.02.15-.07.29-.13.43-.11.25-.29.31-.5.17-.63-.43-1.14-.98-1.64-1.54-.18-.21-.29-.46-.31-.74-.02-.35-.15-.65-.37-.9-.4-.47-.65-1-.79-1.61-.52.34-.57.46-.27.89.22.31.3.62.36.99.09.56.38,1.07.75,1.52.27.33.56.63.86.92.2.2.37.42.3.71-.07.34.09.59.25.84.31.49.57.99.64,1.58.02.15.08.29.15.42.5.96,1.01,1.92,1.51,2.88.21.4.42.8.61,1.21.42.92.44.97,1.25,1.66-.11.17-.44.17-.38.49.07.35.08.72.12,1.08.06.63.43,1.04.94,1.36.23.14.46.28.69.43.67.45,1.21.98,1.25,1.86,0,.03.01.06.03.09.44,1.04.53,2.14.57,3.25.03.87.09,1.75.37,2.59.1.3.23.49.58.6.35.11.73.31.86.73.05.17.21.22.35.25.45.12.71.44.91.82.49.94.86,1.93.96,2.99.07.77.36,1.45.82,2.05.19.25.14.58.36.8.03-.02.06-.03.07-.05.12-.18-.2-.55.18-.58.28-.03.32.3.42.51.06.14.13.27.21.4.07.1.19.18.31.12.35-.18.58-.02.77.24.09.12.17.25.34.27.6.06.99.46,1.27.92.29.48.68.83,1.14,1.12.3.19.6.4.67.81.03.18.21.26.35.37.26.2.44.49.68.72.14.14.43-.08.55.2.07.16.17.33.3.45.22.22.21.48.24.75.02.31-.12.53-.38.66-.24.12-.51.19-.75.31-.12.06-.25.18-.12.35-.05-.02-.1-.04-.15-.04-.08,0-.11.04-.08.1,0,.01.05.02.07.01.05-.03.09-.06.14-.1Z"/>
      <path class="cls-3" d="M88.29,95.96c0,1.24.11,2.35.29,3.45.38,2.33,1.1,4.57,1.99,6.75.6,1.45,1.23,2.88,1.88,4.31.21.46.27.9.2,1.4-.32,2.1-.38,4.2-.23,6.32.08,1.11.13,2.23.19,3.34.02.43.08.84.28,1.22.2.39.5.67.95.77.77.17,1.54.31,2.33.31.97,0,1.93.04,2.89-.03,1.9-.14,3.8-.06,5.7-.09.66,0,1.32,0,1.99.08.69.08,1.39.05,2.08-.03.3-.03.6-.06.98-.09-.24.62-.62.98-1.21,1.08-.21.04-.35.08-.27.33.02.06.06.13.04.17-.27.67-.14,1.2.46,1.64.1.07.17.28.15.41-.06.44.12.83.23,1.23.18.6.38,1.19.31,1.83.23,0,.14-.18.21-.25.08-.09-.06-.08.06-.07.05,0,.12.05.13.09.03.11.04.23.03.35-.03.42-.12.84.07,1.25.08.17.02.36-.03.53-.09.35-.17.7-.28,1.05-.06.2-.04.34.16.45.12.07.13.19.09.32-.21.69-.57,1.27-1.26,1.57-.77.34-1.56.64-2.34.97-.5.21-1,.39-1.48.67-.51.3-.67.84-.97,1.27-.11.15.12.52.4.6.13.04.27-.07.26.19-.06,1.36-.4,2.68-.7,4-.09.41-.27.79-.45,1.18-.18.4-.57.64-.91.85-.86.53-1.44,1.27-1.8,2.18-.47,1.16-1.19,2.16-1.91,3.16-.25.34-.58.61-.93.86-.52.38-.93.84-1.33,1.35-1.14,1.46-2.53,2.66-4.1,3.65-.65.41-1.34.69-2.14.55-.3-.05-.6,0-.8.29-.1.14.02.41-.22.44-.17.02-.35-.07-.52-.1-.12-.02-.24-.04-.36-.05-.23-.03-.42.03-.5.27-.1.3-.34.32-.59.26-.23-.06-.47-.12-.69-.22-.37-.16-.76-.18-1.15-.24-.15-.02-.34-.04-.44.03-.45.36-.93.18-1.38.07-.68-.17-1.27-.02-1.74.45-.24.24-.46.34-.79.33-.44-.02-.88.26-1.32.02-.49.25-1.13.16-1.51.66-.23.3-.53.46-.94.41-.42-.05-.78-.22-.94-.59-.12-.27-.32-.39-.53-.44-.35-.08-.7-.05-.65-.58,0-.1-.2-.21-.37-.2-.17,0-.28.09-.32.26-.02.08-.04.16-.07.25-.27-.27-.28-.54-.09-.83.18-.27.13-.54-.03-.76-.36-.51-.6-1.09-.98-1.59-.22-.29-.08-.57.27-.65.47-.11.5-.15.56-.55.14-.87,0-1.69-.5-2.42-1.02-1.51-1.78-3.14-2.27-4.9-.2-.7-.71-1.25-1-1.92-.03-.07-.13-.13-.2-.16-.39-.15-.63-.46-.87-.76-.67-.86-1.22-1.8-1.59-2.83-.11-.3-.27-.61-.15-.96.03-.08.02-.2-.02-.25-.56-.73-.42-1.61-.56-2.43-.01-.09,0-.18,0-.27.03-.68-.11-1.31-.47-1.9-.26-.42-.38-.87-.3-1.38.07-.48-.06-.95-.04-1.44.02-.32-.08-.63.13-.94.11-.17.04-.41-.03-.62-.11-.35-.28-.67-.49-.97-1.03-1.46-1.92-2.99-2.59-4.65-.12-.3-.27-.59-.41-.9,1.02-.19,1.08-.23,1.85-1.04.81-.87,1.43-1.87,1.9-2.96.33-.77.61-1.57.92-2.36.08-.19.15-.39.24-.64.31.08.6.12.87.23.27.1.45.04.64-.16.65-.67,1.32-1.33,1.97-2,3.25-3.37,6.32-6.9,9.35-10.46,2.35-2.76,4.66-5.54,6.99-8.31.19-.22.34-.49.73-.71Z"/>
      <path class="cls-3" d="M128.48,116.99c.52-.03.93-.09,1.25-.41.14-.14.28-.11.47-.04.24.07.55-.04.71-.24.29-.34.71-.2,1.05-.37.08-.04.2.17.37-.08.3-.46.72-.88,1.34-.89.15,0,.18-.05.24-.17.16-.32.35-.62.55-.92.1-.14.17-.06.25.06.17.25.26.25.35.05.06-.13.17-.29.15-.41-.06-.39-.02-.7.38-.91.16-.08.19-.3.11-.49-.05-.11-.12-.22-.13-.33-.02-.17-.03-.39.14-.49.23-.13.29.1.39.24.11.14.27.21.34,0,.08-.23.26-.38.42-.44.37-.15.59-.34.71-.73.13-.42.18-.82-.04-1.22-.01-.02,0-.05,0-.07.23-.28.48-.54.68-.83.06-.09.06-.28.18-.26.18.02.2.19.15.35,0,.03-.02.07,0,.09.15.18.33.33.44.53.11.2.12.47.34.62.33.22.43.58.55.91.21.6.34,1.22.38,1.85.05.82.15,1.62.61,2.33.11.16.13.34.09.52-.07.29-.16.58-.27.86-.06.17-.17.33-.38.33-.23,0-.29-.19-.35-.36-.07-.2-.11-.41-.18-.6-.03-.06-.14-.12-.22-.12-.07,0-.16.08-.2.14-.05.07-.09.18-.08.25.1.46-.05.97.3,1.38.12.14.14.34.04.51-.2.32-.14.75-.51,1.01-.21.15-.28.46-.29.74,0,.21-.03.42,0,.63.09.86-.11,1.68-.4,2.48-.25.68-.55,1.34-.74,2.04-.32,1.13-.79,2.21-1.05,3.36-.08.38-.25.74-.4,1.1-.4.91-.71,1.86-.87,2.84-.09.59-.34,1.15-.38,1.76-.01.14-.09.28-.16.42-.29.6-.55,1.2-.74,1.84-.14.48-.45.77-.93.88-.21.04-.41.11-.62.13-.52.06-1,.22-1.43.51-.08.05-.16.09-.24.13-.47.25-.93.26-1.35-.08-.27-.21-.53-.38-.89-.39-.14,0-.28-.09-.41-.17-.47-.29-.83-.65-.95-1.24-.11-.52-.46-.98-.46-1.54,0-.21-.06-.41.03-.62.18-.4.06-.77-.14-1.12-.1-.18-.21-.36-.32-.54-.41-.68-.45-1.42-.38-2.18.02-.17.11-.34.18-.51.05-.11.19-.2.19-.3,0-.47.18-.78.66-.94.2-.06.27-.32.34-.52.2-.57.47-1.1.83-1.6.23-.33.39-.67.22-1.09-.05-.12,0-.3.03-.44.04-.16.03-.3-.07-.42-.25-.29-.31-.64-.37-1-.04-.24-.1-.47-.19-.69-.26-.63-.3-1.29-.37-1.95-.04-.41.04-.78.31-1.1.49-.57.73-1.24.75-2.06ZM134.04,115.24c0-.1-.06-.15-.15-.14-.03,0-.09.08-.08.11,0,.04.06.09.11.11.07.03.11,0,.13-.07ZM134.81,114.32s-.04-.04-.06-.06c-.02.02-.04.04-.06.06.03.02.06.04.09.07.01-.02.02-.04.03-.06Z"/>
      <path class="cls-2" d="M73.46,22.48c-.03.38-.06.65-.08.91-.05.57-.09,1.14-.15,1.71-.08.81.18,1.48.74,2.05.72.73,1.35,1.54,2,2.33.29.36.51.73.53,1.21.03.64.3,1.22.59,1.78.12.24.25.48.4.71.12.19.07.34-.08.47-.89.79-1.88,1.39-3.05,1.68-1.21.3-2.39.15-3.55-.24-.29-.1-.42-.27-.42-.6.01-1.66,0-3.31.01-4.97,0-.88.2-1.73.41-2.58.15-.61.33-1.22.51-1.82.28-.94,1.1-1.98,2.14-2.64Z"/>
      <path class="cls-2" d="M61.24,114.95c-.25-.43-.29-.89-.36-1.33-.15-1.1-.33-2.2-.11-3.32.17-.84.41-1.09,1.25-1.11.67-.01,1.31-.13,1.96-.29.03,0,.11.05.11.08,0,.05-.02.13-.06.16-.1.06-.21.12-.32.15-.29.07-.47.27-.59.52-.18.35-.36.69-.66.96-.16.15-.24.34-.25.56-.02.33-.1.65-.25.95-.08.16-.13.34-.14.52-.05.75-.35,1.43-.58,2.16Z"/>
      <path class="cls-2" d="M85.37,47.17c-.12-.18-.02-.32.02-.45.23-.74.51-1.48.7-2.23.11-.45.36-.58.77-.56.21,0,.42-.03.63-.04.65-.03.73.08.48.72-.35.9-1.02,1.54-1.77,2.11-.25.19-.5.41-.83.45Z"/>
      <path class="cls-2" d="M87.42,71.41c.03.07.06.1.05.12-.14.55-.16,1.19-.53,1.61-.32.37-.93.38-1.4.55-.19.07-.4.25-.59.09-.24-.19-.35-.48-.42-.77-.03-.14.09-.21.2-.27.85-.45,1.71-.89,2.56-1.33.02-.01.06,0,.14,0Z"/>
      <path class="cls-2" d="M72.69,36.75c.57.65,1.13,1.27,1.67,1.89-.07.1-.09.16-.13.19q-1.02.64-1.89-.18c-.75-.71-.67-.53-.14-1.38.11-.17.19-.38.49-.52Z"/>
      <path class="cls-2" d="M73.11,99.73c.02-.24.1-.31.24-.31.03,0,.06,0,.09,0,1.79.44,1.56-.02,1.15,1.75-.13.55-.36.61-.79.26-.16-.14-.29-.3-.38-.5-.19-.41-.29-.85-.31-1.21Z"/>
      <path class="cls-2" d="M90.04,72.83c.59.86.98,1.58.96,2.45,0,.18-.12.28-.29.23-.35-.09-.69-.19-1.03-.29-.21-.07-.25-.21-.19-.42.17-.6.34-1.2.55-1.98Z"/>
      <path class="cls-2" d="M87.12,68.36c-.12,0-.24.03-.36.02-.08,0-.19-.02-.23-.08-.1-.14.03-.22.12-.29.21-.17.41-.37.65-.49.3-.15.47.21.73.26.07.01.12.02.15-.05.02-.05.03-.11.03-.16,0-.03-.02-.05-.03-.08-.06-.16-.3-.25-.24-.46.06-.23.32-.25.48-.37.1-.07.21-.13.32-.16.09-.02.19.06.18.15-.03.36-.14.71-.29,1.04-.05.11-.15.05-.23.06-.08.01-.23.05-.23.07,0,.57-.43.48-.77.52-.09.01-.18.01-.27.02,0,0,0,0,0,0Z"/>
      <path class="cls-2" d="M87.17,79.51c-.67-.01-.68-.01-.81-.68-.07-.38-.14-.76-.2-1.15,0-.04.04-.11.07-.13.04-.02.13-.01.16.02.36.39.73.78,1.08,1.2.16.19.51.35.35.64-.12.22-.44.08-.65.11Z"/>
      <path class="cls-2" d="M78.93,41.88c-.68-.44-.94-1.09-1.11-1.8-.06-.26.16-.36.35-.46.33-.18.46-.14.5.2.09.68.17,1.37.26,2.06Z"/>
      <path class="cls-2" d="M80.77,45.69c.6.12,1.11.35,1.63.53.13.05.17.17.13.29-.1.28-.21.55-.32.84-.31-.02-.4-.27-.56-.42-.19-.19-.36-.39-.53-.6-.14-.17-.35-.31-.35-.64Z"/>
      <path class="cls-2" d="M95.56,46.45c.13.4.11.85.13,1.29.02.49-.24.69-.72.57-.05-.01-.11-.05-.14-.09-.24-.33-.16-.73.19-.97.05-.03.11-.05.15-.09.06-.05.17-.1.11-.19-.04-.06-.15-.07-.23-.09-.08-.03-.22-.03-.24-.08-.04-.13.06-.22.18-.25.17-.04.31-.19.56-.1Z"/>
      <path class="cls-2" d="M82.9,35.35c.04.6.07,1.07.09,1.55.01.27-.08.37-.37.39-.12.01-.24.01-.35,0-.2-.03-.35-.3-.26-.49.07-.16.18-.3.29-.44.18-.22.17-.36-.12-.45-.08-.03-.1-.13-.02-.21.02-.02.05-.04.08-.05.19-.09.38-.17.67-.31Z"/>
      <path class="cls-2" d="M95.7,69.56s0,.11,0,.2c0,.45-.05.5-.52.5-.18,0-.37,0-.43-.22-.06-.23-.14-.47.08-.66.07-.06.15-.09.22-.15.23-.18.22-.2-.1-.35-.05-.02-.11-.05-.14-.1-.02-.03.02-.12.05-.14.13-.07.27-.13.41-.18.23-.08.33-.02.36.23.03.27.04.53.06.87Z"/>
      <path class="cls-2" d="M86.39,55.9c-.03-.31.15-.47.3-.65.05-.06.16-.11.23-.11.5.06,1.01.08,1.49.25.04.02.09.09.09.13,0,.05-.06.12-.1.13-.66.12-1.33.23-2.01.24Z"/>
      <path class="cls-2" d="M60.76,117.95c-.05-.43-.08-.8-.15-1.16-.08-.39-.03-.71.32-.95.09-.06.13-.2.31-.21-.01.79-.05,1.57-.48,2.32Z"/>
      <path class="cls-2" d="M85.54,38.76c-.33-.02-.43-.19-.58-.29-.59-.39-.88-.89-.53-1.65.56.52.81,1.2,1.11,1.94Z"/>
      <path class="cls-2" d="M87.57,49.06c.1-.23.16-.37.23-.5.08-.17.19-.3.41-.24.19.05.32.14.33.35,0,.12.01.24,0,.35-.01.09-.07.17-.18.16-.23-.03-.46-.07-.79-.13Z"/>
      <path class="cls-2" d="M86.97,63.44c-.03.13-.11.21-.21.28-.39.27-.68.36-.7.22-.04-.27.19-.42.29-.63.04-.08.1-.15.15-.22.14-.18.29-.14.39.1.03.08.06.17.08.25Z"/>
      <path class="cls-2" d="M87.83,59.26c-.13-.02-.22-.03-.31-.05-.09-.02-.17-.08-.16-.18,0-.05.03-.12.07-.15.12-.09.24-.18.38-.24.17-.08.32-.35.54-.15.15.14-.02.33-.07.5-.06.25-.25.32-.44.28Z"/>
      <path class="cls-2" d="M90.82,59.67c-.28-.05-.52-.08-.75-.13-.04,0-.1-.08-.09-.11,0-.05.06-.12.1-.13.29-.04.59-.08.89-.1.09,0,.18.06.16.16-.01.08-.05.18-.11.23-.06.05-.15.06-.19.07Z"/>
      <path class="cls-2" d="M79.4,46c-.32-.34-.52-.55-.72-.77-.03-.03-.03-.12,0-.16.02-.04.1-.08.14-.08.5.05.57.16.58,1.01Z"/>
      <polygon class="cls-2" points="54.5 84.52 54.44 84.53 54.48 84.53 54.5 84.52"/>
      <path class="cls-2" d="M80.79,84.78c.07-.02.18-.09.21-.06.09.08.05.2,0,.3-.07-.08-.14-.16-.2-.23Z"/>
      <path class="cls-1" d="M124.9,59.06s-.09.07-.14.1c-.02,0-.07,0-.07-.01-.03-.06,0-.11.08-.1.05,0,.1.03.15.04,0,0-.01-.02-.01-.02Z"/>
    </g>
  </g>
</svg>