<svg width="495" height="160" viewBox="0 0 495 160" fill="none" xmlns="http://www.w3.org/2000/svg">
<path d="M397.86 86.4499C397.94 86.9599 398.31 87.2899 398.57 87.6699C401.28 91.5299 403.99 95.3799 406.71 99.2299C406.91 99.5099 407.11 99.7899 407.3 100.08C407.4 100.23 407.3 100.45 407.12 100.46C406.9 100.47 406.69 100.48 406.47 100.48C403.53 100.48 400.59 100.48 397.65 100.48C396.95 100.48 396.27 100.42 395.6 100.2C394.49 99.8399 393.62 99.1599 392.96 98.1999C391.87 96.6399 390.77 95.0899 389.68 93.5299C388.56 91.9399 387.42 90.3599 386.34 88.7499C386 88.2399 385.6 88.0899 385.03 88.1399C384.7 88.1699 384.58 88.3299 384.57 88.6299C384.57 88.9799 384.57 89.3199 384.57 89.6699C384.57 92.7799 384.57 95.8999 384.57 99.0099C384.57 99.3599 384.57 99.6999 384.56 100.05C384.55 100.29 384.42 100.45 384.16 100.46C384.07 100.46 383.99 100.47 383.9 100.47C381.56 100.47 379.23 100.47 376.89 100.47C376.67 100.47 376.46 100.45 376.24 100.42C374.94 100.21 374.08 99.2999 373.95 97.9799C373.92 97.6799 373.94 97.3699 373.94 97.0699C373.94 84.9099 373.94 72.7599 373.94 60.5999C373.94 59.1599 373.8 59.2599 375.25 59.2599C379.88 59.2599 384.51 59.2599 389.13 59.2599C391.93 59.2599 394.64 59.7299 397.21 60.8499C400.98 62.4999 403.78 65.1599 405.26 69.0399C407.5 74.9199 405.63 81.5599 399.87 85.2599C399.22 85.6799 398.53 86.0299 397.85 86.4199L397.86 86.4499ZM384.57 73.7099C384.57 75.3099 384.57 76.9099 384.57 78.5099C384.57 78.9399 384.67 79.0399 385.11 79.0399C386.67 79.0399 388.22 79.0799 389.78 79.0099C391 78.9599 392.16 78.5899 393.18 77.8799C394.26 77.1299 394.97 76.1199 395.18 74.8199C395.47 72.9899 394.95 71.3999 393.61 70.0999C392.51 69.0299 391.15 68.4799 389.64 68.3999C388.13 68.3299 386.61 68.3599 385.1 68.3599C384.66 68.3599 384.56 68.4599 384.56 68.8999C384.56 70.4999 384.56 72.0999 384.56 73.6999L384.57 73.7099Z" fill="#880808"/>
<path d="M225.23 80.0499C225.23 81.9099 225.21 83.7699 225.23 85.6299C225.27 89.5599 223.82 92.8799 221.16 95.6999C218.68 98.3299 215.63 99.9799 212.11 100.71C206.73 101.83 201.7 100.95 197.19 97.7099C194.06 95.4599 191.96 92.4699 191.09 88.6699C190.84 87.5699 190.71 86.4599 190.71 85.3299C190.72 81.6499 190.71 77.9799 190.71 74.2999C190.71 69.8399 192.43 66.1499 195.7 63.1799C198.5 60.6299 201.83 59.1999 205.59 58.7399C210.34 58.1499 214.71 59.1599 218.62 61.9199C222.09 64.3699 224.29 67.6699 225.06 71.8899C225.19 72.6199 225.22 73.3499 225.22 74.0799C225.22 76.0699 225.22 78.0599 225.22 80.0499H225.23ZM214.04 79.9499C214.04 77.9999 214.06 76.0599 214.04 74.1099C214.01 72.1599 213.29 70.4799 211.83 69.1699C210.58 68.0399 209.1 67.4799 207.42 67.6999C204.98 68.0099 203.31 69.3899 202.4 71.6599C202.06 72.5099 201.96 73.4199 201.95 74.3299C201.95 75.7599 201.95 77.1799 201.95 78.6099C201.95 80.7699 201.95 82.9299 201.95 85.0999C201.95 86.7399 202.32 88.2699 203.32 89.6099C205.79 92.9399 210.57 92.8599 212.92 89.4399C213.67 88.3399 214.06 87.1199 214.06 85.7799C214.06 83.8299 214.06 81.8899 214.06 79.9399L214.04 79.9499Z" fill="#38A750"/>
<path d="M469.48 59.4199C469.81 59.2399 470.11 59.2899 470.41 59.2899C473.82 59.2899 477.24 59.2899 480.65 59.2899C481.4 59.2899 482.1 59.3899 482.76 59.7999C483.66 60.3599 484.16 61.1799 484.44 62.1699C484.84 63.6299 485.24 65.0799 485.64 66.5399C488.64 77.4499 491.64 88.3499 494.64 99.2599C494.71 99.5099 494.79 99.7599 494.84 100.01C494.91 100.33 494.78 100.49 494.43 100.5C493.31 100.51 492.18 100.5 491.06 100.51C489.76 100.51 488.47 100.52 487.17 100.51C485.04 100.49 483.89 99.5999 483.33 97.5499C483.13 96.84 482.98 96.1199 482.79 95.4199C482.59 94.6699 482.58 94.6699 481.85 94.6499C481.33 94.6499 480.81 94.6499 480.29 94.6499C477.35 94.6499 474.41 94.6499 471.47 94.6499C471.21 94.6499 470.95 94.6599 470.69 94.6499C470.31 94.6299 470.15 94.84 470.07 95.16C469.76 96.4199 469.45 97.6699 469.14 98.9299C469.05 99.3099 468.95 99.6799 468.86 100.06C468.79 100.36 468.6 100.49 468.31 100.5C467.79 100.5 467.27 100.5 466.75 100.5C464.89 100.5 463.03 100.5 461.17 100.5C460.54 100.5 459.97 100.36 459.5 99.9199C458.88 99.3499 458.61 98.6699 458.85 97.8199C459.19 96.6099 459.51 95.3999 459.84 94.1999C462.94 82.9599 466.04 71.7299 469.14 60.4899C469.24 60.1199 469.36 59.7499 469.47 59.4199H469.48ZM480.28 85.3999C479.04 80.4299 477.79 75.4599 476.54 70.4899C476.53 70.4299 476.41 70.3999 476.27 70.3099C475 75.3599 473.74 80.3899 472.52 85.4299C473.83 85.5999 479.25 85.5799 480.28 85.3999Z" fill="#880808"/>
<path d="M320.08 59.2799C321.72 59.2799 323.37 59.2799 325.01 59.2799C327.07 59.2899 328.24 60.1499 328.8 62.1299C330.1 66.7399 331.36 71.3699 332.64 75.9899C334.76 83.6899 336.88 91.3899 339 99.0999C339.01 99.1399 339.03 99.1799 339.04 99.2199C339.32 100.45 339.63 100.51 338.11 100.5C336.03 100.49 333.96 100.5 331.88 100.5C331.62 100.5 331.36 100.51 331.1 100.5C329.45 100.39 328.26 99.4499 327.79 97.8599C327.54 97.0299 327.38 96.1799 327.16 95.3499C326.99 94.6999 326.94 94.6499 326.29 94.6499C322.62 94.6499 318.94 94.6499 315.27 94.6499C314.69 94.6499 314.55 94.7399 314.41 95.3599C314.12 96.6699 313.77 97.9599 313.45 99.2599C313.38 99.5499 313.29 99.8399 313.22 100.14C313.16 100.38 313 100.5 312.76 100.5C312.54 100.5 312.33 100.51 312.11 100.51C310.03 100.51 307.96 100.51 305.88 100.51C305.54 100.51 305.18 100.51 304.85 100.43C303.67 100.16 302.96 99.0599 303.26 97.8899C303.81 95.7599 304.41 93.6399 304.99 91.5099C307.81 81.2699 310.63 71.0299 313.45 60.7899C313.57 60.3399 313.63 59.7899 313.92 59.4799C314.28 59.0899 314.9 59.3199 315.41 59.3099C316.97 59.2899 318.52 59.3099 320.08 59.3099V59.2799ZM324.55 85.4299C324.46 84.3699 321.22 71.3699 320.75 70.2099C320.65 70.4499 320.55 70.6399 320.5 70.8399C319.36 75.4399 318.22 80.0399 317.09 84.6399C317.03 84.8999 316.86 85.1899 317.04 85.4699C318.69 85.5999 323.59 85.5699 324.55 85.4299Z" fill="#880808"/>
<path d="M185.99 90.7099C185.99 93.4799 185.99 96.2499 185.99 99.0099C185.99 99.3599 185.99 99.6999 185.98 100.05C185.98 100.29 185.84 100.45 185.58 100.47C185.32 100.49 185.06 100.5 184.8 100.5C180.22 100.5 175.63 100.52 171.05 100.5C167.79 100.48 164.71 99.7299 161.88 98.0799C158.05 95.8499 155.4 92.6899 154.24 88.3499C153.93 87.1699 153.8 85.9799 153.8 84.7599C153.81 81.4299 153.81 78.0999 153.8 74.7699C153.79 70.9499 155.16 67.6699 157.73 64.8999C160.4 62.0099 163.75 60.3099 167.6 59.5799C168.71 59.3699 169.83 59.2899 170.95 59.2899C174.71 59.2899 178.48 59.3599 182.24 59.2599C184.47 59.1999 185.5 60.7099 185.43 62.4499C185.36 64.0899 185.42 65.7399 185.41 67.3799C185.41 67.5999 185.4 67.8099 185.37 68.0299C185.35 68.2199 185.21 68.3399 185.03 68.3499C184.69 68.3699 184.34 68.3799 183.99 68.3799C179.84 68.3799 175.69 68.3799 171.54 68.3799C170.94 68.3799 170.33 68.3799 169.73 68.5199C167.07 69.1699 165.17 71.5099 165 74.3499C164.99 74.5199 165 74.6999 165 74.8699C165 78.1599 165 81.4399 165 84.7299C165 86.6299 165.63 88.2899 166.98 89.6499C168.03 90.6999 169.29 91.3199 170.79 91.3499C172.09 91.3799 173.38 91.3699 174.68 91.3499C175.23 91.3499 175.33 91.2299 175.34 90.6399C175.35 88.9499 175.34 87.2699 175.34 85.5799C175.34 83.5899 175.34 81.5999 175.34 79.6099C175.34 78.9899 175.42 78.9299 176 78.8999C176.22 78.8899 176.43 78.8999 176.65 78.8999C178.64 78.8999 180.63 78.8999 182.62 78.8999C182.92 78.8999 183.23 78.8899 183.53 78.9199C184.95 79.0799 185.88 80.0699 185.97 81.4999C185.99 81.7999 185.97 82.1099 185.97 82.4099C185.97 85.1799 185.97 87.9499 185.97 90.7099H185.99Z" fill="#38A750"/>
<path d="M342.31 78.78C342.31 72.77 342.31 66.76 342.31 60.75C342.31 60.4 342.31 60.06 342.32 59.71C342.32 59.46 342.47 59.31 342.71 59.29C343.01 59.27 343.31 59.28 343.62 59.28C351.31 59.28 359.01 59.28 366.7 59.28C366.92 59.28 367.13 59.28 367.35 59.28C368.78 59.35 369.77 60.28 369.94 61.69C369.95 61.78 369.95 61.86 369.95 61.95C369.95 63.9 369.95 65.84 369.95 67.79C369.95 68.23 369.83 68.34 369.43 68.36C369.08 68.38 368.74 68.36 368.39 68.36C363.72 68.36 359.05 68.36 354.39 68.36C354.04 68.36 353.7 68.36 353.35 68.37C353.11 68.38 352.96 68.53 352.95 68.78C352.95 69.08 352.94 69.38 352.94 69.69C352.94 71.12 352.94 72.54 352.94 73.97C352.94 75.54 352.81 75.39 354.3 75.39C354.73 75.39 355.16 75.39 355.6 75.39C358.71 75.39 361.82 75.39 364.94 75.39C365.29 75.39 365.63 75.37 365.98 75.4C367.11 75.5 368 76.28 368.26 77.38C368.32 77.63 368.36 77.89 368.36 78.15C368.36 79.88 368.37 81.61 368.36 83.34C368.36 83.84 368.25 83.93 367.74 83.94C367.22 83.95 366.7 83.94 366.18 83.94C362.25 83.94 358.31 83.94 354.38 83.94C354.03 83.94 353.69 83.94 353.34 83.96C353.09 83.97 352.95 84.13 352.95 84.38C352.94 84.73 352.94 85.07 352.94 85.42C352.94 90.05 352.94 94.67 352.94 99.3C352.94 100.54 353 100.48 351.72 100.48C349.69 100.48 347.66 100.48 345.63 100.48C345.33 100.48 345.02 100.48 344.72 100.44C343.35 100.26 342.46 99.34 342.33 97.96C342.3 97.62 342.32 97.27 342.32 96.92C342.32 90.87 342.32 84.82 342.32 78.77L342.31 78.78Z" fill="#880808"/>
<path d="M261.77 78.8299C261.77 72.8599 261.77 66.8999 261.77 60.9299C261.77 60.6299 261.77 60.3199 261.77 60.0199C261.79 59.3299 261.81 59.3099 262.52 59.2899C262.82 59.2899 263.13 59.2899 263.43 59.2899C270.87 59.2899 278.3 59.2899 285.74 59.2899C286.13 59.2899 286.52 59.2799 286.91 59.2999C288.27 59.3999 289.24 60.3499 289.34 61.7099C289.37 62.1799 289.35 62.6599 289.35 63.1399C289.35 64.6999 289.35 66.2499 289.35 67.8099C289.35 68.2399 289.22 68.3499 288.82 68.3699C288.47 68.3899 288.13 68.3699 287.78 68.3699C283.2 68.3699 278.61 68.3699 274.03 68.3699C273.68 68.3699 273.34 68.3699 272.99 68.3699C272.54 68.3899 272.42 68.4799 272.42 68.8799C272.42 70.8699 272.41 72.8599 272.42 74.8499C272.42 75.2799 272.54 75.3699 272.96 75.3899C273.31 75.4099 273.65 75.3899 274 75.3899C277.46 75.3899 280.92 75.3899 284.38 75.3899C284.73 75.3899 285.07 75.3699 285.42 75.3999C286.69 75.5199 287.71 76.4899 287.75 77.7699C287.81 79.6699 287.77 81.5699 287.77 83.4799C287.77 83.7999 287.57 83.9299 287.27 83.9399C286.92 83.9399 286.58 83.9399 286.23 83.9399C282.17 83.9399 278.1 83.9399 274.04 83.9399C273.74 83.9399 273.43 83.9399 273.13 83.9399C272.47 83.9599 272.44 83.9899 272.42 84.7099C272.42 85.0099 272.42 85.3199 272.42 85.6199C272.42 90.0699 272.42 94.5299 272.42 98.9799C272.42 99.3299 272.42 99.6699 272.41 100.02C272.41 100.27 272.26 100.42 272.01 100.44C271.75 100.46 271.49 100.47 271.23 100.47C269.15 100.47 267.08 100.47 265 100.47C264.61 100.47 264.22 100.45 263.84 100.37C262.65 100.11 261.88 99.1999 261.79 98.0099C261.76 97.6699 261.79 97.3199 261.79 96.9699C261.79 90.9199 261.79 84.8599 261.79 78.8099L261.77 78.8299Z" fill="#38A750"/>
<path d="M450.15 100.49C448.42 100.49 446.69 100.5 444.96 100.49C440.75 100.45 436.96 99.1999 433.71 96.4899C429.74 93.1699 427.66 88.9099 427.62 83.6999C427.6 80.7599 427.62 77.8199 427.62 74.8799C427.6 70.9699 429 67.6199 431.65 64.7899C434.31 61.9499 437.62 60.2899 441.43 59.5699C442.54 59.3599 443.66 59.2799 444.78 59.2799C447.94 59.2799 451.09 59.2799 454.25 59.2799C454.51 59.2799 454.77 59.2799 455.03 59.2999C456.1 59.4099 456.98 60.1499 457.24 61.1999C457.33 61.5699 457.37 61.9699 457.37 62.3499C457.38 64.0799 457.37 65.8099 457.37 67.5399C457.37 67.6299 457.37 67.7099 457.37 67.7999C457.34 68.2399 457.25 68.3399 456.84 68.3599C456.49 68.3699 456.15 68.3599 455.8 68.3599C452.3 68.3599 448.8 68.3599 445.29 68.3599C444.69 68.3599 444.08 68.3599 443.49 68.5099C440.74 69.2199 438.86 71.6499 438.83 74.6399C438.8 77.7099 438.83 80.7799 438.83 83.8499C438.83 84.6399 438.96 85.3999 439.16 86.1499C439.44 87.2499 439.93 88.2599 440.65 89.1499C441.8 90.5699 443.25 91.3699 445.13 91.3599C448.07 91.3399 451.01 91.3599 453.95 91.3599C454.42 91.3599 454.9 91.3599 455.37 91.4299C456.54 91.5899 457.33 92.3499 457.56 93.5099C457.62 93.7999 457.64 94.1099 457.64 94.4099C457.64 96.1399 457.64 97.8699 457.64 99.5999C457.64 99.7699 457.64 99.9499 457.61 100.12C457.59 100.31 457.48 100.44 457.28 100.46C456.98 100.48 456.68 100.49 456.38 100.49C454.3 100.49 452.23 100.49 450.15 100.49Z" fill="#880808"/>
<path d="M230.39 78.7799C230.39 72.8099 230.39 66.8499 230.39 60.8799C230.39 60.4899 230.39 60.0999 230.41 59.7099C230.41 59.4599 230.56 59.3199 230.81 59.2999C231.03 59.2799 231.24 59.2799 231.46 59.2799C233.66 59.2799 235.87 59.2799 238.07 59.2799C238.55 59.2799 239.02 59.2799 239.47 59.4899C240.36 59.9199 240.88 60.6099 241.01 61.5899C241.06 61.9699 241.03 62.3699 241.03 62.7599C241.03 71.7499 241.03 80.7499 241.03 89.7399C241.03 91.5199 240.83 91.3499 242.6 91.3499C246.36 91.3499 250.12 91.3499 253.88 91.3499C254.4 91.3499 254.92 91.3699 255.43 91.4599C256.51 91.6699 257.25 92.4999 257.42 93.5799C257.45 93.7499 257.47 93.9199 257.47 94.0999C257.47 95.9999 257.48 97.8999 257.47 99.8099C257.47 100.4 257.39 100.46 256.78 100.49C256.52 100.49 256.26 100.49 256 100.49C248.65 100.49 241.3 100.49 233.95 100.49C233.48 100.49 232.99 100.49 232.53 100.4C231.29 100.16 230.48 99.2299 230.39 97.9699C230.37 97.6299 230.39 97.2799 230.39 96.9299C230.39 90.8799 230.39 84.8199 230.39 78.7699V78.7799Z" fill="#38A750"/>
<path d="M422.47 80.8299C422.47 86.8399 422.47 92.8499 422.47 98.8599C422.47 99.2099 422.47 99.5499 422.47 99.8999C422.45 100.39 422.37 100.48 421.84 100.49C419.46 100.49 417.08 100.53 414.71 100.49C412.86 100.46 411.89 99.4099 411.84 97.5299C411.84 97.2699 411.84 97.0099 411.84 96.7499C411.84 84.7699 411.84 72.7999 411.84 60.8199C411.84 59.1199 411.61 59.2999 413.34 59.2899C415.29 59.2899 417.23 59.2899 419.18 59.2899C419.53 59.2899 419.87 59.2799 420.22 59.3199C421.37 59.4499 422.3 60.3599 422.45 61.5099C422.5 61.9399 422.49 62.3699 422.49 62.8099C422.49 68.8199 422.49 74.8299 422.49 80.8399L422.47 80.8299Z" fill="#880808"/>
<path d="M81 85.01C80.91 85.42 80.81 85.8299 80.72 86.24C80.68 86.41 80.57 86.63 80.7 86.76C80.99 87.05 80.83 87.31 80.72 87.59C80.48 88.21 80.24 88.83 79.99 89.44C79.88 89.7 79.8 89.72 79.53 89.54C79.42 89.47 79.32 89.39 79.22 89.48C78.74 89.88 78.26 90.29 77.82 90.75C78.03 90.98 78.28 90.99 78.5 91.04C79.24 91.22 79.23 91.22 79.5 90.49C79.56 90.34 79.54 90.13 79.75 90.05C79.88 90 79.95 90.2 79.93 90.57C79.93 90.63 79.93 90.69 79.92 90.75C79.71 91.89 79.88 91.6899 78.82 91.59C78.76 91.59 78.7 91.59 78.64 91.56C78.23 91.42 77.89 91.46 77.61 91.84C77.36 92.17 76.96 92.11 76.61 92.16C76.32 92.2 76.22 92.3 76.28 92.57C76.36 93 76.36 93.39 76.06 93.76C75.85 94.03 75.87 94.39 75.85 94.72C75.79 95.41 75.75 96.1 75.68 96.79C75.64 97.21 75.6 97.22 75.16 97.21C74.98 97.21 74.8 97.1899 74.62 97.17C74.28 97.13 74.22 97.06 74.28 96.7C74.3 96.5799 74.33 96.46 74.35 96.34C74.39 95.96 74.08 95.39 73.73 95.23C73.67 95.2 73.53 95.25 73.49 95.3C73.18 95.71 72.88 96.1199 72.57 96.53C72.48 96.65 72.37 96.76 72.39 96.94C72.64 97.17 73.04 97.03 73.32 97.34C73.01 97.7999 72.69 98.27 72.39 98.75C72.11 99.18 71.84 99.61 71.57 100.04C71.82 100.44 72.07 100.85 72.32 101.25C72.4 101.38 72.48 101.51 72.55 101.64C72.64 101.81 72.6 101.94 72.43 101.99C72.2 102.05 71.97 102.12 71.68 102.03C71.68 101.51 71.68 100.97 71.59 100.44C71.57 100.32 71.55 100.19 71.49 100.1C71.38 99.93 71.18 99.91 71.01 99.94C70.87 99.96 70.86 100.1 70.86 100.23C70.89 100.87 70.64 101.4 70.23 101.87C70.17 101.94 70.07 102.02 70 101.95C69.66 101.59 69.34 101.85 68.99 101.95C69.05 102.28 69.29 102.47 69.48 102.69C69.57 102.79 69.7 102.79 69.78 102.67C69.87 102.54 69.96 102.43 70.12 102.39C70.64 102.27 70.82 102.27 70.71 102.88C70.52 103.95 70.33 105.01 70.13 106.08C70.11 106.2 70.07 106.31 69.91 106.36C69.73 106.14 69.77 105.86 69.74 105.61C69.69 105.19 69.65 104.77 69.65 104.35C69.65 103.92 69.49 103.6 69.19 103.32C68.92 103.06 68.82 103.06 68.69 103.4C68.62 103.6 68.54 103.8 68.49 104C68.22 105.3 67.41 106.34 66.8 107.48C66.75 107.58 66.64 107.69 66.54 107.71C66 107.85 65.57 108.2 65.08 108.42C64.93 108.49 64.77 108.67 64.6 108.51C64.47 108.39 64.61 108.23 64.65 108.1C64.88 107.34 64.98 106.58 64.82 105.78C64.74 105.39 64.62 105.03 64.4 104.69C64.22 104.41 64.04 104.13 63.87 103.85C63.69 103.54 63.52 103.22 63.52 102.84C63.52 102.78 63.51 102.72 63.5 102.66C63.47 102.33 63.1 102.1 63.21 101.74C63.3 101.44 63.63 101.32 63.81 101.08C63.92 100.93 63.97 100.75 63.91 100.56C63.81 100.28 63.71 99.99 63.58 99.72C63.23 99.02 62.83 98.34 62.77 97.53C62.75 97.33 62.6 97.22 62.49 97.08C62.29 96.82 62.08 96.56 61.91 96.28C61.79 96.08 61.65 95.87 61.86 95.62C61.95 95.51 61.86 95.4 61.79 95.3C61.59 95.03 61.5 94.71 61.46 94.38C61.4 93.96 61.24 93.57 60.96 93.23C60.85 93.09 60.74 92.9399 60.68 92.77C60.53 92.39 60.28 92.11 59.96 91.86C59.72 91.68 59.51 91.45 59.32 91.23C58.56 90.34 57.83 89.42 56.89 88.69C56.01 88.01 55.52 87.03 55.05 86.05C54.86 85.64 54.67 85.23 54.48 84.82C54.42 84.7 54.44 84.59 54.48 84.47H54.46C54.95 84.56 54.95 84.56 55.11 84.26C55.23 84.02 55.38 83.78 55.46 83.53C55.54 83.28 55.54 83 55.58 82.73C55.76 82.73 55.93 82.71 56.05 82.71C56.16 82.67 56.17 82.61 56.11 82.56C55.94 82.43 55.78 82.2999 55.69 82.1C55.62 81.95 55.61 81.84 55.76 81.71C56.12 81.4 56.15 81.14 55.84 80.78C55.66 80.58 55.67 80.41 55.79 80.22C55.9 80.04 56.05 79.88 56.16 79.71C56.3 79.4799 56.41 79.24 56.44 78.96C56.52 78.24 56.62 77.53 56.73 76.81C56.77 76.52 56.76 76.27 56.52 76.07C56.31 75.89 56.19 75.65 56.09 75.39C56.02 75.2 56.38 75.02 56.11 74.83C55.91 74.69 55.8 74.96 55.62 74.94C55.08 74.88 54.79 74.62 54.65 74.05C54.57 73.71 54.56 73.68 54.2 73.74C53.92 73.78 53.94 73.59 53.86 73.44C53.75 73.22 53.63 73.21 53.49 73.41C53.4 73.54 53.32 73.68 53.16 73.68C52.72 73.68 52.28 73.86 51.82 73.69C51.53 73.58 51.23 73.64 50.96 73.81C50.35 74.1899 49.64 74.12 48.97 74.16C48.53 74.18 48.17 73.92 47.88 73.59C47.53 73.1899 47.41 72.69 47.29 72.19C47.25 72.02 47.52 71.92 47.48 71.92C46.98 71.88 46.93 71.42 46.7 71.13C46.45 70.8299 46.17 70.55 45.87 70.3C45.49 69.98 45.04 69.81 44.53 69.83C44.26 69.83 43.99 69.83 43.72 69.85C43.48 69.8699 43.44 69.49 43.37 69.58C42.98 70.01 42.48 69.81 42.03 69.87C41.55 69.93 41.07 69.9699 40.59 70.02C40.05 70.07 39.52 70.2 39 70.36C38.7 70.45 38.43 70.56 38.3 70.88C38.19 71.1499 37.94 71.22 37.7 71.21C36.75 71.14 35.93 71.5 35.15 71.98C35.02 72.06 34.88 72.12 34.73 72.15C33.92 72.31 33.19 72.66 32.46 73.02C32.11 73.1899 31.79 73.19 31.43 73.04C30.93 72.83 30.41 72.6899 29.89 72.52C29.77 72.4799 29.65 72.46 29.62 72.32C29.57 72.16 29.52 72.13 29.41 72.28C29.27 72.49 29.06 72.53 28.85 72.45C28.02 72.1199 27.19 72.38 26.36 72.39C24.6 72.42 23 73.06 21.43 73.75C20.74 74.05 20.13 74.0799 19.44 73.77C18.36 73.28 17.32 72.7599 16.44 71.95C16.31 71.8299 16.18 71.7 16.06 71.56C15.52 70.99 14.93 70.47 14.16 70.22C14.01 70.17 13.89 70.09 13.81 69.95C13.7 69.75 13.5 69.6799 13.3 69.59C12.92 69.41 12.54 69.2199 12.31 68.84C12.2 68.6499 11.98 68.59 11.79 68.5C11.43 68.34 11.08 68.16 10.73 68C10.5 67.9 10.33 67.77 10.32 67.48C10.32 67.29 10.17 67.18 9.96999 67.13C9.61999 67.0499 9.38999 66.85 9.39999 66.44C9.39999 66.25 9.31999 66.08 9.08999 66.08C8.90999 66.08 8.82999 65.96 8.75999 65.82C8.66999 65.65 8.72999 65.54 8.88999 65.47C8.90999 65.47 8.92999 65.42 8.91999 65.41C8.80999 65.21 8.65999 65.05 8.75999 64.75C8.82999 64.56 8.57999 64.35 8.58999 64.09C8.58999 63.97 8.44999 63.84 8.36999 63.71C8.20999 63.44 7.81999 63.3 7.87999 62.9C7.87999 62.86 7.81999 62.78 7.77999 62.76C7.32999 62.62 7.07999 62.18 6.65999 62.04C6.26999 61.91 6.06999 61.62 5.92999 61.31C5.80999 61.04 5.60999 60.82 5.50999 60.55C5.38999 60.22 5.28999 60.27 5.11999 60.51C5.04999 60.6 4.95999 60.54 4.91999 60.45C4.85999 60.31 4.80999 60.15 4.65999 60.1C4.27999 59.97 4.15999 59.65 4.15999 59.33C4.15999 59.07 4.04999 58.89 3.97999 58.67C3.91999 58.47 3.80999 58.45 3.64999 58.53C3.40999 58.65 3.20999 58.66 3.01999 58.41C2.88999 58.23 2.52999 58.43 2.45999 58.22C2.31999 57.78 1.88999 57.73 1.61999 57.48C1.52999 57.4 1.43999 57.32 1.44999 57.18C1.47999 56.64 1.33999 56.12 1.32999 55.59C1.32999 55.34 1.36999 55.12 1.65999 55.02C1.84999 54.96 1.85999 54.76 1.76999 54.65C1.42999 54.22 1.29999 53.69 1.04999 53.22C0.81999 52.79 0.54999 52.4 -0.0100098 52.4C0.0699902 52.14 0.31999 52.13 0.47999 52C1.31999 51.37 1.86999 50.59 1.91999 49.51C1.94999 48.75 2.13999 48.02 2.44999 47.33C3.00999 46.09 2.98999 44.81 2.60999 43.53C2.48999 43.12 2.31999 42.74 1.97999 42.49C2.10999 42.19 2.20999 41.94 2.31999 41.69C2.57999 41.07 2.55999 40.46 2.22999 39.87C2.18999 39.79 2.12999 39.66 2.07999 39.66C1.55999 39.66 1.49999 39.22 1.32999 38.89C1.14999 38.55 1.11999 38.55 0.78999 38.91C0.62999 38.81 0.69999 38.64 0.70999 38.52C0.73999 37.88 0.88999 37.27 1.10999 36.67C1.20999 36.39 1.33999 36.11 1.65999 35.99C1.93999 35.89 2.05999 35.66 2.15999 35.39C2.40999 34.65 2.67999 33.92 3.12999 33.27C3.22999 33.12 3.35999 32.95 3.35999 32.78C3.35999 32.32 3.63999 32.08 3.93999 31.81C4.27999 31.51 4.58999 31.18 4.91999 30.87C5.21999 30.59 5.39999 30.25 5.40999 29.84C5.42999 29.01 5.76999 28.26 6.01999 27.49C6.13999 27.1 6.40999 26.82 6.76999 26.62C6.92999 26.53 7.08999 26.45 7.24999 26.37C7.75999 26.12 8.10999 25.72 8.30999 25.19C8.48999 24.74 8.67999 24.3 8.82999 23.84C9.03999 23.18 9.48999 22.85 10.17 22.82C10.79 22.8 11.35 22.62 11.9 22.34C12.17 22.2 12.42 22.04 12.62 21.8C12.93 21.42 13.31 21.13 13.72 20.86C14.62 20.27 15.27 19.43 15.86 18.55C15.98 18.38 16.05 18.17 16.13 17.98C16.3 17.59 16.31 17.22 15.98 16.9C15.82 16.74 15.74 16.57 15.81 16.33C15.85 16.16 15.87 15.96 15.83 15.8C15.64 15.02 15.95 14.37 16.39 13.78C16.7 13.35 16.94 12.93 16.99 12.4C17.01 12.23 17.07 12.04 17.16 11.89C17.75 11 18.43 10.2 19.46 9.79996C19.88 9.63996 20.3 9.44996 20.71 9.27996C21.58 8.90996 22.21 8.29996 22.62 7.43996C22.92 6.80996 23.21 6.17996 23.35 5.49996C23.4 5.25996 23.48 5.03996 23.53 4.79996C23.66 4.09996 24.17 3.82996 24.78 3.64996C24.91 3.60996 25.03 3.66996 25.09 3.77996C25.19 3.95996 25.26 4.16996 25.37 4.34996C25.84 5.16996 26.57 5.53996 27.49 5.38996C28 5.30996 28.5 5.23996 29.01 5.37996C29.15 5.41996 29.32 5.40996 29.45 5.34996C29.77 5.21996 30.08 4.96996 30.3 5.47996C30.32 5.51996 30.4 5.54996 30.45 5.54996C31.22 5.56996 31.99 5.85996 32.76 5.45996C33.17 5.24996 33.56 5.05996 33.77 4.59996C33.93 4.23996 34.28 4.07996 34.64 4.00996C34.88 3.95996 35.09 3.93996 35.27 3.73996C35.43 3.56996 35.61 3.73996 35.76 3.80996C36 3.92996 36.19 3.86996 36.3 3.65996C36.84 2.65996 37.76 2.26996 38.81 2.10996C39.61 1.98996 40.42 1.90996 41.23 1.82996C41.45 1.80996 41.64 1.76996 41.83 1.65996C42.17 1.44996 42.42 1.40996 42.9 1.38996C43.26 1.36996 43.62 1.38996 43.94 1.16996C44.05 1.08996 44.23 1.06996 44.37 1.06996C45 1.07996 45.64 1.04996 46.26 1.22996C46.49 1.29996 46.73 1.32996 46.86 1.56996C46.94 1.71996 47.1 1.73996 47.25 1.67996C47.39 1.62996 47.54 1.57996 47.67 1.50996C47.94 1.35996 48.21 1.24996 48.52 1.23996C48.73 1.23996 48.98 1.18996 49.09 1.00996C49.39 0.489958 49.73 0.629958 50.14 0.849958C50.49 1.03996 50.9 1.08996 51.24 0.799958C51.38 0.679958 51.51 0.689958 51.65 0.729958C51.85 0.789958 52.09 0.809958 52.24 0.929958C52.51 1.14996 52.79 1.08996 53.09 1.08996C53.82 1.10996 54.45 0.879958 55.02 0.439958C55.28 0.229958 55.61 0.149958 55.93 0.0399576C56.4 -0.120042 56.8 0.159958 57.24 0.219958C57.29 0.219958 57.33 0.289958 57.36 0.339958C57.39 0.389958 57.38 0.459958 57.4 0.509958C57.6067 1.24329 58 1.39329 58.58 0.959958C58.74 0.839958 58.89 0.629958 59.13 0.769958C59.29 0.859958 59.3 1.12996 59.09 1.39996C58.83 1.74996 58.74 2.23996 58.23 2.38996C58.03 2.44996 57.97 2.70996 57.98 2.92996C57.99 3.27996 58.11 3.57996 58.38 3.80996C58.54 3.93996 58.73 4.03996 58.9 4.16996C58.99 4.23996 59.13 4.33996 59.14 4.42996C59.15 4.82996 59.34 5.20996 59.16 5.64996C58.89 6.28996 58.48 6.76996 57.93 7.15996C57.68 7.32996 57.45 7.52996 57.23 7.72996C57.07 7.87996 57.02 8.08996 57.07 8.30996C57.2 8.84996 57.58 9.21996 58.14 9.20996C58.52 9.20996 58.48 9.44996 58.51 9.66996C59.19 9.31996 59.2 9.31996 59.39 9.99996C59.45 10.19 59.52 10.31 59.73 10.36C60.34 10.51 60.93 10.72 61.48 11.05C62.05 11.39 62.65 11.51 63.29 11.2C63.55 11.07 63.81 11.07 64.07 11.2C64.23 11.28 64.41 11.37 64.58 11.37C65.09 11.37 65.52 11.57 65.92 11.85C66.2 12.05 66.51 12.14 66.85 12.16C67.03 12.17 67.21 12.23 67.39 12.24C67.78 12.28 67.97 12.5 68.04 12.87C68.1 13.17 68.17 13.46 68.24 13.75C68.32 14.05 68.49 14.3 68.69 14.52C68.91 14.77 69.11 14.89 69.45 14.65C69.73 14.46 70.1 14.49 70.42 14.6C71.02 14.8 71.61 15.03 72.2 15.26C72.3 15.3 72.43 15.34 72.45 15.49C72.43 15.51 72.41 15.54 72.4 15.54C71.41 15.26 70.38 15.21 69.39 14.99C69.24 14.96 69.1 14.93 68.96 15.01C68.53 15.24 68.1 15.45 67.67 15.67C67.16 15.94 66.79 16.32 66.79 16.94C66.79 17.3 66.57 17.41 66.3 17.48C65.11 17.8 63.91 18.11 62.72 18.43C55.03 20.48 47.34 22.52 39.66 24.58C37.79 25.08 35.97 25.71 34.25 26.61C33.96 26.76 33.67 26.93 33.39 27.11C33.05 27.32 32.76 27.6 32.63 27.98C32.54 28.24 32.42 28.4 32.13 28.41C31.94 28.41 31.89 28.56 31.87 28.72C31.82 29.06 31.91 29.37 32.04 29.68C32.27 30.21 32.26 30.21 32.01 30.75C32.68 30.69 33.81 30.34 34.56 29.95C34.41 29.74 34.17 29.71 33.97 29.6C33.87 29.54 33.81 29.46 33.79 29.32C33.68 28.69 33.69 28.65 34.28 28.88C34.69 29.04 34.97 28.81 35.31 28.75H35.32C35.36 29.02 35.04 29.06 35.02 29.35C35.31 29.64 35.84 29.6 36.17 29.97C35.24 30.16 34.39 30.46 33.49 30.8C33.84 31.32 34.34 31.39 34.84 31.4C35.2 31.41 35.56 31.31 35.89 31.16C36.03 31.1 36.19 31.04 36.21 30.88C36.25 30.61 36.44 30.56 36.65 30.51C36.85 30.46 36.94 30.33 36.93 30.11C36.92 29.93 36.91 29.75 36.93 29.57C36.93 29.45 37.05 29.47 37.13 29.47C37.24 29.61 37.07 29.84 37.27 29.94C37.43 30.02 37.59 30.09 37.76 30.15C37.81 30.17 37.89 30.15 37.93 30.11C38.23 29.85 38.52 29.57 38.72 29.12C38.29 29.14 38.01 29.32 37.7 29.42C37.51 29.48 37.33 29.65 37.12 29.48C37.1 29.38 37.12 29.31 37.22 29.28C37.53 29.17 37.84 29.03 38.16 28.95C38.51 28.86 38.65 28.62 38.71 28.31C38.79 27.92 38.77 27.53 38.62 27.15C38.49 26.82 38.35 26.48 38.2 26.1C38.75 25.94 39.29 25.97 39.81 25.89C39.9 25.88 39.99 25.84 39.98 25.72C39.98 25.62 39.92 25.56 39.83 25.53C39.77 25.51 39.71 25.51 39.65 25.5C39.59 25.48 39.54 25.46 39.48 25.43C39.74 25.16 40.01 25.03 40.34 25.32C40.6 25.55 40.87 25.54 41.18 25.43C41.49 25.33 41.82 25.28 42.14 25.19C42.34 25.14 42.54 25.05 42.74 25C43.09 24.92 43.24 24.44 43.64 24.51C43.99 24.57 44.29 24.43 44.61 24.35C49.14 23.21 53.66 22.04 58.19 20.89C60.09 20.41 61.99 19.93 63.89 19.46C64.3 19.36 64.71 19.27 65.13 19.21C65.8 19.11 66.46 19.17 67.09 19.4C68.46 19.89 69.19 21.16 68.91 22.64C68.77 23.38 68.55 24.1 68.35 24.83C68.15 25.55 67.92 26.27 67.69 26.99C67.53 27.51 67.3 28 66.99 28.45C66.44 29.26 66.24 30.18 66.12 31.15C66.38 31.12 66.48 30.96 66.61 30.84C67.26 30.21 67.9 29.56 68.55 28.94C69.04 28.48 69.3 27.93 69.31 27.26C69.31 27.14 69.29 27 69.34 26.9C69.53 26.52 69.75 26.16 69.43 25.74C69.4 25.7 69.45 25.56 69.49 25.5C69.57 25.38 69.69 25.28 69.79 25.16C69.96 24.95 69.89 24.85 69.64 24.82C69.55 24.81 69.48 24.72 69.51 24.63C69.54 24.56 69.62 24.47 69.69 24.45C70.01 24.36 70.28 24.52 70.29 24.8C70.31 25.16 70.29 25.52 70.29 25.89C70.29 26.05 70.25 26.19 70.1 26.27C69.88 26.38 69.84 26.55 69.86 26.79C69.94 27.71 69.65 28.49 69 29.17C68.4 29.8 67.85 30.49 67.29 31.16C66.96 31.56 66.62 31.94 66.15 32.18C65.8 32.36 65.6 32.64 65.53 33.02C65.45 33.43 65.37 33.85 65.31 34.26C65.3 34.35 65.33 34.45 65.43 34.48C65.72 34.54 66.03 34.62 66.28 34.39C66.48 34.2 66.58 33.95 66.5 33.65C66.45 33.48 66.42 33.3 66.39 33.12C66.37 32.94 66.13 32.69 66.41 32.6C66.61 32.54 66.61 32.85 66.68 33C66.76 33.19 66.81 33.4 66.89 33.6C67 33.89 67.08 34.17 66.94 34.48C66.87 34.65 66.92 34.78 67.09 34.84C67.31 34.92 67.42 35.09 67.49 35.29C67.73 36 67.97 36.72 68.22 37.43C68.32 37.71 68.33 37.96 68.01 38.12C67.9 38.17 67.85 38.29 68.04 38.36C68.41 38.5 68.48 38.93 68.79 39.13C68.98 39.82 69.42 40.45 69.32 41.21C69.28 41.47 69.61 41.56 69.59 41.73C69.58 41.91 69.37 42.06 69.28 42.25C69.23 42.35 69.27 42.49 69.28 42.61C69.3 42.94 69.32 43.27 69.35 43.6C69.39 44.07 69.68 44.34 70.16 44.34C70.41 44.34 70.76 43.95 70.77 43.66C70.77 43.57 70.75 43.48 70.72 43.4C70.59 43.05 70.91 43.12 71.12 42.98C70.95 42.86 70.79 42.75 70.64 42.64C70.45 42.52 70.33 42.36 70.29 42.14C70.27 42.05 70.26 41.96 70.35 41.9C70.39 41.87 70.46 41.87 70.51 41.89C70.74 41.96 70.96 42.05 71.19 42.13C71.35 42.18 71.49 42.07 71.48 41.9C71.46 41.48 71.44 41.06 71.4 40.64C71.37 40.36 71.47 40.17 71.72 40.07C71.83 40.02 71.94 39.97 72.05 39.92C72.19 39.85 72.31 39.92 72.35 40.02C72.57 40.58 72.77 41.15 72.97 41.72C73.02 41.87 72.98 42.02 72.88 42.14C72.81 42.24 72.73 42.33 72.66 42.43C72.59 42.53 72.52 42.66 72.61 42.75C72.68 42.82 72.83 42.85 72.94 42.84C73.18 42.82 73.41 42.75 73.65 42.72C74.04 42.66 74.43 42.61 74.82 42.57C75.06 42.55 75.12 42.63 75.14 42.89C75.14 42.95 75.14 43.01 75.14 43.07C75.08 43.43 75.26 43.63 75.58 43.74C75.66 43.77 75.73 43.83 75.8 43.88C75.8 44.03 75.68 44.09 75.59 44.15C75.5 44.21 75.47 44.3 75.52 44.37C75.56 44.44 75.64 44.51 75.71 44.54C75.92 44.62 76.13 44.53 76.33 44.47C76.78 44.35 77.22 44.34 77.67 44.5C77.81 44.55 77.99 44.56 78.02 44.74C78.06 44.93 77.88 44.98 77.76 45.05C77.63 45.12 77.49 45.18 77.35 45.24C76.67 45.54 76.57 45.52 77.13 46.23C77.26 46.4 77.4 46.56 77.51 46.74C77.7 47.04 77.93 47.14 78.26 46.94C78.38 46.87 78.49 46.94 78.51 47.09C78.53 47.21 78.54 47.33 78.53 47.45C78.44 48.16 78.75 48.73 79.15 49.27C79.43 49.17 79.39 48.84 79.66 48.73C80.26 49.07 80.88 49.43 81.47 49.77C81.71 49.72 81.73 49.55 81.8 49.43C81.9 49.26 81.92 48.97 82.18 48.99C82.46 49.01 82.77 49.44 82.75 49.71C82.74 49.86 82.71 50.01 82.66 50.15C82.6 50.32 82.48 50.37 82.31 50.3C82.25 50.28 82.2 50.25 82.14 50.23C81.98 50.16 81.78 50 81.64 50.14C81.41 50.38 81.29 50.69 81.31 51.04C81.31 51.16 81.43 51.17 81.51 51.19C81.8 51.26 82.14 51.19 82.39 51.37C82.59 51.52 82.75 51.46 82.96 51.43C83.38 51.36 83.8 51.45 84.21 51.54C84.29 51.56 84.39 51.63 84.4 51.69C84.42 51.75 84.37 51.88 84.31 51.91C83.73 52.23 83.14 52.53 82.55 52.83C82.45 52.88 82.3 52.74 82.33 52.64C82.35 52.55 82.39 52.47 82.41 52.38C82.46 52.11 82.79 51.89 82.57 51.57C82.26 51.56 82.12 51.83 81.9 51.97C81.74 52.07 81.59 52.14 81.4 52.17C81.15 52.21 81 52.1 80.98 51.85C80.98 51.79 80.98 51.73 80.98 51.67C80.9667 51.33 80.73 51.17 80.27 51.19C80.36 51.45 80.44 51.71 80.51 51.92C80.51 52.09 80.42 52.11 80.34 52.13C80.06 52.17 79.89 52.29 79.91 52.6C79.92 52.78 79.92 52.96 79.95 53.14C79.96 53.26 80.08 53.27 80.16 53.24C80.27 53.2 80.39 53.15 80.47 53.07C80.78 52.79 81.08 52.9 81.38 53.07C81.52 53.15 81.6 53.26 81.51 53.43C81.47 53.5 81.46 53.6 81.46 53.69C81.49 53.97 81.67 54.13 81.95 54.09C82.49 54.02 83.02 53.93 83.56 53.85C83.89 53.8 84.22 53.76 84.55 53.73C84.82 53.71 84.91 53.8 84.95 54.1C84.97 54.25 84.98 54.4 84.87 54.53C84.72 54.71 84.4 54.77 84.24 54.59C84.06 54.38 83.89 54.29 83.62 54.34C82.82 54.48 82.03 54.61 81.24 54.75C81.24 54.93 81.34 54.98 81.47 55.01C81.97 55.1 82.46 55.19 82.95 55.28C82.95 55.47 82.83 55.52 82.73 55.58C82.54 55.69 82.35 55.8 82.45 56.07C82.53 56.27 82.62 56.4 83.04 56.34C83.43 56.29 83.82 56.25 84.21 56.2C84.51 56.17 84.81 56.14 85.11 56.12C85.31 56.12 85.44 56.24 85.46 56.45C85.54 57.05 85.24 57.49 84.87 57.91C84.71 58.09 84.48 58.05 84.28 58.07C83.82 58.13 83.51 58.38 83.32 58.8C83.27 58.91 83.25 59.03 83.32 59.17C83.72 59.28 84.13 59.13 84.54 59.08C84.83 59.04 84.9 59.13 84.86 59.44C84.84 59.59 84.81 59.74 84.8 59.88C84.8 59.98 84.88 60.05 84.97 60.04C85.3 60.02 85.63 59.97 85.96 59.95C86.13 59.94 86.23 60.08 86.18 60.25C86.14 60.39 86.1 60.54 86.03 60.67C85.67 61.41 85.19 62.08 84.49 62.53C84.15 62.75 83.98 63.02 83.86 63.37C83.82 63.48 83.78 63.6 83.73 63.7C83.67 63.81 83.57 63.87 83.43 63.84C83.2 63.79 82.96 63.74 82.72 63.71C82.68 63.71 82.61 63.77 82.6 63.82C82.58 63.87 82.6 63.93 82.62 63.98C82.62 64 82.66 64.03 82.69 64.04C82.91 64.07 83.13 64.14 83.13 64.39C83.13 64.61 82.94 64.76 82.8 64.91C82.63 65.09 82.47 64.84 82.26 64.89C82.13 65.42 82 65.97 81.87 66.5C82.09 66.63 82.2 66.5 82.32 66.43C82.92 66.08 83.51 65.72 84.1 65.35C84.3 65.22 84.48 65.21 84.68 65.36C85.08 65.67 85.51 65.95 85.87 66.29C85.83 66.39 85.83 66.46 85.79 66.5C84.9 67.44 83.81 67.95 82.53 68.08C82.25 68.11 82 68.09 81.89 67.75C81.85 67.62 81.69 67.63 81.59 67.73C81.5 67.83 81.52 67.97 81.59 68.05C81.71 68.18 81.86 68.29 82.01 68.37C82.82 68.8 82.69 68.81 82.36 69.54C82.16 69.98 81.96 70.42 81.75 70.85C81.65 71.07 81.53 71.28 81.78 71.5C81.82 71.54 81.82 71.68 81.78 71.75C81.63 72.11 81.53 72.49 81.3 72.8C81.22 72.78 81.16 72.78 81.12 72.76C80.95 72.67 80.9 72.33 80.64 72.46C80.46 72.5499 80.56 72.79 80.57 72.96C80.58 73.17 80.55 73.38 80.67 73.6C80.94 73.6 81.17 73.49 81.34 73.26C81.54 73 81.61 72.9799 81.8 73.09C82.1 73.2599 82.16 73.56 82.22 73.85C82.23 73.92 82.17 74.03 82.12 74.08C81.97 74.22 81.79 74.33 81.65 74.44C81.65 74.64 81.75 74.75 81.84 74.87C82 75.08 82.16 75.11 82.36 74.92C82.52 74.77 82.67 74.76 82.77 75C82.95 75.41 83.15 75.81 83.36 76.24C83.57 76.07 83.46 75.89 83.47 75.74C83.47 75.59 83.45 75.44 83.43 75.29C83.4 75.05 83.37 74.81 83.36 74.57C83.36 74.53 83.41 74.46 83.45 74.45C83.5 74.43 83.58 74.45 83.62 74.47C83.76 74.59 83.89 74.71 84.01 74.85C85.11 76.08 85.04 75.59 84.11 76.84C84 76.9799 83.87 77.11 83.76 77.22C83.52 77.22 83.44 77.03 83.33 76.89C83.09 76.58 82.88 76.25 82.63 75.94C82.48 75.76 82.37 75.39 82.16 75.46C81.85 75.56 81.88 75.95 81.91 76.24C81.95 76.63 82 77.02 82.12 77.39C82.49 78.54 82.45 78.59 83.29 77.77C83.33 77.7299 83.38 77.69 83.43 77.66C83.55 77.59 83.67 77.61 83.72 77.74C83.77 77.88 83.81 78.03 83.82 78.18C83.84 78.63 83.92 79.02 84.46 79.13C84.55 79.1499 84.65 79.29 84.69 79.39C84.8 79.65 84.97 79.74 85.25 79.69C85.3 79.69 85.4 79.79 85.42 79.87C85.46 80.01 85.37 80.1 85.25 80.13C84.81 80.25 84.38 80.36 83.94 80.47C83.77 80.51 83.64 80.45 83.6 80.28C83.55 80.08 83.52 79.87 83.5 79.66C83.45 79.18 83.54 79.05 82.81 78.9C82.72 78.88 82.62 78.88 82.55 78.84C82.45 78.7899 82.35 78.7199 82.27 78.63C81.96 78.31 81.95 78.3 81.67 78.5C81.44 78.67 81.15 78.7999 81 79.09C81.14 79.3299 81.38 79.25 81.57 79.29C81.78 79.34 81.98 79.38 82.19 79.4C83.1 79.47 83.12 79.49 82.99 80.36C82.98 80.45 82.98 80.54 82.97 80.63C82.9 81.2299 82.84 81.83 83.26 82.35C83.31 82.42 83.32 82.52 83.26 82.6C83.19 82.6899 83.1 82.6499 83.02 82.63C82.96 82.6199 82.91 82.58 82.85 82.57C82.22 82.44 81.76 82.1199 81.48 81.52C81.35 81.2299 81.2 80.93 80.9 80.72C80.69 80.96 80.63 81.22 80.56 81.47C80.46 81.81 80.49 81.86 80.83 82.01C80.97 82.07 81.11 82.12 81.25 82.18C81.74 82.39 81.78 82.44 81.66 82.91C81.54 83.38 81.41 83.84 81.27 84.3C81.23 84.43 81.12 84.47 80.99 84.39C80.76 84.26 80.61 84 80.3 83.94C80.05 84.29 80.06 84.7299 79.93 85.1C80.12 85.28 80.23 85.13 80.34 85.06C80.52 84.96 80.7 84.84 80.87 84.73C80.94 84.81 81.01 84.89 81.07 84.96L81 85.01ZM67.36 72.32C67.1 72.34 66.8 72.36 66.5 72.38C66.33 72.39 66.22 72.49 66.17 72.65C65.89 73.54 65.6 74.43 65.32 75.32C65.26 75.52 65.33 75.66 65.53 75.75C65.83 75.88 65.94 75.88 66.09 75.69C66.51 75.18 66.93 74.66 67.34 74.15C67.63 73.79 67.84 73.4 67.97 72.96C68.01 72.82 68.02 72.66 68.01 72.52C68.01 72.45 67.91 72.35 67.85 72.34C67.71 72.31 67.55 72.34 67.36 72.34V72.32ZM76.23 66.79C76.96 66.73 77.54 66.59 78.09 66.35C78.4 66.22 78.67 66.04 78.89 65.78C79.39 65.2 79.34 65.15 78.77 64.75C78.7 64.7 78.63 64.64 78.55 64.59C77.69 63.97 78 63.98 77.01 64.55C76.78 64.68 76.66 64.87 76.6 65.11C76.48 65.63 76.36 66.15 76.22 66.78L76.23 66.79ZM82.45 59.51C81.96 59.55 81.55 59.59 81.14 59.69C80.95 59.74 80.81 59.82 80.76 60.02C80.69 60.25 80.71 60.52 80.51 60.68C80.27 60.87 79.99 60.71 79.73 60.71C79.64 60.71 79.55 60.7 79.46 60.71C79.4 60.71 79.33 60.73 79.3 60.77C79.11 60.99 79.09 61.26 79.09 61.53C79.09 61.76 79.31 61.79 79.47 61.85C79.78 61.96 80.1 62.04 80.41 62.16C80.61 62.23 80.75 62.2 80.88 62.03C81.21 61.6 81.55 61.18 81.88 60.75C82.13 60.41 82.37 60.07 82.46 59.5L82.45 59.51ZM60.64 38.32C60.64 38.59 60.72 38.85 60.86 39.08C60.92 39.19 61.04 39.26 61.16 39.16C61.53 38.85 61.9 38.54 62.25 38.21C62.86 37.66 62.76 37.81 62.51 37.07C62.45 36.9 62.39 36.73 62.32 36.56C62.24 36.36 62.07 36.32 61.88 36.34C61.73 36.36 61.59 36.4 61.49 36.54C61.26 36.89 61.02 37.24 60.81 37.6C60.69 37.81 60.62 38.04 60.63 38.3L60.64 38.32ZM66.93 42.11C66.38 41.49 65.88 40.92 65.39 40.36C65.27 40.22 65.14 40.21 65.02 40.36C64.96 40.43 64.91 40.51 64.87 40.58C64.19 41.65 64.14 41.35 65.07 42.22C65.8 42.9 65.6 42.84 66.52 42.38C66.63 42.33 66.72 42.25 66.93 42.11ZM77.68 54.96C77.68 54.96 77.68 54.9 77.68 54.87C77.68 54.52 77.45 54.37 77.15 54.54C76.52 54.91 76.02 55.42 75.64 56.04C75.21 56.73 75.29 56.89 76.08 56.98C76.3 57.01 76.49 56.98 76.63 56.78C76.91 56.39 77.2 56.01 77.47 55.62C77.61 55.42 77.68 55.2 77.69 54.95L77.68 54.96ZM82.39 62.46C82.65 62.5 82.92 62.55 83.18 62.59C83.35 62.61 83.48 62.54 83.53 62.38C83.72 61.75 83.9 61.11 84.08 60.48C84.11 60.38 84.04 60.3 83.95 60.29C83.8 60.28 83.65 60.31 83.5 60.29C83.29 60.28 83.26 60.17 83.35 60C83.39 59.92 83.41 59.83 83.44 59.75C83.46 59.68 83.44 59.63 83.36 59.62C83.3 59.62 83.24 59.62 83.19 59.64C83.09 59.71 83.03 59.81 83.02 59.94C83.01 60.37 82.97 60.78 82.55 61.04C82.47 61.09 82.42 61.24 82.41 61.36C82.35 61.71 82.27 62.07 82.38 62.46H82.39ZM65.96 38.37C66.02 38.35 66.08 38.34 66.13 38.32C66.54 38.14 66.96 37.97 67.37 37.78C67.68 37.64 67.73 37.53 67.62 37.21C67.15 35.92 67.39 35.88 66.32 36.83C66.1 37.03 65.88 37.24 65.65 37.44C65.56 37.52 65.47 37.64 65.51 37.75C65.58 37.94 65.7 38.12 65.8 38.3C65.83 38.34 65.9 38.35 65.96 38.37ZM64.14 98.81C64.34 98.61 64.37 98.43 64.4 98.25C64.79 96.46 65.02 96.94 63.21 96.54C63.18 96.54 63.15 96.54 63.12 96.54C63.03 96.57 62.96 96.62 62.96 96.72C63.02 97.59 63.22 98.38 64.13 98.8L64.14 98.81ZM75.3 52.51C76.06 52.41 76.7 52.32 77.33 52.23C77.4 51.92 77.13 51.77 77.13 51.52C77.13 51.28 77.11 51.04 77.09 50.8C77.04 50.28 76.83 50.11 76.23 50.08C76.17 50.47 76.29 50.85 76.31 51.24C76.33 51.59 76.31 51.67 75.96 51.74C75.56 51.82 75.42 52.06 75.3 52.51ZM64.7 60.46C64.45 60.77 64.42 61.1 64.3 61.4C64.21 61.62 64.16 61.86 64.13 62.1C64.07 62.5 64.18 62.67 64.55 62.77C64.78 62.84 65.02 62.89 65.25 62.94C65.47 62.99 65.58 62.88 65.56 62.64C65.51 61.83 65.19 61.14 64.69 60.46H64.7ZM71.63 44.55C71.68 44.94 71.74 45.33 71.79 45.71C71.82 45.95 71.98 45.99 72.18 45.97C72.27 45.96 72.36 45.95 72.45 45.93C72.61 45.89 72.72 45.78 72.7 45.61C72.61 44.95 72.52 44.3 72.42 43.64C72.39 43.44 72.17 43.38 72.01 43.5C71.64 43.77 71.61 44.15 71.64 44.56L71.63 44.55ZM80.16 74.84C79.74 74.39 79.34 73.95 78.93 73.52C78.88 73.4699 78.78 73.43 78.7 73.44C78.59 73.45 78.58 73.56 78.59 73.65C78.67 74.27 78.75 74.89 78.84 75.51C78.86 75.64 78.83 75.81 79.07 75.89C79.45 75.6 79.81 75.27 80.15 74.84H80.16ZM77.44 68.16C77.46 68.38 77.47 68.56 77.5 68.74C77.56 69.06 77.64 69.38 77.71 69.7C77.71 69.7299 77.73 69.76 77.75 69.78C77.81 69.85 77.9 69.8999 77.98 69.84C78.26 69.6199 78.63 69.45 78.75 69.11C78.85 68.82 78.55 68.57 78.42 68.31C78.3 68.07 78.16 67.83 78.03 67.6C77.97 67.5 77.91 67.38 77.76 67.42C77.63 67.45 77.57 67.57 77.53 67.67C77.47 67.84 77.46 68.02 77.43 68.15L77.44 68.16ZM34.71 33.46C34.85 33.12 34.98 32.82 35.09 32.52C35.2 32.22 35.16 32.15 34.83 31.96C34.66 31.86 34.51 31.91 34.52 32.09C34.52 32.45 34.54 32.81 34.57 33.16C34.59 33.36 34.57 33.5 34.36 33.57C34.29 33.59 34.21 33.69 34.2 33.76C34.15 34.1 34.08 34.44 34.12 34.82C34.85 34.44 35.13 34.22 35.5 33.74C35.27 33.59 34.96 33.7 34.71 33.46ZM76.76 83.87C76.76 83.78 76.76 83.75 76.75 83.73C76.72 83.65 76.7 83.56 76.64 83.5C76.57 83.43 76.47 83.46 76.4 83.52C75.98 83.85 75.55 84.18 75.14 84.52C74.96 84.67 74.97 85.06 75.13 85.26C75.25 85.42 75.6 85.4799 75.79 85.34C76.32 84.9699 76.73 84.51 76.77 83.87H76.76ZM67.81 40.79C67.81 40.79 67.83 40.79 67.84 40.79C67.84 41.06 67.83 41.33 67.84 41.6C67.86 41.99 68.53 42.64 68.79 42.48C69.14 42.27 68.92 41.89 68.88 41.58C68.86 41.41 68.78 41.23 68.7 41.07C68.53 40.69 68.34 40.31 68.16 39.93C68.11 39.82 68.02 39.71 67.9 39.78C67.81 39.83 67.72 39.97 67.72 40.08C67.72 40.32 67.77 40.56 67.8 40.79H67.81ZM67.13 92.75C67.36 93.14 67.65 93.3 67.9 93.51C68.14 93.72 68.35 93.98 68.72 94.08C68.84 93.6 68.96 93.14 69.07 92.68C69.12 92.45 69 92.32 68.79 92.36C68.27 92.47 67.75 92.6 67.13 92.75ZM71.24 76.39C71.47 76.34 71.78 76.48 71.9 76.25C72.05 75.95 71.68 75.82 71.56 75.6C71.55 75.57 71.52 75.5499 71.5 75.53C71.12 75.17 70.88 74.66 70.38 74.42C70.28 74.3699 70.43 75.7199 70.6 76.2C70.65 76.3299 70.75 76.37 70.87 76.39C70.99 76.4 71.11 76.39 71.23 76.39H71.24ZM74.47 70.56C74.47 70.56 74.47 70.56 74.46 70.56C74.46 70.74 74.46 70.92 74.49 71.09C74.5 71.16 74.62 71.26 74.66 71.25C74.94 71.18 75.27 71.16 75.36 70.79C75.41 70.62 75.46 70.45 75.5 70.27C75.58 69.99 75.71 69.72 75.67 69.41C75.28 69.31 75.03 69.63 74.72 69.75C74.54 69.82 74.45 69.98 74.46 70.18C74.46 70.3 74.46 70.42 74.46 70.54L74.47 70.56ZM77.47 57.09C77.47 57.51 77.67 57.81 77.81 58.12C77.88 58.28 78.02 58.32 78.18 58.26C78.56 58.1 78.94 57.93 79.32 57.75C79.46 57.68 79.67 57.67 79.68 57.41C78.96 57.24 78.24 57.15 77.47 57.09ZM76.07 45.43C76.07 45.43 75.99 45.32 75.95 45.31C75.32 45.25 74.71 45.42 74.09 45.49C73.97 45.5 73.9 45.77 74 45.87C74.17 46.04 74.35 46.19 74.53 46.35C74.63 46.43 74.75 46.46 74.86 46.39C75.26 46.13 75.65 45.87 76.05 45.6C76.08 45.58 76.06 45.49 76.07 45.44V45.43ZM29.58 41.41C29.35 41.37 29.19 41.46 29.11 41.7C29 42.01 28.87 42.3 28.76 42.61C28.75 42.65 28.78 42.73 28.82 42.76C28.85 42.79 28.93 42.8 28.97 42.78C29.53 42.5 30.08 42.22 30.63 41.92C30.69 41.89 30.75 41.77 30.73 41.7C30.72 41.63 30.63 41.54 30.56 41.53C30.24 41.48 29.91 41.45 29.58 41.42V41.41ZM70.39 52.9C70.05 52.87 69.98 52.9 69.84 53.23C69.71 53.55 69.47 53.85 69.51 54.23C69.91 54.38 70.15 54.01 70.47 53.91C70.53 53.89 70.58 53.86 70.63 53.82C70.92 53.62 71.31 53.58 71.52 53.25C71.26 52.87 70.82 53.04 70.48 52.91C70.45 52.9 70.42 52.91 70.39 52.9ZM30.47 32.61C30.55 33.24 30.62 33.7 30.68 34.17C30.7 34.29 30.72 34.4 30.75 34.52C30.8 34.67 31.01 34.78 31.19 34.73C31.32 34.7 31.4 34.62 31.4 34.48C31.4 34.21 31.39 33.94 31.42 33.68C31.47 33.26 31.29 33 30.92 32.84C30.82 32.79 30.72 32.74 30.47 32.61ZM73.02 49.34C72.96 49.38 72.89 49.4 72.89 49.44C72.88 49.49 72.9 49.56 72.93 49.6C73.28 50.01 73.63 50.41 73.98 50.81C74.14 50.99 74.27 50.96 74.36 50.72C74.72 49.79 74.68 49.96 73.93 49.66C73.63 49.54 73.32 49.45 73.02 49.34ZM66.86 88.32C66.55 88.83 66.53 89.3299 66.45 89.81C66.45 89.85 66.5 89.92 66.55 89.94C66.74 90.03 67.39 90.01 67.77 89.91C67.49 89.39 67.24 88.86 66.86 88.32ZM63.8 38.66C63.83 38.84 63.86 39.02 63.89 39.19C64.05 40.11 64.27 40.21 65.1 39.75C65.18 39.7 65.22 39.6 65.15 39.52C64.8 39.12 64.45 38.71 64.02 38.4C63.93 38.33 63.85 38.4 63.82 38.49C63.8 38.54 63.81 38.6 63.8 38.65V38.66ZM72.13 87.34C71.83 87.42 71.48 87.5 71.14 87.59C71.02 87.6199 70.9 87.68 70.9 87.81C70.9 88.02 70.87 88.2599 71.07 88.38C71.33 88.54 71.64 88.6 71.93 88.52C72.15 88.45 72.17 88.2 72.23 88.01C72.28 87.87 72.34 87.7299 72.36 87.59C72.38 87.4799 72.36 87.35 72.14 87.35L72.13 87.34ZM64.12 47.45C63.9 48.0566 63.9867 48.5833 64.38 49.03C64.5 49.16 64.62 49.3 64.74 49.43C64.82 49.52 64.94 49.61 65.04 49.56C65.15 49.5 65.13 49.36 65.08 49.24C64.9 48.86 64.74 48.48 64.55 48.11C64.43 47.88 64.4 47.59 64.12 47.45ZM76.45 76.85C76.5 76.82 76.55 76.79 76.6 76.75C76.3 76.08 76.01 75.4 75.7 74.73C75.64 74.6 75.51 74.62 75.41 74.73C75.26 74.89 75.14 75.06 75.29 75.28C75.67 75.81 76.06 76.33 76.44 76.85H76.45ZM32.06 48.27C32.38 48.34 32.67 48.24 32.96 48.19C33.33 48.12 33.75 48.24 34.07 47.95C33.77 47.59 33.32 47.72 32.94 47.61C32.85 47.58 32.76 47.58 32.67 47.57C32.47 47.54 32.32 47.61 32.21 47.78C32.13 47.9 32.01 48.01 32.05 48.26L32.06 48.27ZM79.87 71.26C80.07 70.94 80.28 70.62 80.47 70.29C80.71 69.88 80.68 69.84 80.21 69.69C80.13 69.66 80.04 69.64 79.95 69.61C79.8 69.57 79.7 69.66 79.69 69.78C79.68 70.25 79.59 70.72 79.74 71.19C79.74 71.21 79.79 71.2199 79.86 71.27L79.87 71.26ZM28.92 37.9C28.97 37.68 28.84 37.46 28.66 37.25C28.41 36.96 28.32 36.96 28.16 37.28C27.77 38.05 27.82 38.2 28.63 38.49C28.77 38.54 28.85 38.45 28.88 38.32C28.9 38.21 28.91 38.09 28.93 37.9H28.92ZM74.27 81.79C74.75 81.89 75.23 81.84 75.71 81.83C75.84 81.83 75.94 81.77 75.94 81.62C75.94 81.5 75.9 81.38 75.77 81.33C75.57 81.26 75.37 81.1899 75.17 81.13C74.6567 80.9766 74.3567 81.2 74.27 81.8V81.79ZM75.91 62.25C74.87 62.62 75.07 62.75 75.15 63.44C75.18 63.66 75.17 63.91 75.37 64.09C75.68 63.63 75.8 63.24 75.91 62.25ZM72.85 53.63C73.06 52.79 73.06 52.79 72.76 52.39C72.69 52.3 72.59 52.17 72.5 52.16C72.32 52.14 72.29 52.33 72.23 52.46C72.0167 52.9533 72.2233 53.3433 72.85 53.63ZM65.31 46.42C65.61 46.74 65.95 46.77 66.24 46.9C66.85 47.15 66.92 47.15 66.98 46.41C66.98 46.36 66.95 46.3 66.91 46.2C66.4 46.18 65.89 46.29 65.3 46.43L65.31 46.42ZM78.71 51.71C78.96 51.71 79.02 51.5 79.18 51.42C79.3 51.37 79.33 51.25 79.32 51.12C79.27 50.62 79.21 50.12 79.15 49.62C79.13 49.5 79.06 49.4 78.92 49.4C78.79 49.4 78.68 49.48 78.68 49.61C78.65 50.31 78.6 51.01 78.71 51.71ZM33.59 35.11C33.59 34.61 33.56 34.2 33.28 33.86C33.22 33.78 33.12 33.79 33.06 33.86C32.73 34.3 33.06 35.14 33.46 35.45C33.52 35.5 33.58 35.45 33.58 35.39C33.58 35.27 33.59 35.15 33.59 35.12V35.11ZM66.49 35.04C66.25 34.91 66.07 34.94 65.89 34.96C65.81 34.96 65.69 35.02 65.68 35.08C65.62 35.34 65.58 35.6 65.56 35.87C65.55 35.99 65.47 36.17 65.74 36.26C65.98 35.88 66.26 35.52 66.49 35.05V35.04ZM81 78.43C80.92 78.14 80.82 77.83 80.62 77.58C80.53 77.46 80.36 77.46 80.21 77.51C80.07 77.56 80.06 77.67 80.07 77.79C80.11 78.05 80.15 78.31 80.22 78.57C80.23 78.63 80.36 78.7 80.42 78.69C80.62 78.65 80.83 78.63 81 78.43ZM71.22 66.82C71.62 66.91 72.03 66.82 72.43 66.8C72.55 66.8 72.61 66.63 72.54 66.53C72.19 65.97 72.04 65.95 71.53 66.39C71.41 66.5 71.23 66.57 71.22 66.82ZM69.21 62.94C69.47 63.39 69.48 63.38 69.9 63.6C69.99 63.28 70.08 62.98 70.16 62.67C70.19 62.55 70.06 62.44 69.94 62.5C69.68 62.62 69.4 62.72 69.21 62.95V62.94ZM81.09 66.8C81.06 66.56 81.03 66.2999 81 66.03C80.98 65.91 80.94 65.79 80.8 65.79C80.73 65.79 80.63 65.85 80.58 65.92C80.27 66.2999 80.31 66.75 80.69 67.1C80.74 67.15 80.85 67.14 80.93 67.12C80.97 67.12 81.02 67.05 81.05 67C81.08 66.95 81.08 66.89 81.09 66.8ZM81.06 69.01C81.08 68.95 81.11 68.8999 81.11 68.84C81.11 68.75 81.09 68.66 81.07 68.57C80.99 68.23 80.86 68.14 80.5 68.19C80.34 68.21 80.23 68.3 80.21 68.48C80.2 68.64 80.23 68.78 80.39 68.86C80.6 68.96 80.82 69.07 81.07 69.02L81.06 69.01ZM74.4 94.94C74.67 95.38 74.67 95.38 75.09 95.6C75.13 95.14 75.09 94.72 74.99 94.18C74.67 94.43 74.51 94.65 74.4 94.93V94.94ZM81.56 57.85C81.28 57.66 81.04 57.65 80.8 57.63C80.62 57.61 80.53 57.72 80.52 57.89C80.52 58.04 80.51 58.19 80.52 58.33C80.54 58.47 80.64 58.54 80.77 58.47C81.05 58.32 81.33 58.14 81.56 57.85ZM74.41 59.76C74.75 59.77 74.84 59.69 74.79 59.4C74.77 59.29 74.74 59.17 74.68 59.07C74.59 58.93 74.3 58.92 74.21 59.03C74.03 59.24 73.93 59.59 74.03 59.67C74.05 59.69 74.08 59.71 74.11 59.72C74.23 59.74 74.35 59.75 74.42 59.76H74.41ZM83.84 57.29C83.57 57.17 83.31 57.27 83.06 57.35C82.94 57.39 82.87 57.48 82.89 57.62C82.92 57.8 82.95 58 83.1 58.1C83.21 58.17 83.31 58.05 83.39 57.96C83.55 57.75 83.78 57.59 83.84 57.29ZM52.43 40.18C52.22 40.68 52 40.98 51.94 41.42C52.28 41.36 52.49 41.2 52.7 41.04C52.81 40.96 52.81 40.83 52.75 40.72C52.68 40.59 52.6 40.47 52.43 40.17V40.18ZM77.06 59.86C77.24 59.93 77.32 59.97 77.4 59.99C77.82 60.08 77.85 60.07 78.02 59.7C78.06 59.62 78.1 59.54 78.11 59.45C78.11 59.4 78.11 59.33 78.07 59.29C78.04 59.25 77.95 59.22 77.92 59.24C77.63 59.39 77.35 59.55 77.06 59.86ZM75.56 90.39C75.14 90.17 74.83 90.09 74.52 90.12C74.34 90.13 74.35 90.34 74.34 90.49C74.33 90.66 74.46 90.68 74.58 90.65C74.86 90.58 75.14 90.51 75.56 90.39ZM68.43 57.11C68.7 57.35 69.01 57.42 69.32 57.35C69.44 57.32 69.49 57.2 69.46 57.07C69.44 56.98 69.38 56.92 69.27 56.94C68.99 56.99 68.7 57.05 68.42 57.11H68.43ZM79.54 86.48C79.3 87 79.11 87.52 79.14 88.09C79.43 87.59 79.57 87.05 79.54 86.48ZM81.69 64.18C81.61 64.22 81.55 64.24 81.51 64.28C81.28 64.52 81.26 64.71 81.42 65.01C81.47 65.1 81.55 65.12 81.62 65.04C81.74 64.91 81.86 64.77 81.96 64.62C82 64.56 82 64.43 81.96 64.38C81.89 64.29 81.78 64.24 81.69 64.18ZM73.77 48.27C73.8 47.96 73.77 47.73 73.54 47.59C73.42 47.51 73.25 47.43 73.13 47.53C72.97 47.68 73.14 47.79 73.24 47.88C73.39 48.02 73.5 48.21 73.77 48.27ZM77.49 48.49L77.65 48.46C77.63 48.21 77.63 47.95 77.58 47.7C77.55 47.55 77.42 47.57 77.31 47.63C77.05 47.77 77 47.91 77.15 48.11C77.25 48.25 77.38 48.37 77.49 48.5V48.49ZM73.29 71.22C73.44 71.17 73.59 71.15 73.72 71.08C73.77 71.05 73.79 70.92 73.8 70.84C73.8 70.74 73.71 70.68 73.62 70.68C73.41 70.7 73.21 70.74 73.01 70.79C72.97 70.79 72.92 70.87 72.92 70.91C72.92 70.96 72.94 71.04 72.98 71.07C73.08 71.13 73.19 71.17 73.3 71.22H73.29ZM69.72 82.71C70 82.53 70 82.31 70.03 82.11C70.03 82.05 69.97 81.92 69.91 81.91C69.81 81.89 69.68 81.91 69.58 81.94C69.49 81.98 69.49 82.09 69.52 82.17C69.57 82.34 69.64 82.5 69.71 82.7L69.72 82.71ZM67.7 38.51C67.72 38.45 67.7 38.38 67.62 38.39C67.22 38.41 66.89 38.57 66.59 38.83C66.56 38.85 66.57 38.94 66.59 38.99C66.64 39.11 66.75 39.18 66.87 39.13C67.18 39.01 67.44 38.83 67.68 38.6C67.7 38.58 67.69 38.54 67.7 38.51Z" fill="#38A750"/>
<path d="M124.9 59.0599C125.36 59.0099 125.8 58.9799 126.15 59.3699C126.27 59.4999 126.4 59.6099 126.47 59.7899C126.79 60.5999 127.48 61.0399 128.18 61.4699C128.53 61.6899 128.94 61.6099 129.32 61.4899C129.61 61.3999 129.87 61.2599 130.12 61.0799C130.69 60.6599 131.32 60.4999 132 60.7299C132.57 60.9299 133.06 60.7899 133.54 60.4799C133.69 60.3799 133.85 60.2899 133.99 60.1799C134.3 59.9499 134.64 59.8599 135.01 59.9399C135.47 60.0299 135.9 59.9799 136.34 59.8299C136.57 59.7499 136.81 59.7199 137.05 59.6999C137.53 59.6499 138.02 59.6699 138.49 59.5599C138.95 59.4499 139.4 59.2599 139.88 59.2099C140.22 59.1799 140.51 59.0399 140.76 58.7899C140.97 58.5799 141.12 58.2799 141.46 58.2699C141.86 58.2499 142.24 58.3299 142.57 58.6099C142.49 58.7999 142.41 58.9999 142.32 59.1899C142.23 59.3899 142.16 59.5899 142.22 59.7999C142.35 60.2199 142.17 60.6299 142.24 61.0499C142.26 61.1599 142.24 61.3199 142.17 61.3899C141.75 61.8199 141.74 62.3799 141.73 62.9099C141.72 63.4199 141.56 63.8499 141.23 64.2299C140.91 64.5999 140.66 65.0099 140.5 65.4699C140.44 65.6399 140.37 65.8199 140.25 65.9499C139.48 66.7899 139.17 67.8899 138.53 68.8099C138.28 69.1699 138.09 69.5899 138.04 70.0599C138 70.4299 137.8 70.7399 137.59 71.0399C136.5 72.5899 135.45 74.1799 134.15 75.5799C133.68 76.0899 133.21 76.5999 132.73 77.0999C132.08 77.7799 131.34 78.3499 130.51 78.7899C130 79.0599 129.51 79.3399 129.01 79.6299C128.38 79.9999 127.82 80.4499 127.35 81.0099C127.1 81.3099 126.81 81.5699 126.51 81.8299C125.69 82.5499 124.93 83.3099 124.21 84.1199C123.65 84.7499 123.11 85.3799 122.72 86.1399C122.45 86.6599 122.04 87.0699 121.45 87.2199C121.21 87.2799 121.14 87.4299 121.04 87.6299C120.87 87.9699 120.66 88.2799 120.2 88.3399C119.76 88.3999 119.51 88.6899 119.57 89.1699C119.6 89.4599 119.48 89.7099 119.3 89.9199C119.04 90.2199 118.92 90.5799 118.76 90.9299C118.57 91.3599 118.36 91.7799 118.19 92.2199C118.12 92.3899 118.01 92.5399 117.82 92.5899C117.59 92.6599 117.5 92.8199 117.45 93.0499C117.32 93.6399 117.12 94.1999 116.9 94.7499C116.78 95.0599 116.7 95.3799 116.69 95.7199C116.69 96.0399 116.75 96.3199 117.09 96.4599C117.52 96.6399 117.65 97.1599 118.1 97.3299C118.2 97.3699 118.2 97.5499 118.16 97.6599C118.11 97.7999 118.02 97.9199 117.94 98.0499C117.73 98.4099 117.66 98.7999 117.87 99.1499C118.05 99.4499 118.05 99.7199 117.89 99.9999C117.72 100.29 117.69 100.59 117.84 100.86C118.28 101.68 118.44 102.58 118.68 103.46C118.73 103.65 118.79 103.78 118.95 103.88C119.17 104.02 119.37 104.21 119.61 104.33C120.24 104.64 120.49 105.1 120.3 105.79C120.27 105.9 120.33 106.06 120.27 106.14C119.94 106.59 120.1 107.06 120.19 107.52C120.25 107.82 120.3 108.1 120.24 108.41C120.22 108.52 120.28 108.65 120.26 108.76C120.2 109.11 120.53 109.39 120.36 109.79C120.23 110.09 120.36 110.49 120.36 110.84C120.36 111.11 120.33 111.38 120.43 111.64C120.52 111.87 120.5 112.1 120.5 112.35C120.5 112.61 120.51 112.97 120.68 113.11C121.03 113.43 120.93 113.74 120.8 114.08C120.67 114.4 120.49 114.7 120.53 115.08C120.55 115.33 120.35 115.52 120.19 115.7C119.66 116.27 119.11 116.82 118.71 117.49C118.56 117.74 118.28 117.91 118.02 118.06C117.76 118.21 117.48 118.33 117.27 118.56C117.21 118.62 117.12 118.71 117.05 118.7C116.44 118.64 116.01 119.15 115.43 119.17C114.49 119.77 113.29 120.02 112.73 121.15C112.57 121.47 112.28 121.7 111.95 121.91C111.32 121.27 110.56 121.1 109.72 121.08C108.57 121.05 107.45 120.8 106.38 120.36C105.13 119.84 104.07 119.06 103.27 117.96C102.81 117.33 102.38 116.67 101.95 116.01C101.46 115.24 101.16 114.39 101.02 113.48C100.44 109.88 99.74 106.3 99.06 102.72C98.75 101.06 98.49 99.3899 98.07 97.7599C97.97 97.3499 97.9 96.9299 97.83 96.5199C97.75 96.0999 97.75 95.6799 97.86 95.2599C98.15 94.1699 98.13 93.0499 98.23 91.9399C98.3 91.1599 98.37 90.3699 98.36 89.5899C98.36 88.8099 98.28 88.0299 98.21 87.2499C98.06 85.5699 97.9 83.8899 97.75 82.2099C97.64 80.9799 97.55 79.7499 97.39 78.5199C97.24 77.3599 97.39 76.2399 97.6 75.1099C98.12 72.1299 98.35 69.1299 98.07 66.0999C98.02 65.5899 98.07 65.0799 98.2 64.5799C98.71 62.4899 98.97 60.3699 99.01 58.2199C99.07 54.5899 98.68 50.9899 98.01 47.4299C97.78 46.2199 97.52 45.0099 97.27 43.7999C96.95 42.2599 96.8 40.6999 96.69 39.1399C96.59 37.6299 96.5 36.1299 96.29 34.6399C96.2 34.0099 96.08 33.3899 95.94 32.7799C95.72 31.8599 95.3 31.0299 94.71 30.2899C93.77 29.1099 92.73 28.0199 91.74 26.8799C91.52 26.6299 91.31 26.6199 91.02 26.6799C90.62 26.7699 90.55 26.7499 90.52 26.4199C90.44 25.7199 90.09 25.1899 89.57 24.7299C89.3 24.4899 89.07 24.1999 88.81 23.9499C88.37 23.5199 88.43 23.4499 88.67 23.0299C89.25 22.0299 89.63 20.9499 89.89 19.8299C89.93 19.6599 89.94 19.4699 89.95 19.2899C89.95 19.1899 89.87 19.1199 89.78 19.1199C89.6 19.1099 89.42 19.1199 89.24 19.1399C88.4 19.2199 87.56 19.2899 86.72 19.3799C85.95 19.4599 85.22 19.3599 84.5 19.0999C83.93 18.8999 83.36 18.6999 82.79 18.5099C81.03 17.8999 79.29 17.9699 77.57 18.6399C77.23 18.7699 76.88 18.8799 76.58 19.0699C76.17 19.3299 75.78 19.2699 75.38 19.1299C74.57 18.8499 73.86 18.3999 73.25 17.7999C73.07 17.6199 72.93 17.4399 73 17.1699C73.11 16.7599 72.91 16.3499 72.95 15.8999C73.1 15.9399 73.22 15.9499 73.33 15.9899C73.85 16.2299 74.34 16.5299 74.73 16.9599C75.34 17.6399 76.07 17.6099 76.78 17.2299C77.11 17.0599 77.38 16.8299 77.61 16.5399C78.01 16.0199 78.16 15.4699 77.84 14.8599C77.78 14.7499 77.74 14.6399 77.69 14.5299C77.45 13.9499 77.53 13.4099 77.9 12.9099C78.46 12.1399 79.24 11.7099 80.14 11.4899C80.43 11.4199 80.69 11.3099 80.97 11.1899C81.46 10.9799 82.02 10.9499 82.55 11.1399C82.92 11.2699 83.27 11.4499 83.62 11.6099C83.96 11.7699 84.26 11.9399 84.2 12.4099C84.18 12.5999 84.36 12.7299 84.53 12.7999C84.67 12.8499 84.82 12.8599 84.97 12.8899C85.21 12.9299 85.49 12.8999 85.67 13.0299C86.27 13.4499 86.94 13.3499 87.59 13.3499C87.99 13.3499 88.21 13.5299 88.3 13.8999C88.33 14.0199 88.36 14.1299 88.41 14.2399C88.47 14.3899 88.59 14.4799 88.76 14.4799C88.94 14.4799 89.13 14.4799 89.3 14.4399C89.84 14.2799 90.37 14.3399 90.9 14.4799C91.22 14.5599 91.55 14.5999 91.88 14.6699C92.2 14.7399 92.52 14.8299 92.84 14.9299C93.2 15.0499 93.49 15.2799 93.93 15.2799C94.26 15.2799 94.6 15.4999 94.96 15.5299C95.3 15.5599 95.61 15.6699 95.89 15.8599C96.5 16.2799 97.08 16.1999 97.64 15.7599C97.85 15.5899 98.06 15.4099 98.28 15.2499C98.42 15.1499 98.55 14.9899 98.76 15.0499C98.94 15.0999 99.06 15.0299 99.12 14.8799C99.23 14.6399 99.42 14.5399 99.62 14.6599C100.01 14.9099 100.38 14.7199 100.61 14.5099C100.83 14.3099 100.95 14.3399 101.14 14.4299C101.45 14.5799 101.76 14.6699 102.1 14.5699C102.26 14.5299 102.32 14.6299 102.3 14.7599C102.24 15.2099 102.65 15.2599 102.88 15.4699C102.9 15.4899 103.02 15.4699 103.04 15.4299C103.27 15.0499 103.51 15.1899 103.76 15.4099C103.93 15.5599 104.15 15.5899 104.36 15.5399C104.67 15.4699 104.97 15.4999 105.28 15.4799C105.87 15.4599 106.49 15.4499 107.02 15.1099C107.15 15.0299 107.25 15.1199 107.31 15.2299C107.36 15.3099 107.38 15.3999 107.41 15.4799C107.72 16.3599 108.02 17.2499 108.34 18.1199C108.59 18.7999 108.59 19.4399 108.34 20.1399C108.05 20.9599 107.72 21.7799 107.63 22.6499C107.61 22.7999 107.56 22.9399 107.5 23.0799C107.39 23.3299 107.21 23.3899 107 23.2499C106.37 22.8199 105.86 22.2699 105.36 21.7099C105.18 21.4999 105.07 21.2499 105.05 20.9699C105.03 20.6199 104.9 20.3199 104.68 20.0699C104.28 19.5999 104.03 19.0699 103.89 18.4599C103.37 18.7999 103.32 18.9199 103.62 19.3499C103.84 19.6599 103.92 19.9699 103.98 20.3399C104.07 20.8999 104.36 21.4099 104.73 21.8599C105 22.1899 105.29 22.4899 105.59 22.7799C105.79 22.9799 105.96 23.1999 105.89 23.4899C105.82 23.8299 105.98 24.0799 106.14 24.3299C106.45 24.8199 106.71 25.3199 106.78 25.9099C106.8 26.0599 106.86 26.1999 106.93 26.3299C107.43 27.2899 107.94 28.2499 108.44 29.2099C108.65 29.6099 108.86 30.0099 109.05 30.4199C109.47 31.3399 109.49 31.3899 110.3 32.0799C110.19 32.2499 109.86 32.2499 109.92 32.5699C109.99 32.9199 110 33.2899 110.04 33.6499C110.1 34.2799 110.47 34.6899 110.98 35.0099C111.21 35.1499 111.44 35.2899 111.67 35.4399C112.34 35.8899 112.88 36.4199 112.92 37.2999C112.92 37.3299 112.93 37.3599 112.95 37.3899C113.39 38.4299 113.48 39.5299 113.52 40.6399C113.55 41.5099 113.61 42.3899 113.89 43.2299C113.99 43.5299 114.12 43.7199 114.47 43.8299C114.82 43.9399 115.2 44.1399 115.33 44.5599C115.38 44.7299 115.54 44.7799 115.68 44.8099C116.13 44.9299 116.39 45.2499 116.59 45.6299C117.08 46.5699 117.45 47.5599 117.55 48.6199C117.62 49.3899 117.91 50.0699 118.37 50.6699C118.56 50.9199 118.51 51.2499 118.73 51.4699C118.76 51.4499 118.79 51.4399 118.8 51.4199C118.92 51.2399 118.6 50.8699 118.98 50.8399C119.26 50.8099 119.3 51.1399 119.4 51.3499C119.46 51.4899 119.53 51.6199 119.61 51.7499C119.68 51.8499 119.8 51.9299 119.92 51.8699C120.27 51.6899 120.5 51.8499 120.69 52.1099C120.78 52.2299 120.86 52.3599 121.03 52.3799C121.63 52.4399 122.02 52.8399 122.3 53.2999C122.59 53.7799 122.98 54.1299 123.44 54.4199C123.74 54.6099 124.04 54.8199 124.11 55.2299C124.14 55.4099 124.32 55.4899 124.46 55.5999C124.72 55.7999 124.9 56.0899 125.14 56.3199C125.28 56.4599 125.57 56.2399 125.69 56.5199C125.76 56.6799 125.86 56.8499 125.99 56.9699C126.21 57.1899 126.2 57.4499 126.23 57.7199C126.25 58.0299 126.11 58.2499 125.85 58.3799C125.61 58.4999 125.34 58.5699 125.1 58.6899C124.98 58.7499 124.85 58.8699 124.98 59.0399C124.93 59.0199 124.88 58.9999 124.83 58.9999C124.75 58.9999 124.72 59.0399 124.75 59.0999C124.75 59.1099 124.8 59.1199 124.82 59.1099C124.87 59.0799 124.91 59.0499 124.96 59.0099L124.9 59.0599Z" fill="#880808"/>
<path d="M88.29 95.96C88.29 97.2 88.4 98.31 88.58 99.41C88.96 101.74 89.68 103.98 90.57 106.16C91.17 107.61 91.8 109.04 92.45 110.47C92.66 110.93 92.72 111.37 92.65 111.87C92.33 113.97 92.27 116.07 92.42 118.19C92.5 119.3 92.55 120.42 92.61 121.53C92.63 121.96 92.69 122.37 92.89 122.75C93.09 123.14 93.39 123.42 93.84 123.52C94.61 123.69 95.38 123.83 96.17 123.83C97.14 123.83 98.1 123.87 99.06 123.8C100.96 123.66 102.86 123.74 104.76 123.71C105.42 123.71 106.08 123.71 106.75 123.79C107.44 123.87 108.14 123.84 108.83 123.76C109.13 123.73 109.43 123.7 109.81 123.67C109.57 124.29 109.19 124.65 108.6 124.75C108.39 124.79 108.25 124.83 108.33 125.08C108.35 125.14 108.39 125.21 108.37 125.25C108.1 125.92 108.23 126.45 108.83 126.89C108.93 126.96 109 127.17 108.98 127.3C108.92 127.74 109.1 128.13 109.21 128.53C109.39 129.13 109.59 129.72 109.52 130.36C109.75 130.36 109.66 130.18 109.73 130.11C109.81 130.02 109.67 130.03 109.79 130.04C109.84 130.04 109.91 130.09 109.92 130.13C109.95 130.24 109.96 130.36 109.95 130.48C109.92 130.9 109.83 131.32 110.02 131.73C110.1 131.9 110.04 132.09 109.99 132.26C109.9 132.61 109.82 132.96 109.71 133.31C109.65 133.51 109.67 133.65 109.87 133.76C109.99 133.83 110 133.95 109.96 134.08C109.75 134.77 109.39 135.35 108.7 135.65C107.93 135.99 107.14 136.29 106.36 136.62C105.86 136.83 105.36 137.01 104.88 137.29C104.37 137.59 104.21 138.13 103.91 138.56C103.8 138.71 104.03 139.08 104.31 139.16C104.44 139.2 104.58 139.09 104.57 139.35C104.51 140.71 104.17 142.03 103.87 143.35C103.78 143.76 103.6 144.14 103.42 144.53C103.24 144.93 102.85 145.17 102.51 145.38C101.65 145.91 101.07 146.65 100.71 147.56C100.24 148.72 99.52 149.72 98.8 150.72C98.55 151.06 98.22 151.33 97.87 151.58C97.35 151.96 96.94 152.42 96.54 152.93C95.4 154.39 94.01 155.59 92.44 156.58C91.79 156.99 91.1 157.27 90.3 157.13C90 157.08 89.7 157.13 89.5 157.42C89.4 157.56 89.52 157.83 89.28 157.86C89.11 157.88 88.93 157.79 88.76 157.76C88.64 157.74 88.52 157.72 88.4 157.71C88.17 157.68 87.98 157.74 87.9 157.98C87.8 158.28 87.56 158.3 87.31 158.24C87.08 158.18 86.84 158.12 86.62 158.02C86.25 157.86 85.86 157.84 85.47 157.78C85.32 157.76 85.13 157.74 85.03 157.81C84.58 158.17 84.1 157.99 83.65 157.88C82.97 157.71 82.38 157.86 81.91 158.33C81.67 158.57 81.45 158.67 81.12 158.66C80.68 158.64 80.24 158.92 79.8 158.68C79.31 158.93 78.67 158.84 78.29 159.34C78.06 159.64 77.76 159.8 77.35 159.75C76.93 159.7 76.57 159.53 76.41 159.16C76.29 158.89 76.09 158.77 75.88 158.72C75.53 158.64 75.18 158.67 75.23 158.14C75.23 158.04 75.03 157.93 74.86 157.94C74.69 157.94 74.58 158.03 74.54 158.2C74.52 158.28 74.5 158.36 74.47 158.45C74.2 158.18 74.19 157.91 74.38 157.62C74.56 157.35 74.51 157.08 74.35 156.86C73.99 156.35 73.75 155.77 73.37 155.27C73.15 154.98 73.29 154.7 73.64 154.62C74.11 154.51 74.14 154.47 74.2 154.07C74.34 153.2 74.2 152.38 73.7 151.65C72.68 150.14 71.92 148.51 71.43 146.75C71.23 146.05 70.72 145.5 70.43 144.83C70.4 144.76 70.3 144.7 70.23 144.67C69.84 144.52 69.6 144.21 69.36 143.91C68.69 143.05 68.14 142.11 67.77 141.08C67.66 140.78 67.5 140.47 67.62 140.12C67.65 140.04 67.64 139.92 67.6 139.87C67.04 139.14 67.18 138.26 67.04 137.44C67.03 137.35 67.04 137.26 67.04 137.17C67.07 136.49 66.93 135.86 66.57 135.27C66.31 134.85 66.19 134.4 66.27 133.89C66.34 133.41 66.21 132.94 66.23 132.45C66.25 132.13 66.15 131.82 66.36 131.51C66.47 131.34 66.4 131.1 66.33 130.89C66.22 130.54 66.05 130.22 65.84 129.92C64.81 128.46 63.92 126.93 63.25 125.27C63.13 124.97 62.98 124.68 62.84 124.37C63.86 124.18 63.92 124.14 64.69 123.33C65.5 122.46 66.12 121.46 66.59 120.37C66.92 119.6 67.2 118.8 67.51 118.01C67.59 117.82 67.66 117.62 67.75 117.37C68.06 117.45 68.35 117.49 68.62 117.6C68.89 117.7 69.07 117.64 69.26 117.44C69.91 116.77 70.58 116.11 71.23 115.44C74.48 112.07 77.55 108.54 80.58 104.98C82.93 102.22 85.24 99.44 87.57 96.67C87.76 96.45 87.91 96.18 88.3 95.96H88.29Z" fill="#880808"/>
<path d="M128.48 116.99C129 116.96 129.41 116.9 129.73 116.58C129.87 116.44 130.01 116.47 130.2 116.54C130.44 116.61 130.75 116.5 130.91 116.3C131.2 115.96 131.62 116.1 131.96 115.93C132.04 115.89 132.16 116.1 132.33 115.85C132.63 115.39 133.05 114.97 133.67 114.96C133.82 114.96 133.85 114.91 133.91 114.79C134.07 114.47 134.26 114.17 134.46 113.87C134.56 113.73 134.63 113.81 134.71 113.93C134.88 114.18 134.97 114.18 135.06 113.98C135.12 113.85 135.23 113.69 135.21 113.57C135.15 113.18 135.19 112.87 135.59 112.66C135.75 112.58 135.78 112.36 135.7 112.17C135.65 112.06 135.58 111.95 135.57 111.84C135.55 111.67 135.54 111.45 135.71 111.35C135.94 111.22 136 111.45 136.1 111.59C136.21 111.73 136.37 111.8 136.44 111.59C136.52 111.36 136.7 111.21 136.86 111.15C137.23 111 137.45 110.81 137.57 110.42C137.7 110 137.75 109.6 137.53 109.2C137.52 109.18 137.53 109.15 137.53 109.13C137.76 108.85 138.01 108.59 138.21 108.3C138.27 108.21 138.27 108.02 138.39 108.04C138.57 108.06 138.59 108.23 138.54 108.39C138.54 108.42 138.52 108.46 138.54 108.48C138.69 108.66 138.87 108.81 138.98 109.01C139.09 109.21 139.1 109.48 139.32 109.63C139.65 109.85 139.75 110.21 139.87 110.54C140.08 111.14 140.21 111.76 140.25 112.39C140.3 113.21 140.4 114.01 140.86 114.72C140.97 114.88 140.99 115.06 140.95 115.24C140.88 115.53 140.79 115.82 140.68 116.1C140.62 116.27 140.51 116.43 140.3 116.43C140.07 116.43 140.01 116.24 139.95 116.07C139.88 115.87 139.84 115.66 139.77 115.47C139.74 115.41 139.63 115.35 139.55 115.35C139.48 115.35 139.39 115.43 139.35 115.49C139.3 115.56 139.26 115.67 139.27 115.74C139.37 116.2 139.22 116.71 139.57 117.12C139.69 117.26 139.71 117.46 139.61 117.63C139.41 117.95 139.47 118.38 139.1 118.64C138.89 118.79 138.82 119.1 138.81 119.38C138.81 119.59 138.78 119.8 138.81 120.01C138.9 120.87 138.7 121.69 138.41 122.49C138.16 123.17 137.86 123.83 137.67 124.53C137.35 125.66 136.88 126.74 136.62 127.89C136.54 128.27 136.37 128.63 136.22 128.99C135.82 129.9 135.51 130.85 135.35 131.83C135.26 132.42 135.01 132.98 134.97 133.59C134.96 133.73 134.88 133.87 134.81 134.01C134.52 134.61 134.26 135.21 134.07 135.85C133.93 136.33 133.62 136.62 133.14 136.73C132.93 136.77 132.73 136.84 132.52 136.86C132 136.92 131.52 137.08 131.09 137.37C131.01 137.42 130.93 137.46 130.85 137.5C130.38 137.75 129.92 137.76 129.5 137.42C129.23 137.21 128.97 137.04 128.61 137.03C128.47 137.03 128.33 136.94 128.2 136.86C127.73 136.57 127.37 136.21 127.25 135.62C127.14 135.1 126.79 134.64 126.79 134.08C126.79 133.87 126.73 133.67 126.82 133.46C127 133.06 126.88 132.69 126.68 132.34C126.58 132.16 126.47 131.98 126.36 131.8C125.95 131.12 125.91 130.38 125.98 129.62C126 129.45 126.09 129.28 126.16 129.11C126.21 129 126.35 128.91 126.35 128.81C126.35 128.34 126.53 128.03 127.01 127.87C127.21 127.81 127.28 127.55 127.35 127.35C127.55 126.78 127.82 126.25 128.18 125.75C128.41 125.42 128.57 125.08 128.4 124.66C128.35 124.54 128.4 124.36 128.43 124.22C128.47 124.06 128.46 123.92 128.36 123.8C128.11 123.51 128.05 123.16 127.99 122.8C127.95 122.56 127.89 122.33 127.8 122.11C127.54 121.48 127.5 120.82 127.43 120.16C127.39 119.75 127.47 119.38 127.74 119.06C128.23 118.49 128.47 117.82 128.49 117L128.48 116.99ZM134.04 115.24C134.04 115.14 133.98 115.09 133.89 115.1C133.86 115.1 133.8 115.18 133.81 115.21C133.81 115.25 133.87 115.3 133.92 115.32C133.99 115.35 134.03 115.32 134.05 115.25L134.04 115.24ZM134.81 114.32C134.81 114.32 134.77 114.28 134.75 114.26C134.73 114.28 134.71 114.3 134.69 114.32C134.72 114.34 134.75 114.36 134.78 114.39C134.79 114.37 134.8 114.35 134.81 114.33V114.32Z" fill="#880808"/>
<path d="M73.46 22.48C73.43 22.86 73.4 23.13 73.38 23.39C73.33 23.96 73.29 24.53 73.23 25.1C73.15 25.91 73.41 26.58 73.97 27.15C74.69 27.88 75.32 28.69 75.97 29.48C76.26 29.84 76.48 30.21 76.5 30.69C76.53 31.33 76.8 31.91 77.09 32.47C77.21 32.71 77.34 32.95 77.49 33.18C77.61 33.37 77.56 33.52 77.41 33.65C76.52 34.44 75.53 35.04 74.36 35.33C73.15 35.63 71.97 35.48 70.81 35.09C70.52 34.99 70.39 34.82 70.39 34.49C70.4 32.83 70.39 31.18 70.4 29.52C70.4 28.64 70.6 27.79 70.81 26.94C70.96 26.33 71.14 25.72 71.32 25.12C71.6 24.18 72.42 23.14 73.46 22.48Z" fill="#38A750"/>
<path d="M61.24 114.95C60.99 114.52 60.95 114.06 60.88 113.62C60.73 112.52 60.55 111.42 60.77 110.3C60.94 109.46 61.18 109.21 62.02 109.19C62.69 109.18 63.33 109.06 63.98 108.9C64.01 108.9 64.09 108.95 64.09 108.98C64.09 109.03 64.07 109.11 64.03 109.14C63.93 109.2 63.82 109.26 63.71 109.29C63.42 109.36 63.24 109.56 63.12 109.81C62.94 110.16 62.76 110.5 62.46 110.77C62.3 110.92 62.22 111.11 62.21 111.33C62.19 111.66 62.11 111.98 61.96 112.28C61.88 112.44 61.83 112.62 61.82 112.8C61.77 113.55 61.47 114.23 61.24 114.96V114.95Z" fill="#38A750"/>
<path d="M85.37 47.1699C85.25 46.9899 85.35 46.8499 85.39 46.7199C85.62 45.9799 85.9 45.2399 86.09 44.4899C86.2 44.0399 86.45 43.9099 86.86 43.9299C87.07 43.9299 87.28 43.8999 87.49 43.8899C88.14 43.8599 88.22 43.9699 87.97 44.6099C87.62 45.5099 86.95 46.1499 86.2 46.7199C85.95 46.9099 85.7 47.1299 85.37 47.1699Z" fill="#38A750"/>
<path d="M87.4199 71.41C87.4499 71.48 87.4799 71.51 87.4699 71.53C87.3299 72.08 87.3099 72.72 86.9399 73.14C86.6199 73.51 86.0099 73.52 85.5399 73.69C85.3499 73.76 85.1399 73.94 84.9499 73.78C84.7099 73.59 84.5999 73.3 84.5299 73.01C84.4999 72.87 84.6199 72.8 84.7299 72.74C85.5799 72.29 86.4399 71.85 87.2899 71.41C87.3099 71.4 87.3499 71.41 87.4299 71.41H87.4199Z" fill="#38A750"/>
<path d="M72.6899 36.75C73.2599 37.4 73.8199 38.02 74.3599 38.64C74.2899 38.74 74.2699 38.8 74.2299 38.83C73.5499 39.2567 72.9199 39.1967 72.3399 38.65C71.5899 37.94 71.6699 38.12 72.1999 37.27C72.3099 37.1 72.3899 36.89 72.6899 36.75Z" fill="#38A750"/>
<path d="M73.11 99.7299C73.13 99.4899 73.21 99.4199 73.35 99.4199C73.38 99.4199 73.41 99.4199 73.44 99.4199C75.23 99.8599 75 99.3999 74.59 101.17C74.46 101.72 74.23 101.78 73.8 101.43C73.64 101.29 73.51 101.13 73.42 100.93C73.23 100.52 73.13 100.08 73.11 99.7199V99.7299Z" fill="#38A750"/>
<path d="M90.04 72.8299C90.63 73.6899 91.02 74.4099 91 75.2799C91 75.4599 90.88 75.5599 90.71 75.5099C90.36 75.4199 90.02 75.3199 89.68 75.2199C89.47 75.1499 89.43 75.0099 89.49 74.7999C89.66 74.1999 89.83 73.5999 90.04 72.8199V72.8299Z" fill="#38A750"/>
<path d="M87.12 68.3599C87 68.3599 86.88 68.3899 86.76 68.3799C86.68 68.3799 86.57 68.3599 86.53 68.2999C86.43 68.1599 86.56 68.0799 86.65 68.0099C86.86 67.8399 87.06 67.6399 87.3 67.5199C87.6 67.3699 87.77 67.7299 88.03 67.7799C88.1 67.7899 88.15 67.7999 88.18 67.7299C88.2 67.6799 88.21 67.6199 88.21 67.5699C88.21 67.5399 88.19 67.5199 88.18 67.4899C88.12 67.3299 87.88 67.2399 87.94 67.0299C88 66.7999 88.26 66.7799 88.42 66.6599C88.52 66.5899 88.63 66.5299 88.74 66.4999C88.83 66.4799 88.93 66.5599 88.92 66.6499C88.89 67.0099 88.78 67.3599 88.63 67.6899C88.58 67.7999 88.48 67.7399 88.4 67.7499C88.32 67.7599 88.17 67.7999 88.17 67.8199C88.17 68.3899 87.74 68.2999 87.4 68.3399C87.31 68.3499 87.22 68.3499 87.13 68.3599H87.12Z" fill="#38A750"/>
<path d="M87.17 79.51C86.5 79.5 86.49 79.5 86.36 78.83C86.29 78.45 86.22 78.07 86.16 77.68C86.16 77.64 86.2 77.57 86.23 77.55C86.27 77.53 86.36 77.54 86.39 77.57C86.75 77.96 87.12 78.35 87.47 78.77C87.63 78.96 87.98 79.12 87.82 79.41C87.7 79.63 87.38 79.49 87.17 79.52V79.51Z" fill="#38A750"/>
<path d="M78.93 41.8799C78.25 41.4399 77.99 40.7899 77.82 40.0799C77.76 39.8199 77.98 39.7199 78.17 39.6199C78.5 39.4399 78.63 39.4799 78.67 39.8199C78.76 40.4999 78.84 41.1899 78.93 41.8799Z" fill="#38A750"/>
<path d="M80.77 45.6899C81.37 45.8099 81.88 46.0399 82.4 46.2199C82.53 46.2699 82.57 46.3899 82.53 46.5099C82.43 46.7899 82.32 47.0599 82.21 47.3499C81.9 47.3299 81.81 47.0799 81.65 46.9299C81.46 46.7399 81.29 46.5399 81.12 46.3299C80.98 46.1599 80.77 46.0199 80.77 45.6899Z" fill="#38A750"/>
<path d="M95.56 46.4499C95.69 46.8499 95.67 47.2999 95.69 47.7399C95.71 48.2299 95.45 48.4299 94.97 48.3099C94.92 48.2999 94.86 48.2599 94.83 48.2199C94.59 47.8899 94.67 47.4899 95.02 47.2499C95.07 47.2199 95.13 47.1999 95.17 47.1599C95.23 47.1099 95.34 47.0599 95.28 46.9699C95.24 46.9099 95.13 46.8999 95.05 46.8799C94.97 46.8499 94.83 46.8499 94.81 46.7999C94.77 46.6699 94.87 46.5799 94.99 46.5499C95.16 46.5099 95.3 46.3599 95.55 46.4499H95.56Z" fill="#38A750"/>
<path d="M82.9 35.35C82.94 35.95 82.97 36.42 82.99 36.9C83 37.17 82.91 37.27 82.62 37.29C82.5 37.3 82.38 37.3 82.27 37.29C82.07 37.26 81.92 36.99 82.01 36.8C82.08 36.64 82.19 36.5 82.3 36.36C82.48 36.14 82.47 36 82.18 35.91C82.1 35.88 82.08 35.78 82.16 35.7C82.18 35.68 82.21 35.66 82.24 35.65C82.43 35.56 82.62 35.48 82.91 35.34L82.9 35.35Z" fill="#38A750"/>
<path d="M95.6999 69.56C95.6999 69.56 95.6999 69.67 95.6999 69.76C95.6999 70.21 95.6499 70.26 95.1799 70.26C94.9999 70.26 94.8099 70.26 94.7499 70.04C94.6899 69.81 94.6099 69.57 94.8299 69.38C94.8999 69.32 94.9799 69.29 95.0499 69.23C95.2799 69.05 95.2699 69.03 94.9499 68.88C94.8999 68.86 94.8399 68.83 94.8099 68.78C94.7899 68.75 94.8299 68.66 94.8599 68.64C94.9899 68.57 95.1299 68.51 95.2699 68.46C95.4999 68.38 95.5999 68.44 95.6299 68.69C95.6599 68.96 95.6699 69.22 95.6899 69.56H95.6999Z" fill="#38A750"/>
<path d="M86.39 55.9C86.36 55.59 86.54 55.43 86.69 55.25C86.74 55.19 86.85 55.14 86.92 55.14C87.42 55.2 87.93 55.22 88.41 55.39C88.45 55.41 88.5 55.48 88.5 55.52C88.5 55.57 88.44 55.64 88.4 55.65C87.74 55.77 87.07 55.88 86.39 55.89V55.9Z" fill="#38A750"/>
<path d="M60.76 117.95C60.71 117.52 60.68 117.15 60.61 116.79C60.53 116.4 60.58 116.08 60.93 115.84C61.02 115.78 61.06 115.64 61.24 115.63C61.23 116.42 61.19 117.2 60.76 117.95Z" fill="#38A750"/>
<path d="M85.54 38.7599C85.21 38.7399 85.11 38.5699 84.96 38.4699C84.37 38.0799 84.08 37.5799 84.43 36.8199C84.99 37.3399 85.24 38.0199 85.54 38.7599Z" fill="#38A750"/>
<path d="M87.5699 49.0599C87.6699 48.8299 87.7299 48.6899 87.7999 48.5599C87.8799 48.3899 87.9899 48.2599 88.2099 48.3199C88.3999 48.3699 88.5299 48.4599 88.5399 48.6699C88.5399 48.7899 88.5499 48.9099 88.5399 49.0199C88.5299 49.1099 88.4699 49.1899 88.3599 49.1799C88.1299 49.1499 87.8999 49.1099 87.5699 49.0499V49.0599Z" fill="#38A750"/>
<path d="M86.97 63.44C86.94 63.57 86.86 63.65 86.76 63.72C86.37 63.99 86.08 64.08 86.06 63.94C86.02 63.67 86.25 63.52 86.35 63.31C86.39 63.23 86.45 63.16 86.5 63.09C86.64 62.91 86.79 62.95 86.89 63.19C86.92 63.27 86.95 63.36 86.97 63.44Z" fill="#38A750"/>
<path d="M87.83 59.2599C87.7 59.2399 87.61 59.2299 87.52 59.2099C87.43 59.1899 87.35 59.1299 87.36 59.0299C87.36 58.9799 87.39 58.9099 87.43 58.8799C87.55 58.7899 87.67 58.6999 87.81 58.6399C87.98 58.5599 88.13 58.2899 88.35 58.4899C88.5 58.6299 88.33 58.8199 88.28 58.9899C88.22 59.2399 88.03 59.3099 87.84 59.2699L87.83 59.2599Z" fill="#38A750"/>
<path d="M90.82 59.6699C90.54 59.6199 90.3 59.59 90.07 59.54C90.03 59.54 89.97 59.46 89.98 59.43C89.98 59.38 90.04 59.3099 90.08 59.2999C90.37 59.2599 90.67 59.22 90.97 59.2C91.06 59.2 91.15 59.26 91.13 59.36C91.12 59.44 91.08 59.54 91.02 59.59C90.96 59.64 90.87 59.65 90.83 59.66L90.82 59.6699Z" fill="#38A750"/>
<path d="M79.4 46C79.08 45.66 78.88 45.45 78.68 45.23C78.65 45.2 78.65 45.11 78.68 45.07C78.7 45.03 78.78 44.99 78.82 44.99C79.32 45.04 79.39 45.15 79.4 46Z" fill="#38A750"/>
<path d="M54.4999 84.52L54.4399 84.53H54.4799L54.4999 84.52Z" fill="#38A750"/>
<path d="M80.79 84.78C80.86 84.76 80.97 84.69 81 84.72C81.09 84.8 81.05 84.9199 81 85.0199C80.93 84.9399 80.86 84.86 80.8 84.79L80.79 84.78Z" fill="#38A750"/>
<path d="M124.9 59.06C124.9 59.06 124.81 59.13 124.76 59.16C124.74 59.16 124.69 59.16 124.69 59.15C124.66 59.09 124.69 59.04 124.77 59.05C124.82 59.05 124.87 59.08 124.92 59.09L124.91 59.07L124.9 59.06Z" fill="#38A750"/>
</svg>
